<?xml version="1.0" encoding="UTF-8"?>
<svg width="40" height="40" version="1.1" xml:space="preserve" xmlns="http://www.w3.org/2000/svg" xmlns:xlink="http://www.w3.org/1999/xlink"><defs><path id="a" d="m59.4 136.5h28v13h-28z"/></defs><clipPath><use overflow="visible" xlink:href="#a"/></clipPath><defs><path id="c" d="m138.44 131.5h22v22h-22z"/></defs><clipPath><use overflow="visible" xlink:href="#c"/></clipPath><path d="m21.163 31.426c-6.8926 0-12.5-5.5249-12.5-12.314 0-3.2874 1.3001-6.38 3.6608-8.7058l5.2042 5.1252c-0.9696 0.95757-1.5057 2.2284-1.5057 3.5806 0 2.7931 2.3057 5.0639 5.1412 5.0639 2.8326 0 5.1401-2.2708 5.1401-5.0639 0-1.3522-0.53434-2.623-1.5057-3.5794l5.2042-5.1263c2.3601 2.3269 3.6608 5.4173 3.6608 8.7058-0.0023 6.7895-5.6091 12.314-12.5 12.314z" fill="#22bcb9" stroke-width=".57271"/><path d="m24.796 15.531a5.1464 5.1464 0 0 0-3.6344-1.4828c-1.3734 0-2.6637 0.5269-3.6356 1.4828l-5.2042-5.1252c2.3607-2.3269 5.5003-3.6064 8.8398-3.6064 3.3378 0 6.4779 1.28 8.8387 3.6075z" fill="#eb4d44" stroke-width=".57271"/></svg>
