<svg width="55" height="55" viewBox="0 0 55 55" fill="none" xmlns="http://www.w3.org/2000/svg">
<circle cx="27.5" cy="27.5" r="27.5" fill="#FACBCA"/>
<path d="M27 42C27.5523 42 28 41.5523 28 41C28 40.4477 27.5523 40 27 40C26.4477 40 26 40.4477 26 41C26 41.5523 26.4477 42 27 42Z" fill="#444444"/>
<path fill-rule="evenodd" clip-rule="evenodd" d="M25 41C25 39.8954 25.8954 39 27 39C28.1046 39 29 39.8954 29 41C29 42.1046 28.1046 43 27 43C25.8954 43 25 42.1046 25 41Z" fill="#444444"/>
<path fill-rule="evenodd" clip-rule="evenodd" d="M27.9737 12.0003C27.9825 12.0001 27.9912 12 27.9999 12C30.9273 12 33.2113 12.801 34.7639 14.3289C36.3171 15.8574 36.9999 17.9774 36.9999 20.333C36.9999 24.0866 34.4824 26.2745 32.3334 28.1421C32.2741 28.1936 32.2151 28.2449 32.1565 28.2959C29.8684 30.2875 27.9999 32.0102 27.9999 35C27.9999 35.5523 27.5522 36 26.9999 36C26.4477 36 25.9999 35.5523 25.9999 35C25.9999 31.0029 28.6144 28.7274 30.8217 26.8062L30.8434 26.7873C33.1582 24.7725 34.9999 23.1428 34.9999 20.333C34.9999 18.3556 34.4328 16.8091 33.361 15.7544C32.2904 14.7008 30.5784 14.0024 28.013 14C25.262 14.0742 22.5659 14.7871 20.1376 16.0823C19.6503 16.3423 19.0445 16.1579 18.7846 15.6706C18.5247 15.1833 18.709 14.5776 19.1963 14.3177C21.9025 12.8742 24.9077 12.0808 27.9737 12.0003Z" fill="#444444"/>
</svg>
