<svg width="60" height="60" viewBox="0 0 60 60" fill="none" xmlns="http://www.w3.org/2000/svg">
<g clip-path="url(#clip0_690_18886)">
<path d="M0 8C0 3.58172 3.58172 0 8 0H52C56.4183 0 60 3.58172 60 8V52C60 56.4183 56.4183 60 52 60H8C3.58172 60 0 56.4183 0 52V8Z" fill="#5562D8"/>
<path d="M19.5 12C15.3579 12 12 15.3579 12 19.5V30.8333C12 32.214 13.1193 33.3333 14.5 33.3333C15.8807 33.3333 17 32.214 17 30.8333V19.5C17 18.1193 18.1193 17 19.5 17H39.6985C41.0792 17 42.1985 18.1193 42.1985 19.5V30.8333C42.1985 32.214 43.3178 33.3333 44.6985 33.3333C46.0792 33.3333 47.1985 32.214 47.1985 30.8333V19.5C47.1985 15.3579 43.8406 12 39.6985 12H19.5Z" fill="white"/>
<path d="M22.1326 21.1562C20.8382 21.1562 19.7888 22.2056 19.7888 23.5C19.7888 24.7944 20.8382 25.8438 22.1326 25.8438L36.4022 25.8438C37.6966 25.8438 38.7459 24.7944 38.7459 23.5C38.7459 22.2056 37.6966 21.1563 36.4022 21.1563L22.1326 21.1562Z" fill="white"/>
<path d="M19.7888 31.8333C19.7888 30.5389 20.8382 29.4896 22.1326 29.4896L36.4022 29.4896C37.6966 29.4896 38.7459 30.5389 38.7459 31.8333C38.7459 33.1277 37.6966 34.1771 36.4022 34.1771L22.1326 34.1771C20.8382 34.1771 19.7888 33.1277 19.7888 31.8333Z" fill="white"/>
<path d="M15.7902 38.8766C14.7095 38.1641 13.2558 38.4625 12.5433 39.5432C11.8308 40.6239 12.1292 42.0775 13.2099 42.79L18.0409 45.9753C20.4933 47.5923 23.6734 47.5923 26.1258 45.9753L28.2045 44.6047C29.0916 44.0199 30.2418 44.0199 31.1288 44.6047L33.2076 45.9753C35.66 47.5923 38.84 47.5923 41.2924 45.9753L46.1235 42.79C47.2041 42.0775 47.5026 40.6239 46.7901 39.5432C46.0775 38.4625 44.6239 38.1641 43.5432 38.8766L38.7122 42.0619C37.8251 42.6468 36.6749 42.6468 35.7879 42.0619L33.7091 40.6913C31.2567 39.0743 28.0767 39.0743 25.6243 40.6913L23.5455 42.0619C22.6585 42.6468 21.5082 42.6468 20.6212 42.0619L15.7902 38.8766Z" fill="white"/>
</g>
<defs>
<clipPath id="clip0_690_18886">
<rect width="60" height="60" fill="white"/>
</clipPath>
</defs>
</svg>
