<svg width="16" height="16" viewBox="0 0 16 16" fill="none" xmlns="http://www.w3.org/2000/svg">
<path d="M14.9971 15H13.8333C13.8333 13.1893 13.9027 12.9292 12.8061 12.6748C11.1278 12.2875 9.54292 11.9217 8.96542 10.6577C8.75483 10.1962 8.61483 9.43558 9.14625 8.43283C10.3374 6.18292 10.6361 4.25325 9.96467 3.1385C9.18242 1.83825 6.80708 1.83125 6.01783 3.15833C5.34467 4.28825 5.64742 6.20742 6.8485 8.42292C7.391 9.42158 7.25508 10.1846 7.04567 10.6483C6.47283 11.9188 4.90192 12.2811 3.23942 12.6643C2.09375 12.9292 2.16667 13.1718 2.16667 15H1.00292L1 14.2761C1 12.8061 1.11608 11.9573 2.85383 11.556C4.81675 11.1028 6.75517 10.6967 5.823 8.97883C3.06208 3.88692 5.0355 1 8 1C10.9067 1 12.9297 3.78017 10.177 8.97883C9.27225 10.6868 11.1395 11.0928 13.1462 11.556C14.8839 11.9573 15 12.8061 15 14.2761L14.9971 15ZM7.13492 11.5L7.66575 12.6667H8.34475L8.88142 11.5H7.13492ZM8.882 15L8.47133 13.25H7.52925L7.11858 15H8.882V15Z" fill="#2B2B2B"/>
</svg>
