<svg width="19" height="19" viewBox="0 0 19 19" fill="none" xmlns="http://www.w3.org/2000/svg">
<path d="M7.5 15C8.1 15 8.5 14.6 8.5 14V7C8.5 6.4 8.1 6 7.5 6C6.9 6 6.5 6.4 6.5 7V14C6.5 14.6 6.9 15 7.5 15Z" fill="#2B2B2B"/>
<path d="M11.5 15C12.1 15 12.5 14.6 12.5 14V7C12.5 6.4 12.1 6 11.5 6C10.9 6 10.5 6.4 10.5 7V14C10.5 14.6 10.9 15 11.5 15Z" fill="#2B2B2B"/>
<path d="M18 2H17.5H12.5V0H6.5V2H1.5H1C0.4 2 0 2.4 0 3C0 3.6 0.4 4 1 4H1.6L2.4 17.1C2.5 18.2 3.3 19 4.4 19H14.6C15.7 19 16.5 18.2 16.6 17.1L17.4 4H18C18.6 4 19 3.6 19 3C19 2.4 18.6 2 18 2ZM14.6 17H4.4L3.6 4H15.4L14.6 17Z" fill="#2B2B2B"/>
</svg>
