<svg width="183" height="150" viewBox="0 0 183 150" fill="none" xmlns="http://www.w3.org/2000/svg">
<path fill-rule="evenodd" clip-rule="evenodd" d="M44.8312 40H91.2759H137.721L159.552 75.8132L91.2759 150L23 75.8132L44.8312 40Z" fill="#DAEEFF"/>
<path opacity="0.2" d="M155.781 75.427L136.231 43.2615L114.5 76L93.5801 143.089L155.781 75.427Z" fill="#006DCB"/>
<path opacity="0.2" d="M156.5 76H26L91.5 147L156.5 76Z" fill="#006DCB"/>
<path opacity="0.2" d="M26.7925 75.427L46.343 43.2615L68.0737 76L88.9937 143.089L26.7925 75.427Z" fill="#006DCB"/>
<path d="M24.869 75.629L45.6736 41.5H91.2759H136.878L157.683 75.629L91.2759 147.785L24.869 75.629Z" stroke="#2B2B2B" stroke-width="3"/>
<path d="M157.292 75.2917H25.2917" stroke="#2B2B2B" stroke-width="3"/>
<path d="M45 42.2917L67.4583 75.2917" stroke="#2B2B2B" stroke-width="3"/>
<path d="M90.375 42.2917L67.9167 75.2917" stroke="#2B2B2B" stroke-width="3"/>
<path d="M91.75 42.2917L114.208 75.2917" stroke="#2B2B2B" stroke-width="3"/>
<path d="M137.125 42.2917L114.667 75.2917" stroke="#2B2B2B" stroke-width="3"/>
<path d="M67.9165 75.75L91.2915 146.792" stroke="#2B2B2B" stroke-width="3"/>
<path d="M114.208 75.75L91.7502 146.792" stroke="#2B2B2B" stroke-width="3"/>
<path fill-rule="evenodd" clip-rule="evenodd" d="M155.913 51.2051C155.206 45.4343 154.853 42.549 153.55 40.273C152.4 38.2649 150.735 36.6 148.727 35.4503C146.451 34.1473 143.566 33.794 137.795 33.0873L131 32.2553L137.526 31.4562C143.386 30.7387 146.316 30.3799 148.613 29.0496C150.64 27.8761 152.313 26.1767 153.454 24.1311C154.747 21.8122 155.059 18.8771 155.682 13.0069L156.745 3L157.807 13.0069C158.431 18.8771 158.742 21.8122 160.036 24.1311C161.177 26.1767 162.849 27.8761 164.876 29.0496C167.174 30.3799 170.104 30.7387 175.963 31.4562L182.489 32.2553L175.694 33.0873C169.924 33.794 167.038 34.1473 164.762 35.4503C162.754 36.6 161.089 38.2649 159.94 40.273C158.637 42.549 158.283 45.4343 157.577 51.2051L156.745 58L155.913 51.2051Z" fill="#006DCB"/>
<path fill-rule="evenodd" clip-rule="evenodd" d="M123.418 29.3746C123.066 25.6356 122.889 23.7661 122.074 22.2995C121.355 21.0063 120.291 19.9378 119.001 19.2129C117.538 18.3908 115.67 18.2063 111.932 17.8372L108 17.4488L112.187 17.0353C115.841 16.6744 117.667 16.494 119.11 15.697C120.382 14.9941 121.439 13.9578 122.167 12.6994C122.992 11.2728 123.208 9.44977 123.64 5.80375L123.854 4L124.08 5.91275C124.508 9.52287 124.722 11.3279 125.536 12.7458C126.254 13.9966 127.297 15.0299 128.554 15.7366C129.979 16.5377 131.786 16.7353 135.4 17.1304L138.312 17.4488L135.652 17.7396C131.955 18.1438 130.107 18.3459 128.661 19.1722C127.387 19.9009 126.337 20.9663 125.628 22.2518C124.823 23.7095 124.649 25.5607 124.3 29.2632L123.854 34L123.418 29.3746Z" fill="#006DCB"/>
<path fill-rule="evenodd" clip-rule="evenodd" d="M28.4908 134.5C27.9527 130.307 27.6836 128.211 26.7461 126.528C25.9185 125.042 24.7256 123.792 23.2802 122.896C21.6431 121.881 19.5615 121.514 15.3983 120.78L10 119.828L16.0888 118.755C20.0202 118.062 21.9859 117.716 23.563 116.775C24.9562 115.945 26.1264 114.787 26.9728 113.404C27.9308 111.837 28.2993 109.876 29.0364 105.952L29.9667 101L30.8956 105.944C31.6331 109.87 32.0019 111.833 32.9608 113.4C33.8078 114.785 34.9791 115.942 36.3735 116.773C37.952 117.713 39.9192 118.058 43.8537 118.749L50 119.828L44.5446 120.786C40.3782 121.518 38.295 121.883 36.6565 122.898C35.2099 123.794 34.016 125.045 33.1876 126.531C32.2493 128.215 31.98 130.313 31.4416 134.508L29.9667 146L28.4908 134.5Z" fill="#006DCB"/>
</svg>
