<svg width="60" height="60" viewBox="0 0 60 60" fill="none" xmlns="http://www.w3.org/2000/svg">
<g clip-path="url(#clip0_690_18891)">
<path d="M0 8C0 3.58172 3.58172 0 8 0H52C56.4183 0 60 3.58172 60 8V52C60 56.4183 56.4183 60 52 60H8C3.58172 60 0 56.4183 0 52V8Z" fill="#FF5900"/>
<path fill-rule="evenodd" clip-rule="evenodd" d="M29.5 29.3334C34.0103 29.3334 37.6667 25.677 37.6667 21.1667C37.6667 16.6564 34.0103 13 29.5 13C24.9897 13 21.3333 16.6564 21.3333 21.1667C21.3333 25.677 24.9897 29.3334 29.5 29.3334ZM29.5 24.3334C31.2489 24.3334 32.6667 22.9156 32.6667 21.1667C32.6667 19.4178 31.2489 18 29.5 18C27.7511 18 26.3333 19.4178 26.3333 21.1667C26.3333 22.9156 27.7511 24.3334 29.5 24.3334Z" fill="white"/>
<path fill-rule="evenodd" clip-rule="evenodd" d="M19.1667 48C23.677 48 27.3333 44.3437 27.3333 39.8334C27.3333 35.323 23.677 31.6667 19.1667 31.6667C14.6563 31.6667 11 35.323 11 39.8334C11 44.3437 14.6563 48 19.1667 48ZM19.1667 43C20.9156 43 22.3333 41.5823 22.3333 39.8334C22.3333 38.0845 20.9156 36.6667 19.1667 36.6667C17.4178 36.6667 16 38.0845 16 39.8334C16 41.5823 17.4178 43 19.1667 43Z" fill="white"/>
<path fill-rule="evenodd" clip-rule="evenodd" d="M47.6667 39.8334C47.6667 44.3437 44.0103 48 39.5 48C34.9897 48 31.3333 44.3437 31.3333 39.8334C31.3333 35.323 34.9897 31.6667 39.5 31.6667C44.0103 31.6667 47.6667 35.323 47.6667 39.8334ZM42.6667 39.8334C42.6667 41.5823 41.2489 43 39.5 43C37.7511 43 36.3333 41.5823 36.3333 39.8334C36.3333 38.0845 37.7511 36.6667 39.5 36.6667C41.2489 36.6667 42.6667 38.0845 42.6667 39.8334Z" fill="white"/>
</g>
<defs>
<clipPath id="clip0_690_18891">
<rect width="60" height="60" fill="white"/>
</clipPath>
</defs>
</svg>
