<svg width="108" height="150" viewBox="0 0 108 150" fill="none" xmlns="http://www.w3.org/2000/svg">
<path d="M77.5821 105.428C77.2978 105.15 76.9149 104.996 76.5172 105C76.1194 105.004 75.7397 105.166 75.4615 105.451L55.5333 125.822V63.4998C55.5333 63.1019 55.3751 62.7204 55.0938 62.4391C54.8125 62.1578 54.4311 61.9998 54.0333 61.9998C53.6355 61.9998 53.254 62.1578 52.9727 62.4391C52.6914 62.7204 52.5333 63.1019 52.5333 63.4998V125.822L32.6051 105.451C32.4672 105.31 32.3029 105.198 32.1217 105.12C31.9404 105.043 31.746 105.002 31.5489 105C31.3519 104.998 31.1561 105.035 30.9732 105.109C30.7904 105.182 30.6243 105.291 30.4835 105.429C30.3427 105.567 30.2302 105.731 30.1529 105.912C30.0756 106.093 30.0348 106.288 30.0328 106.485C30.0308 106.682 30.0677 106.878 30.1412 107.061C30.2147 107.243 30.3236 107.41 30.4615 107.551L54.0333 131.651L77.6051 107.551C77.7431 107.41 77.8523 107.243 77.9259 107.06C77.9994 106.877 78.0359 106.682 78.0338 106.484C78.0316 106.287 77.9907 106.092 77.9132 105.911C77.8357 105.73 77.7232 105.566 77.5821 105.428Z" fill="#C4C4C4"/>
<path d="M102.467 36.9998H78.533V39.9998H99.5989L104.058 138.093C104.11 139.243 103.929 140.392 103.525 141.47C103.121 142.548 102.502 143.533 101.707 144.366C100.911 145.198 99.9554 145.861 98.8967 146.314C97.838 146.766 96.6986 147 95.5471 147H11.5188C10.3673 147 9.22797 146.766 8.1692 146.314C7.11043 145.861 6.15414 145.198 5.35866 144.365C4.56318 143.533 3.94485 142.548 3.54079 141.469C3.13672 140.391 2.95563 139.242 3.00807 138.092L7.46705 39.9998H32.533V53.4998C32.533 53.8976 32.6911 54.2791 32.9724 54.5604C33.2537 54.8417 33.6352 54.9998 34.033 54.9998C34.4308 54.9998 34.8122 54.8417 35.0935 54.5604C35.3748 54.2791 35.533 53.8976 35.533 53.4998V21.9898C35.533 11.9508 43.3228 3.37179 53.3548 3.01179C55.8389 2.92347 58.3157 3.33615 60.637 4.22523C62.9583 5.11431 65.0769 6.46157 66.8665 8.18678C68.6561 9.91199 70.08 11.9798 71.0535 14.267C72.027 16.5542 72.5303 19.014 72.533 21.4998V36.9998H38.533V39.9998H72.533V53.4998C72.533 53.8976 72.6911 54.2791 72.9724 54.5604C73.2537 54.8417 73.6351 54.9998 74.033 54.9998C74.4308 54.9998 74.8122 54.8417 75.0935 54.5604C75.3748 54.2791 75.533 53.8976 75.533 53.4998V21.4998C75.5297 18.6105 74.945 15.7515 73.8132 13.0931C72.6815 10.4347 71.0259 8.03133 68.9456 6.02632C66.8652 4.0213 64.4027 2.45566 61.7044 1.42268C59.0061 0.389696 56.1274 -0.0894859 53.24 0.0137423C41.584 0.435742 32.533 10.3998 32.533 22.0638V36.9998H4.59889L0.0119764 137.956C-0.0589821 139.511 0.185917 141.065 0.732191 142.522C1.27847 143.98 2.11469 145.312 3.1902 146.438C4.26571 147.564 5.5585 148.46 6.99 149.072C8.4215 149.684 9.96192 150 11.5188 150H95.5471C97.1039 150 98.6445 149.684 100.076 149.072C101.507 148.46 102.8 147.564 103.875 146.438C104.951 145.313 105.787 143.981 106.333 142.523C106.88 141.065 107.125 139.512 107.054 137.957L102.467 36.9998Z" fill="#C4C4C4"/>
</svg>
