<svg width="40" height="35" viewBox="0 0 40 35" fill="none" xmlns="http://www.w3.org/2000/svg">
<path d="M18 12H16V14H18V12Z" fill="white"/>
<path d="M24 14H26V12H24H22V14H24Z" fill="white"/>
<path d="M18 14V16H20H22V14H20H18Z" fill="white"/>
<path d="M14 18H16H18V16H16V14H14V12H12V14V16H14V18Z" fill="white"/>
<path d="M14 18H12V20H14V18Z" fill="white"/>
<path d="M14 22H12V24H14V22Z" fill="white"/>
<path d="M16 24H14V26H16V24Z" fill="white"/>
<path d="M18 20H16H14V22H16V24H18V22V20Z" fill="white"/>
<path d="M20 18H18V20H20V18Z" fill="white"/>
<path d="M22 20H20V22H22V20Z" fill="white"/>
<path d="M22 20H24V18H26V16H24H22V18V20Z" fill="white"/>
<path d="M24 22H22V24H24V22Z" fill="white"/>
<path d="M18 24V26H20H22V24H20H18Z" fill="white"/>
<path d="M26 20H24V22H26V20Z" fill="white"/>
<path d="M26 24H24V26H26V24Z" fill="white"/>
<path d="M23 10H26V8H23H21H10H8V10V26H10V22H12V20H10V18H12V16H10V12H12V10H14V12H16V10H18V12H20H22V10H23Z" fill="white"/>
<path d="M2 6C2 3.8 3.8 2 6 2H7C7.6 2 8 1.6 8 1C8 0.4 7.6 0 7 0H6C2.7 0 0 2.7 0 6V7C0 7.6 0.4 8 1 8C1.6 8 2 7.6 2 7V6Z" fill="white"/>
<path d="M6 32C3.8 32 2 30.2 2 28V27C2 26.4 1.6 26 1 26C0.4 26 0 26.4 0 27V28C0 31.3 2.7 34 6 34H7C7.6 34 8 33.6 8 33C8 32.4 7.6 32 7 32H6Z" fill="white"/>
<path d="M28 0H27C26.4 0 26 0.4 26 1C26 1.6 26.4 2 27 2H28C30.2 2 32 3.8 32 6V7C32 7.6 32.4 8 33 8C33.6 8 34 7.6 34 7V6C34 2.7 31.3 0 28 0Z" fill="white"/>
<path d="M32 28C32 30.2 30.2 32 28 32H27C26.4 32 26 32.4 26 33C26 33.6 26.4 34 27 34H28C31.3 34 34 31.3 34 28V27C34 26.4 33.6 26 33 26C32.4 26 32 26.4 32 27V28Z" fill="white"/>
</svg>
