<svg width="54" height="54" viewBox="0 0 54 54" fill="none" xmlns="http://www.w3.org/2000/svg">
<rect width="54" height="54" rx="27" fill="#FFE9CB"/>
<path d="M17.5 21C19.433 21 21 19.433 21 17.5C21 15.567 19.433 14 17.5 14C15.567 14 14 15.567 14 17.5C14 19.433 15.567 21 17.5 21Z" stroke="#444444" stroke-width="2" stroke-miterlimit="10" stroke-linecap="round" stroke-linejoin="round"/>
<path d="M25 31.5333C20.5222 29.3755 20.7692 25 17.3846 25C16.4964 25.0328 15.6527 25.4367 15.0243 26.1298C14.3959 26.823 14.0298 27.7536 14 28.7333V39H20V32.4667" stroke="#444444" stroke-width="2" stroke-miterlimit="10" stroke-linecap="round" stroke-linejoin="round"/>
<path d="M30 31.5333C34.4778 29.3755 34.2308 25 37.6154 25C38.5036 25.0328 39.3473 25.4367 39.9757 26.1298C40.6041 26.823 40.9702 27.7536 41 28.7333V39H35V32.4667" stroke="#444444" stroke-width="2" stroke-miterlimit="10" stroke-linecap="round" stroke-linejoin="round"/>
<path d="M37.5 21C39.433 21 41 19.433 41 17.5C41 15.567 39.433 14 37.5 14C35.567 14 34 15.567 34 17.5C34 19.433 35.567 21 37.5 21Z" stroke="#444444" stroke-width="2" stroke-miterlimit="10" stroke-linecap="round" stroke-linejoin="round"/>
</svg>
