<svg width="16" height="16" viewBox="0 0 16 16" fill="none" xmlns="http://www.w3.org/2000/svg">
<path d="M13.1964 2.4L13.6662 2.22899C13.6043 2.05903 13.4555 1.93573 13.277 1.90655C13.0985 1.87737 12.9182 1.94686 12.8054 2.08826L13.1964 2.4ZM14.5644 6.15877L14.4654 6.64886C14.6426 6.6847 14.8254 6.62201 14.9434 6.48492C15.0614 6.34783 15.0961 6.15772 15.0343 5.98776L14.5644 6.15877ZM2.77509 8.85347L10.976 5.86857L10.634 4.92888L2.43307 7.91378L2.77509 8.85347ZM11.196 5.71046L13.5873 2.71174L12.8054 2.08826L10.4141 5.08699L11.196 5.71046ZM12.7265 2.57101L14.0946 6.32978L15.0343 5.98776L13.6662 2.22899L12.7265 2.57101ZM14.6635 5.66869L10.9041 4.90864L10.706 5.88881L14.4654 6.64886L14.6635 5.66869Z" fill="#2B2B2B"/>
<path d="M1.96323 8.08479L2.30525 9.02449" stroke="#2B2B2B" stroke-linecap="square" stroke-linejoin="round"/>
<path d="M4.35563 8.81029C4.16674 8.29131 4.43433 7.71747 4.9533 7.52858L8.52414 6.2289C9.04311 6.04001 9.61696 6.3076 9.80585 6.82657V6.82657C9.99474 7.34555 9.72715 7.91939 9.20818 8.10829L5.63734 9.40796C5.11837 9.59686 4.54452 9.32927 4.35563 8.81029V8.81029Z" stroke="#2B2B2B"/>
<mask id="path-5-inside-1" fill="white">
<path d="M9.59473 7.43002L4.59473 9.25002V14.31L7.09473 12.81L9.59473 14.27V7.43002Z"/>
</mask>
<path d="M4.59473 9.25002L4.25268 8.31034L3.59473 8.54983V9.25002H4.59473ZM9.59473 7.43002H10.5947C10.5947 7.10375 10.4356 6.79799 10.1683 6.61086C9.90103 6.42372 9.55927 6.37873 9.25268 6.49033L9.59473 7.43002ZM9.59473 14.27L9.09043 15.1335C9.39971 15.3141 9.78196 15.3156 10.0926 15.1373C10.4032 14.959 10.5947 14.6281 10.5947 14.27H9.59473ZM7.09473 12.81L7.59902 11.9465L7.08784 11.648L6.58023 11.9525L7.09473 12.81ZM4.59473 14.31H3.59473C3.59473 14.6703 3.78852 15.0027 4.10203 15.1802C4.41554 15.3577 4.80029 15.3529 5.10922 15.1675L4.59473 14.31ZM4.93677 10.1897L9.93677 8.3697L9.25268 6.49033L4.25268 8.31034L4.93677 10.1897ZM8.59473 7.43002V14.27H10.5947V7.43002H8.59473ZM10.099 13.4065L7.59902 11.9465L6.59043 13.6735L9.09043 15.1335L10.099 13.4065ZM6.58023 11.9525L4.08023 13.4525L5.10922 15.1675L7.60922 13.6675L6.58023 11.9525ZM5.59473 14.31V9.25002H3.59473V14.31H5.59473Z" fill="#2B2B2B" mask="url(#path-5-inside-1)"/>
</svg>
