<svg width="72" height="72" viewBox="0 0 72 72" fill="none" xmlns="http://www.w3.org/2000/svg">
<path d="M4.5 54.5V18.5C4.5 17.4391 4.92143 16.4217 5.67157 15.6716C6.42172 14.9214 7.43913 14.5 8.5 14.5H60.5C61.5609 14.5 62.5783 14.9214 63.3284 15.6716C64.0786 16.4217 64.5 17.4391 64.5 18.5V54.5C64.5 55.5609 64.0786 56.5783 63.3284 57.3284C62.5783 58.0786 61.5609 58.5 60.5 58.5H8.5C7.43913 58.5 6.42172 58.0786 5.67157 57.3284C4.92143 56.5783 4.5 55.5609 4.5 54.5Z" stroke="black" stroke-width="3" stroke-miterlimit="10" stroke-linecap="square"/>
<path d="M14.5 48.5H38.5" stroke="black" stroke-width="3" stroke-miterlimit="10" stroke-linecap="square"/>
<path d="M46.5 48.5H54.5" stroke="black" stroke-width="3" stroke-miterlimit="10" stroke-linecap="square"/>
<path d="M24.5 24.5H14.5V32.5H24.5V24.5Z" stroke="black" stroke-width="3" stroke-miterlimit="10" stroke-linecap="square"/>
<path d="M42.5 32.5C43.6046 32.5 44.5 31.6046 44.5 30.5C44.5 29.3954 43.6046 28.5 42.5 28.5C41.3954 28.5 40.5 29.3954 40.5 30.5C40.5 31.6046 41.3954 32.5 42.5 32.5Z" fill="black"/>
<path d="M47.52 33.4488C48.1572 32.5973 48.5015 31.5624 48.5015 30.4988C48.5015 29.4353 48.1572 28.4004 47.52 27.5488" stroke="black" stroke-width="3" stroke-miterlimit="10" stroke-linecap="square"/>
<path d="M52.361 37C53.7512 35.118 54.5013 32.8398 54.5013 30.5C54.5013 28.1602 53.7512 25.882 52.361 24" stroke="black" stroke-width="3" stroke-miterlimit="10" stroke-linecap="square"/>
</svg>
