<svg width="16" height="16" viewBox="0 0 16 16" fill="none" xmlns="http://www.w3.org/2000/svg">
<path d="M3 3H10V13H3V3Z" fill="#FFDB79"/>
<path d="M3 2H5C5.55228 2 6 2.44772 6 3H3V2Z" fill="#FFDB79"/>
<path d="M10 2H8C7.44772 2 7 2.44772 7 3H10V2Z" fill="#FFDB79"/>
<path d="M3 14H5C5.55228 14 6 13.5523 6 13H3V14Z" fill="#FFDB79"/>
<path d="M10 14H8C7.44772 14 7 13.5523 7 13H10V14Z" fill="#FFDB79"/>
<path fill-rule="evenodd" clip-rule="evenodd" d="M4.5 2H3V1H4.5C4.74668 1 5.10557 1.06989 5.41715 1.29423C5.75423 1.53693 6 1.93704 6 2.5C6 2.73704 6.08757 2.83693 6.16715 2.89423C6.27223 2.96989 6.41334 3 6.5 3V4C6.25332 4 5.89443 3.93011 5.58285 3.70577C5.24577 3.46307 5 3.06296 5 2.5C5 2.26296 4.91243 2.16307 4.83285 2.10577C4.72777 2.03011 4.58666 2 4.5 2Z" fill="#C05F00"/>
<path fill-rule="evenodd" clip-rule="evenodd" d="M8.5 2H10V1H8.5C8.25332 1 7.89443 1.06989 7.58285 1.29423C7.24577 1.53693 7 1.93704 7 2.5C7 2.73704 6.91243 2.83693 6.83285 2.89423C6.72777 2.96989 6.58666 3 6.5 3V4C6.74668 4 7.10557 3.93011 7.41715 3.70577C7.75423 3.46307 8 3.06296 8 2.5C8 2.26296 8.08757 2.16307 8.16715 2.10577C8.27223 2.03011 8.41334 2 8.5 2Z" fill="#C05F00"/>
<path fill-rule="evenodd" clip-rule="evenodd" d="M4.5 14H3V15H4.5C4.74668 15 5.10557 14.9301 5.41715 14.7058C5.75423 14.4631 6 14.063 6 13.5C6 13.263 6.08757 13.1631 6.16715 13.1058C6.27223 13.0301 6.41334 13 6.5 13V12C6.25332 12 5.89443 12.0699 5.58285 12.2942C5.24577 12.5369 5 12.937 5 13.5C5 13.737 4.91243 13.8369 4.83285 13.8942C4.72777 13.9699 4.58666 14 4.5 14Z" fill="#C05F00"/>
<path fill-rule="evenodd" clip-rule="evenodd" d="M8.5 14H10V15H8.5C8.25332 15 7.89443 14.9301 7.58285 14.7058C7.24577 14.4631 7 14.063 7 13.5C7 13.263 6.91243 13.1631 6.83285 13.1058C6.72777 13.0301 6.58666 13 6.5 13V12C6.74668 12 7.10557 12.0699 7.41715 12.2942C7.75423 12.5369 8 12.937 8 13.5C8 13.737 8.08757 13.8369 8.16715 13.8942C8.27223 13.9699 8.41334 14 8.5 14Z" fill="#C05F00"/>
<path d="M2 2C2 1.44772 2.44772 1 3 1V15C2.44772 15 2 14.5523 2 14V2Z" fill="#C05F00"/>
<path d="M11 2C11 1.44772 10.5523 1 10 1V15C10.5523 15 11 14.5523 11 14V2Z" fill="#C05F00"/>
<rect x="3" y="5" width="1" height="1" fill="#C05F00"/>
<rect x="5" y="5" width="1" height="1" fill="#C05F00"/>
<rect x="7" y="5" width="1" height="1" fill="#C05F00"/>
<rect x="9" y="5" width="1" height="1" fill="#C05F00"/>
<path fill-rule="evenodd" clip-rule="evenodd" d="M11 13.9776V3.02242C8.19675 3.27503 6 5.63097 6 8.49999C6 11.369 8.19675 13.725 11 13.9776Z" fill="white"/>
<circle cx="11.5" cy="8.5" r="4.5" fill="#E83636"/>
<rect x="11" y="6" width="1" height="3" fill="white"/>
<rect x="11" y="10" width="1" height="1" fill="white"/>
</svg>
