<svg width="16" height="16" viewBox="0 0 16 16" fill="none" xmlns="http://www.w3.org/2000/svg">
<path d="M13.6708 11.6056C14.179 11.3515 14.5 10.8321 14.5 10.2639V3C14.5 2.17157 13.8284 1.5 13 1.5H3C2.17157 1.5 1.5 2.17157 1.5 3V10.2639C1.5 10.8321 1.821 11.3515 2.32918 11.6056L7.32918 14.1056C7.75147 14.3167 8.24853 14.3167 8.67082 14.1056L13.6708 11.6056Z" stroke="#2B2B2B"/>
<path d="M10 7C10 5.89543 9.10457 5 8 5C6.89543 5 6 5.89543 6 7C6 8.10457 6.89543 9 8 9C9.10457 9 10 8.10457 10 7Z" fill="#EB4242"/>
</svg>
