<svg width="14" height="14" viewBox="0 0 14 14" fill="none" xmlns="http://www.w3.org/2000/svg">
<path fill-rule="evenodd" clip-rule="evenodd" d="M8 -0.000438641V1.99956H2V11.9996H12V5.99956H14V13.2216C14 13.6516 13.652 13.9996 13.222 13.9996H0.778C0.348 13.9996 0 13.6516 0 13.2216V0.777561C0 0.347561 0.348 -0.000438641 0.778 -0.000438641H8ZM9.52 2.51456L11.533 4.53156L6.038 9.99956H4V7.98256L9.52 2.51456ZM12.147 -0.000438641C12.251 -0.00543864 12.353 0.0245614 12.438 0.0835614L12.498 0.132561L13.856 1.51956C13.95 1.59956 14.003 1.71756 14 1.84056C13.997 1.93956 13.959 2.03256 13.893 2.10356L13.839 2.15256L12.39 3.66556L10.377 1.64856L11.809 0.163561C11.894 0.0645614 12.017 0.00556136 12.147 -0.000438641Z" fill="#1B55AE"/>
</svg>
