<svg width="16" height="16" viewBox="0 0 16 16" fill="none" xmlns="http://www.w3.org/2000/svg">
<circle cx="13.5" cy="9.5" r="2" fill="#F5C100" stroke="#CC8E03"/>
<mask id="path-2-inside-1_1510_431" fill="white">
<path fill-rule="evenodd" clip-rule="evenodd" d="M0 3H13V16H8.94999C8.98279 15.8384 9 15.6712 9 15.5C9 14.1193 7.88071 13 6.5 13C5.11929 13 4 14.1193 4 15.5C4 15.6712 4.01722 15.8384 4.05001 16H0V11.95C1.14112 11.7184 2 10.7095 2 9.5C2 8.29052 1.14112 7.28164 0 7.05001V3Z"/>
</mask>
<path fill-rule="evenodd" clip-rule="evenodd" d="M0 3H13V16H8.94999C8.98279 15.8384 9 15.6712 9 15.5C9 14.1193 7.88071 13 6.5 13C5.11929 13 4 14.1193 4 15.5C4 15.6712 4.01722 15.8384 4.05001 16H0V11.95C1.14112 11.7184 2 10.7095 2 9.5C2 8.29052 1.14112 7.28164 0 7.05001V3Z" fill="#F5C100"/>
<path d="M13 3H14V2H13V3ZM0 3V2H-1V3H0ZM13 16V17H14V16H13ZM8.94999 16L7.96998 15.8011L7.72661 17H8.94999V16ZM4.05001 16V17H5.27339L5.03002 15.8011L4.05001 16ZM0 16H-1V17H0V16ZM0 11.95L-0.198932 10.97L-1 11.1326V11.95H0ZM0 7.05001H-1V7.86741L-0.198932 8.03002L0 7.05001ZM13 2H0V4H13V2ZM14 16V3H12V16H14ZM8.94999 17H13V15H8.94999V17ZM8 15.5C8 15.604 7.98956 15.7046 7.96998 15.8011L9.93 16.1989C9.97601 15.9723 10 15.7384 10 15.5H8ZM6.5 14C7.32843 14 8 14.6716 8 15.5H10C10 13.567 8.433 12 6.5 12V14ZM5 15.5C5 14.6716 5.67157 14 6.5 14V12C4.567 12 3 13.567 3 15.5H5ZM5.03002 15.8011C5.01044 15.7046 5 15.604 5 15.5H3C3 15.7384 3.02399 15.9723 3.07 16.1989L5.03002 15.8011ZM0 17H4.05001V15H0V17ZM-1 11.95V16H1V11.95H-1ZM1 9.5C1 10.2245 0.48532 10.8311 -0.198932 10.97L0.198932 12.93C1.79692 12.6056 3 11.1944 3 9.5H1ZM-0.198932 8.03002C0.48532 8.16892 1 8.77548 1 9.5H3C3 7.80557 1.79692 6.39437 0.198932 6.07L-0.198932 8.03002ZM-1 3V7.05001H1V3H-1Z" fill="#CC8E03" mask="url(#path-2-inside-1_1510_431)"/>
<ellipse cx="12.5" cy="9.5" rx="2.5" ry="1.5" fill="#F5C100"/>
<path opacity="0.6" d="M12 4H5V7C5 9.76142 7.23858 12 10 12H12V4Z" fill="url(#paint0_linear_1510_431)"/>
<path d="M4.4727 2.42494L4.82626 2.7785L4.4727 3.13205L3.13049 4.47427L2.77693 4.82782L2.42338 4.47427L1.06269 3.11357L0.709137 2.76002L1.06269 2.40647L2.4049 1.06425L2.75846 0.710693L3.11201 1.06425L4.4727 2.42494Z" fill="#4D5965" stroke="#4D5965"/>
<path d="M7.91215 5.86486L8.2657 6.21841L7.91215 6.57197L6.56993 7.91418L6.21638 8.26774L5.86282 7.91418L2.87006 4.92142L2.51651 4.56787L2.87006 4.21432L4.21228 2.8721L4.56583 2.51855L4.91939 2.8721L7.91215 5.86486Z" fill="#57C063" stroke="#009646"/>
<path d="M7 9L9.36719 9.36797L9 7L7.5 5.5L7.46901 7.46978L5.5 7.5L7 9Z" fill="#F2B855" stroke="#816E4E" stroke-linecap="round" stroke-linejoin="round"/>
<path d="M9 9.00073L10 10.0007" stroke="#444444" stroke-linecap="round" stroke-linejoin="round"/>
<defs>
<linearGradient id="paint0_linear_1510_431" x1="5.5" y1="5" x2="8.5" y2="12" gradientUnits="userSpaceOnUse">
<stop stop-color="white"/>
<stop offset="1" stop-color="white" stop-opacity="0"/>
</linearGradient>
</defs>
</svg>
