<?xml version="1.0" encoding="UTF-8" standalone="no"?>
<!DOCTYPE svg PUBLIC "-//W3C//DTD SVG 1.1//EN" "http://www.w3.org/Graphics/SVG/1.1/DTD/svg11.dtd">
<svg width="100%" height="100%" viewBox="0 0 16 16" version="1.1" xmlns="http://www.w3.org/2000/svg" xmlns:xlink="http://www.w3.org/1999/xlink" xml:space="preserve" xmlns:serif="http://www.serif.com/" style="fill-rule:evenodd;clip-rule:evenodd;stroke-linejoin:round;stroke-miterlimit:2;">
    <path d="M10,5.2L10,1L6,1L6,5.2C6,5.493 6,5.64 5.962,5.775C5.928,5.894 5.872,6.006 5.797,6.104C5.712,6.216 5.595,6.304 5.36,6.48L3.92,7.56C3.216,8.088 2.864,8.352 2.61,8.687C2.385,8.983 2.217,9.318 2.115,9.676C2,10.08 2,10.52 2,11.4L2,14L0,14L0,15L16,15L16,14L14,14L14,11.4C14,10.52 14,10.08 13.885,9.676C13.783,9.318 13.615,8.983 13.39,8.687C13.136,8.352 12.784,8.088 12.08,7.56L10.64,6.48C10.405,6.304 10.288,6.216 10.203,6.104C10.128,6.006 10.073,5.894 10.038,5.775C10,5.64 10,5.493 10,5.2ZM9,5.2L9,5L7,5L7,5.2L7,5.261C7.001,5.488 7.002,5.774 6.923,6.049C6.855,6.288 6.743,6.511 6.593,6.709C6.42,6.937 6.191,7.108 6.009,7.243L5.96,7.28L4.52,8.36C3.77,8.923 3.556,9.094 3.407,9.291C3.257,9.489 3.145,9.712 3.077,9.951C3.009,10.188 3,10.462 3,11.4L3,14L13,14L13,11.4C13,10.462 12.991,10.188 12.923,9.951C12.855,9.712 12.743,9.489 12.593,9.291C12.444,9.094 12.23,8.923 11.48,8.36L10.04,7.28L9.991,7.243C9.809,7.108 9.58,6.937 9.407,6.709C9.257,6.511 9.145,6.288 9.077,6.049C8.998,5.774 8.999,5.488 9,5.261L9,5.2ZM9,2L9,4L7,4L7,2L9,2ZM6,13L10,13L10,12L9,12L9,11L10,11L10,9L8,9L8,10L7,10L7,9L6,9L6,13ZM8,11L8,10L9,10L9,11L8,11ZM8,11L8,12L7,12L7,11L8,11Z" style="fill:rgb(43,43,43);"/>
</svg>
