<svg width="16" height="16" viewBox="0 0 16 16" fill="none" xmlns="http://www.w3.org/2000/svg">
<rect x="2" y="8" width="14" height="8" fill="#FFFFB4"/>
<rect x="2" y="8" width="14" height="8" fill="url(#paint0_linear)" fill-opacity="0.9"/>
<rect x="3" y="9" width="12" height="6" fill="#FFFFB4"/>
<rect x="3" y="9" width="12" height="6" fill="url(#paint1_linear)" fill-opacity="0.9"/>
<path d="M9.83235 12.4422C9.6348 12.6168 9.41368 12.7041 9.16901 12.7041C8.81015 12.7041 8.5256 12.5847 8.31536 12.346C8.10512 12.1073 8 11.7885 8 11.3894C8 11.1401 8.0589 10.9085 8.17671 10.6947C8.29452 10.481 8.45945 10.3117 8.6715 10.187C8.88536 10.0623 9.12098 10 9.37834 10C9.63933 10 9.87494 10.065 10.0852 10.1951C10.2972 10.3233 10.4622 10.5059 10.58 10.7428C10.6978 10.978 10.7585 11.2496 10.7621 11.5578V11.9025C10.7621 12.3318 10.676 12.7041 10.5039 13.0194C10.3335 13.3347 10.0897 13.5769 9.77254 13.7462C9.45537 13.9154 9.08564 14 8.66334 14H8.60625V13.2786L8.78025 13.2759C9.41097 13.2456 9.76167 12.9677 9.83235 12.4422ZM9.4164 12.0548C9.61577 12.0548 9.75895 11.9702 9.84595 11.8009V11.4269C9.84595 11.1775 9.80335 10.9931 9.71817 10.8737C9.63299 10.7544 9.5179 10.6947 9.3729 10.6947C9.24422 10.6947 9.13638 10.7624 9.04939 10.8978C8.96239 11.0332 8.91889 11.1971 8.91889 11.3894C8.91889 11.5925 8.9633 11.7546 9.05211 11.8758C9.14092 11.9951 9.26235 12.0548 9.4164 12.0548Z" fill="#495D6C"/>
<path d="M14 12.3567C14 12.8822 13.8795 13.2875 13.6384 13.5725C13.3992 13.8575 13.0612 14 12.6244 14C12.184 14 11.8432 13.8566 11.6022 13.5698C11.3611 13.283 11.2406 12.8786 11.2406 12.3567V11.646C11.2406 11.1205 11.3602 10.7152 11.5995 10.4302C11.8405 10.1452 12.1803 10.0027 12.6189 10.0027C13.0575 10.0027 13.3974 10.1461 13.6384 10.4329C13.8795 10.7197 14 11.1249 14 11.6486V12.3567ZM13.0838 11.5311C13.0838 11.2514 13.0467 11.043 12.9724 10.9058C12.8981 10.7669 12.7802 10.6974 12.6189 10.6974C12.4613 10.6974 12.3462 10.7615 12.2737 10.8898C12.203 11.018 12.1649 11.2122 12.1595 11.4723V12.4663C12.1595 12.7566 12.1966 12.9695 12.271 13.1049C12.3453 13.2385 12.4631 13.3053 12.6244 13.3053C12.7802 13.3053 12.8953 13.2403 12.9696 13.1102C13.044 12.9784 13.082 12.7727 13.0838 12.493V11.5311Z" fill="#495D6C"/>
<path d="M6 14H4.99104V11.044L4 11.3104V10.6071L5.90746 10H6V14Z" fill="#495D6C"/>
<path d="M7.5 13C7.64337 13 7.76254 13.0473 7.85753 13.142C7.95251 13.2347 8 13.354 8 13.5C8 13.646 7.95251 13.7663 7.85753 13.8609C7.76254 13.9536 7.64337 14 7.5 14C7.35484 14 7.23477 13.9527 7.13978 13.858C7.04659 13.7633 7 13.644 7 13.5C7 13.356 7.04659 13.2367 7.13978 13.142C7.23477 13.0473 7.35484 13 7.5 13Z" fill="#495D6C"/>
<rect y="1" width="14" height="8" fill="#FFFFB4"/>
<rect y="1" width="14" height="8" fill="url(#paint2_linear)" fill-opacity="0.9"/>
<rect x="1" y="2" width="12" height="6" fill="#FFFFB4"/>
<rect x="1" y="2" width="12" height="6" fill="url(#paint3_linear)" fill-opacity="0.9"/>
<path d="M7.83235 5.44222C7.6348 5.61679 7.41368 5.70407 7.16901 5.70407C6.81015 5.70407 6.5256 5.58473 6.31536 5.34603C6.10512 5.10733 6 4.78847 6 4.38945C6 4.14006 6.0589 3.90848 6.17671 3.69472C6.29452 3.48096 6.45945 3.31173 6.6715 3.18704C6.88536 3.06235 7.12098 3 7.37834 3C7.63933 3 7.87494 3.06502 8.08518 3.19506C8.29724 3.32331 8.46217 3.5059 8.57997 3.74282C8.69778 3.97796 8.7585 4.24961 8.76212 4.55778V4.90247C8.76212 5.33177 8.67603 5.70407 8.50385 6.01937C8.33348 6.33467 8.08971 6.57693 7.77254 6.74616C7.45537 6.91539 7.08564 7 6.66334 7H6.60625V6.27856L6.78025 6.27589C7.41097 6.2456 7.76167 5.96771 7.83235 5.44222ZM7.4164 5.05478C7.61577 5.05478 7.75895 4.97016 7.84595 4.80094V4.42685C7.84595 4.17747 7.80335 3.9931 7.71817 3.87375C7.63299 3.7544 7.5179 3.69472 7.3729 3.69472C7.24422 3.69472 7.13638 3.76241 7.04939 3.8978C6.96239 4.03318 6.91889 4.19706 6.91889 4.38945C6.91889 4.59252 6.9633 4.75462 7.05211 4.87575C7.14092 4.9951 7.26235 5.05478 7.4164 5.05478Z" fill="#495D6C"/>
<path d="M12 5.35671C12 5.88221 11.8795 6.28746 11.6384 6.57248C11.3992 6.85749 11.0612 7 10.6244 7C10.184 7 9.84323 6.8566 9.60218 6.56981C9.36112 6.28301 9.2406 5.87865 9.2406 5.35671V4.64596C9.2406 4.12046 9.36022 3.71521 9.59946 3.43019C9.84051 3.14518 10.1803 3.00267 10.6189 3.00267C11.0575 3.00267 11.3974 3.14607 11.6384 3.43287C11.8795 3.71966 12 4.12492 12 4.64863V5.35671ZM11.0838 4.53106C11.0838 4.25139 11.0467 4.04297 10.9724 3.90581C10.8981 3.76687 10.7802 3.69739 10.6189 3.69739C10.4613 3.69739 10.3462 3.76152 10.2737 3.88978C10.203 4.01804 10.1649 4.2122 10.1595 4.47228V5.46627C10.1595 5.75662 10.1966 5.96949 10.271 6.10488C10.3453 6.23848 10.4631 6.30528 10.6244 6.30528C10.7802 6.30528 10.8953 6.24026 10.9696 6.11022C11.044 5.9784 11.082 5.77266 11.0838 5.49299V4.53106Z" fill="#495D6C"/>
<path d="M4 7H2.99104V4.04396L2 4.31044V3.60714L3.90746 3H4V7Z" fill="#495D6C"/>
<path d="M5.5 6C5.64337 6 5.76254 6.04734 5.85753 6.14201C5.95251 6.23471 6 6.35404 6 6.5C6 6.64596 5.95251 6.76627 5.85753 6.86095C5.76254 6.95365 5.64337 7 5.5 7C5.35484 7 5.23477 6.95266 5.13978 6.85799C5.04659 6.76331 5 6.64398 5 6.5C5 6.35602 5.04659 6.23669 5.13978 6.14201C5.23477 6.04734 5.35484 6 5.5 6Z" fill="#495D6C"/>
<path opacity="0.9" d="M12.707 3.29289C12.8946 3.48043 12.9999 3.73478 12.9999 4L13.9999 8H16V11L13.3719 13.834C13.325 13.8862 13.2677 13.928 13.2036 13.9566C13.1395 13.9851 13.0701 13.9999 12.9999 13.9999C12.9297 13.9999 12.8604 13.9851 12.7963 13.9566C12.7322 13.928 12.6748 13.8862 12.6279 13.834L8.12792 7.834C8.0634 7.76212 8.02108 7.67309 8.00607 7.57767C7.99107 7.48226 8.00402 7.38453 8.04337 7.29632C8.08271 7.20811 8.14677 7.13318 8.22779 7.08059C8.30881 7.02801 8.40333 7.00002 8.49992 7H10.9999V4C10.9999 3.73478 11.1053 3.48043 11.2928 3.29289C11.4803 3.10536 11.7347 3 11.9999 3C12.2651 3 12.5195 3.10536 12.707 3.29289Z" fill="white"/>
<path d="M13.9999 4C13.9999 3.73478 13.8946 3.48043 13.707 3.29289C13.5195 3.10536 13.2651 3 12.9999 3C12.7347 3 12.4803 3.10536 12.2928 3.29289C12.1053 3.48043 11.9999 3.73478 11.9999 4V8H10.4999C10.4033 8.00002 10.3088 8.02801 10.2278 8.08059C10.1468 8.13318 10.0827 8.20811 10.0434 8.29632C10.004 8.38453 9.99107 8.48226 10.0061 8.57767C10.0211 8.67309 10.0634 8.76212 10.1279 8.834L12.6279 11.834C12.6748 11.8862 12.7322 11.928 12.7963 11.9566C12.8604 11.9851 12.9297 11.9999 12.9999 11.9999C13.0701 11.9999 13.1395 11.9851 13.2036 11.9566C13.2677 11.928 13.325 11.8862 13.3719 11.834L15.8719 8.834C15.9364 8.76212 15.9788 8.67309 15.9938 8.57767C16.0088 8.48226 15.9958 8.38453 15.9565 8.29632C15.9171 8.20811 15.8531 8.13318 15.772 8.08059C15.691 8.02801 15.5965 8.00002 15.4999 8H13.9999V4Z" fill="#263B49"/>
<defs>
<linearGradient id="paint0_linear" x1="9" y1="8" x2="9" y2="16" gradientUnits="userSpaceOnUse">
<stop stop-color="#9FBBC6"/>
<stop offset="1" stop-color="#576E7C"/>
</linearGradient>
<linearGradient id="paint1_linear" x1="9" y1="9" x2="9" y2="15" gradientUnits="userSpaceOnUse">
<stop stop-color="#FFFFE3"/>
<stop offset="1" stop-color="#FED868"/>
</linearGradient>
<linearGradient id="paint2_linear" x1="7" y1="1" x2="7" y2="9" gradientUnits="userSpaceOnUse">
<stop stop-color="#9FBBC6"/>
<stop offset="1" stop-color="#576E7C"/>
</linearGradient>
<linearGradient id="paint3_linear" x1="7" y1="2" x2="7" y2="8" gradientUnits="userSpaceOnUse">
<stop stop-color="#FFFFE3"/>
<stop offset="1" stop-color="#FED868"/>
</linearGradient>
</defs>
</svg>
