<?xml version="1.0" encoding="UTF-8"?>
<svg class="progressive_icon progressive_icon16" width="40" height="40" version="1.1" viewBox="0 0 40 40" xmlns="http://www.w3.org/2000/svg">
    <circle cx="20" cy="20" r="20" display="none" fill="#e6e6e6" stroke-width="15.264"/>
    <path d="m17.444 23.718v-7.4346l6.5346 3.7164zm14.535-9.7746a3.1407 3.1407 0 0 0-2.2125-2.2237c-1.9482-0.52689-9.7653-0.52689-9.7653-0.52689s-7.8189 0-9.769 0.52501a3.1426 3.1426 0 0 0-2.2107 2.2257c-0.52126 1.9632-0.52126 6.0564-0.52126 6.0564s0 4.0951 0.52126 6.0564a3.1426 3.1426 0 0 0 2.2107 2.2257c1.95 0.52501 9.769 0.52501 9.769 0.52501s7.8171 0 9.7671-0.52501a3.1407 3.1407 0 0 0 2.2107-2.2257c0.52126-1.9612 0.52126-6.0564 0.52126-6.0564s0-4.0932-0.52126-6.0564z" clip-rule="evenodd" fill="#ff5e5e" fill-rule="evenodd" stroke-width="1.875"/>
</svg>
