<svg width="16" height="16" viewBox="0 0 16 16" fill="none" xmlns="http://www.w3.org/2000/svg">
<g clip-path="url(#clip0_135_699)">
<path d="M6.67501 14.136C5.42834 14.0113 4.49901 13.643 3.88701 13.031C3.27501 12.419 2.92934 11.6653 2.85001 10.77H4.89001C4.93534 11.008 5.00901 11.2233 5.11101 11.416C5.22434 11.6087 5.38301 11.7787 5.58701 11.926C5.79101 12.0733 6.04601 12.1867 6.35201 12.266C6.66934 12.3453 7.06034 12.385 7.52501 12.385C8.00101 12.385 8.40334 12.3453 8.73201 12.266C9.07201 12.1753 9.34401 12.062 9.54801 11.926C9.76334 11.7787 9.91634 11.6087 10.007 11.416C10.109 11.212 10.16 10.9967 10.16 10.77C10.16 10.2147 9.89934 9.79534 9.37801 9.512C8.86801 9.22867 8.06901 8.97367 6.98101 8.747C6.36901 8.611 5.82501 8.45234 5.34901 8.271C4.87301 8.07834 4.47634 7.846 4.15901 7.574C3.84167 7.29067 3.59801 6.95634 3.42801 6.571C3.26934 6.17434 3.19001 5.704 3.19001 5.16C3.19001 4.76333 3.26367 4.38933 3.41101 4.038C3.55834 3.67533 3.77934 3.35233 4.07401 3.069C4.36867 2.78567 4.73134 2.54767 5.16201 2.355C5.59267 2.16233 6.09701 2.032 6.67501 1.964V0.400002H8.37501V1.964C9.47434 2.08867 10.3073 2.44567 10.874 3.035C11.452 3.613 11.7807 4.32133 11.86 5.16H9.82001C9.72934 4.72933 9.49701 4.38367 9.12301 4.123C8.76034 3.851 8.22767 3.715 7.52501 3.715C6.70901 3.715 6.11967 3.85667 5.75701 4.14C5.40567 4.42333 5.23001 4.76333 5.23001 5.16C5.23001 5.704 5.45667 6.112 5.91001 6.384C6.36334 6.656 7.06034 6.88834 8.00101 7.081C8.69234 7.22834 9.29867 7.39833 9.82001 7.591C10.3527 7.78367 10.7947 8.02733 11.146 8.322C11.4973 8.60533 11.758 8.94534 11.928 9.342C12.1093 9.73867 12.2 10.2147 12.2 10.77C12.2 11.212 12.1207 11.6257 11.962 12.011C11.8033 12.3963 11.5653 12.7363 11.248 13.031C10.9307 13.3257 10.5283 13.5693 10.041 13.762C9.56501 13.9547 9.00967 14.0793 8.37501 14.136V16.04H6.67501V14.136Z" fill="#2B2B2B"/>
</g>
<defs>
<clipPath id="clip0_135_699">
<rect width="16" height="16" fill="white"/>
</clipPath>
</defs>
</svg>
