<svg width="16" height="16" viewBox="0 0 16 16" fill="none" xmlns="http://www.w3.org/2000/svg">
<path d="M3.95499 12.334H2.42499V10.736H3.95499V9.682H2.42499V7.914H3.95499V2.1H7.94999C9.37799 2.1 10.4547 2.44566 11.18 3.137C11.9167 3.817 12.285 4.735 12.285 5.891C12.285 7.047 11.9167 7.97067 11.18 8.662C10.4547 9.342 9.37799 9.682 7.94999 9.682H5.99499V10.736H9.90499V12.334H5.99499V14H3.95499V12.334ZM7.77999 7.914C8.68665 7.914 9.32132 7.74967 9.68399 7.421C10.058 7.081 10.245 6.571 10.245 5.891C10.245 5.211 10.058 4.70667 9.68399 4.378C9.32132 4.038 8.68665 3.868 7.77999 3.868H5.99499V7.914H7.77999Z" fill="#2B2B2B"/>
</svg>
