<svg width="16" height="16" viewBox="0 0 16 16" fill="none" xmlns="http://www.w3.org/2000/svg">
<path d="M7 3.8724V3H10V3.8724H8.93319V7H8.05819V3.8724H7Z" fill="#4D4D4D"/>
<path d="M12 11.8724V11H15V11.8724H13.9332V15H13.0582V11.8724H12Z" fill="#4D4D4D"/>
<path d="M1 8.00586V5.99109L2.04688 5.99108C2.18427 5.89144 2.31006 5.75076 2.42423 5.56905C2.53841 5.38539 2.63613 5.13237 2.71741 4.80999C2.79869 4.48565 2.85674 4.06167 2.89158 3.53804L3.05994 1L6 1.00001V5.99109H7V8H5.92188V7.0022H2.04688V8.00586H1ZM3.27243 6.00909L5 5.99109V2.06429L3.96619 2.06428L3.8733 3.55604C3.84814 3.95267 3.80654 4.30436 3.74848 4.61111C3.69236 4.91787 3.62366 5.18652 3.54238 5.41707C3.46304 5.64567 3.37306 5.84301 3.27243 6.00909Z" fill="#4D4D4D"/>
<path d="M10.7905 15L9.36261 12H9V15H8V9H9V11H9.36261L10.7905 9H12L10.1171 11.3867L12 15H10.7905Z" fill="#4D4D4D"/>
</svg>
