<svg width="80" height="16" viewBox="0 0 80 16" fill="none" xmlns="http://www.w3.org/2000/svg">
<path d="M32 8H18V16H32V8Z" fill="#FFFFB4"/>
<path d="M32 8H18V16H32V8Z" fill="url(#paint0_linear_1510_462)" fill-opacity="0.9"/>
<path d="M31 9H19V15H31V9Z" fill="#FFFFB4"/>
<path d="M31 9H19V15H31V9Z" fill="url(#paint1_linear_1510_462)" fill-opacity="0.9"/>
<path d="M25.8324 12.4422C25.6348 12.6168 25.4137 12.7041 25.169 12.7041C24.8101 12.7041 24.5256 12.5847 24.3154 12.346C24.1051 12.1073 24 11.7885 24 11.3894C24 11.1401 24.0589 10.9085 24.1767 10.6947C24.2945 10.481 24.4594 10.3117 24.6715 10.187C24.8854 10.0623 25.121 10 25.3783 10C25.6393 10 25.8749 10.065 26.0852 10.1951C26.2972 10.3233 26.4622 10.5059 26.58 10.7428C26.6978 10.978 26.7585 11.2496 26.7621 11.5578V11.9025C26.7621 12.3318 26.676 12.7041 26.5039 13.0194C26.3335 13.3347 26.0897 13.5769 25.7725 13.7462C25.4554 13.9154 25.0856 14 24.6633 14H24.6063V13.2786L24.7802 13.2759C25.411 13.2456 25.7617 12.9677 25.8324 12.4422ZM25.4164 12.0548C25.6158 12.0548 25.7589 11.9702 25.8459 11.8009V11.4269C25.8459 11.1775 25.8034 10.9931 25.7182 10.8737C25.633 10.7544 25.5179 10.6947 25.3729 10.6947C25.2442 10.6947 25.1364 10.7624 25.0494 10.8978C24.9624 11.0332 24.9189 11.1971 24.9189 11.3894C24.9189 11.5925 24.9633 11.7546 25.0521 11.8758C25.1409 11.9951 25.2623 12.0548 25.4164 12.0548Z" fill="#495D6C"/>
<path d="M30 12.3567C30 12.8822 29.8795 13.2875 29.6384 13.5725C29.3992 13.8575 29.0612 14 28.6244 14C28.184 14 27.8432 13.8566 27.6022 13.5698C27.3611 13.283 27.2406 12.8786 27.2406 12.3567V11.646C27.2406 11.1205 27.3602 10.7152 27.5995 10.4302C27.8405 10.1452 28.1803 10.0027 28.6189 10.0027C29.0575 10.0027 29.3974 10.1461 29.6384 10.4329C29.8795 10.7197 30 11.1249 30 11.6486V12.3567ZM29.0838 11.5311C29.0838 11.2514 29.0467 11.043 28.9724 10.9058C28.8981 10.7669 28.7802 10.6974 28.6189 10.6974C28.4613 10.6974 28.3462 10.7615 28.2737 10.8898C28.203 11.018 28.1649 11.2122 28.1595 11.4723V12.4663C28.1595 12.7566 28.1966 12.9695 28.271 13.1049C28.3453 13.2385 28.4631 13.3053 28.6244 13.3053C28.7802 13.3053 28.8953 13.2403 28.9696 13.1102C29.044 12.9784 29.082 12.7727 29.0838 12.493V11.5311Z" fill="#495D6C"/>
<path d="M22 14H20.991V11.044L20 11.3104V10.6071L21.9075 10H22V14Z" fill="#495D6C"/>
<path d="M23.5 13C23.6434 13 23.7625 13.0473 23.8575 13.142C23.9525 13.2347 24 13.354 24 13.5C24 13.646 23.9525 13.7663 23.8575 13.8609C23.7625 13.9536 23.6434 14 23.5 14C23.3548 14 23.2348 13.9527 23.1398 13.858C23.0466 13.7633 23 13.644 23 13.5C23 13.356 23.0466 13.2367 23.1398 13.142C23.2348 13.0473 23.3548 13 23.5 13Z" fill="#495D6C"/>
<path d="M30 1H16V9H30V1Z" fill="#FFFFB4"/>
<path d="M30 1H16V9H30V1Z" fill="url(#paint2_linear_1510_462)" fill-opacity="0.9"/>
<path d="M29 2H17V8H29V2Z" fill="#FFFFB4"/>
<path d="M29 2H17V8H29V2Z" fill="url(#paint3_linear_1510_462)" fill-opacity="0.9"/>
<path d="M23.8324 5.44222C23.6348 5.61679 23.4137 5.70407 23.169 5.70407C22.8101 5.70407 22.5256 5.58473 22.3154 5.34603C22.1051 5.10733 22 4.78847 22 4.38945C22 4.14006 22.0589 3.90848 22.1767 3.69472C22.2945 3.48096 22.4594 3.31173 22.6715 3.18704C22.8854 3.06235 23.121 3 23.3783 3C23.6393 3 23.8749 3.06502 24.0852 3.19506C24.2972 3.32331 24.4622 3.5059 24.58 3.74282C24.6978 3.97796 24.7585 4.24961 24.7621 4.55778V4.90247C24.7621 5.33177 24.676 5.70407 24.5039 6.01937C24.3335 6.33467 24.0897 6.57693 23.7725 6.74616C23.4554 6.91539 23.0856 7 22.6633 7H22.6063V6.27856L22.7802 6.27589C23.411 6.2456 23.7617 5.96771 23.8324 5.44222ZM23.4164 5.05478C23.6158 5.05478 23.7589 4.97016 23.8459 4.80094V4.42685C23.8459 4.17747 23.8034 3.9931 23.7182 3.87375C23.633 3.7544 23.5179 3.69472 23.3729 3.69472C23.2442 3.69472 23.1364 3.76241 23.0494 3.8978C22.9624 4.03318 22.9189 4.19706 22.9189 4.38945C22.9189 4.59252 22.9633 4.75462 23.0521 4.87575C23.1409 4.9951 23.2623 5.05478 23.4164 5.05478Z" fill="#495D6C"/>
<path d="M28 5.35673C28 5.88223 27.8795 6.28748 27.6384 6.5725C27.3992 6.85751 27.0612 7.00002 26.6244 7.00002C26.184 7.00002 25.8432 6.85662 25.6022 6.56983C25.3611 6.28303 25.2406 5.87867 25.2406 5.35673V4.64598C25.2406 4.12048 25.3602 3.71523 25.5995 3.43021C25.8405 3.1452 26.1803 3.00269 26.6189 3.00269C27.0575 3.00269 27.3974 3.14609 27.6384 3.43289C27.8795 3.71968 28 4.12494 28 4.64865V5.35673ZM27.0838 4.53108C27.0838 4.25141 27.0467 4.04299 26.9724 3.90583C26.8981 3.76689 26.7802 3.69741 26.6189 3.69741C26.4613 3.69741 26.3462 3.76154 26.2737 3.8898C26.203 4.01806 26.1649 4.21222 26.1595 4.4723V5.46629C26.1595 5.75664 26.1966 5.96951 26.271 6.1049C26.3453 6.2385 26.4631 6.3053 26.6244 6.3053C26.7802 6.3053 26.8953 6.24028 26.9696 6.11024C27.044 5.97842 27.082 5.77268 27.0838 5.49301V4.53108Z" fill="#495D6C"/>
<path d="M20 7H18.991V4.04396L18 4.31044V3.60714L19.9075 3H20V7Z" fill="#495D6C"/>
<path d="M21.5 6C21.6434 6 21.7625 6.04734 21.8575 6.14201C21.9525 6.23471 22 6.35404 22 6.5C22 6.64596 21.9525 6.76627 21.8575 6.86095C21.7625 6.95365 21.6434 7 21.5 7C21.3548 7 21.2348 6.95266 21.1398 6.85799C21.0466 6.76331 21 6.64398 21 6.5C21 6.35602 21.0466 6.23669 21.1398 6.14201C21.2348 6.04734 21.3548 6 21.5 6Z" fill="#495D6C"/>
<path opacity="0.9" d="M28.707 3.29289C28.8946 3.48043 28.9999 3.73478 28.9999 4L29.9999 8H32V11L29.3719 13.834C29.325 13.8862 29.2677 13.928 29.2036 13.9566C29.1395 13.9851 29.0701 13.9999 28.9999 13.9999C28.9297 13.9999 28.8604 13.9851 28.7963 13.9566C28.7322 13.928 28.6748 13.8862 28.6279 13.834L24.1279 7.834C24.0634 7.76212 24.0211 7.67309 24.0061 7.57767C23.9911 7.48226 24.004 7.38453 24.0434 7.29632C24.0827 7.20811 24.1468 7.13318 24.2278 7.08059C24.3088 7.02801 24.4033 7.00002 24.4999 7H26.9999V4C26.9999 3.73478 27.1053 3.48043 27.2928 3.29289C27.4803 3.10536 27.7347 3 27.9999 3C28.2651 3 28.5195 3.10536 28.707 3.29289Z" fill="white"/>
<path d="M29.9999 4C29.9999 3.73478 29.8946 3.48043 29.707 3.29289C29.5195 3.10536 29.2651 3 28.9999 3C28.7347 3 28.4803 3.10536 28.2928 3.29289C28.1053 3.48043 27.9999 3.73478 27.9999 4V8H26.4999C26.4033 8.00002 26.3088 8.02801 26.2278 8.08059C26.1468 8.13318 26.0827 8.20811 26.0434 8.29632C26.004 8.38453 25.9911 8.48226 26.0061 8.57767C26.0211 8.67309 26.0634 8.76212 26.1279 8.834L28.6279 11.834C28.6748 11.8862 28.7322 11.928 28.7963 11.9566C28.8604 11.9851 28.9297 11.9999 28.9999 11.9999C29.0701 11.9999 29.1395 11.9851 29.2036 11.9566C29.2677 11.928 29.325 11.8862 29.3719 11.834L31.8719 8.834C31.9364 8.76212 31.9788 8.67309 31.9938 8.57767C32.0088 8.48226 31.9958 8.38453 31.9565 8.29632C31.9171 8.20811 31.8531 8.13318 31.772 8.08059C31.691 8.02801 31.5965 8.00002 31.4999 8H29.9999V4Z" fill="#263B49"/>
<path d="M15 8H1V16H15V8Z" fill="#FFFFB4"/>
<path d="M15 8H1V16H15V8Z" fill="url(#paint4_linear_1510_462)" fill-opacity="0.9"/>
<path d="M14 9H2V15H14V9Z" fill="#FFFFB4"/>
<path d="M14 9H2V15H14V9Z" fill="url(#paint5_linear_1510_462)" fill-opacity="0.9"/>
<path d="M8.83235 12.4422C8.6348 12.6168 8.41368 12.7041 8.16901 12.7041C7.81015 12.7041 7.5256 12.5847 7.31536 12.346C7.10512 12.1073 7 11.7885 7 11.3894C7 11.1401 7.0589 10.9085 7.17671 10.6947C7.29452 10.481 7.45945 10.3117 7.6715 10.187C7.88536 10.0623 8.12098 10 8.37834 10C8.63933 10 8.87494 10.065 9.08518 10.1951C9.29724 10.3233 9.46217 10.5059 9.57997 10.7428C9.69778 10.978 9.7585 11.2496 9.76212 11.5578V11.9025C9.76212 12.3318 9.67603 12.7041 9.50385 13.0194C9.33348 13.3347 9.08971 13.5769 8.77254 13.7462C8.45537 13.9154 8.08564 14 7.66334 14H7.60625V13.2786L7.78025 13.2759C8.41097 13.2456 8.76167 12.9677 8.83235 12.4422ZM8.4164 12.0548C8.61577 12.0548 8.75895 11.9702 8.84595 11.8009V11.4269C8.84595 11.1775 8.80335 10.9931 8.71817 10.8737C8.63299 10.7544 8.5179 10.6947 8.3729 10.6947C8.24422 10.6947 8.13638 10.7624 8.04939 10.8978C7.96239 11.0332 7.91889 11.1971 7.91889 11.3894C7.91889 11.5925 7.9633 11.7546 8.05211 11.8758C8.14092 11.9951 8.26235 12.0548 8.4164 12.0548Z" fill="#495D6C"/>
<path d="M13 12.3567C13 12.8822 12.8795 13.2875 12.6384 13.5725C12.3992 13.8575 12.0612 14 11.6244 14C11.184 14 10.8432 13.8566 10.6022 13.5698C10.3611 13.283 10.2406 12.8786 10.2406 12.3567V11.646C10.2406 11.1205 10.3602 10.7152 10.5995 10.4302C10.8405 10.1452 11.1803 10.0027 11.6189 10.0027C12.0575 10.0027 12.3974 10.1461 12.6384 10.4329C12.8795 10.7197 13 11.1249 13 11.6486V12.3567ZM12.0838 11.5311C12.0838 11.2514 12.0467 11.043 11.9724 10.9058C11.8981 10.7669 11.7802 10.6974 11.6189 10.6974C11.4613 10.6974 11.3462 10.7615 11.2737 10.8898C11.203 11.018 11.1649 11.2122 11.1595 11.4723V12.4663C11.1595 12.7566 11.1966 12.9695 11.271 13.1049C11.3453 13.2385 11.4631 13.3053 11.6244 13.3053C11.7802 13.3053 11.8953 13.2403 11.9696 13.1102C12.044 12.9784 12.082 12.7727 12.0838 12.493V11.5311Z" fill="#495D6C"/>
<path d="M5 14H3.99104V11.044L3 11.3104V10.6071L4.90746 10H5V14Z" fill="#495D6C"/>
<path d="M6.5 13C6.64337 13 6.76254 13.0473 6.85753 13.142C6.95251 13.2347 7 13.354 7 13.5C7 13.646 6.95251 13.7663 6.85753 13.8609C6.76254 13.9536 6.64337 14 6.5 14C6.35484 14 6.23477 13.9527 6.13978 13.858C6.04659 13.7633 6 13.644 6 13.5C6 13.356 6.04659 13.2367 6.13978 13.142C6.23477 13.0473 6.35484 13 6.5 13Z" fill="#495D6C"/>
<path opacity="0.6" d="M12 8H5V12H12V8Z" fill="white"/>
<path d="M4.4727 2.42494L4.82626 2.7785L4.4727 3.13205L3.13049 4.47427L2.77693 4.82782L2.42338 4.47427L1.06269 3.11357L0.709137 2.76002L1.06269 2.40647L2.4049 1.06425L2.75846 0.710693L3.11201 1.06425L4.4727 2.42494Z" fill="#4D5965" stroke="#4D5965"/>
<path d="M7.91215 5.86486L8.2657 6.21841L7.91215 6.57197L6.56993 7.91418L6.21638 8.26774L5.86282 7.91418L2.87006 4.92142L2.51651 4.56787L2.87006 4.21432L4.21228 2.8721L4.56583 2.51855L4.91939 2.8721L7.91215 5.86486Z" fill="#57C063" stroke="#009646"/>
<path d="M7 9L9.36719 9.36797L9 7L7.5 5.5L7.46901 7.46978L5.5 7.5L7 9Z" fill="#F2B855" stroke="#816E4E" stroke-linecap="round" stroke-linejoin="round"/>
<path d="M9 9.00073L10 10.0007" stroke="#444444" stroke-linecap="round" stroke-linejoin="round"/>
<path d="M47 8H33V16H47V8Z" fill="#FFFFB4"/>
<path d="M47 8H33V16H47V8Z" fill="url(#paint6_linear_1510_462)" fill-opacity="0.9"/>
<path d="M46 9H34V15H46V9Z" fill="#FFFFB4"/>
<path d="M46 9H34V15H46V9Z" fill="url(#paint7_linear_1510_462)" fill-opacity="0.9"/>
<path d="M40.8324 12.4422C40.6348 12.6168 40.4137 12.7041 40.169 12.7041C39.8101 12.7041 39.5256 12.5847 39.3154 12.346C39.1051 12.1073 39 11.7885 39 11.3894C39 11.1401 39.0589 10.9085 39.1767 10.6947C39.2945 10.481 39.4594 10.3117 39.6715 10.187C39.8854 10.0623 40.121 10 40.3783 10C40.6393 10 40.8749 10.065 41.0852 10.1951C41.2972 10.3233 41.4622 10.5059 41.58 10.7428C41.6978 10.978 41.7585 11.2496 41.7621 11.5578V11.9025C41.7621 12.3318 41.676 12.7041 41.5039 13.0194C41.3335 13.3347 41.0897 13.5769 40.7725 13.7462C40.4554 13.9154 40.0856 14 39.6633 14H39.6063V13.2786L39.7802 13.2759C40.411 13.2456 40.7617 12.9677 40.8324 12.4422ZM40.4164 12.0548C40.6158 12.0548 40.7589 11.9702 40.8459 11.8009V11.4269C40.8459 11.1775 40.8034 10.9931 40.7182 10.8737C40.633 10.7544 40.5179 10.6947 40.3729 10.6947C40.2442 10.6947 40.1364 10.7624 40.0494 10.8978C39.9624 11.0332 39.9189 11.1971 39.9189 11.3894C39.9189 11.5925 39.9633 11.7546 40.0521 11.8758C40.1409 11.9951 40.2623 12.0548 40.4164 12.0548Z" fill="#495D6C"/>
<path d="M45 12.3567C45 12.8822 44.8795 13.2875 44.6384 13.5725C44.3992 13.8575 44.0612 14 43.6244 14C43.184 14 42.8432 13.8566 42.6022 13.5698C42.3611 13.283 42.2406 12.8786 42.2406 12.3567V11.646C42.2406 11.1205 42.3602 10.7152 42.5995 10.4302C42.8405 10.1452 43.1803 10.0027 43.6189 10.0027C44.0575 10.0027 44.3974 10.1461 44.6384 10.4329C44.8795 10.7197 45 11.1249 45 11.6486V12.3567ZM44.0838 11.5311C44.0838 11.2514 44.0467 11.043 43.9724 10.9058C43.8981 10.7669 43.7802 10.6974 43.6189 10.6974C43.4613 10.6974 43.3462 10.7615 43.2737 10.8898C43.203 11.018 43.1649 11.2122 43.1595 11.4723V12.4663C43.1595 12.7566 43.1966 12.9695 43.271 13.1049C43.3453 13.2385 43.4631 13.3053 43.6244 13.3053C43.7802 13.3053 43.8953 13.2403 43.9696 13.1102C44.044 12.9784 44.082 12.7727 44.0838 12.493V11.5311Z" fill="#495D6C"/>
<path d="M37 14H35.991V11.044L35 11.3104V10.6071L36.9075 10H37V14Z" fill="#495D6C"/>
<path d="M38.5 13C38.6434 13 38.7625 13.0473 38.8575 13.142C38.9525 13.2347 39 13.354 39 13.5C39 13.646 38.9525 13.7663 38.8575 13.8609C38.7625 13.9536 38.6434 14 38.5 14C38.3548 14 38.2348 13.9527 38.1398 13.858C38.0466 13.7633 38 13.644 38 13.5C38 13.356 38.0466 13.2367 38.1398 13.142C38.2348 13.0473 38.3548 13 38.5 13Z" fill="#495D6C"/>
<path d="M40.9096 7L41.4001 5.71429H44.1672L44.6576 7H45.5664L43.2783 1H42.289L40 7H40.9096ZM42.7836 2.08514L43.8404 4.85714H41.7269L42.7836 2.08514Z" fill="#263B49"/>
<path d="M63 8H49V16H63V8Z" fill="#FFFFB4"/>
<path d="M63 6H49V16H63V6Z" fill="url(#paint8_linear_1510_462)" fill-opacity="0.9"/>
<path d="M62 7H50V15H62V7Z" fill="white"/>
<path d="M62 9H50V10H62V9Z" fill="#758B8F"/>
<path d="M62 12H50V13H62V12Z" fill="#758B8F"/>
<path d="M52 7L52 15L53 15L53 7L52 7Z" fill="#758B8F"/>
<path d="M59 7L59 15L60 15L60 7L59 7Z" fill="#758B8F"/>
<path opacity="0.6" d="M59 6H53V12H59V6Z" fill="white"/>
<path d="M52.4727 2.42494L52.8263 2.7785L52.4727 3.13205L51.1305 4.47427L50.7769 4.82782L50.4234 4.47427L49.0627 3.11357L48.7091 2.76002L49.0627 2.40647L50.4049 1.06425L50.7585 0.710693L51.112 1.06425L52.4727 2.42494Z" fill="#4D5965" stroke="#4D5965"/>
<path d="M55.9121 5.86486L56.2657 6.21841L55.9121 6.57197L54.5699 7.91418L54.2164 8.26774L53.8628 7.91418L50.8701 4.92142L50.5165 4.56787L50.8701 4.21432L52.2123 2.8721L52.5658 2.51855L52.9194 2.8721L55.9121 5.86486Z" fill="#57C063" stroke="#009646"/>
<path d="M55 9L57.3672 9.36797L57 7L55.5 5.5L55.469 7.46978L53.5 7.5L55 9Z" fill="#F2B855" stroke="#816E4E" stroke-linecap="round" stroke-linejoin="round"/>
<path d="M57 9.00073L58 10.0007" stroke="#444444" stroke-linecap="round" stroke-linejoin="round"/>
<circle cx="77.5" cy="9.5" r="2" fill="#F5C100" stroke="#CC8E03"/>
<mask id="path-54-inside-1_1510_462" fill="white">
<path fill-rule="evenodd" clip-rule="evenodd" d="M64 3H77V16H72.95C72.9828 15.8384 73 15.6712 73 15.5C73 14.1193 71.8807 13 70.5 13C69.1193 13 68 14.1193 68 15.5C68 15.6712 68.0172 15.8384 68.05 16H64V11.95C65.1411 11.7184 66 10.7095 66 9.5C66 8.29052 65.1411 7.28164 64 7.05001V3Z"/>
</mask>
<path fill-rule="evenodd" clip-rule="evenodd" d="M64 3H77V16H72.95C72.9828 15.8384 73 15.6712 73 15.5C73 14.1193 71.8807 13 70.5 13C69.1193 13 68 14.1193 68 15.5C68 15.6712 68.0172 15.8384 68.05 16H64V11.95C65.1411 11.7184 66 10.7095 66 9.5C66 8.29052 65.1411 7.28164 64 7.05001V3Z" fill="#F5C100"/>
<path d="M77 3H78V2H77V3ZM64 3V2H63V3H64ZM77 16V17H78V16H77ZM72.95 16L71.97 15.8011L71.7266 17H72.95V16ZM68.05 16V17H69.2734L69.03 15.8011L68.05 16ZM64 16H63V17H64V16ZM64 11.95L63.8011 10.97L63 11.1326V11.95H64ZM64 7.05001H63V7.86741L63.8011 8.03002L64 7.05001ZM77 2H64V4H77V2ZM78 16V3H76V16H78ZM72.95 17H77V15H72.95V17ZM72 15.5C72 15.604 71.9896 15.7046 71.97 15.8011L73.93 16.1989C73.976 15.9723 74 15.7384 74 15.5H72ZM70.5 14C71.3284 14 72 14.6716 72 15.5H74C74 13.567 72.433 12 70.5 12V14ZM69 15.5C69 14.6716 69.6716 14 70.5 14V12C68.567 12 67 13.567 67 15.5H69ZM69.03 15.8011C69.0104 15.7046 69 15.604 69 15.5H67C67 15.7384 67.024 15.9723 67.07 16.1989L69.03 15.8011ZM64 17H68.05V15H64V17ZM63 11.95V16H65V11.95H63ZM65 9.5C65 10.2245 64.4853 10.8311 63.8011 10.97L64.1989 12.93C65.7969 12.6056 67 11.1944 67 9.5H65ZM63.8011 8.03002C64.4853 8.16892 65 8.77548 65 9.5H67C67 7.80557 65.7969 6.39437 64.1989 6.07L63.8011 8.03002ZM63 3V7.05001H65V3H63Z" fill="#CC8E03" mask="url(#path-54-inside-1_1510_462)"/>
<ellipse cx="76.5" cy="9.5" rx="2.5" ry="1.5" fill="#F5C100"/>
<path opacity="0.6" d="M76 4H69V7C69 9.76142 71.2386 12 74 12H76V4Z" fill="url(#paint9_linear_1510_462)"/>
<path d="M68.4727 2.42494L68.8263 2.7785L68.4727 3.13205L67.1305 4.47427L66.7769 4.82782L66.4234 4.47427L65.0627 3.11357L64.7091 2.76002L65.0627 2.40647L66.4049 1.06425L66.7585 0.710693L67.112 1.06425L68.4727 2.42494Z" fill="#4D5965" stroke="#4D5965"/>
<path d="M71.9121 5.86486L72.2657 6.21841L71.9121 6.57197L70.5699 7.91418L70.2164 8.26774L69.8628 7.91418L66.8701 4.92142L66.5165 4.56787L66.8701 4.21432L68.2123 2.8721L68.5658 2.51855L68.9194 2.8721L71.9121 5.86486Z" fill="#57C063" stroke="#009646"/>
<path d="M71 9L73.3672 9.36797L73 7L71.5 5.5L71.469 7.46978L69.5 7.5L71 9Z" fill="#F2B855" stroke="#816E4E" stroke-linecap="round" stroke-linejoin="round"/>
<path d="M73 9.00073L74 10.0007" stroke="#444444" stroke-linecap="round" stroke-linejoin="round"/>
<defs>
<linearGradient id="paint0_linear_1510_462" x1="25" y1="8" x2="25" y2="16" gradientUnits="userSpaceOnUse">
<stop stop-color="#9FBBC6"/>
<stop offset="1" stop-color="#576E7C"/>
</linearGradient>
<linearGradient id="paint1_linear_1510_462" x1="25" y1="9" x2="25" y2="15" gradientUnits="userSpaceOnUse">
<stop stop-color="#FFFFE3"/>
<stop offset="1" stop-color="#FED868"/>
</linearGradient>
<linearGradient id="paint2_linear_1510_462" x1="23" y1="1" x2="23" y2="9" gradientUnits="userSpaceOnUse">
<stop stop-color="#9FBBC6"/>
<stop offset="1" stop-color="#576E7C"/>
</linearGradient>
<linearGradient id="paint3_linear_1510_462" x1="23" y1="2" x2="23" y2="8" gradientUnits="userSpaceOnUse">
<stop stop-color="#FFFFE3"/>
<stop offset="1" stop-color="#FED868"/>
</linearGradient>
<linearGradient id="paint4_linear_1510_462" x1="8" y1="8" x2="8" y2="16" gradientUnits="userSpaceOnUse">
<stop stop-color="#9FBBC6"/>
<stop offset="1" stop-color="#576E7C"/>
</linearGradient>
<linearGradient id="paint5_linear_1510_462" x1="8" y1="9" x2="8" y2="15" gradientUnits="userSpaceOnUse">
<stop stop-color="#FFFFE3"/>
<stop offset="1" stop-color="#FED868"/>
</linearGradient>
<linearGradient id="paint6_linear_1510_462" x1="40" y1="8" x2="40" y2="16" gradientUnits="userSpaceOnUse">
<stop stop-color="#9FBBC6"/>
<stop offset="1" stop-color="#576E7C"/>
</linearGradient>
<linearGradient id="paint7_linear_1510_462" x1="40" y1="9" x2="40" y2="15" gradientUnits="userSpaceOnUse">
<stop stop-color="#FFFFE3"/>
<stop offset="1" stop-color="#FED868"/>
</linearGradient>
<linearGradient id="paint8_linear_1510_462" x1="56" y1="6" x2="56" y2="16" gradientUnits="userSpaceOnUse">
<stop stop-color="#9FBBC6"/>
<stop offset="1" stop-color="#576E7C"/>
</linearGradient>
<linearGradient id="paint9_linear_1510_462" x1="69.5" y1="5" x2="72.5" y2="12" gradientUnits="userSpaceOnUse">
<stop stop-color="white"/>
<stop offset="1" stop-color="white" stop-opacity="0"/>
</linearGradient>
</defs>
</svg>
