<svg width="80" height="80" viewBox="0 0 80 80" fill="none" xmlns="http://www.w3.org/2000/svg">
<g clip-path="url(#clip0_779_14699)">
<path d="M0 10.6667C0 4.77563 4.77563 0 10.6667 0H69.3333C75.2244 0 80 4.77563 80 10.6667V69.3333C80 75.2244 75.2244 80 69.3333 80H10.6667C4.77563 80 0 75.2244 0 69.3333V10.6667Z" fill="#1E1E1E"/>
<path fill-rule="evenodd" clip-rule="evenodd" d="M39.5556 56.4444C48.883 56.4444 56.4444 48.883 56.4444 39.5556C56.4444 30.2281 48.883 22.6667 39.5556 22.6667C30.2281 22.6667 22.6667 30.2281 22.6667 39.5556C22.6667 48.883 30.2281 56.4444 39.5556 56.4444ZM39.5556 63.1111C52.5649 63.1111 63.1111 52.5649 63.1111 39.5556C63.1111 26.5462 52.5649 16 39.5556 16C26.5462 16 16 26.5462 16 39.5556C16 52.5649 26.5462 63.1111 39.5556 63.1111Z" fill="white"/>
</g>
<defs>
<clipPath id="clip0_779_14699">
<rect width="80" height="80" fill="white"/>
</clipPath>
</defs>
</svg>
