<svg width="16" height="16" viewBox="0 0 16 16" fill="none" xmlns="http://www.w3.org/2000/svg">
<path fill-rule="evenodd" clip-rule="evenodd" d="M11.4319 1L3.60001 1.00001L3.56811 1H3.56809C3.31572 0.999973 3.06993 0.999943 2.86178 1.01695C2.63318 1.03563 2.36345 1.07969 2.09202 1.21799C1.7157 1.40974 1.40974 1.7157 1.21799 2.09202C1.07969 2.36345 1.03563 2.63318 1.01695 2.86178C0.999943 3.06993 0.999973 3.31572 1 3.56809V3.56811L1.00001 3.60001L1 12.4319V12.4319C0.999973 12.6843 0.999943 12.9301 1.01695 13.1382C1.03563 13.3668 1.07969 13.6366 1.21799 13.908C1.40974 14.2843 1.7157 14.5903 2.09202 14.782C2.36345 14.9203 2.63318 14.9644 2.86178 14.9831C3.06994 15.0001 3.31574 15 3.56812 15H11.4319C11.6843 15 11.9301 15.0001 12.1382 14.9831C12.3668 14.9644 12.6366 14.9203 12.908 14.782C13.2843 14.5903 13.5903 14.2843 13.782 13.908C13.9203 13.6366 13.9644 13.3668 13.9831 13.1382C14.0001 12.9301 14 12.6843 14 12.4319V3.56812C14 3.31574 14.0001 3.06994 13.9831 2.86178C13.9644 2.63318 13.9203 2.36345 13.782 2.09202C13.5903 1.7157 13.2843 1.40974 12.908 1.21799C12.6366 1.07969 12.3668 1.03563 12.1382 1.01695C11.9301 0.999943 11.6843 0.999973 11.4319 1H11.4319ZM2.00001 3.60001C2.00001 3.03995 2.00001 2.75993 2.109 2.54601C2.20487 2.35785 2.35785 2.20487 2.54601 2.109C2.75993 2.00001 3.03995 2.00001 3.60001 2.00001H11.4C11.9601 2.00001 12.2401 2.00001 12.454 2.109C12.6422 2.20487 12.7951 2.35785 12.891 2.54601C13 2.75993 13 3.03995 13 3.60001V12.4C13 12.9601 13 13.2401 12.891 13.454C12.7951 13.6422 12.6422 13.7951 12.454 13.891C12.2401 14 11.9601 14 11.4 14H3.60001C3.03995 14 2.75993 14 2.54601 13.891C2.35785 13.7951 2.20487 13.6422 2.109 13.454C2.00001 13.2401 2.00001 12.9601 2.00001 12.4V3.60001ZM12 3H8V4H12V3ZM3 5H7V6H3V5ZM8 9H3V10H8V9ZM3 11H10V12H3V11ZM10 7H3V8H10V7Z" fill="#2B2B2B"/>
</svg>
