<svg width="60" height="60" viewBox="0 0 60 60" fill="none" xmlns="http://www.w3.org/2000/svg">
<g clip-path="url(#clip0_690_18884)">
<path d="M0 8C0 3.58172 3.58172 0 8 0H52C56.4183 0 60 3.58172 60 8V52C60 56.4183 56.4183 60 52 60H8C3.58172 60 0 56.4183 0 52V8Z" fill="#FC5964"/>
<path fill-rule="evenodd" clip-rule="evenodd" d="M36 17C36.3682 17 36.6667 17.2985 36.6667 17.6667V25C36.6667 25.3682 36.3682 25.6667 36 25.6667H23C22.6318 25.6667 22.3333 25.3682 22.3333 25V17.6667C22.3333 17.2985 22.6318 17 23 17H36ZM17.3333 17C17.3333 14.2386 19.5719 12 22.3333 12H36.6667C39.4281 12 41.6667 14.2386 41.6667 17V24.7812C41.6667 25.3335 42.1143 25.7812 42.6666 25.7812C43.2974 25.7812 44.0697 25.7812 44.4896 25.7812C45.9623 25.7812 47.1562 26.9752 47.1562 28.4479V36.0938C47.1562 42.307 42.1195 47.3438 35.9062 47.3438H23.25C17.0368 47.3438 12 42.307 12 36.0937L12 28.4479C12 26.9752 13.1939 25.7812 14.6667 25.7812C15.0647 25.7812 15.755 25.7812 16.3336 25.7812C16.8859 25.7812 17.3333 25.3335 17.3333 24.7812V17ZM35.9062 42.6562L23.25 42.6562C19.6256 42.6562 16.6875 39.7181 16.6875 36.0937L16.6875 31.1354C16.6875 30.7672 16.986 30.4687 17.3542 30.4687L41.8021 30.4688C42.1703 30.4688 42.4688 30.7672 42.4688 31.1354L42.4687 36.0938C42.4687 39.7181 39.5306 42.6562 35.9062 42.6562Z" fill="white"/>
</g>
<defs>
<clipPath id="clip0_690_18884">
<rect width="60" height="60" fill="white"/>
</clipPath>
</defs>
</svg>
