<svg width="40" height="35" viewBox="0 0 40 35" fill="none" xmlns="http://www.w3.org/2000/svg">
<path fill-rule="evenodd" clip-rule="evenodd" d="M8 8H6V26H8V8ZM11 8H9V23H11V8ZM19 8H21V23H19V8ZM25 8H22V23H25V8ZM12 8H13V23H12V8ZM18 8H17V23H18V8ZM14 8H16V23H14V8ZM28 8H26V26H28V8Z" fill="#2B2B2B"/>
<path d="M2 6C2 3.8 3.8 2 6 2H7C7.6 2 8 1.6 8 1C8 0.4 7.6 0 7 0H6C2.7 0 0 2.7 0 6V7C0 7.6 0.4 8 1 8C1.6 8 2 7.6 2 7V6Z" fill="#00A358"/>
<path d="M6 32C3.8 32 2 30.2 2 28V27C2 26.4 1.6 26 1 26C0.4 26 0 26.4 0 27V28C0 31.3 2.7 34 6 34H7C7.6 34 8 33.6 8 33C8 32.4 7.6 32 7 32H6Z" fill="#00A358"/>
<path d="M28 0H27C26.4 0 26 0.4 26 1C26 1.6 26.4 2 27 2H28C30.2 2 32 3.8 32 6V7C32 7.6 32.4 8 33 8C33.6 8 34 7.6 34 7V6C34 2.7 31.3 0 28 0Z" fill="#00A358"/>
<path d="M32 28C32 30.2 30.2 32 28 32H27C26.4 32 26 32.4 26 33C26 33.6 26.4 34 27 34H28C31.3 34 34 31.3 34 28V27C34 26.4 33.6 26 33 26C32.4 26 32 26.4 32 27V28Z" fill="#00A358"/>
</svg>
