<svg width="54" height="54" viewBox="0 0 54 54" fill="none" xmlns="http://www.w3.org/2000/svg">
<rect width="54" height="54" rx="27" fill="#CFE5FA"/>
<g clip-path="url(#clip0_1_237)">
<path d="M30.694 31.293L28.412 34.146C24.8777 32.0687 21.9323 29.1234 19.855 25.589L22.708 23.307C23.0421 23.0392 23.2782 22.6684 23.3795 22.2524C23.4807 21.8363 23.4416 21.3985 23.268 21.007L20.668 15.152C20.4817 14.7319 20.1522 14.3916 19.7382 14.1919C19.3242 13.9923 18.8528 13.9462 18.408 14.062L13.458 15.346C12.9958 15.4663 12.5939 15.7521 12.3286 16.1492C12.0633 16.5463 11.9531 17.027 12.019 17.5C12.8876 23.6857 15.7463 29.4204 20.1631 33.8373C24.5798 38.2542 30.3144 41.1132 36.5 41.982C36.9727 42.0468 37.4528 41.9361 37.8495 41.671C38.2462 41.4058 38.532 41.0046 38.653 40.543L39.937 35.593C40.0519 35.1487 40.0056 34.6779 39.8062 34.2645C39.6068 33.8511 39.2673 33.5218 38.848 33.335L32.993 30.735C32.602 30.5612 32.1644 30.5216 31.7485 30.6225C31.3326 30.7235 30.9618 30.9592 30.694 31.293Z" stroke="#444444" stroke-width="2" stroke-miterlimit="10" stroke-linecap="round" stroke-linejoin="round"/>
<path d="M36 12C34.9892 11.9981 33.9945 12.2521 33.1083 12.7382C32.2221 13.2244 31.4734 13.9269 30.9319 14.7804C30.3903 15.6338 30.0736 16.6104 30.0112 17.6193C29.9488 18.6281 30.1428 19.6363 30.575 20.55L30 24L33.45 23.425C34.2638 23.8095 35.1537 24.006 36.0537 23.9999C36.9537 23.9938 37.8409 23.7853 38.6494 23.3898C39.4579 22.9943 40.1671 22.422 40.7244 21.7153C41.2817 21.0085 41.6729 20.1854 41.869 19.307C42.065 18.4286 42.061 17.5173 41.857 16.6406C41.6531 15.764 41.2546 14.9444 40.691 14.2427C40.1273 13.541 39.4131 12.9751 38.601 12.5868C37.789 12.1986 36.9001 11.9981 36 12Z" stroke="#444444" stroke-width="2" stroke-miterlimit="10" stroke-linecap="round" stroke-linejoin="round"/>
</g>
<defs>
<clipPath id="clip0_1_237">
<rect width="32" height="32" fill="white" transform="translate(11 11)"/>
</clipPath>
</defs>
</svg>
