<svg width="16" height="16" viewBox="0 0 16 16" fill="none" xmlns="http://www.w3.org/2000/svg">
<path d="M11.4749 12.5001C11.2912 10.4616 9.58287 8.86377 7.4999 8.86377C5.41693 8.86377 3.70859 10.4616 3.5249 12.5001" fill="#4D4D4D"/>
<path d="M11.4749 12.5001C11.2912 10.4616 9.58287 8.86377 7.4999 8.86377C5.41693 8.86377 3.70859 10.4616 3.5249 12.5001H7.4999H11.4749Z" stroke="#4D4D4D" stroke-linecap="round" stroke-linejoin="round"/>
<path d="M7.5 9C8.88071 9 10 7.88071 10 6.5C10 5.11929 8.88071 4 7.5 4C6.11929 4 5 5.11929 5 6.5C5 7.88071 6.11929 9 7.5 9Z" fill="#4D4D4D"/>
<path d="M11.4749 12.5001C11.2912 10.4616 9.58287 8.86377 7.4999 8.86377C5.41693 8.86377 3.70859 10.4616 3.5249 12.5001" stroke="#4D4D4D" stroke-linecap="round" stroke-linejoin="round"/>
<path d="M7.49986 8.86364C8.70278 8.86364 9.67794 7.8868 9.67794 6.68182C9.67794 5.47683 8.70278 4.5 7.49986 4.5C6.29694 4.5 5.32178 5.47683 5.32178 6.68182C5.32178 7.8868 6.29694 8.86364 7.49986 8.86364Z" stroke="#4D4D4D" stroke-linecap="round" stroke-linejoin="round"/>
<path d="M6 12H9L8 15H7L6 12Z" fill="#4D4D4D"/>
<path fill-rule="evenodd" clip-rule="evenodd" d="M0.585786 2.58579C0.960859 2.21071 1.46957 2 2 2H13C13.5304 2 14.0391 2.21071 14.4142 2.58579C14.7893 2.96086 15 3.46957 15 4V11C15 11.5304 14.7893 12.0391 14.4142 12.4142C14.0391 12.7893 13.5304 13 13 13H9.30902L7.94721 15.7236C7.86252 15.893 7.68939 16 7.5 16C7.31061 16 7.13748 15.893 7.05279 15.7236L5.69098 13H2C1.46957 13 0.960859 12.7893 0.585786 12.4142C0.210714 12.0391 0 11.5304 0 11V4C0 3.46957 0.210714 2.96086 0.585786 2.58579ZM2 3C1.73478 3 1.48043 3.10536 1.29289 3.29289C1.10536 3.48043 1 3.73478 1 4V11C1 11.2652 1.10536 11.5196 1.29289 11.7071C1.48043 11.8946 1.73478 12 2 12H6C6.18939 12 6.36252 12.107 6.44721 12.2764L7.5 14.382L8.55279 12.2764C8.63748 12.107 8.81061 12 9 12H13C13.2652 12 13.5196 11.8946 13.7071 11.7071C13.8946 11.5196 14 11.2652 14 11V4C14 3.73478 13.8946 3.48043 13.7071 3.29289C13.5196 3.10536 13.2652 3 13 3H2Z" fill="#4D4D4D"/>
</svg>
