<svg width="16" height="16" viewBox="0 0 16 16" fill="none" xmlns="http://www.w3.org/2000/svg">
<path fill-rule="evenodd" clip-rule="evenodd" d="M3 2H2V12H3V2ZM6 2H4V10H6V2ZM7 2H8V10H7V2ZM10 2H9V10H10V2ZM11 2H12V10H11V2ZM14 2H13V12H14V2Z" fill="#2B2B2B"/>
<circle cx="12" cy="11" r="4" fill="#EB4242"/>
<path fill-rule="evenodd" clip-rule="evenodd" d="M11.3142 11.0214L9.90002 12.4355L10.6072 13.1427L12.0214 11.7285L13.4355 13.1427L14.1427 12.4355L12.7285 11.0214L14.1427 9.60718L13.4355 8.90002L12.0214 10.3142L10.6072 8.90002L9.90002 9.60718L11.3142 11.0214Z" fill="white"/>
</svg>
