<svg width="55" height="55" viewBox="0 0 55 55" fill="none" xmlns="http://www.w3.org/2000/svg">
<circle cx="27.5" cy="27.5" r="27.5" fill="#D1EAD2"/>
<path fill-rule="evenodd" clip-rule="evenodd" d="M23 21C23.5523 21 24 21.4477 24 22V42C24 42.5523 23.5523 43 23 43C22.4477 43 22 42.5523 22 42V22C22 21.4477 22.4477 21 23 21Z" fill="#444444"/>
<path fill-rule="evenodd" clip-rule="evenodd" d="M19 13C17.8954 13 17 13.8954 17 15C17 16.1046 17.8954 17 19 17C20.1046 17 21 16.1046 21 15C21 13.8954 20.1046 13 19 13ZM15 15C15 12.7909 16.7909 11 19 11C21.2091 11 23 12.7909 23 15C23 17.2091 21.2091 19 19 19C16.7909 19 15 17.2091 15 15Z" fill="#444444"/>
<path fill-rule="evenodd" clip-rule="evenodd" d="M14.8787 21.8787C15.4413 21.3161 16.2044 21 17 21H33C33.5523 21 34 21.4477 34 22C34 22.5523 33.5523 23 33 23H17C16.7348 23 16.4804 23.1054 16.2929 23.2929C16.1054 23.4804 16 23.7348 16 24V42C16 42.5523 15.5523 43 15 43C14.4477 43 14 42.5523 14 42V24C14 23.2044 14.3161 22.4413 14.8787 21.8787Z" fill="#444444"/>
<path fill-rule="evenodd" clip-rule="evenodd" d="M25 15C25 14.4477 25.4477 14 26 14H41C41.5523 14 42 14.4477 42 15V33C42 33.5523 41.5523 34 41 34H27C26.4477 34 26 33.5523 26 33C26 32.4477 26.4477 32 27 32H40V16H26C25.4477 16 25 15.5523 25 15Z" fill="#444444"/>
<path fill-rule="evenodd" clip-rule="evenodd" d="M33.5144 32.1258C33.9971 31.8576 34.6059 32.0316 34.8742 32.5144L39.8742 41.5144C40.1424 41.9971 39.9684 42.6059 39.4856 42.8742C39.0029 43.1424 38.3941 42.9684 38.1258 42.4856L33.1258 33.4856C32.8576 33.0029 33.0316 32.3941 33.5144 32.1258Z" fill="#444444"/>
</svg>
