<svg width="24" height="24" viewBox="0 0 24 24" fill="none" xmlns="http://www.w3.org/2000/svg">
<path d="M8.21094 15L9.6875 14.875C9.79688 15.5938 10.0495 16.1354 10.4453 16.5C10.8464 16.8594 11.3281 17.0391 11.8906 17.0391C12.5677 17.0391 13.1406 16.7839 13.6094 16.2734C14.0781 15.763 14.3125 15.0859 14.3125 14.2422C14.3125 13.4401 14.0859 12.8073 13.6328 12.3438C13.1849 11.8802 12.5964 11.6484 11.8672 11.6484C11.4141 11.6484 11.0052 11.7526 10.6406 11.9609C10.276 12.1641 9.98958 12.4297 9.78125 12.7578L8.46094 12.5859L9.57031 6.70312H15.2656V8.04688H10.6953L10.0781 11.125C10.7656 10.6458 11.487 10.4062 12.2422 10.4062C13.2422 10.4062 14.0859 10.7526 14.7734 11.4453C15.4609 12.138 15.8047 13.0286 15.8047 14.1172C15.8047 15.1536 15.5026 16.0495 14.8984 16.8047C14.1641 17.7318 13.1615 18.1953 11.8906 18.1953C10.849 18.1953 9.9974 17.9036 9.33594 17.3203C8.67969 16.737 8.30469 15.9635 8.21094 15Z" fill="#B2B2B2"/>
</svg>
