<svg width="16" height="16" viewBox="0 0 16 16" fill="none" xmlns="http://www.w3.org/2000/svg">
<path d="M5 3H12V13H5V3Z" fill="#FFDB79"/>
<path d="M5 2H7C7.55228 2 8 2.44772 8 3H5V2Z" fill="#FFDB79"/>
<path d="M12 2H10C9.44772 2 9 2.44772 9 3H12V2Z" fill="#FFDB79"/>
<path d="M5 14H7C7.55228 14 8 13.5523 8 13H5V14Z" fill="#FFDB79"/>
<path d="M12 14H10C9.44772 14 9 13.5523 9 13H12V14Z" fill="#FFDB79"/>
<path fill-rule="evenodd" clip-rule="evenodd" d="M6.5 2H5V1H6.5C6.74668 1 7.10557 1.06989 7.41715 1.29423C7.75423 1.53693 8 1.93704 8 2.5C8 2.73704 8.08757 2.83693 8.16715 2.89423C8.27223 2.96989 8.41334 3 8.5 3V4C8.25332 4 7.89443 3.93011 7.58285 3.70577C7.24577 3.46307 7 3.06296 7 2.5C7 2.26296 6.91243 2.16307 6.83285 2.10577C6.72777 2.03011 6.58666 2 6.5 2Z" fill="#C05F00"/>
<path fill-rule="evenodd" clip-rule="evenodd" d="M10.5 2H12V1H10.5C10.2533 1 9.89443 1.06989 9.58285 1.29423C9.24577 1.53693 9 1.93704 9 2.5C9 2.73704 8.91243 2.83693 8.83285 2.89423C8.72777 2.96989 8.58666 3 8.5 3V4C8.74668 4 9.10557 3.93011 9.41715 3.70577C9.75423 3.46307 10 3.06296 10 2.5C10 2.26296 10.0876 2.16307 10.1672 2.10577C10.2722 2.03011 10.4133 2 10.5 2Z" fill="#C05F00"/>
<path fill-rule="evenodd" clip-rule="evenodd" d="M6.5 14H5V15H6.5C6.74668 15 7.10557 14.9301 7.41715 14.7058C7.75423 14.4631 8 14.063 8 13.5C8 13.263 8.08757 13.1631 8.16715 13.1058C8.27223 13.0301 8.41334 13 8.5 13V12C8.25332 12 7.89443 12.0699 7.58285 12.2942C7.24577 12.5369 7 12.937 7 13.5C7 13.737 6.91243 13.8369 6.83285 13.8942C6.72777 13.9699 6.58666 14 6.5 14Z" fill="#C05F00"/>
<path fill-rule="evenodd" clip-rule="evenodd" d="M10.5 14H12V15H10.5C10.2533 15 9.89443 14.9301 9.58285 14.7058C9.24577 14.4631 9 14.063 9 13.5C9 13.263 8.91243 13.1631 8.83285 13.1058C8.72777 13.0301 8.58666 13 8.5 13V12C8.74668 12 9.10557 12.0699 9.41715 12.2942C9.75423 12.5369 10 12.937 10 13.5C10 13.737 10.0876 13.8369 10.1672 13.8942C10.2722 13.9699 10.4133 14 10.5 14Z" fill="#C05F00"/>
<path d="M4 2C4 1.44772 4.44772 1 5 1V15C4.44772 15 4 14.5523 4 14V2Z" fill="#C05F00"/>
<path d="M13 2C13 1.44772 12.5523 1 12 1V15C12.5523 15 13 14.5523 13 14V2Z" fill="#C05F00"/>
<rect x="5" y="5" width="1" height="1" fill="#C05F00"/>
<rect x="7" y="5" width="1" height="1" fill="#C05F00"/>
<rect x="9" y="5" width="1" height="1" fill="#C05F00"/>
<rect x="11" y="5" width="1" height="1" fill="#C05F00"/>
</svg>
