<svg width="64" height="16" viewBox="0 0 64 16" fill="none" xmlns="http://www.w3.org/2000/svg">
<path d="M0.5 4V11C0.5 11.3978 0.658035 11.7794 0.93934 12.0607C1.22064 12.342 1.60218 12.5 2 12.5H6L7.5 15.5L9 12.5H13C13.3978 12.5 13.7794 12.342 14.0607 12.0607C14.342 11.7794 14.5 11.3978 14.5 11V4C14.5 3.60218 14.342 3.22064 14.0607 2.93934C13.7794 2.65804 13.3978 2.5 13 2.5H2C1.60218 2.5 1.22064 2.65804 0.93934 2.93934C0.658035 3.22064 0.5 3.60218 0.5 4Z" stroke="#4D4D4D" stroke-linecap="round" stroke-linejoin="round"/>
<path d="M11.4749 12.5001C11.2912 10.4616 9.58287 8.86377 7.4999 8.86377C5.41693 8.86377 3.70859 10.4616 3.5249 12.5001" stroke="#4D4D4D" stroke-linecap="round" stroke-linejoin="round"/>
<path d="M7.49986 8.86364C8.70278 8.86364 9.67794 7.8868 9.67794 6.68182C9.67794 5.47683 8.70278 4.5 7.49986 4.5C6.29694 4.5 5.32178 5.47683 5.32178 6.68182C5.32178 7.8868 6.29694 8.86364 7.49986 8.86364Z" stroke="#4D4D4D" stroke-linecap="round" stroke-linejoin="round"/>
<path d="M41.5 12.5H41L39.5 15.5L38 12.5H34C33.6022 12.5 33.2206 12.342 32.9393 12.0607C32.658 11.7794 32.5 11.3978 32.5 11V4C32.5 3.60218 32.658 3.22064 32.9393 2.93934C33.2206 2.65804 33.6022 2.5 34 2.5H45C45.3978 2.5 45.7794 2.65804 46.0607 2.93934C46.342 3.22064 46.5 3.60218 46.5 4V8" stroke="#4D4D4D" stroke-linecap="round" stroke-linejoin="round"/>
<path d="M39.4999 8.86377C37.4169 8.86377 35.7086 10.4616 35.5249 12.5001" stroke="#4D4D4D" stroke-linecap="round" stroke-linejoin="round"/>
<path d="M39.4999 8.86364C40.7028 8.86364 41.6779 7.8868 41.6779 6.68182C41.6779 5.47683 40.7028 4.5 39.4999 4.5C38.2969 4.5 37.3218 5.47683 37.3218 6.68182C37.3218 7.8868 38.2969 8.86364 39.4999 8.86364Z" stroke="#4D4D4D" stroke-linecap="round" stroke-linejoin="round"/>
<path fill-rule="evenodd" clip-rule="evenodd" d="M41.2929 9.29289C41.6834 8.90237 42.3166 8.90237 42.7071 9.29289L44.5 11.0858L46.2929 9.29289C46.6834 8.90237 47.3166 8.90237 47.7071 9.29289C48.0976 9.68342 48.0976 10.3166 47.7071 10.7071L45.9142 12.5L47.7071 14.2929C48.0976 14.6834 48.0976 15.3166 47.7071 15.7071C47.3166 16.0976 46.6834 16.0976 46.2929 15.7071L44.5 13.9142L42.7071 15.7071C42.3166 16.0976 41.6834 16.0976 41.2929 15.7071C40.9024 15.3166 40.9024 14.6834 41.2929 14.2929L43.0858 12.5L41.2929 10.7071C40.9024 10.3166 40.9024 9.68342 41.2929 9.29289Z" fill="#D32917"/>
<path d="M27.4749 12.5001C27.2912 10.4616 25.5829 8.86377 23.4999 8.86377C21.4169 8.86377 19.7086 10.4616 19.5249 12.5001" fill="#4D4D4D" stroke="#4D4D4D" stroke-linecap="round" stroke-linejoin="round"/>
<path d="M23.5 9C24.8807 9 26 7.88071 26 6.5C26 5.11929 24.8807 4 23.5 4C22.1193 4 21 5.11929 21 6.5C21 7.88071 22.1193 9 23.5 9Z" fill="#4D4D4D"/>
<path d="M27.4749 12.5001C27.2912 10.4616 25.5829 8.86377 23.4999 8.86377C21.4169 8.86377 19.7086 10.4616 19.5249 12.5001" stroke="#4D4D4D" stroke-linecap="round" stroke-linejoin="round"/>
<path d="M23.4999 8.86364C24.7028 8.86364 25.6779 7.8868 25.6779 6.68182C25.6779 5.47683 24.7028 4.5 23.4999 4.5C22.2969 4.5 21.3218 5.47683 21.3218 6.68182C21.3218 7.8868 22.2969 8.86364 23.4999 8.86364Z" stroke="#4D4D4D" stroke-linecap="round" stroke-linejoin="round"/>
<path d="M22 12H25L24 15H23L22 12Z" fill="#4D4D4D"/>
<path fill-rule="evenodd" clip-rule="evenodd" d="M16.5858 2.58579C16.9609 2.21071 17.4696 2 18 2H29C29.5304 2 30.0391 2.21071 30.4142 2.58579C30.7893 2.96086 31 3.46957 31 4V11C31 11.5304 30.7893 12.0391 30.4142 12.4142C30.0391 12.7893 29.5304 13 29 13H25.309L23.9472 15.7236C23.8625 15.893 23.6894 16 23.5 16C23.3106 16 23.1375 15.893 23.0528 15.7236L21.691 13H18C17.4696 13 16.9609 12.7893 16.5858 12.4142C16.2107 12.0391 16 11.5304 16 11V4C16 3.46957 16.2107 2.96086 16.5858 2.58579ZM18 3C17.7348 3 17.4804 3.10536 17.2929 3.29289C17.1054 3.48043 17 3.73478 17 4V11C17 11.2652 17.1054 11.5196 17.2929 11.7071C17.4804 11.8946 17.7348 12 18 12H22C22.1894 12 22.3625 12.107 22.4472 12.2764L23.5 14.382L24.5528 12.2764C24.6375 12.107 24.8106 12 25 12H29C29.2652 12 29.5196 11.8946 29.7071 11.7071C29.8946 11.5196 30 11.2652 30 11V4C30 3.73478 29.8946 3.48043 29.7071 3.29289C29.5196 3.10536 29.2652 3 29 3H18Z" fill="#4D4D4D"/>
<path d="M57.5 12.5001C57.5 12.5001 55.5 11.5 55.4999 8.86377C53.4169 8.86377 51.7086 10.4616 51.5249 12.5001" fill="#4D4D4D" stroke="#4D4D4D" stroke-linecap="round" stroke-linejoin="round"/>
<path d="M55.5 9C56.8807 9 58 7.88071 58 6.5C58 5.11929 56.8807 4 55.5 4C54.1193 4 53 5.11929 53 6.5C53 7.88071 54.1193 9 55.5 9Z" fill="#4D4D4D"/>
<path d="M55.4999 8.86377C53.4169 8.86377 51.7086 10.4616 51.5249 12.5001" stroke="#4D4D4D" stroke-linecap="round" stroke-linejoin="round"/>
<path d="M55.4999 8.86364C56.7028 8.86364 57.6779 7.8868 57.6779 6.68182C57.6779 5.47683 56.7028 4.5 55.4999 4.5C54.2969 4.5 53.3218 5.47683 53.3218 6.68182C53.3218 7.8868 54.2969 8.86364 55.4999 8.86364Z" stroke="#4D4D4D" stroke-linecap="round" stroke-linejoin="round"/>
<path d="M54 12H57L56 15H55L54 12Z" fill="#4D4D4D"/>
<path fill-rule="evenodd" clip-rule="evenodd" d="M57.2929 9.29289C57.6834 8.90237 58.3166 8.90237 58.7071 9.29289L60.5 11.0858L62.2929 9.29289C62.6834 8.90237 63.3166 8.90237 63.7071 9.29289C64.0976 9.68342 64.0976 10.3166 63.7071 10.7071L61.9142 12.5L63.7071 14.2929C64.0976 14.6834 64.0976 15.3166 63.7071 15.7071C63.3166 16.0976 62.6834 16.0976 62.2929 15.7071L60.5 13.9142L58.7071 15.7071C58.3166 16.0976 57.6834 16.0976 57.2929 15.7071C56.9024 15.3166 56.9024 14.6834 57.2929 14.2929L59.0858 12.5L57.2929 10.7071C56.9024 10.3166 56.9024 9.68342 57.2929 9.29289Z" fill="#D32917"/>
<path d="M57.5 12.5H57L55.5 15.5L54 12.5H50C49.6022 12.5 49.2206 12.342 48.9393 12.0607C48.658 11.7794 48.5 11.3978 48.5 11V4C48.5 3.60218 48.658 3.22064 48.9393 2.93934C49.2206 2.65804 49.6022 2.5 50 2.5H61C61.3978 2.5 61.7794 2.65804 62.0607 2.93934C62.342 3.22064 62.5 3.60218 62.5 4V8" stroke="#4D4D4D" stroke-linecap="round" stroke-linejoin="round"/>
</svg>
