<svg width="16" height="16" viewBox="0 0 16 16" fill="none" xmlns="http://www.w3.org/2000/svg">
<path d="M1 2C1 1.44772 1.44772 1 2 1H14C14.5523 1 15 1.44772 15 2V14C15 14.5523 14.5523 15 14 15H2C1.44772 15 1 14.5523 1 14V2Z" fill="white"/>
<path fill-rule="evenodd" clip-rule="evenodd" d="M14 2H2V14H14V2ZM2 1C1.44772 1 1 1.44772 1 2V14C1 14.5523 1.44772 15 2 15H14C14.5523 15 15 14.5523 15 14V2C15 1.44772 14.5523 1 14 1H2Z" fill="#476475" fill-opacity="0.7"/>
<path d="M16 11.5C16 13.9853 13.9853 16 11.5 16C9.01472 16 7 13.9853 7 11.5C7 9.01472 9.01472 7 11.5 7C13.9853 7 16 9.01472 16 11.5Z" fill="#57C063"/>
<path fill-rule="evenodd" clip-rule="evenodd" d="M11.5 15C13.433 15 15 13.433 15 11.5C15 9.567 13.433 8 11.5 8C9.567 8 8 9.567 8 11.5C8 13.433 9.567 15 11.5 15ZM11.5 16C13.9853 16 16 13.9853 16 11.5C16 9.01472 13.9853 7 11.5 7C9.01472 7 7 9.01472 7 11.5C7 13.9853 9.01472 16 11.5 16Z" fill="#12831F"/>
<path d="M9 11H14V12H9V11Z" fill="white"/>
<path d="M12 9L12 14L11 14L11 9L12 9Z" fill="white"/>
<path fill-rule="evenodd" clip-rule="evenodd" d="M6 4H12V5H6V4ZM7.67133 7H6V8H6.75777C7.01056 7.62236 7.31899 7.28512 7.67133 7Z" fill="#A6BBC6"/>
<path d="M4 4H5V5H4V4Z" fill="#6A7F8A"/>
<path d="M4 7H5V8H4V7Z" fill="#6A7F8A"/>
<path d="M4 10H5V11H4V10Z" fill="#6A7F8A"/>
</svg>
