<svg width="40" height="35" viewBox="0 0 40 35" fill="none" xmlns="http://www.w3.org/2000/svg">
<path fill-rule="evenodd" clip-rule="evenodd" d="M9.72225 3.479C7.58838 4.05266 5.46834 4.67661 3.36392 5.35033C3.17347 5.40912 3.00348 5.52044 2.87346 5.67151C2.74344 5.82258 2.65868 6.00726 2.62892 6.20433C1.38525 15.2973 4.25525 21.9333 7.67825 26.3037C9.39559 28.497 11.2553 30.121 12.8046 31.1873C13.5816 31.7193 14.2653 32.1067 14.8043 32.354C15.0749 32.4777 15.2943 32.5617 15.4623 32.6107C15.5363 32.6345 15.612 32.6532 15.6886 32.6667C15.7049 32.6643 15.7773 32.655 15.9149 32.613C16.0829 32.5617 16.3023 32.4777 16.5729 32.354C17.1096 32.1067 17.7979 31.7193 18.5726 31.1873C20.5154 29.8242 22.2433 28.1781 23.6989 26.3037C27.1219 21.9333 29.9919 15.2973 28.7483 6.20433C28.7185 6.00726 28.6337 5.82258 28.5037 5.67151C28.3737 5.52044 28.2037 5.40912 28.0133 5.35033C26.5526 4.88367 24.0886 4.123 21.6549 3.479C19.1676 2.82333 16.8786 2.33333 15.6886 2.33333C14.4986 2.33333 12.2119 2.82333 9.72225 3.479ZM9.12492 1.225C11.5586 0.581 14.1416 0 15.6886 0C17.2333 0 19.8186 0.581 22.2523 1.225C24.4229 1.80781 26.5795 2.44187 28.7203 3.12667C29.9523 3.51867 30.8809 4.58033 31.0606 5.88933C32.3976 15.6823 29.2966 22.939 25.5376 27.741C23.9357 29.8018 22.0339 31.6108 19.8956 33.1077C19.1521 33.6285 18.3661 34.0859 17.5459 34.475C16.9159 34.7643 16.2439 35 15.6886 35C15.1333 35 14.4613 34.7643 13.8313 34.475C13.0109 34.0862 12.2249 33.6288 11.4816 33.1077C9.34412 31.6106 7.44311 29.8016 5.84192 27.741C2.07825 22.939 -1.02042 15.6823 0.316584 5.88933C0.405977 5.25483 0.673227 4.65862 1.0874 4.1697C1.50158 3.68078 2.04575 3.31915 2.65692 3.12667C4.79763 2.44189 6.95423 1.80782 9.12492 1.225Z" fill="#2B2B2B"/>
<path d="M19.1885 14C19.1885 14.9283 18.8197 15.8185 18.1634 16.4749C17.507 17.1313 16.6167 17.5 15.6885 17.5C14.7602 17.5 13.87 17.1313 13.2136 16.4749C12.5572 15.8185 12.1885 14.9283 12.1885 14C12.1885 13.0717 12.5572 12.1815 13.2136 11.5251C13.87 10.8687 14.7602 10.5 15.6885 10.5C16.6167 10.5 17.507 10.8687 18.1634 11.5251C18.8197 12.1815 19.1885 13.0717 19.1885 14Z" fill="#EB4242"/>
<path d="M14.3143 17.5794C14.3601 17.3074 14.5007 17.0604 14.7113 16.8823C14.9219 16.7041 15.1888 16.6064 15.4646 16.6064H15.8286C16.103 16.6067 16.3685 16.7037 16.5785 16.8803C16.7884 17.057 16.9294 17.302 16.9766 17.5724L17.7863 22.239C17.8152 22.4066 17.8071 22.5785 17.7626 22.7426C17.7181 22.9067 17.6383 23.0591 17.5287 23.1892C17.4191 23.3192 17.2824 23.4237 17.1282 23.4954C16.974 23.567 16.806 23.6041 16.6359 23.604H14.6876C14.5183 23.6039 14.351 23.567 14.1973 23.4957C14.0437 23.4245 13.9074 23.3207 13.7979 23.1914C13.6885 23.0622 13.6085 22.9107 13.5634 22.7474C13.5184 22.5842 13.5095 22.4131 13.5373 22.246L14.3143 17.5794Z" fill="#EB4242"/>
</svg>
