<svg width="15" height="14" viewBox="0 0 15 14" fill="none" xmlns="http://www.w3.org/2000/svg">
<path opacity="0.2" d="M5.45537 1.58439H11.6057L13.259 4.59341L7.00951 12.0333L4.03354 4.59341L5.45537 1.58439Z" fill="#006DCB"/>
<path opacity="0.2" fill-rule="evenodd" clip-rule="evenodd" d="M2.00001 1H7.00001H12L14.0338 4.55505L7.00001 13L0.033769 4.55505L2.00001 1Z" fill="#006DCB"/>
<path opacity="0.3" d="M9.78506 4.64627L8.5 1.5H11.7083L13.2336 4.64627L7.33127 11.6761L9.78506 4.64627Z" fill="#006DCB"/>
<path d="M0.635968 4.49933L2.29485 1.5H7.00001H11.71L13.4273 4.5019L7.00187 12.2165L0.635968 4.49933Z" stroke="#2B2B2B"/>
<rect x="1" y="4" width="12" height="1" fill="#2B2B2B"/>
<path d="M5.39724 1.66839L4.07228 4.39711L6.8699 11.9579" stroke="#2B2B2B"/>
<path d="M8.54497 1.64205L9.93181 4.39711L7.13419 11.9579" stroke="#2B2B2B"/>
</svg>
