<svg width="24" height="24" viewBox="0 0 24 24" fill="none" xmlns="http://www.w3.org/2000/svg">
<path d="M10.375 11.7891C9.79167 11.5755 9.35938 11.2708 9.07812 10.875C8.79688 10.4792 8.65625 10.0052 8.65625 9.45312C8.65625 8.61979 8.95573 7.91927 9.55469 7.35156C10.1536 6.78385 10.9505 6.5 11.9453 6.5C12.9453 6.5 13.75 6.79167 14.3594 7.375C14.9688 7.95312 15.2734 8.65885 15.2734 9.49219C15.2734 10.0234 15.1328 10.487 14.8516 10.8828C14.5755 11.2734 14.1536 11.5755 13.5859 11.7891C14.2891 12.0182 14.8229 12.388 15.1875 12.8984C15.5573 13.4089 15.7422 14.0182 15.7422 14.7266C15.7422 15.7057 15.3958 16.5286 14.7031 17.1953C14.0104 17.862 13.099 18.1953 11.9688 18.1953C10.8385 18.1953 9.92708 17.862 9.23438 17.1953C8.54167 16.5234 8.19531 15.6875 8.19531 14.6875C8.19531 13.9427 8.38281 13.3203 8.75781 12.8203C9.13802 12.3151 9.67708 11.9714 10.375 11.7891ZM10.0938 9.40625C10.0938 9.94792 10.2682 10.3906 10.6172 10.7344C10.9661 11.0781 11.4193 11.25 11.9766 11.25C12.5182 11.25 12.9609 11.0807 13.3047 10.7422C13.6536 10.3984 13.8281 9.97917 13.8281 9.48438C13.8281 8.96875 13.6484 8.53646 13.2891 8.1875C12.9349 7.83333 12.4922 7.65625 11.9609 7.65625C11.4245 7.65625 10.9792 7.82812 10.625 8.17188C10.2708 8.51562 10.0938 8.92708 10.0938 9.40625ZM9.64062 14.6953C9.64062 15.0964 9.73438 15.4844 9.92188 15.8594C10.1146 16.2344 10.3984 16.526 10.7734 16.7344C11.1484 16.9375 11.5521 17.0391 11.9844 17.0391C12.6562 17.0391 13.2109 16.8229 13.6484 16.3906C14.0859 15.9583 14.3047 15.4089 14.3047 14.7422C14.3047 14.0651 14.0781 13.5052 13.625 13.0625C13.1771 12.6198 12.6146 12.3984 11.9375 12.3984C11.276 12.3984 10.7266 12.6172 10.2891 13.0547C9.85677 13.4922 9.64062 14.0391 9.64062 14.6953Z" fill="#B2B2B2"/>
</svg>
