<svg width="40" height="35" viewBox="0 0 40 35" fill="none" xmlns="http://www.w3.org/2000/svg">
<rect x="1" y="1" width="20" height="32" rx="3" stroke="#2B2B2B" stroke-width="2"/>
<mask id="path-2-inside-1_3108_46218" fill="white">
<rect x="4" y="4" width="14" height="9" rx="1"/>
</mask>
<rect x="4" y="4" width="14" height="9" rx="1" stroke="#2B2B2B" stroke-width="4" mask="url(#path-2-inside-1_3108_46218)"/>
<rect x="4" y="15" width="4" height="2" rx="1" fill="#2B2B2B"/>
<rect x="4" y="19" width="4" height="2" rx="1" fill="#2B2B2B"/>
<rect x="4" y="23" width="4" height="2" rx="1" fill="#2B2B2B"/>
<rect x="4" y="27" width="4" height="2" rx="1" fill="#2B2B2B"/>
<rect x="9" y="15" width="4" height="2" rx="1" fill="#2B2B2B"/>
<rect x="9" y="19" width="4" height="2" rx="1" fill="#2B2B2B"/>
<rect x="9" y="23" width="4" height="2" rx="1" fill="#2B2B2B"/>
<rect x="9" y="27" width="4" height="2" rx="1" fill="#2B2B2B"/>
<rect x="14" y="15" width="4" height="2" rx="1" fill="#2B2B2B"/>
<rect x="14" y="19" width="4" height="2" rx="1" fill="#2B2B2B"/>
<rect x="14" y="23" width="4" height="2" rx="1" fill="#2B2B2B"/>
<rect x="14" y="27" width="4" height="2" rx="1" fill="#2B2B2B"/>
<mask id="mask0_3108_46218" style="mask-type:alpha" maskUnits="userSpaceOnUse" x="22" y="4" width="10" height="26">
<rect x="22" y="4" width="10" height="26" fill="#C4C4C4"/>
</mask>
<g mask="url(#mask0_3108_46218)">
<rect x="16" y="5" width="15" height="24" rx="2" stroke="#00A358" stroke-width="2"/>
<rect x="17" y="12" width="13" height="2" fill="#00A358"/>
<rect x="17" y="16" width="13" height="2" fill="#00A358"/>
<rect x="17" y="20" width="13" height="2" fill="#00A358"/>
<rect x="17" y="24" width="13" height="2" fill="#00A358"/>
<rect x="27" y="13" width="15" height="2" transform="rotate(90 27 13)" fill="#00A358"/>
</g>
</svg>
