<svg width="16" height="16" viewBox="0 0 16 16" fill="none" xmlns="http://www.w3.org/2000/svg">
<path fill-rule="evenodd" clip-rule="evenodd" d="M3.5 6C3.77614 6 4 6.22386 4 6.5V12C4 12.5519 4.44814 13 5 13H11C11.5519 13 12 12.5519 12 12V6.5C12 6.22386 12.2239 6 12.5 6C12.7761 6 13 6.22386 13 6.5V12C13 13.1041 12.1041 14 11 14H5C3.89586 14 3 13.1041 3 12V6.5C3 6.22386 3.22386 6 3.5 6Z" fill="#808080"/>
<path fill-rule="evenodd" clip-rule="evenodd" d="M2 4.5C2 4.22386 2.22386 4 2.5 4H13.5C13.7761 4 14 4.22386 14 4.5C14 4.77614 13.7761 5 13.5 5H2.5C2.22386 5 2 4.77614 2 4.5Z" fill="#808080"/>
<path fill-rule="evenodd" clip-rule="evenodd" d="M5 2.5C5 2.22386 5.22386 2 5.5 2H10.5C10.7761 2 11 2.22386 11 2.5V4.5C11 4.77614 10.7761 5 10.5 5C10.2239 5 10 4.77614 10 4.5V3H6V4.5C6 4.77614 5.77614 5 5.5 5C5.22386 5 5 4.77614 5 4.5V2.5Z" fill="#808080"/>
<path fill-rule="evenodd" clip-rule="evenodd" d="M6.5 7C6.77614 7 7 7.22386 7 7.5V10.5C7 10.7761 6.77614 11 6.5 11C6.22386 11 6 10.7761 6 10.5V7.5C6 7.22386 6.22386 7 6.5 7Z" fill="#808080"/>
<path fill-rule="evenodd" clip-rule="evenodd" d="M9.5 7C9.77614 7 10 7.22386 10 7.5V10.5C10 10.7761 9.77614 11 9.5 11C9.22386 11 9 10.7761 9 10.5V7.5C9 7.22386 9.22386 7 9.5 7Z" fill="#808080"/>
</svg>
