<svg width="16" height="16" viewBox="0 0 16 16" fill="none" xmlns="http://www.w3.org/2000/svg">
<path d="M8 10.5C9.38071 10.5 10.5 9.38071 10.5 8C10.5 6.61929 9.38071 5.5 8 5.5C6.61929 5.5 5.5 6.61929 5.5 8C5.5 9.38071 6.61929 10.5 8 10.5Z" stroke="#808080" stroke-linecap="round" stroke-linejoin="round"/>
<path d="M12.7443 8C12.7443 7.597 12.6892 7.20873 12.5961 6.8352L14.2483 5.8758L12.9555 3.6242L11.3051 4.58273C10.75 4.0402 10.0631 3.63547 9.29693 3.41793V1.5H6.71137V3.41707C5.94604 3.63547 5.25914 4.0402 4.70324 4.58273L3.05279 3.6242L1.76001 5.8758L3.41219 6.8352C3.31911 7.20873 3.26395 7.597 3.26395 8C3.26395 8.40213 3.31911 8.79127 3.41219 9.1648L1.76001 10.1242L3.05279 12.3758L4.70411 11.4173C5.25914 11.9598 5.94604 12.3645 6.71223 12.5821V14.5H9.29779V12.5829C10.064 12.3645 10.75 11.9598 11.3059 11.4181L12.9572 12.3767L14.25 10.1251L12.5978 9.16567C12.6892 8.79127 12.7443 8.40213 12.7443 8Z" stroke="#808080" stroke-linecap="round" stroke-linejoin="round"/>
</svg>
