<svg width="14" height="14" viewBox="0 0 14 14" fill="none" xmlns="http://www.w3.org/2000/svg">
<path opacity="0.2" d="M11.4294 13H1L3 2L7.24 1L13.2002 8.56259L11.4294 13Z" fill="#F1962A"/>
<path opacity="0.25" d="M12.5077 8.72478L10.8464 6.69624L8.73046 9.68659L2.48746 12.2922L11.0213 12.6594L12.5077 8.72478Z" fill="#F1962A"/>
<path opacity="0.25" d="M12.5331 8.64189L8.94918 4.29901L5.47067 5.07904C4.20576 7.58779 1.66327 12.6053 1.61267 12.6053H10.8255L12.5331 8.64189Z" fill="#F1962A"/>
<path d="M8.99796 4.06619L5.664 4.9647L1.79888 12.0623" stroke="#2B2B2B"/>
<path d="M10.9369 6.38341L8.99797 9.52822L2.25038 12.2647" stroke="#2B2B2B"/>
<path d="M12.6288 8.64537L11.0906 12.5H1.59911L3.43338 2.41151L7.04458 1.55981L12.6288 8.64537Z" stroke="#2B2B2B"/>
<path d="M3.47244 2.49454L10.9808 12.1279" stroke="#2B2B2B"/>
</svg>
