<svg width="24" height="24" viewBox="0 0 24 24" fill="none" xmlns="http://www.w3.org/2000/svg">
<path d="M8.42188 15.3516L9.77344 15.2266C9.88802 15.862 10.1068 16.3229 10.4297 16.6094C10.7526 16.8958 11.1667 17.0391 11.6719 17.0391C12.1042 17.0391 12.4818 16.9401 12.8047 16.7422C13.1328 16.5443 13.401 16.2812 13.6094 15.9531C13.8177 15.6198 13.9922 15.1719 14.1328 14.6094C14.2734 14.0469 14.3438 13.474 14.3438 12.8906C14.3438 12.8281 14.3411 12.7344 14.3359 12.6094C14.0547 13.0573 13.6693 13.4219 13.1797 13.7031C12.6953 13.9792 12.1693 14.1172 11.6016 14.1172C10.6536 14.1172 9.85156 13.7734 9.19531 13.0859C8.53906 12.3984 8.21094 11.4922 8.21094 10.3672C8.21094 9.20573 8.55208 8.27083 9.23438 7.5625C9.92188 6.85417 10.7812 6.5 11.8125 6.5C12.5573 6.5 13.237 6.70052 13.8516 7.10156C14.4714 7.5026 14.9401 8.07552 15.2578 8.82031C15.5807 9.5599 15.7422 10.6328 15.7422 12.0391C15.7422 13.5026 15.5833 14.6693 15.2656 15.5391C14.9479 16.4036 14.474 17.0625 13.8438 17.5156C13.2188 17.9688 12.4844 18.1953 11.6406 18.1953C10.7448 18.1953 10.013 17.9479 9.44531 17.4531C8.8776 16.9531 8.53646 16.2526 8.42188 15.3516ZM14.1797 10.2969C14.1797 9.48958 13.9635 8.84896 13.5312 8.375C13.1042 7.90104 12.5885 7.66406 11.9844 7.66406C11.3594 7.66406 10.8151 7.91927 10.3516 8.42969C9.88802 8.9401 9.65625 9.60156 9.65625 10.4141C9.65625 11.1432 9.875 11.737 10.3125 12.1953C10.7552 12.6484 11.2995 12.875 11.9453 12.875C12.5964 12.875 13.1302 12.6484 13.5469 12.1953C13.9688 11.737 14.1797 11.1042 14.1797 10.2969Z" fill="#B2B2B2"/>
</svg>
