<svg width="16" height="16" viewBox="0 0 16 16" fill="none" xmlns="http://www.w3.org/2000/svg">
<path d="M10.7705 9.9771C11.623 9.01527 12.1557 7.73282 12.1557 6.34351C12.1557 3.35115 9.81148 1 6.82787 1C3.84426 1 1.5 3.35115 1.5 6.34351C1.5 9.33588 3.84426 11.687 6.82787 11.687C8 11.687 9.06557 11.2595 9.91803 10.7252C10.877 13.0763 13.6475 15.1069 13.6475 15.1069L14.0738 14.7863L14.5 14.4656C14.5 14.3588 12.9016 11.3664 10.7705 9.9771ZM6.82787 10.6183C4.48361 10.6183 2.56557 8.69466 2.56557 6.34351C2.56557 3.99237 4.48361 2.0687 6.82787 2.0687C9.17213 2.0687 11.0902 3.99237 11.0902 6.34351C11.0902 8.69466 9.17213 10.6183 6.82787 10.6183Z" fill="#00A358"/>
</svg>
