<svg width="32" height="32" viewBox="0 0 32 32" fill="none" xmlns="http://www.w3.org/2000/svg">
<path fill-rule="evenodd" clip-rule="evenodd" d="M10 3H22V13H10V3ZM24 10V13H26V15H24H8H6V13H8V10H5C4.44772 10 4 10.4477 4 11V19H28V11C28 10.4477 27.5523 10 27 10H24ZM30 19V21V27C30 28.6569 28.6569 30 27 30H5C3.34315 30 2 28.6569 2 27V21V19V11C2 9.34315 3.34315 8 5 8H8V1H24V8H27C28.6569 8 30 9.34315 30 11V19ZM4 21V27C4 27.5523 4.44772 28 5 28H27C27.5523 28 28 27.5523 28 27V21H4Z" fill="#00A358"/>
</svg>
