<svg width="16" height="16" viewBox="0 0 16 16" fill="none" xmlns="http://www.w3.org/2000/svg">
<path d="M8.28999 14.187C7.71199 14.187 7.16799 14.1133 6.65799 13.966C6.15932 13.8073 5.70599 13.5637 5.29799 13.235C4.88999 12.895 4.53865 12.47 4.24399 11.96C3.96065 11.4387 3.75099 10.8153 3.61499 10.09H2.42499V8.492H3.44499V8.135V7.795V7.438H2.42499V5.84H3.63199C3.77932 5.16 4.00032 4.57066 4.29499 4.072C4.58965 3.57333 4.94099 3.16533 5.34899 2.848C5.75699 2.53066 6.21032 2.29833 6.70899 2.151C7.20765 1.99233 7.73465 1.913 8.28999 1.913C8.90199 1.913 9.46865 1.998 9.98999 2.168C10.5227 2.32666 10.9817 2.57033 11.367 2.899C11.7637 3.22766 12.0867 3.63567 12.336 4.123C12.5853 4.61033 12.7383 5.18266 12.795 5.84H10.653C10.5057 5.10333 10.228 4.565 9.81999 4.225C9.41199 3.885 8.90199 3.715 8.28999 3.715C7.79132 3.715 7.30965 3.87366 6.84499 4.191C6.39165 4.50833 6.05165 5.058 5.82499 5.84H9.05499V7.438H5.58699V7.795V8.135V8.492H9.05499V10.09H5.80799C5.92132 10.5207 6.06865 10.8833 6.24999 11.178C6.44265 11.4727 6.64665 11.7107 6.86199 11.892C7.08865 12.062 7.32099 12.1867 7.55899 12.266C7.80832 12.3453 8.05199 12.385 8.28999 12.385C9.01532 12.385 9.56499 12.198 9.93899 11.824C10.3243 11.4387 10.5623 10.9173 10.653 10.26H12.795C12.727 10.9627 12.5627 11.5633 12.302 12.062C12.0527 12.5607 11.7297 12.9687 11.333 13.286C10.9477 13.592 10.4943 13.8187 9.97299 13.966C9.45165 14.1133 8.89065 14.187 8.28999 14.187Z" fill="#2B2B2B"/>
</svg>
