<svg width="16" height="16" viewBox="0 0 16 16" fill="none" xmlns="http://www.w3.org/2000/svg">
<path fill-rule="evenodd" clip-rule="evenodd" d="M8 1.5C4.41015 1.5 1.5 4.41015 1.5 8C1.5 8.69961 1.61053 9.37341 1.81508 10.0049H2.87685C2.63356 9.38368 2.5 8.70744 2.5 8C2.5 4.96243 4.96243 2.5 8 2.5C9.46154 2.5 10.7899 3.07008 11.7749 4H10.4375V5L12.4375 5H13.4375V4V2H12.4375V3.25038C11.2758 2.1646 9.71553 1.5 8 1.5ZM14.1866 6.00038H13.1252C13.3672 6.62014 13.5 7.29456 13.5 8C13.5 11.0376 11.0376 13.5 8 13.5C6.53846 13.5 5.21007 12.9299 4.22506 12H5.54004V11H3.54004H2.54004V12L2.54004 14H3.54004L3.54004 12.7285C4.70401 13.8268 6.27339 14.5 8 14.5C11.5899 14.5 14.5 11.5899 14.5 8C14.5 7.30233 14.3901 6.63033 14.1866 6.00038Z" fill="#2B2B2B"/>
<path fill-rule="evenodd" clip-rule="evenodd" d="M8.70711 8.00038L10.1213 6.58616L9.41421 5.87906L8 7.29327L6.58579 5.87906L5.87868 6.58616L7.29289 8.00038L5.87868 9.41459L6.58579 10.1217L8 8.70748L9.41421 10.1217L10.1213 9.41459L8.70711 8.00038Z" fill="#EB4141"/>
</svg>
