<svg width="67" height="56" viewBox="0 0 67 56" fill="none" xmlns="http://www.w3.org/2000/svg">
<rect x="0.5" y="21" width="14" height="14" rx="1.5" fill="white"/>
<rect x="0.5" y="21" width="14" height="14" rx="1.5" stroke="#A0A0A0"/>
<path fill-rule="evenodd" clip-rule="evenodd" d="M34 13C32.3431 13 31 14.3431 31 16V33C31 34.6569 32.3431 36 34 36H42.6736L41.2456 41H39C38.4477 41 38 41.4477 38 42C38 42.5523 38.4477 43 39 43H41.9779C41.986 43.0002 41.9942 43.0003 42.0023 43.0003C42.0092 43.0002 42.0162 43.0002 42.0231 43H51.9769C51.9919 43.0003 52.007 43.0003 52.0221 43H55C55.5523 43 56 42.5523 56 42C56 41.4477 55.5523 41 55 41H52.7544L51.3264 36H60C61.6569 36 63 34.6569 63 33V16C63 14.3431 61.6569 13 60 13H34ZM50.0173 34C50.0067 33.9998 49.996 33.9998 49.9854 34H44.0146C44.0105 33.9999 44.0065 33.9999 44.0024 33.9999C43.9958 33.9999 43.9892 33.9999 43.9827 34H34C33.4477 34 33 33.5523 33 33V16C33 15.4477 33.4477 15 34 15H60C60.5523 15 61 15.4477 61 16V33C61 33.5523 60.5523 34 60 34H50.0173ZM49.2464 36L50.6744 41H43.3256L44.7536 36H49.2464Z" fill="#444444"/>
</svg>
