<svg width="288" height="16" viewBox="0 0 288 16" fill="none" xmlns="http://www.w3.org/2000/svg">
<g clip-path="url(#clip0_51_3064)">
<path d="M280 8V12" stroke="#333333" stroke-linecap="round" stroke-linejoin="round"/>
<path d="M278 10H282" stroke="#333333" stroke-linecap="round" stroke-linejoin="round"/>
<path d="M273.5 5.5H286.5" stroke="#333333" stroke-linecap="round" stroke-linejoin="round"/>
<path d="M280 14.5H275C274.602 14.5 274.221 14.342 273.939 14.0607C273.658 13.7794 273.5 13.3978 273.5 13V4C273.5 3.60218 273.658 3.22064 273.939 2.93934C274.221 2.65804 274.602 2.5 275 2.5H285C285.398 2.5 285.779 2.65804 286.061 2.93934C286.342 3.22064 286.5 3.60218 286.5 4V8" stroke="#333333" stroke-linecap="round" stroke-linejoin="round"/>
<path d="M276.5 0.5V2.5" stroke="#333333" stroke-linecap="round" stroke-linejoin="round"/>
<path d="M283.5 0.5V2.5" stroke="#333333" stroke-linecap="round" stroke-linejoin="round"/>
<path fill-rule="evenodd" clip-rule="evenodd" d="M282.146 10.1464C282.342 9.9512 282.658 9.9512 282.854 10.1464L285 12.2929L287.146 10.1464C287.342 9.9512 287.658 9.9512 287.854 10.1464C288.049 10.3417 288.049 10.6583 287.854 10.8536L285.707 13L287.854 15.1464C288.049 15.3417 288.049 15.6583 287.854 15.8536C287.658 16.0488 287.342 16.0488 287.146 15.8536L285 13.7071L282.854 15.8536C282.658 16.0488 282.342 16.0488 282.146 15.8536C281.951 15.6583 281.951 15.3417 282.146 15.1464L284.293 13L282.146 10.8536C281.951 10.6583 281.951 10.3417 282.146 10.1464Z" fill="#D42E1B"/>
</g>
<g clip-path="url(#clip1_51_3064)">
<path d="M267.5 1.5H268.5C268.765 1.5 269.02 1.60536 269.207 1.79289C269.395 1.98043 269.5 2.23478 269.5 2.5V9.5M264.5 14.5H259.5C259.235 14.5 258.98 14.3946 258.793 14.2071C258.605 14.0196 258.5 13.7652 258.5 13.5V2.5C258.5 2.23478 258.605 1.98043 258.793 1.79289C258.98 1.60536 259.235 1.5 259.5 1.5H260.5" stroke="#333333" stroke-linecap="round" stroke-linejoin="round"/>
<path d="M266.5 0.5H261.5V2.5H266.5V0.5Z" stroke="#333333" stroke-linecap="round" stroke-linejoin="round"/>
<path fill-rule="evenodd" clip-rule="evenodd" d="M268 6.5C268 6.77614 267.776 7 267.5 7H260.5C260.224 7 260 6.77614 260 6.5C260 6.22386 260.224 6 260.5 6H267.5C267.776 6 268 6.22386 268 6.5Z" fill="#333333"/>
<path fill-rule="evenodd" clip-rule="evenodd" d="M266 8.5C266 8.77614 265.776 9 265.5 9H260.5C260.224 9 260 8.77614 260 8.5C260 8.22386 260.224 8 260.5 8H265.5C265.776 8 266 8.22386 266 8.5Z" fill="#333333"/>
<path fill-rule="evenodd" clip-rule="evenodd" d="M264 10.5C264 10.7761 263.776 11 263.5 11H260.5C260.224 11 260 10.7761 260 10.5C260 10.2239 260.224 10 260.5 10H263.5C263.776 10 264 10.2239 264 10.5Z" fill="#333333"/>
<path fill-rule="evenodd" clip-rule="evenodd" d="M266.146 10.1464C266.342 9.9512 266.658 9.9512 266.854 10.1464L269 12.2929L271.146 10.1464C271.342 9.9512 271.658 9.9512 271.854 10.1464C272.049 10.3417 272.049 10.6583 271.854 10.8536L269.707 13L271.854 15.1464C272.049 15.3417 272.049 15.6583 271.854 15.8536C271.658 16.0488 271.342 16.0488 271.146 15.8536L269 13.7071L266.854 15.8536C266.658 16.0488 266.342 16.0488 266.146 15.8536C265.951 15.6583 265.951 15.3417 266.146 15.1464L268.293 13L266.146 10.8536C265.951 10.6583 265.951 10.3417 266.146 10.1464Z" fill="#D42E1B"/>
</g>
<g clip-path="url(#clip2_51_3064)">
<path fill-rule="evenodd" clip-rule="evenodd" d="M250.146 10.1464C250.342 9.9512 250.658 9.9512 250.854 10.1464L253 12.2929L255.146 10.1464C255.342 9.9512 255.658 9.9512 255.854 10.1464C256.049 10.3417 256.049 10.6583 255.854 10.8536L253.707 13L255.854 15.1464C256.049 15.3417 256.049 15.6583 255.854 15.8536C255.658 16.0488 255.342 16.0488 255.146 15.8536L253 13.7071L250.854 15.8536C250.658 16.0488 250.342 16.0488 250.146 15.8536C249.951 15.6583 249.951 15.3417 250.146 15.1464L252.293 13L250.146 10.8536C249.951 10.6583 249.951 10.3417 250.146 10.1464Z" fill="#D42E1B"/>
<path d="M248.167 11.5L244.5 14.5V10.5H242.5C241.948 10.5 241.5 10.052 241.5 9.5V2.5C241.5 1.948 241.948 1.5 242.5 1.5H253.5C254.052 1.5 254.5 1.948 254.5 2.5V8.5" stroke="#333333" stroke-miterlimit="10" stroke-linecap="round" stroke-linejoin="round"/>
</g>
<g clip-path="url(#clip3_51_3064)">
<path d="M230.5 9.05811C230.501 9.47838 230.369 9.88814 230.123 10.2292C229.878 10.5703 229.531 10.8253 229.132 10.9581L226.868 12.0441C226.47 12.1768 226.123 12.4315 225.878 12.7722C225.632 13.1129 225.5 13.5222 225.5 13.9421V14.5001H232" stroke="#333333" stroke-linecap="round" stroke-linejoin="round"/>
<path d="M228.5 5C228.5 4.07174 228.869 3.1815 229.525 2.52513C230.182 1.86875 231.072 1.5 232 1.5C232.928 1.5 233.818 1.86875 234.475 2.52513C235.131 3.1815 235.5 4.07174 235.5 5C235.5 6.933 233.933 9.5 232 9.5C230.067 9.5 228.5 6.933 228.5 5Z" stroke="#333333" stroke-linecap="round" stroke-linejoin="round"/>
<path d="M233 12C233 11.4477 232.552 11 232 11C231.448 11 231 11.4477 231 12V15C231 15.5523 231.448 16 232 16C232.552 16 233 15.5523 233 15V12Z" fill="#FF0F0F"/>
<path fill-rule="evenodd" clip-rule="evenodd" d="M234.146 10.1464C234.342 9.9512 234.658 9.9512 234.854 10.1464L237 12.2929L239.146 10.1464C239.342 9.9512 239.658 9.9512 239.854 10.1464C240.049 10.3417 240.049 10.6583 239.854 10.8536L237.707 13L239.854 15.1464C240.049 15.3417 240.049 15.6583 239.854 15.8536C239.658 16.0488 239.342 16.0488 239.146 15.8536L237 13.7071L234.854 15.8536C234.658 16.0488 234.342 16.0488 234.146 15.8536C233.951 15.6583 233.951 15.3417 234.146 15.1464L236.293 13L234.146 10.8536C233.951 10.6583 233.951 10.3417 234.146 10.1464Z" fill="#D42E1B"/>
</g>
<g clip-path="url(#clip4_51_3064)">
<path d="M213.596 12.4052L213.43 10.9205C215.053 10.4995 216.756 10.4995 218.378 10.9205L218.213 12.4052C218.194 12.5793 218.232 12.7548 218.324 12.9044C218.415 13.0541 218.553 13.1693 218.716 13.2322L221.16 14.1732C221.336 14.2408 221.529 14.2439 221.707 14.1819C221.884 14.12 222.034 13.9971 222.129 13.8351L223.188 12.029C223.287 11.8609 223.321 11.6618 223.283 11.47C223.245 11.2783 223.137 11.1074 222.981 10.9902C220.941 9.45363 218.457 8.62289 215.903 8.62354C213.349 8.62422 210.865 9.45628 208.826 10.994C208.67 11.1111 208.562 11.282 208.524 11.4738C208.486 11.6655 208.52 11.8646 208.62 12.0328L209.678 13.8388C209.774 14.0005 209.923 14.1233 210.1 14.185C210.278 14.2469 210.471 14.2438 210.646 14.1764L213.092 13.2316C213.255 13.1688 213.393 13.0537 213.484 12.9042C213.576 12.7547 213.615 12.5793 213.596 12.4052Z" stroke="#333333" stroke-linecap="round" stroke-linejoin="round"/>
<path opacity="0.5" d="M221.5 10.0396C222.014 10.3178 222.509 10.6352 222.981 10.9903C223.137 11.1075 223.245 11.2784 223.283 11.4701C223.321 11.6619 223.287 11.861 223.188 12.0291L222.129 13.8352C222.034 13.9972 221.884 14.1201 221.707 14.182C221.529 14.244 221.336 14.2409 221.16 14.1733L218.716 13.2323C218.553 13.1694 218.415 13.0542 218.324 12.9045C218.232 12.7549 218.194 12.5794 218.213 12.4053L218.378 10.9206C217.924 10.8027 217.463 10.7178 217 10.666" stroke="white" stroke-linecap="round" stroke-linejoin="round"/>
<path fill-rule="evenodd" clip-rule="evenodd" d="M212 1.44096C212 1.19743 212.197 1 212.441 1H214.935C215.179 1 215.376 1.19743 215.376 1.44096C215.376 1.6845 215.179 1.88192 214.935 1.88192H213.506L216.871 5.24723C217.043 5.41944 217.043 5.69864 216.871 5.87085C216.699 6.04305 216.419 6.04305 216.247 5.87085L212.882 2.50554V3.93542C212.882 4.17896 212.684 4.37639 212.441 4.37638C212.197 4.37639 212 4.17896 212 3.93542V1.44096Z" fill="#FF0F0F"/>
<path fill-rule="evenodd" clip-rule="evenodd" d="M220.854 1.14645C221.049 1.34171 221.049 1.6583 220.854 1.85356L216.854 5.85356C216.658 6.04882 216.696 5.69526 216.5 5.5C216.305 5.30474 215.951 5.34171 216.146 5.14645L220.146 1.14645C220.342 0.951185 220.658 0.951185 220.854 1.14645Z" fill="#FF0F0F"/>
<path fill-rule="evenodd" clip-rule="evenodd" d="M218.146 10.1464C218.342 9.9512 218.658 9.9512 218.854 10.1464L221 12.2929L223.146 10.1464C223.342 9.9512 223.658 9.9512 223.854 10.1464C224.049 10.3417 224.049 10.6583 223.854 10.8536L221.707 13L223.854 15.1464C224.049 15.3417 224.049 15.6583 223.854 15.8536C223.658 16.0488 223.342 16.0488 223.146 15.8536L221 13.7071L218.854 15.8536C218.658 16.0488 218.342 16.0488 218.146 15.8536C217.951 15.6583 217.951 15.3417 218.146 15.1464L220.293 13L218.146 10.8536C217.951 10.6583 217.951 10.3417 218.146 10.1464Z" fill="#D42E1B"/>
</g>
<g clip-path="url(#clip5_51_3064)">
<path d="M201.178 9.52891L200.119 10.8539C198.478 9.88911 197.111 8.52167 196.146 6.88091L197.471 5.82191C197.626 5.69763 197.736 5.52543 197.783 5.33221C197.83 5.139 197.812 4.93564 197.731 4.75391L196.524 2.03591C196.437 1.84094 196.284 1.68303 196.092 1.59036C195.9 1.49768 195.681 1.47626 195.475 1.52991L193.175 2.12991C192.96 2.18488 192.773 2.31738 192.649 2.50197C192.526 2.68655 192.475 2.91019 192.507 3.12991C192.911 6.00112 194.239 8.66278 196.289 10.7125C198.34 12.7622 201.003 14.0885 203.874 14.4909C204.094 14.5225 204.317 14.4717 204.502 14.3484C204.686 14.2251 204.819 14.038 204.874 13.8229L205.474 11.5229C205.527 11.3166 205.506 11.098 205.413 10.9061C205.321 10.7142 205.163 10.5614 204.968 10.4749L202.246 9.26991C202.064 9.18911 201.861 9.17061 201.668 9.21751C201.475 9.26431 201.302 9.37381 201.178 9.52891Z" stroke="#333333" stroke-linecap="round" stroke-linejoin="round"/>
<path opacity="0.5" d="M201.668 9.21775C201.861 9.17085 202.064 9.18935 202.246 9.27015L204.968 10.4752C205.163 10.5617 205.321 10.7145 205.413 10.9064C205.506 11.0983 205.527 11.3169 205.474 11.5232L204.874 13.8232C204.819 14.0383 204.687 14.2254 204.502 14.3487C204.317 14.472 204.094 14.5228 203.874 14.4912C203.238 14.402 202.611 14.2674 202 14.0896" stroke="white" stroke-linecap="round" stroke-linejoin="round"/>
<path fill-rule="evenodd" clip-rule="evenodd" d="M205.146 1.14645C205.342 0.951183 205.658 0.951183 205.854 1.14645L207.854 3.14645C208.049 3.34171 208.049 3.65829 207.854 3.85355C207.658 4.04882 207.342 4.04882 207.146 3.85355L206 2.70711V6.5C206 6.77614 205.776 7 205.5 7C205.224 7 205 6.77614 205 6.5V2.70711L203.854 3.85355C203.658 4.04882 203.342 4.04882 203.146 3.85355C202.951 3.65829 202.951 3.34171 203.146 3.14645L205.146 1.14645Z" fill="#009646"/>
<path fill-rule="evenodd" clip-rule="evenodd" d="M202.146 10.1464C202.342 9.9512 202.658 9.9512 202.854 10.1464L205 12.2929L207.146 10.1464C207.342 9.9512 207.658 9.9512 207.854 10.1464C208.049 10.3417 208.049 10.6583 207.854 10.8536L205.707 13L207.854 15.1464C208.049 15.3417 208.049 15.6583 207.854 15.8536C207.658 16.0488 207.342 16.0488 207.146 15.8536L205 13.7071L202.854 15.8536C202.658 16.0488 202.342 16.0488 202.146 15.8536C201.951 15.6583 201.951 15.3417 202.146 15.1464L204.293 13L202.146 10.8536C201.951 10.6583 201.951 10.3417 202.146 10.1464Z" fill="#D42E1B"/>
</g>
<g clip-path="url(#clip6_51_3064)">
<path fill-rule="evenodd" clip-rule="evenodd" d="M178.5 1C178.776 1 179 1.22386 179 1.5V5.29289L180.146 4.14645C180.342 3.95118 180.658 3.95118 180.854 4.14645C181.049 4.34171 181.049 4.65829 180.854 4.85355L178.854 6.85355C178.658 7.04882 178.342 7.04882 178.146 6.85355L176.146 4.85355C175.951 4.65829 175.951 4.34171 176.146 4.14645C176.342 3.95118 176.658 3.95118 176.854 4.14645L178 5.29289V1.5C178 1.22386 178.224 1 178.5 1Z" fill="#276ADE"/>
<path d="M182.823 9.52891L183.882 10.8539C185.522 9.88911 186.89 8.52167 187.855 6.88091L186.53 5.82191C186.374 5.69763 186.265 5.52543 186.218 5.33221C186.171 5.139 186.189 4.93564 186.27 4.75391L187.477 2.03591C187.563 1.84094 187.716 1.68303 187.908 1.59036C188.1 1.49768 188.319 1.47626 188.526 1.52991L190.826 2.12991C191.041 2.18488 191.228 2.31738 191.351 2.50197C191.474 2.68655 191.525 2.91019 191.494 3.12991C191.09 6.00112 189.762 8.66278 187.711 10.7125C185.66 12.7622 182.998 14.0885 180.126 14.4909C179.907 14.5225 179.683 14.4717 179.499 14.3484C179.314 14.2251 179.181 14.038 179.126 13.8229L178.526 11.5229C178.473 11.3166 178.495 11.098 178.587 10.9061C178.68 10.7142 178.838 10.5614 179.032 10.4749L181.754 9.26991C181.936 9.18911 182.139 9.17061 182.333 9.21751C182.526 9.26431 182.698 9.37381 182.823 9.52891Z" stroke="#333333" stroke-linecap="round" stroke-linejoin="round"/>
<path opacity="0.5" d="M188.5 9.85205C188.25 10.1493 187.987 10.4366 187.711 10.7127C187.078 11.345 186.388 11.9085 185.65 12.3973" stroke="white" stroke-linecap="round" stroke-linejoin="round"/>
<path fill-rule="evenodd" clip-rule="evenodd" d="M186.146 10.1464C186.342 9.9512 186.658 9.9512 186.854 10.1464L189 12.2929L191.146 10.1464C191.342 9.9512 191.658 9.9512 191.854 10.1464C192.049 10.3417 192.049 10.6583 191.854 10.8536L189.707 13L191.854 15.1464C192.049 15.3417 192.049 15.6583 191.854 15.8536C191.658 16.0488 191.342 16.0488 191.146 15.8536L189 13.7071L186.854 15.8536C186.658 16.0488 186.342 16.0488 186.146 15.8536C185.951 15.6583 185.951 15.3417 186.146 15.1464L188.293 13L186.146 10.8536C185.951 10.6583 185.951 10.3417 186.146 10.1464Z" fill="#D42E1B"/>
</g>
<g clip-path="url(#clip7_51_3064)">
<path fill-rule="evenodd" clip-rule="evenodd" d="M170.146 10.1464C170.342 9.9512 170.658 9.9512 170.854 10.1464L173 12.2929L175.146 10.1464C175.342 9.9512 175.658 9.9512 175.854 10.1464C176.049 10.3417 176.049 10.6583 175.854 10.8536L173.707 13L175.854 15.1464C176.049 15.3417 176.049 15.6583 175.854 15.8536C175.658 16.0488 175.342 16.0488 175.146 15.8536L173 13.7071L170.854 15.8536C170.658 16.0488 170.342 16.0488 170.146 15.8536C169.951 15.6583 169.951 15.3417 170.146 15.1464L172.293 13L170.146 10.8536C169.951 10.6583 169.951 10.3417 170.146 10.1464Z" fill="#D42E1B"/>
<path d="M163.5 4C163.776 4 164 4.22386 164 4.5C164 4.77614 163.776 5 163.5 5H162.4C162.298 5 162.198 5.04142 162.122 5.11941C162.045 5.19783 162 5.30684 162 5.42308V5.75628L167.5 10.3991L173 5.75636V5.42308C173 5.30681 172.955 5.19781 172.878 5.11941C172.802 5.04143 172.702 5 172.6 5H171.5C171.224 5 171 4.77614 171 4.5C171 4.22386 171.224 4 171.5 4H172.6C172.975 4 173.333 4.15308 173.594 4.42131C173.856 4.68913 174 5.04972 174 5.42308V5.98776C174 5.99565 174 6.00354 174 6.01142V8.5C174 8.77614 173.776 9 173.5 9V9C173.224 9 173 8.77614 173 8.5V7.01408L167.777 11.4161C167.609 11.528 167.391 11.528 167.223 11.4161L162 7.014V13.5769C162 13.6932 162.045 13.8022 162.122 13.8806C162.198 13.9586 162.298 14 162.4 14H168.5C168.776 14 169 14.2239 169 14.5V14.5C169 14.7761 168.776 15 168.5 15H162.4C162.025 15 161.667 14.847 161.406 14.5787C161.144 14.3109 161 13.9503 161 13.5769V5.42308C161 5.04969 161.144 4.68911 161.406 4.42131C161.667 4.15309 162.025 4 162.4 4H163.5Z" fill="#333333"/>
<path fill-rule="evenodd" clip-rule="evenodd" d="M167.146 1.14645C167.342 0.951183 167.658 0.951183 167.854 1.14645L169.854 3.14645C170.049 3.34171 170.049 3.65829 169.854 3.85355C169.658 4.04882 169.342 4.04882 169.146 3.85355L168 2.70711V6.5C168 6.77614 167.776 7 167.5 7C167.224 7 167 6.77614 167 6.5V2.70711L165.854 3.85355C165.658 4.04882 165.342 4.04882 165.146 3.85355C164.951 3.65829 164.951 3.34171 165.146 3.14645L167.146 1.14645Z" fill="#009646"/>
</g>
<g clip-path="url(#clip8_51_3064)">
<path fill-rule="evenodd" clip-rule="evenodd" d="M151.5 0.5C151.776 0.5 152 0.723858 152 1V4.79289L153.146 3.64645C153.342 3.45118 153.658 3.45118 153.854 3.64645C154.049 3.84171 154.049 4.15829 153.854 4.35355L151.854 6.35355C151.658 6.54882 151.342 6.54882 151.146 6.35355L149.146 4.35355C148.951 4.15829 148.951 3.84171 149.146 3.64645C149.342 3.45118 149.658 3.45118 149.854 3.64645L151 4.79289V1C151 0.723858 151.224 0.5 151.5 0.5Z" fill="#276ADE"/>
<path fill-rule="evenodd" clip-rule="evenodd" d="M154.146 10.1464C154.342 9.9512 154.658 9.9512 154.854 10.1464L157 12.2929L159.146 10.1464C159.342 9.9512 159.658 9.9512 159.854 10.1464C160.049 10.3417 160.049 10.6583 159.854 10.8536L157.707 13L159.854 15.1464C160.049 15.3417 160.049 15.6583 159.854 15.8536C159.658 16.0488 159.342 16.0488 159.146 15.8536L157 13.7071L154.854 15.8536C154.658 16.0488 154.342 16.0488 154.146 15.8536C153.951 15.6583 153.951 15.3417 154.146 15.1464L156.293 13L154.146 10.8536C153.951 10.6583 153.951 10.3417 154.146 10.1464Z" fill="#D42E1B"/>
<path d="M147.5 4C147.776 4 148 4.22386 148 4.5C148 4.77614 147.776 5 147.5 5H146.4C146.298 5 146.198 5.04142 146.122 5.11941C146.045 5.19783 146 5.30684 146 5.42308V5.75628L151.5 10.3991L157 5.75636V5.42308C157 5.30681 156.955 5.19781 156.878 5.11941C156.802 5.04143 156.702 5 156.6 5H155.5C155.224 5 155 4.77614 155 4.5C155 4.22386 155.224 4 155.5 4H156.6C156.975 4 157.333 4.15308 157.594 4.42131C157.856 4.68913 158 5.04972 158 5.42308V5.98776C158 5.99565 158 6.00354 158 6.01142V8.5C158 8.77614 157.776 9 157.5 9V9C157.224 9 157 8.77614 157 8.5V7.01408L151.777 11.4161C151.609 11.528 151.391 11.528 151.223 11.4161L146 7.014V13.5769C146 13.6932 146.045 13.8022 146.122 13.8806C146.198 13.9586 146.298 14 146.4 14H152.5C152.776 14 153 14.2239 153 14.5V14.5C153 14.7761 152.776 15 152.5 15H146.4C146.025 15 145.667 14.847 145.406 14.5787C145.144 14.3109 145 13.9503 145 13.5769V5.42308C145 5.04969 145.144 4.68911 145.406 4.42131C145.667 4.15309 146.025 4 146.4 4H147.5Z" fill="#333333"/>
</g>
<path d="M136 8V12" stroke="#333333" stroke-linecap="round" stroke-linejoin="round"/>
<path d="M134 10H138" stroke="#333333" stroke-linecap="round" stroke-linejoin="round"/>
<path d="M129.5 5.5H142.5" stroke="#333333" stroke-linecap="round" stroke-linejoin="round"/>
<path d="M141 2.5H131C130.602 2.5 130.221 2.65804 129.939 2.93934C129.658 3.22064 129.5 3.60218 129.5 4V13C129.5 13.3978 129.658 13.7794 129.939 14.0607C130.221 14.342 130.602 14.5 131 14.5H141C141.398 14.5 141.779 14.342 142.061 14.0607C142.342 13.7794 142.5 13.3978 142.5 13V4C142.5 3.60218 142.342 3.22064 142.061 2.93934C141.779 2.65804 141.398 2.5 141 2.5Z" stroke="#333333" stroke-linecap="round" stroke-linejoin="round"/>
<path d="M132.5 0.5V2.5" stroke="#333333" stroke-linecap="round" stroke-linejoin="round"/>
<path d="M139.5 0.5V2.5" stroke="#333333" stroke-linecap="round" stroke-linejoin="round"/>
<path d="M123.5 1.5H124.5C124.765 1.5 125.02 1.60536 125.207 1.79289C125.395 1.98043 125.5 2.23478 125.5 2.5V13.5C125.5 13.7652 125.395 14.0196 125.207 14.2071C125.02 14.3946 124.765 14.5 124.5 14.5H115.5C115.235 14.5 114.98 14.3946 114.793 14.2071C114.605 14.0196 114.5 13.7652 114.5 13.5V2.5C114.5 2.23478 114.605 1.98043 114.793 1.79289C114.98 1.60536 115.235 1.5 115.5 1.5H116.5" stroke="#333333" stroke-linecap="round" stroke-linejoin="round"/>
<path d="M122.5 0.5H117.5V2.5H122.5V0.5Z" stroke="#333333" stroke-linecap="round" stroke-linejoin="round"/>
<path fill-rule="evenodd" clip-rule="evenodd" d="M124 6.5C124 6.77614 123.776 7 123.5 7H116.5C116.224 7 116 6.77614 116 6.5C116 6.22386 116.224 6 116.5 6H123.5C123.776 6 124 6.22386 124 6.5Z" fill="#333333"/>
<path fill-rule="evenodd" clip-rule="evenodd" d="M122 8.5C122 8.77614 121.776 9 121.5 9H116.5C116.224 9 116 8.77614 116 8.5C116 8.22386 116.224 8 116.5 8H121.5C121.776 8 122 8.22386 122 8.5Z" fill="#333333"/>
<path fill-rule="evenodd" clip-rule="evenodd" d="M120 10.5C120 10.7761 119.776 11 119.5 11H116.5C116.224 11 116 10.7761 116 10.5C116 10.2239 116.224 10 116.5 10H119.5C119.776 10 120 10.2239 120 10.5Z" fill="#333333"/>
<path fill-rule="evenodd" clip-rule="evenodd" d="M97 2.5C97 1.67186 97.6719 1 98.5 1H109.5C110.328 1 111 1.67186 111 2.5V9.5C111 10.3281 110.328 11 109.5 11H105.352L100.825 14.8796C100.677 15.0067 100.468 15.0358 100.291 14.9543C100.114 14.8727 100 14.6953 100 14.5V11H98.5C97.6719 11 97 10.3281 97 9.5V2.5ZM98.5 2C98.2241 2 98 2.22414 98 2.5V9.5C98 9.77586 98.2241 10 98.5 10H100.5C100.776 10 101 10.2239 101 10.5V13.4129L104.842 10.1204C104.932 10.0427 105.048 10 105.167 10H109.5C109.776 10 110 9.77586 110 9.5V2.5C110 2.22414 109.776 2 109.5 2H98.5Z" fill="#333333"/>
<path d="M86.5 9.05811C86.5005 9.47838 86.3686 9.88814 86.1231 10.2292C85.8775 10.5703 85.5307 10.8253 85.132 10.9581L82.868 12.0441C82.4696 12.1768 82.1231 12.4315 81.8775 12.7722C81.632 13.1129 81.4999 13.5222 81.5 13.9421V14.5001H94.5V13.9421C94.5005 13.5218 94.3686 13.1121 94.1231 12.771C93.8775 12.4299 93.5307 12.1749 93.132 12.0421L90.867 10.9541C90.4691 10.8213 90.123 10.5668 89.8777 10.2266C89.6324 9.88634 89.5002 9.47757 89.5 9.05811" stroke="#333333" stroke-linecap="round" stroke-linejoin="round"/>
<path d="M84.5 5C84.5 4.07174 84.8687 3.1815 85.5251 2.52513C86.1815 1.86875 87.0717 1.5 88 1.5C88.9283 1.5 89.8185 1.86875 90.4749 2.52513C91.1313 3.1815 91.5 4.07174 91.5 5C91.5 6.933 89.933 9.5 88 9.5C86.067 9.5 84.5 6.933 84.5 5Z" stroke="#333333" stroke-linecap="round" stroke-linejoin="round"/>
<path d="M89 12C89 11.4477 88.5523 11 88 11C87.4477 11 87 11.4477 87 12V15C87 15.5523 87.4477 16 88 16C88.5523 16 89 15.5523 89 15V12Z" fill="#FF0F0F"/>
<path d="M69.5956 12.4052L69.4299 10.9205C71.0526 10.4995 72.7558 10.4995 74.3785 10.9205L74.2128 12.4052C74.1936 12.5793 74.2325 12.7548 74.3235 12.9044C74.4146 13.0541 74.5526 13.1693 74.716 13.2322L77.1604 14.1732C77.3358 14.2408 77.5294 14.2439 77.7067 14.1819C77.8841 14.12 78.0337 13.9971 78.1289 13.8351L79.1876 12.029C79.2873 11.8609 79.3213 11.6618 79.2832 11.47C79.245 11.2783 79.1373 11.1074 78.9808 10.9902C76.9411 9.45363 74.4566 8.62289 71.9029 8.62354C69.3493 8.62422 66.8652 9.45628 64.8263 10.994C64.6698 11.1111 64.5622 11.282 64.524 11.4738C64.4859 11.6655 64.5199 11.8646 64.6196 12.0328L65.6783 13.8388C65.7736 14.0005 65.9231 14.1233 66.1003 14.185C66.2775 14.2469 66.471 14.2438 66.6461 14.1764L69.0917 13.2316C69.2552 13.1688 69.3933 13.0537 69.4844 12.9042C69.5756 12.7547 69.6147 12.5793 69.5956 12.4052Z" stroke="#333333" stroke-linecap="round" stroke-linejoin="round"/>
<path fill-rule="evenodd" clip-rule="evenodd" d="M68 1.44096C68 1.19743 68.1974 1 68.441 1H70.9354C71.179 1 71.3764 1.19743 71.3764 1.44096C71.3764 1.6845 71.179 1.88192 70.9354 1.88192H69.5055L72.8708 5.24723C73.0431 5.41944 73.0431 5.66763 72.8708 5.83984C72.6986 6.01204 72.4194 6.04305 72.2472 5.87085L68.8819 2.50554V3.93542C68.8819 4.17896 68.6845 4.37639 68.441 4.37638C68.1974 4.37639 68 4.17896 68 3.93542V1.44096Z" fill="#FF0F0F"/>
<path fill-rule="evenodd" clip-rule="evenodd" d="M76.8534 1.14645C77.0486 1.34171 77.0486 1.6583 76.8534 1.85356L72.8534 5.85356C72.6581 6.04882 72.1953 5.69526 72 5.5C71.8048 5.30474 71.951 5.34171 72.1462 5.14645L76.1462 1.14645C76.3415 0.951185 76.6581 0.951185 76.8534 1.14645Z" fill="#FF0F0F"/>
<g clip-path="url(#clip9_51_3064)">
<path d="M57.1782 9.52891L56.1192 10.8539C54.4784 9.88911 53.1109 8.52167 52.1462 6.88091L53.4712 5.82191C53.6264 5.69763 53.7361 5.52543 53.7831 5.33221C53.8302 5.139 53.8119 4.93564 53.7312 4.75391L52.5242 2.03591C52.4376 1.84094 52.2847 1.68303 52.0925 1.59036C51.9004 1.49768 51.6816 1.47626 51.4752 1.52991L49.1752 2.12991C48.9601 2.18488 48.7729 2.31738 48.6496 2.50197C48.5263 2.68655 48.4756 2.91019 48.5072 3.12991C48.9111 6.00112 50.2388 8.66278 52.2896 10.7125C54.3404 12.7622 57.0027 14.0885 59.8742 14.4909C60.0939 14.5225 60.3175 14.4717 60.5021 14.3484C60.6867 14.2251 60.8192 14.038 60.8742 13.8229L61.4742 11.5229C61.5275 11.3166 61.506 11.098 61.4133 10.9061C61.3207 10.7142 61.1629 10.5614 60.9682 10.4749L58.2462 9.26991C58.0645 9.18911 57.8613 9.17061 57.668 9.21751C57.4748 9.26431 57.3026 9.37381 57.1782 9.52891Z" stroke="#333333" stroke-linecap="round" stroke-linejoin="round"/>
<path fill-rule="evenodd" clip-rule="evenodd" d="M61.1464 1.14645C61.3417 0.951183 61.6583 0.951183 61.8536 1.14645L63.8536 3.14645C64.0488 3.34171 64.0488 3.65829 63.8536 3.85355C63.6583 4.04882 63.3417 4.04882 63.1464 3.85355L62 2.70711V6.5C62 6.77614 61.7761 7 61.5 7C61.2239 7 61 6.77614 61 6.5V2.70711L59.8536 3.85355C59.6583 4.04882 59.3417 4.04882 59.1464 3.85355C58.9512 3.65829 58.9512 3.34171 59.1464 3.14645L61.1464 1.14645Z" fill="#009646"/>
</g>
<g clip-path="url(#clip10_51_3064)">
<path fill-rule="evenodd" clip-rule="evenodd" d="M34.5 1C34.7761 1 35 1.22386 35 1.5V5.29289L36.1464 4.14645C36.3417 3.95118 36.6583 3.95118 36.8536 4.14645C37.0488 4.34171 37.0488 4.65829 36.8536 4.85355L34.8536 6.85355C34.6583 7.04882 34.3417 7.04882 34.1464 6.85355L32.1464 4.85355C31.9512 4.65829 31.9512 4.34171 32.1464 4.14645C32.3417 3.95118 32.6583 3.95118 32.8536 4.14645L34 5.29289V1.5C34 1.22386 34.2239 1 34.5 1Z" fill="#276ADE"/>
<path d="M38.8227 9.52891L39.8817 10.8539C41.5225 9.88911 42.8899 8.52167 43.8547 6.88091L42.5297 5.82191C42.3745 5.69763 42.2648 5.52543 42.2177 5.33221C42.1707 5.139 42.189 4.93564 42.2697 4.75391L43.4767 2.03591C43.5633 1.84094 43.7162 1.68303 43.9083 1.59036C44.1005 1.49768 44.3193 1.47626 44.5257 1.52991L46.8257 2.12991C47.0408 2.18488 47.228 2.31738 47.3513 2.50197C47.4746 2.68655 47.5253 2.91019 47.4937 3.12991C47.0898 6.00112 45.7621 8.66278 43.7113 10.7125C41.6605 12.7622 38.9982 14.0885 36.1267 14.4909C35.907 14.5225 35.6834 14.4717 35.4988 14.3484C35.3142 14.2251 35.1817 14.038 35.1267 13.8229L34.5267 11.5229C34.4734 11.3166 34.4949 11.098 34.5876 10.9061C34.6802 10.7142 34.838 10.5614 35.0327 10.4749L37.7547 9.26991C37.9364 9.18911 38.1396 9.17061 38.3328 9.21751C38.5261 9.26431 38.6983 9.37381 38.8227 9.52891Z" stroke="#333333" stroke-linecap="round" stroke-linejoin="round"/>
</g>
<path fill-rule="evenodd" clip-rule="evenodd" d="M23.1464 1.14645C23.3417 0.951183 23.6583 0.951183 23.8536 1.14645L25.8536 3.14645C26.0488 3.34171 26.0488 3.65829 25.8536 3.85355C25.6583 4.04882 25.3417 4.04882 25.1464 3.85355L24 2.70711V6.5C24 6.77614 23.7761 7 23.5 7C23.2239 7 23 6.77614 23 6.5V2.70711L21.8536 3.85355C21.6583 4.04882 21.3417 4.04882 21.1464 3.85355C20.9512 3.65829 20.9512 3.34171 21.1464 3.14645L23.1464 1.14645Z" fill="#009646"/>
<path fill-rule="evenodd" clip-rule="evenodd" d="M20 4.5C20 4.22386 19.7761 4 19.5 4H18.4C18.0246 4 17.6671 4.15309 17.4056 4.42131C17.1445 4.68911 17 5.04969 17 5.42308V13.5769C17 13.9503 17.1445 14.3109 17.4056 14.5787C17.6671 14.847 18.0246 15 18.4 15H28.6C28.9754 15 29.3329 14.847 29.5944 14.5787C29.8556 14.3109 30 13.9502 30 13.5769V6.01142C30.0002 6.00354 30.0002 5.99565 30 5.98776V5.42308C30 5.04972 29.8555 4.68913 29.5944 4.42131C29.3329 4.15308 28.9754 4 28.6 4H27.5C27.2239 4 27 4.22386 27 4.5V4.5C27 4.77614 27.2239 5 27.5 5H28.6C28.7019 5 28.8024 5.04143 28.8784 5.11941C28.9549 5.19781 29 5.30681 29 5.42308V5.75636L23.5 10.3991L18 5.75628V5.42308C18 5.30684 18.0451 5.19783 18.1216 5.11941C18.1977 5.04142 18.2981 5 18.4 5H19.5C19.7761 5 20 4.77614 20 4.5V4.5ZM18 7.014L23.2226 11.4161C23.3906 11.528 23.6094 11.528 23.7773 11.4161L29 7.01408V13.5769C29 13.6932 28.9548 13.8022 28.8784 13.8806C28.8024 13.9586 28.702 14 28.6 14H18.4C18.298 14 18.1976 13.9586 18.1216 13.8806C18.0452 13.8022 18 13.6932 18 13.5769V7.014Z" fill="#333333"/>
<path fill-rule="evenodd" clip-rule="evenodd" d="M7.5 0.5C7.77614 0.5 8 0.723858 8 1V4.79289L9.14645 3.64645C9.34171 3.45118 9.65829 3.45118 9.85355 3.64645C10.0488 3.84171 10.0488 4.15829 9.85355 4.35355L7.85355 6.35355C7.65829 6.54882 7.34171 6.54882 7.14645 6.35355L5.14645 4.35355C4.95118 4.15829 4.95118 3.84171 5.14645 3.64645C5.34171 3.45118 5.65829 3.45118 5.85355 3.64645L7 4.79289V1C7 0.723858 7.22386 0.5 7.5 0.5Z" fill="#276ADE"/>
<path fill-rule="evenodd" clip-rule="evenodd" d="M4 4.5C4 4.22386 3.77614 4 3.5 4H2.4C2.02456 4 1.66712 4.15309 1.4056 4.42131C1.1445 4.68911 1 5.04969 1 5.42308V13.5769C1 13.9503 1.14449 14.3109 1.4056 14.5787C1.66714 14.847 2.02459 15 2.4 15H12.6C12.9754 15 13.3329 14.847 13.5944 14.5787C13.8556 14.3109 14 13.9502 14 13.5769V6.01142C14.0002 6.00354 14.0002 5.99565 14 5.98776V5.42308C14 5.04972 13.8555 4.68913 13.5944 4.42131C13.3329 4.15308 12.9754 4 12.6 4H11.5C11.2239 4 11 4.22386 11 4.5V4.5C11 4.77614 11.2239 5 11.5 5H12.6C12.7019 5 12.8024 5.04143 12.8784 5.11941C12.9549 5.19781 13 5.30681 13 5.42308V5.75636L7.5 10.3991L2 5.75628V5.42308C2 5.30684 2.04514 5.19783 2.1216 5.11941C2.19765 5.04142 2.29806 5 2.4 5H3.5C3.77614 5 4 4.77614 4 4.5V4.5ZM2 7.014L7.2226 11.4161C7.39055 11.528 7.6094 11.528 7.7773 11.4161L13 7.01408V13.5769C13 13.6932 12.9548 13.8022 12.8784 13.8806C12.8024 13.9586 12.702 14 12.6 14H2.4C2.29803 14 2.19762 13.9586 2.1216 13.8806C2.04515 13.8022 2 13.6932 2 13.5769V7.014Z" fill="#333333"/>
<defs>
<clipPath id="clip0_51_3064">
<rect width="16" height="16" fill="white" transform="translate(272)"/>
</clipPath>
<clipPath id="clip1_51_3064">
<rect width="16" height="16" fill="white" transform="translate(256)"/>
</clipPath>
<clipPath id="clip2_51_3064">
<rect width="16" height="16" fill="white" transform="translate(240)"/>
</clipPath>
<clipPath id="clip3_51_3064">
<rect width="16" height="16" fill="white" transform="translate(224)"/>
</clipPath>
<clipPath id="clip4_51_3064">
<rect width="16" height="16" fill="white" transform="translate(208)"/>
</clipPath>
<clipPath id="clip5_51_3064">
<rect width="16" height="16" fill="white" transform="translate(192)"/>
</clipPath>
<clipPath id="clip6_51_3064">
<rect width="16" height="16" fill="white" transform="translate(176)"/>
</clipPath>
<clipPath id="clip7_51_3064">
<rect width="16" height="16" fill="white" transform="translate(160)"/>
</clipPath>
<clipPath id="clip8_51_3064">
<rect width="16" height="16" fill="white" transform="translate(144)"/>
</clipPath>
<clipPath id="clip9_51_3064">
<rect width="16" height="16" fill="white" transform="translate(48)"/>
</clipPath>
<clipPath id="clip10_51_3064">
<rect width="16" height="16" fill="white" transform="translate(32)"/>
</clipPath>
</defs>
</svg>
