<svg width="96" height="16" viewBox="0 0 96 16" fill="none" xmlns="http://www.w3.org/2000/svg">
<g clip-path="url(#clip0_2067_2)">
<mask id="mask0_2067_2" style="mask-type:luminance" maskUnits="userSpaceOnUse" x="0" y="0" width="16" height="16">
<path d="M16 0H0V16H16V0Z" fill="white"/>
</mask>
<g mask="url(#mask0_2067_2)">
<mask id="mask1_2067_2" style="mask-type:luminance" maskUnits="userSpaceOnUse" x="0" y="0" width="16" height="16">
<path d="M16 0H0V16H16V0Z" fill="white"/>
</mask>
<g mask="url(#mask1_2067_2)">
<path d="M9.1782 10.5299L8.1192 11.8549C6.47844 10.8901 5.11098 9.52265 4.1462 7.88189L5.4712 6.82289C5.62644 6.69861 5.73614 6.52641 5.78318 6.33319C5.83022 6.13998 5.81194 5.93662 5.7312 5.75489L4.5242 3.03689C4.43767 2.84192 4.28471 2.68401 4.09258 2.59134C3.90045 2.49866 3.68165 2.47724 3.4752 2.53089L1.1752 3.13089C0.960135 3.18586 0.772967 3.31836 0.649665 3.50295C0.526363 3.68753 0.475625 3.91117 0.507202 4.13089C0.911131 7.0021 2.23885 9.66376 4.28963 11.7135C6.34042 13.7632 9.00277 15.0895 11.8742 15.4919C12.0939 15.5235 12.3175 15.4727 12.5021 15.3494C12.6867 15.2261 12.8192 15.039 12.8742 14.8239L13.4742 12.5239C13.5275 12.3176 13.506 12.099 13.4133 11.9071C13.3207 11.7152 13.1629 11.5624 12.9682 11.4759L10.2462 10.2709C10.0645 10.1901 9.86129 10.1716 9.66808 10.2185C9.47487 10.2653 9.30261 10.3748 9.1782 10.5299Z" stroke="#333333" stroke-linecap="round" stroke-linejoin="round"/>
<path d="M8.5 4C9.42826 4 10.3185 4.36875 10.9749 5.02513C11.6313 5.6815 12 6.57174 12 7.5" stroke="#333333" stroke-linecap="round" stroke-linejoin="round"/>
<path d="M8.5 1C9.35359 1 10.1988 1.16813 10.9874 1.49478C11.7761 1.82144 12.4926 2.30023 13.0962 2.90381C13.6998 3.50739 14.1786 4.22394 14.5052 5.01256C14.8319 5.80117 15 6.64641 15 7.5" stroke="#333333" stroke-linecap="round" stroke-linejoin="round"/>
</g>
</g>
<path d="M16.5 5L24 9L31.5 5" stroke="#333333" stroke-linecap="round" stroke-linejoin="round"/>
<path d="M30 14.5H18C17.6022 14.5 17.2206 14.342 16.9393 14.0607C16.658 13.7794 16.5 13.3978 16.5 13V3C16.5 2.60218 16.658 2.22064 16.9393 1.93934C17.2206 1.65804 17.6022 1.5 18 1.5H30C30.3978 1.5 30.7794 1.65804 31.0607 1.93934C31.342 2.22064 31.5 2.60218 31.5 3V13C31.5 13.3978 31.342 13.7794 31.0607 14.0607C30.7794 14.342 30.3978 14.5 30 14.5Z" stroke="#333333" stroke-linecap="round" stroke-linejoin="round"/>
<path d="M38.5 9.05859C38.5005 9.47886 38.3686 9.88862 38.1231 10.2297C37.8775 10.5708 37.5307 10.8258 37.132 10.9586L34.868 12.0446C34.4696 12.1773 34.1231 12.432 33.8775 12.7727C33.632 13.1134 33.4999 13.5227 33.5 13.9426V14.5006H46.5V13.9426C46.5005 13.5223 46.3686 13.1126 46.1231 12.7715C45.8775 12.4304 45.5307 12.1754 45.132 12.0426L42.867 10.9546C42.4691 10.8218 42.123 10.5673 41.8777 10.2271C41.6324 9.88682 41.5002 9.47805 41.5 9.05859" stroke="#333333" stroke-linecap="round" stroke-linejoin="round"/>
<path d="M36.5 5C36.5 4.07174 36.8687 3.1815 37.5251 2.52513C38.1815 1.86875 39.0717 1.5 40 1.5C40.9283 1.5 41.8185 1.86875 42.4749 2.52513C43.1313 3.1815 43.5 4.07174 43.5 5C43.5 6.933 41.933 9.5 40 9.5C38.067 9.5 36.5 6.933 36.5 5Z" stroke="#333333" stroke-linecap="round" stroke-linejoin="round"/>
<path d="M41 12C41 11.4477 40.5523 11 40 11C39.4477 11 39 11.4477 39 12V15C39 15.5523 39.4477 16 40 16C40.5523 16 41 15.5523 41 15V12Z" fill="#FF0F0F"/>
<path d="M60.5 10V13C60.5 13.3978 60.342 13.7794 60.0607 14.0607C59.7794 14.342 59.3978 14.5 59 14.5H51C50.6022 14.5 50.2206 14.342 49.9393 14.0607C49.658 13.7794 49.5 13.3978 49.5 13V5C49.5 4.60218 49.658 4.22064 49.9393 3.93934C50.2206 3.65804 50.6022 3.5 51 3.5H54" stroke="#333333" stroke-linecap="round" stroke-linejoin="round"/>
<path d="M62.5 1.5L55.5 8.5" stroke="#333333" stroke-linecap="round" stroke-linejoin="round"/>
<path d="M56.5 1.5H62.5V7.5" stroke="#333333" stroke-linecap="round" stroke-linejoin="round"/>
<path d="M75.5 1.5H76.5C76.765 1.5 77.02 1.60536 77.207 1.79289C77.395 1.98043 77.5 2.23478 77.5 2.5V13.5C77.5 13.7652 77.395 14.0196 77.207 14.2071C77.02 14.3946 76.765 14.5 76.5 14.5H67.5C67.235 14.5 66.98 14.3946 66.793 14.2071C66.605 14.0196 66.5 13.7652 66.5 13.5V2.5C66.5 2.23478 66.605 1.98043 66.793 1.79289C66.98 1.60536 67.235 1.5 67.5 1.5H68.5" stroke="#333333" stroke-linecap="round" stroke-linejoin="round"/>
<path d="M74.5 0.5H69.5V2.5H74.5V0.5Z" stroke="#333333" stroke-linecap="round" stroke-linejoin="round"/>
<path fill-rule="evenodd" clip-rule="evenodd" d="M76 6.5C76 6.77614 75.776 7 75.5 7H68.5C68.224 7 68 6.77614 68 6.5C68 6.22386 68.224 6 68.5 6H75.5C75.776 6 76 6.22386 76 6.5Z" fill="#333333"/>
<path fill-rule="evenodd" clip-rule="evenodd" d="M74 8.5C74 8.77614 73.776 9 73.5 9H68.5C68.224 9 68 8.77614 68 8.5C68 8.22386 68.224 8 68.5 8H73.5C73.776 8 74 8.22386 74 8.5Z" fill="#333333"/>
<path fill-rule="evenodd" clip-rule="evenodd" d="M72 10.5C72 10.7761 71.776 11 71.5 11H68.5C68.224 11 68 10.7761 68 10.5C68 10.2239 68.224 10 68.5 10H71.5C71.776 10 72 10.2239 72 10.5Z" fill="#333333"/>
<path d="M80 7.5C80 7.22386 80.2239 7 80.5 7H95.5C95.7761 7 96 7.22386 96 7.5C96 7.77614 95.7761 8 95.5 8H80.5C80.2239 8 80 7.77614 80 7.5Z" fill="#333333"/>
<path d="M80 3.5C80 3.22386 80.2239 3 80.5 3H95.5C95.7761 3 96 3.22386 96 3.5C96 3.77614 95.7761 4 95.5 4H80.5C80.2239 4 80 3.77614 80 3.5Z" fill="#333333"/>
<path d="M87.9999 13L90.598 10.75H85.4019L87.9999 13Z" fill="#333333"/>
</g>
<defs>
<clipPath id="clip0_2067_2">
<rect width="96" height="16" fill="white"/>
</clipPath>
</defs>
</svg>
