<svg width="32" height="32" viewBox="0 0 32 32" fill="none" xmlns="http://www.w3.org/2000/svg">
<path fill-rule="evenodd" clip-rule="evenodd" d="M30 16C30 23.732 23.732 30 16 30C8.26801 30 2 23.732 2 16C2 8.26801 8.26801 2 16 2C23.732 2 30 8.26801 30 16ZM23.7071 11.7071C24.0976 11.3166 24.0976 10.6834 23.7071 10.2929C23.3166 9.90237 22.6834 9.90237 22.2929 10.2929L13 19.5858L9.70711 16.2929C9.31658 15.9024 8.68342 15.9024 8.29289 16.2929C7.90237 16.6834 7.90237 17.3166 8.29289 17.7071L12.2929 21.7071C12.6834 22.0976 13.3166 22.0976 13.7071 21.7071L23.7071 11.7071Z" fill="#33883C"/>
</svg>
