<svg width="230" height="130" viewBox="0 0 230 130" fill="none" xmlns="http://www.w3.org/2000/svg" xmlns:xlink="http://www.w3.org/1999/xlink">
<g filter="url(#filter0_dd)">
<rect x="20" y="10" width="160" height="90" rx="8" fill="white"/>
<rect x="20.5" y="10.5" width="159" height="89" rx="7.5" stroke="#D2CBB9"/>
</g>
<rect x="25.5" y="40.5" width="5" height="29" rx="2.5" fill="white" stroke="#D2CBB9"/>
<g filter="url(#filter1_dd)">
<rect x="50" y="10" width="160" height="90" rx="8" fill="white"/>
<rect x="50.5" y="10.5" width="159" height="89" rx="7.5" stroke="#D2CBB9"/>
</g>
<path fill-rule="evenodd" clip-rule="evenodd" d="M89 56H91V87H89V56ZM93 56H95V80H93V56ZM105 56H103V80H105V56ZM116 56H118V80H116V56ZM109 56H107V80H109V56ZM120 56H122V80H120V56ZM140 56H138V80H140V56ZM157 56H159V80H157V56ZM114 56H111V80H114V56ZM152 56H155V80H152V56ZM126 56H124V80H126V56ZM142 56H144V80H142V56ZM163 56H161V80H163V56ZM165 56H167V80H165V56ZM171 56H169V87H171V56ZM134 56H136V87H134V56ZM132 56H128V80H132V56ZM146 56H150V80H146V56ZM101 56H97V80H101V56Z" fill="#D2CBB9"/>
<path d="M105.104 40.98H119.104V26.98H105.104V40.98Z" fill="url(#pattern0)"/>
<path d="M123 40.98H137V26.98H123V40.98Z" fill="url(#pattern1)"/>
<path d="M140.896 40.98H154.896V26.98H140.896V40.98Z" fill="url(#pattern2)"/>
<rect x="45" y="35" width="170" height="1" fill="#EB4242"/>
<rect x="50" y="36" width="160" height="23" fill="url(#paint0_linear)"/>
<defs>
<filter id="filter0_dd" x="0" y="0" width="200" height="130" filterUnits="userSpaceOnUse" color-interpolation-filters="sRGB">
<feFlood flood-opacity="0" result="BackgroundImageFix"/>
<feColorMatrix in="SourceAlpha" type="matrix" values="0 0 0 0 0 0 0 0 0 0 0 0 0 0 0 0 0 0 127 0"/>
<feOffset dy="10"/>
<feGaussianBlur stdDeviation="10"/>
<feColorMatrix type="matrix" values="0 0 0 0 0.823529 0 0 0 0 0.796078 0 0 0 0 0.72549 0 0 0 0.4 0"/>
<feBlend mode="normal" in2="BackgroundImageFix" result="effect1_dropShadow"/>
<feColorMatrix in="SourceAlpha" type="matrix" values="0 0 0 0 0 0 0 0 0 0 0 0 0 0 0 0 0 0 127 0"/>
<feOffset dy="4"/>
<feGaussianBlur stdDeviation="2"/>
<feColorMatrix type="matrix" values="0 0 0 0 0.825 0 0 0 0 0.795094 0 0 0 0 0.725312 0 0 0 0.3 0"/>
<feBlend mode="normal" in2="effect1_dropShadow" result="effect2_dropShadow"/>
<feBlend mode="normal" in="SourceGraphic" in2="effect2_dropShadow" result="shape"/>
</filter>
<filter id="filter1_dd" x="30" y="0" width="200" height="130" filterUnits="userSpaceOnUse" color-interpolation-filters="sRGB">
<feFlood flood-opacity="0" result="BackgroundImageFix"/>
<feColorMatrix in="SourceAlpha" type="matrix" values="0 0 0 0 0 0 0 0 0 0 0 0 0 0 0 0 0 0 127 0"/>
<feOffset dy="10"/>
<feGaussianBlur stdDeviation="10"/>
<feColorMatrix type="matrix" values="0 0 0 0 0.823529 0 0 0 0 0.796078 0 0 0 0 0.72549 0 0 0 0.4 0"/>
<feBlend mode="normal" in2="BackgroundImageFix" result="effect1_dropShadow"/>
<feColorMatrix in="SourceAlpha" type="matrix" values="0 0 0 0 0 0 0 0 0 0 0 0 0 0 0 0 0 0 127 0"/>
<feOffset dy="4"/>
<feGaussianBlur stdDeviation="2"/>
<feColorMatrix type="matrix" values="0 0 0 0 0.825 0 0 0 0 0.795094 0 0 0 0 0.725312 0 0 0 0.3 0"/>
<feBlend mode="normal" in2="effect1_dropShadow" result="effect2_dropShadow"/>
<feBlend mode="normal" in="SourceGraphic" in2="effect2_dropShadow" result="shape"/>
</filter>
<pattern id="pattern0" patternContentUnits="objectBoundingBox" width="1" height="1">
<use xlink:href="#image0" transform="scale(0.015625)"/>
</pattern>
<pattern id="pattern1" patternContentUnits="objectBoundingBox" width="1" height="1">
<use xlink:href="#image1" transform="scale(0.015625)"/>
</pattern>
<pattern id="pattern2" patternContentUnits="objectBoundingBox" width="1" height="1">
<use xlink:href="#image2" transform="scale(0.015625)"/>
</pattern>
<linearGradient id="paint0_linear" x1="130" y1="36" x2="130" y2="59" gradientUnits="userSpaceOnUse">
<stop stop-color="#EB4242" stop-opacity="0.3"/>
<stop offset="0.0001" stop-color="#EB4242" stop-opacity="0.4"/>
<stop offset="0.130208" stop-color="#EB4242" stop-opacity="0.2"/>
<stop offset="0.354167" stop-color="#EB4242" stop-opacity="0.1"/>
<stop offset="1" stop-color="#EB4242" stop-opacity="0"/>
</linearGradient>
</defs>
</svg>
