<svg width="16" height="16" viewBox="0 0 16 16" fill="none" xmlns="http://www.w3.org/2000/svg">
<g clip-path="url(#clip0_51_3096)">
<path fill-rule="evenodd" clip-rule="evenodd" d="M12.5549 7.03315C12.9298 7.40804 13.6038 7.41954 14.062 6.96138L14.6361 6.38724C15.0942 5.92908 15.0827 5.25503 14.7078 4.88014C14.333 4.50524 13.6589 4.49375 13.2008 4.95191L12.6266 5.52604C12.1685 5.9842 12.18 6.65825 12.5549 7.03315ZM14.7796 7.67905C13.9694 8.48923 12.6514 8.56499 11.8372 7.75082C11.0231 6.93664 11.0988 5.61856 11.909 4.80837L12.4831 4.23424C13.2933 3.42405 14.6113 3.34829 15.4255 4.16247C16.2397 4.97665 16.1639 6.29473 15.3537 7.10491L14.7796 7.67905Z" fill="#333333"/>
<path fill-rule="evenodd" clip-rule="evenodd" d="M8.96647 3.44518C9.34136 3.82008 10.0154 3.83158 10.4736 3.37342L11.0477 2.79928C11.5058 2.34112 11.4943 1.66707 11.1194 1.29218C10.7446 0.917282 10.0705 0.905783 9.61237 1.36394L9.03824 1.93808C8.58009 2.39624 8.59159 3.07029 8.96647 3.44518ZM11.1912 4.09109C10.381 4.90127 9.06298 4.97703 8.24882 4.16285C7.43465 3.34867 7.51041 2.03059 8.32058 1.22041L8.89471 0.646274C9.70488 -0.16391 11.0229 -0.239672 11.8371 0.574507C12.6513 1.38869 12.5755 2.70677 11.7653 3.51695L11.1912 4.09109Z" fill="#333333"/>
<path fill-rule="evenodd" clip-rule="evenodd" d="M3.12638 15.9331C2.88305 15.794 2.7985 15.484 2.93755 15.2407L10.6788 3.1933C10.8179 2.94996 11.1278 2.86542 11.3712 3.00447C11.6145 3.14352 11.6991 3.45351 11.56 3.69685L3.81875 15.7442C3.6797 15.9876 3.36972 16.0721 3.12638 15.9331Z" fill="#333333"/>
<path fill-rule="evenodd" clip-rule="evenodd" d="M0.0669467 12.8736C-0.0721011 12.6302 0.0124422 12.3202 0.255779 12.1812L12.303 4.43988C12.5464 4.30083 12.8564 4.38538 12.9954 4.62872C13.1345 4.87206 13.0499 5.18205 12.8066 5.3211L0.759315 13.0624C0.515978 13.2014 0.205994 13.1169 0.0669467 12.8736Z" fill="#333333"/>
<path d="M3.29514 0C5.1149 0 6.59028 1.4795 6.59028 3.30433C6.59028 3.67197 6.53015 4.02621 6.41932 4.35745L7.72017 5.6724C7.55756 6.02213 7.39606 6.3011 7.23759 6.52347L5.51665 4.78344C5.34352 4.60689 5.33708 4.32842 5.49569 4.14428C5.59449 3.88342 5.64881 3.60058 5.64881 3.30433C5.64881 2.0009 4.59494 0.944094 3.29514 0.944094C3.20707 0.944094 3.12013 0.949252 3.03448 0.959229L3.98105 1.90843C4.16488 2.09278 4.16489 2.39166 3.98105 2.57601L2.56885 3.99215C2.48057 4.08067 2.36083 4.13041 2.23599 4.13041C2.11114 4.13041 1.99141 4.08067 1.90313 3.99215L0.956562 3.04294C0.946613 3.12883 0.941469 3.21601 0.941469 3.30433C0.94147 4.60775 1.99534 5.66456 3.29514 5.66456C3.41869 5.66456 3.58564 5.63079 3.78263 5.56805C3.97461 5.50689 4.1652 5.42825 4.33356 5.35705C4.50999 5.28244 4.71392 5.32243 4.84932 5.45821L6.56698 7.18061C6.19314 7.40395 5.8581 7.39 5.59472 7.37903C5.53584 7.37658 5.48054 7.37428 5.4292 7.37481L4.40476 6.34755C4.29872 6.38888 4.18459 6.43058 4.06765 6.46783C3.83597 6.54163 3.56136 6.60865 3.29514 6.60865C1.47538 6.60865 0 5.12916 0 3.30433C0 2.81689 0.110491 2.35919 0.296156 1.94828C0.359915 1.80716 0.488665 1.70641 0.640661 1.67867C0.792657 1.65094 0.948548 1.69976 1.05779 1.8093L2.23599 2.99079L2.98247 2.24222L1.80427 1.06074C1.69503 0.951194 1.64635 0.794868 1.674 0.642448C1.70166 0.490029 1.80214 0.36092 1.94286 0.296983C2.35263 0.1108 2.80906 0 3.29514 0Z" fill="#333333"/>
<path d="M8.58408 10.5384L12.6261 14.5916C13.1692 15.1361 14.0496 15.1361 14.5927 14.5916C15.1326 14.0502 15.1362 13.1736 14.6009 12.6278L10.5469 8.52982C10.486 8.58011 10.4205 8.63316 10.3513 8.68917C10.1896 8.82003 10.0079 8.96708 9.81856 9.13306L13.9296 13.2897C14.1025 13.466 14.1013 13.7492 13.927 13.924C13.7516 14.0999 13.4672 14.0999 13.2918 13.924L9.15846 9.77923C8.95482 10.0061 8.75839 10.2581 8.58408 10.5384Z" fill="#333333"/>
</g>
<defs>
<clipPath id="clip0_51_3096">
<rect width="16" height="16" fill="white"/>
</clipPath>
</defs>
</svg>
