<?xml version="1.0" encoding="UTF-8" standalone="no"?>
<svg
   class="progressive_icon progressive_icon16"
   width="40"
   height="40"
   version="1.1"
   viewBox="0 0 40 40"
   id="svg1"
   sodipodi:docname="tg_3.svg"
   inkscape:version="1.3.2 (091e20e, 2023-11-25, custom)"
   xmlns:inkscape="http://www.inkscape.org/namespaces/inkscape"
   xmlns:sodipodi="http://sodipodi.sourceforge.net/DTD/sodipodi-0.dtd"
   xmlns="http://www.w3.org/2000/svg"
   xmlns:svg="http://www.w3.org/2000/svg">
  <defs
     id="defs1" />
  <sodipodi:namedview
     id="namedview1"
     pagecolor="#ffffff"
     bordercolor="#000000"
     borderopacity="0.25"
     inkscape:showpageshadow="2"
     inkscape:pageopacity="0.0"
     inkscape:pagecheckerboard="0"
     inkscape:deskcolor="#d1d1d1"
     inkscape:zoom="22.275"
     inkscape:cx="19.977553"
     inkscape:cy="20"
     inkscape:window-width="1920"
     inkscape:window-height="1129"
     inkscape:window-x="1912"
     inkscape:window-y="-8"
     inkscape:window-maximized="1"
     inkscape:current-layer="svg1" />
  <circle
     cx="20"
     cy="20"
     r="12.5"
     fill="#00acff"
     stroke-width="4.14082"
     id="circle1" />
  <path
     d="m 11.859632,19.202391 c 3.630846,-1.522667 8.021249,-3.688446 11.825784,-5.152358 3.513247,-1.291112 3.454491,-0.938312 2.927735,2.576179 -0.411564,2.810135 -0.88072,5.62027 -1.346312,8.430405 -0.176382,1.346312 -0.88072,2.048179 -2.342223,1.232267 l -4.566758,-3.219291 c -0.645538,-0.527955 -0.469156,-0.939556 0.05999,-1.463911 l 4.214047,-3.981247 c 1.115911,-1.115912 0.586747,-1.522668 -0.704338,-0.645538 l -5.796715,3.922491 c -0.821929,0.586747 -1.697867,0.586747 -2.634935,0.292773 l -1.990578,-0.703138 c -1.291113,-0.470356 -0.292774,-0.998312 0.352764,-1.288712 z"
     clip-rule="evenodd"
     fill="#ffffff"
     fill-rule="evenodd"
     stroke-width="1.3499"
     id="path1" />
</svg>
