<svg width="16" height="16" viewBox="0 0 18 18" fill="none" xmlns="http://www.w3.org/2000/svg">
<path fill-rule="evenodd" clip-rule="evenodd" d="M2 0C0.895431 0 0 0.89543 0 2V6C0 7.10457 0.89543 8 2 8H6C7.10457 8 8 7.10457 8 6V2C8 0.895431 7.10457 0 6 0H2ZM2 2H6V6H2V2Z" fill="#999999"/>
<path fill-rule="evenodd" clip-rule="evenodd" d="M2 10C0.895431 10 0 10.8954 0 12V16C0 17.1046 0.89543 18 2 18H6C7.10457 18 8 17.1046 8 16V12C8 10.8954 7.10457 10 6 10H2ZM2 12H6V16H2V12Z" fill="#999999"/>
<path fill-rule="evenodd" clip-rule="evenodd" d="M10 2C10 0.89543 10.8954 0 12 0H16C17.1046 0 18 0.895431 18 2V6C18 7.10457 17.1046 8 16 8H12C10.8954 8 10 7.10457 10 6V2ZM16 2H12V6H16V2Z" fill="#999999"/>
<path fill-rule="evenodd" clip-rule="evenodd" d="M12 10C10.8954 10 10 10.8954 10 12V16C10 17.1046 10.8954 18 12 18H16C17.1046 18 18 17.1046 18 16V12C18 10.8954 17.1046 10 16 10H12ZM12 12H16V16H12V12Z" fill="#999999"/>
</svg>
