<svg width="55" height="55" viewBox="0 0 55 55" fill="none" xmlns="http://www.w3.org/2000/svg">
<circle cx="27.5" cy="27.5" r="27.5" fill="#C6E3FC"/>
<path fill-rule="evenodd" clip-rule="evenodd" d="M11 18C11 17.4477 11.4477 17 12 17H15C15.5523 17 16 17.4477 16 18C16 18.5523 15.5523 19 15 19H13V39H41V19H39C38.4477 19 38 18.5523 38 18C38 17.4477 38.4477 17 39 17H42C42.5523 17 43 17.4477 43 18V40C43 40.5523 42.5523 41 42 41H12C11.4477 41 11 40.5523 11 40V18Z" fill="#444444"/>
<path fill-rule="evenodd" clip-rule="evenodd" d="M27 17C27.5523 17 28 17.4477 28 18V36C28 36.5523 27.5523 37 27 37C26.4477 37 26 36.5523 26 36V18C26 17.4477 26.4477 17 27 17Z" fill="#444444"/>
<path fill-rule="evenodd" clip-rule="evenodd" d="M14 14C14 13.4477 14.4477 13 15 13C20.0529 13 23.2298 14.0285 25.1791 15.1292C25.9847 15.5842 26.5732 16.0474 26.9923 16.4461C27.4065 16.0467 27.9883 15.5843 28.7872 15.1305C30.7285 14.0277 33.907 13 39 13C39.5523 13 40 13.4477 40 14V32C40 32.5523 39.5523 33 39 33C35.5918 33 32.7396 33.9487 30.7342 34.903C29.7328 35.3795 28.9482 35.8548 28.4182 36.2075C28.1535 36.3837 27.9529 36.5289 27.8214 36.6277C27.7556 36.6771 27.7071 36.7149 27.6766 36.7391C27.6613 36.7512 27.6505 36.7599 27.6442 36.7649L27.6392 36.769C27.2763 37.0707 26.7519 37.0775 26.3812 36.7855L26.3801 36.7847L26.3737 36.7797L26.3386 36.753C26.3058 36.7282 26.2543 36.6898 26.1848 36.6398C26.0458 36.5398 25.8353 36.3934 25.5596 36.2161C25.0075 35.861 24.1968 35.3836 23.1769 34.9054C21.1318 33.9466 18.2791 33 15 33C14.4477 33 14 32.5523 14 32V14ZM26.988 34.7623C27.0847 34.6946 27.1922 34.621 27.3101 34.5425C27.907 34.1452 28.7747 33.6205 29.8748 33.097C31.8756 32.1449 34.6641 31.1882 38 31.0245V15.0144C33.7806 15.138 31.2421 16.0361 29.7751 16.8695C28.9841 17.3188 28.4934 17.7555 28.2113 18.0576C28.0697 18.2091 27.9792 18.3283 27.9289 18.4004C27.9038 18.4365 27.8886 18.4609 27.882 18.4717C27.8808 18.4737 27.8793 18.4763 27.8793 18.4763C27.7061 18.796 27.3726 18.997 27.0082 19C26.6434 19.003 26.3064 18.8071 26.1282 18.4898C26.1282 18.4898 26.1263 18.4868 26.1248 18.4843C26.1176 18.4728 26.1015 18.4477 26.0751 18.411C26.0225 18.3376 25.9287 18.2171 25.7833 18.0643C25.4934 17.7597 24.9934 17.3212 24.1957 16.8708C22.7176 16.0361 20.1793 15.1392 16 15.0146V31.0261C19.2313 31.1945 22.0103 32.1495 24.0259 33.0946C25.1388 33.6164 26.0274 34.139 26.6415 34.5339C26.7688 34.6158 26.8845 34.6923 26.988 34.7623Z" fill="#444444"/>
</svg>
