<svg width="16" height="16" viewBox="0 0 16 16" fill="none" xmlns="http://www.w3.org/2000/svg">
<path fill-rule="evenodd" clip-rule="evenodd" d="M1 2.5C1 1.67186 1.6719 1 2.5 1H13.5C14.328 1 15 1.67186 15 2.5V9.5C15 10.3281 14.328 11 13.5 11H9.352L4.825 14.8796C4.677 15.0067 4.468 15.0358 4.291 14.9543C4.114 14.8727 4 14.6953 4 14.5V11H2.5C1.6719 11 1 10.3281 1 9.5V2.5ZM2.5 2C2.2241 2 2 2.22414 2 2.5V9.5C2 9.77586 2.2241 10 2.5 10H4.5C4.776 10 5 10.2239 5 10.5V13.4129L8.842 10.1204C8.932 10.0427 9.048 10 9.167 10H13.5C13.776 10 14 9.77586 14 9.5V2.5C14 2.22414 13.776 2 13.5 2H2.5Z" fill="#333333"/>
</svg>
