<svg width="55" height="55" viewBox="0 0 55 55" fill="none" xmlns="http://www.w3.org/2000/svg">
<circle cx="27.5" cy="27.5" r="27.5" fill="#FFF9BF"/>
<path fill-rule="evenodd" clip-rule="evenodd" d="M26.5528 12.1056C26.8343 11.9648 27.1657 11.9648 27.4472 12.1056L42.4472 19.1056C42.786 19.275 43 19.6212 43 20C43 20.3788 42.786 20.725 42.4472 20.8944L27.4472 27.8944C27.1657 28.0352 26.8343 28.0352 26.5528 27.8944L11.5528 20.8944C11.214 20.725 11 20.3788 11 20C11 19.6212 11.214 19.275 11.5528 19.1056L26.5528 12.1056ZM14.2361 20L27 25.882L39.7639 20L27 14.118L14.2361 20Z" fill="#444444"/>
<path fill-rule="evenodd" clip-rule="evenodd" d="M17 22C17.5523 22 18 22.4477 18 23V35C18 35.7977 18.6728 36.7892 20.3761 37.641C22.0196 38.4628 24.3601 39 27 39C29.6399 39 31.9804 38.4628 33.6239 37.641C35.3272 36.7892 36 35.7977 36 35V23C36 22.4477 36.4477 22 37 22C37.5523 22 38 22.4477 38 23V35C38 36.9633 36.4343 38.4718 34.5184 39.4298C32.5426 40.4177 29.8831 41 27 41C24.1169 41 21.4574 40.4177 19.4816 39.4298C17.5657 38.4718 16 36.9633 16 35V23C16 22.4477 16.4477 22 17 22Z" fill="#444444"/>
<path fill-rule="evenodd" clip-rule="evenodd" d="M41 23C41.5523 23 42 23.4477 42 24V33C42 33.5523 41.5523 34 41 34C40.4477 34 40 33.5523 40 33V24C40 23.4477 40.4477 23 41 23Z" fill="#444444"/>
</svg>
