<svg width="16" height="16" viewBox="0 0 16 16" fill="none" xmlns="http://www.w3.org/2000/svg">
<circle cx="8" cy="8" r="7" fill="#EB4242"/>
<path d="M5.64179 4.3833C4.53731 4.3833 4 5.20917 4 6.2639C4 7.32857 4.53731 8.14449 5.64179 8.14449C6.75622 8.14449 7.30348 7.32857 7.30348 6.2639C7.30348 5.20917 6.75622 4.3833 5.64179 4.3833ZM5.64179 7.32857C5.13433 7.32857 4.91542 6.88081 4.91542 6.2639C4.91542 5.65693 5.13433 5.19922 5.64179 5.19922C6.1592 5.19922 6.37811 5.65693 6.37811 6.2639C6.37811 6.88081 6.1592 7.32857 5.64179 7.32857ZM10.3483 7.85594C9.23383 7.85594 8.68657 8.68181 8.68657 9.73653C8.68657 10.8012 9.23383 11.6171 10.3483 11.6171C11.4527 11.6171 12 10.8012 12 9.73653C12 8.68181 11.4527 7.85594 10.3483 7.85594ZM10.3483 10.8012C9.83085 10.8012 9.61194 10.3534 9.61194 9.73653C9.61194 9.12957 9.83085 8.67186 10.3483 8.67186C10.8557 8.67186 11.0846 9.12957 11.0846 9.73653C11.0846 10.3534 10.8557 10.8012 10.3483 10.8012ZM6.40796 11.4878L10.6169 4.5226H9.61194L5.39303 11.4878H6.40796Z" fill="white"/>
</svg>
