<svg width="16" height="16" viewBox="0 0 16 16" fill="none" xmlns="http://www.w3.org/2000/svg">
<path fill-rule="evenodd" clip-rule="evenodd" d="M4 2H12V14H4V2ZM3 14V13H2.5C2.22388 13 2 13.2239 2 13.5C2 13.7761 2.22388 14 2.5 14H3ZM3 12V1H13V12H13.5C14.3284 12 15 12.6716 15 13.5C15 14.3284 14.3284 15 13.5 15H13H3H2.5C1.67157 15 1 14.3284 1 13.5C1 12.6716 1.67157 12 2.5 12H3ZM13 14H13.5C13.7761 14 14 13.7761 14 13.5C14 13.2239 13.7761 13 13.5 13H13V14ZM7 3H5V4H7V3ZM8 5H5V6H8V5ZM5 7V8H9V7H5ZM5 9H8V10H5V9ZM11 5H10V6H11V5ZM10 7H11V8H10V7ZM11 9H10V10H11V9Z" fill="#2B2B2B"/>
</svg>
