<?xml version="1.0" encoding="UTF-8"?>
<svg width="12pt" height="12pt" preserveAspectRatio="xMidYMid" version="1.0" viewBox="0 0 12 12" xml:space="preserve" xmlns="http://www.w3.org/2000/svg"><circle cx="6.4" cy="6" r="5.0375" fill="#4d4d4d" stroke="#4d4d4d" stroke-width=".92506" style="paint-order:stroke fill markers"/><g transform="matrix(.00069581 0 0 -.00069581 1.9203 10.175)" fill="#fbed9e" stroke-width="282.58"><path d="m5970 12090c-417-39-761-113-1094-236-154-56-404-178-550-267-328-202-651-502-876-817-340-475-557-1060-660-1783-12-81-19-151-16-156s47-34 96-65l91-56 672-80c370-44 685-81 702-83l29-2 28 150c166 905 518 1459 1115 1759 267 133 553 196 900 196 485 0 899-141 1253-427 171-139 357-351 469-537 238-393 302-907 165-1326-39-120-137-307-215-410-166-221-419-479-819-835-595-531-865-813-1076-1125-408-602-572-1262-547-2203l6-247 691 2 691 3 2 105c6 302 37 709 69 895 57 336 189 636 393 890 94 118 451 467 766 750 914 822 1312 1312 1528 1882 223 586 235 1285 32 1901-150 453-433 881-816 1231-544 498-1190 775-2044 876-162 20-828 29-985 15z"/><path d="m5581 2590c-20-98-21-121-21-920v-820h1620v828c-1 740-3 836-18 917l-17 90-771 3-771 2z"/></g></svg>
