<svg width="42" height="42" viewBox="0 0 252 252" fill="none" xmlns="http://www.w3.org/2000/svg">
<circle cx="126.5" cy="125.5" r="17.5" fill="#00A358"/>
<path d="M119.647 113.876C116.437 113.876 114.876 116.53 114.876 119.92C114.876 123.341 116.437 125.964 119.647 125.964C122.886 125.964 124.476 123.341 124.476 119.92C124.476 116.53 122.886 113.876 119.647 113.876ZM119.647 123.341C118.172 123.341 117.536 121.902 117.536 119.92C117.536 117.969 118.172 116.498 119.647 116.498C121.151 116.498 121.787 117.969 121.787 119.92C121.787 121.902 121.151 123.341 119.647 123.341ZM133.324 125.036C130.086 125.036 128.495 127.69 128.495 131.08C128.495 134.502 130.086 137.124 133.324 137.124C136.534 137.124 138.124 134.502 138.124 131.08C138.124 127.69 136.534 125.036 133.324 125.036ZM133.324 134.502C131.82 134.502 131.184 133.063 131.184 131.08C131.184 129.13 131.82 127.659 133.324 127.659C134.799 127.659 135.464 129.13 135.464 131.08C135.464 133.063 134.799 134.502 133.324 134.502ZM121.874 136.708L134.105 114.324H131.184L118.924 136.708H121.874Z" fill="white"/>
<rect x="24" y="24" width="36" height="36" fill="black"/>
<rect x="192" y="24" width="36" height="36" fill="black"/>
<rect x="24" y="192" width="36" height="36" fill="black"/>
<rect width="12" height="84" fill="black"/>
<rect x="168" width="12" height="84" fill="black"/>
<rect y="168" width="12" height="84" fill="black"/>
<rect x="72" width="12" height="84" fill="black"/>
<rect x="240" width="12" height="84" fill="black"/>
<rect x="72" y="168" width="12" height="84" fill="black"/>
<rect x="84" width="12" height="84" transform="rotate(90 84 0)" fill="black"/>
<rect x="252" width="12" height="84" transform="rotate(90 252 0)" fill="black"/>
<rect x="84" y="168" width="12" height="84" transform="rotate(90 84 168)" fill="black"/>
<rect x="120" width="12" height="24" transform="rotate(90 120 0)" fill="black"/>
<rect x="108" y="24" width="24" height="12" transform="rotate(90 108 24)" fill="black"/>
<rect x="156" y="24" width="36" height="12" transform="rotate(90 156 24)" fill="black"/>
<rect x="120" y="48" width="24" height="12" transform="rotate(90 120 48)" fill="black"/>
<rect x="132" y="72" width="12" height="12" transform="rotate(90 132 72)" fill="black"/>
<rect x="144" y="60" width="12" height="12" transform="rotate(90 144 60)" fill="black"/>
<rect x="156" y="72" width="12" height="12" transform="rotate(90 156 72)" fill="black"/>
<rect x="144" y="84" width="12" height="12" transform="rotate(90 144 84)" fill="black"/>
<rect x="48" y="96" width="12" height="12" transform="rotate(90 48 96)" fill="black"/>
<rect x="60" y="108" width="24" height="12" transform="rotate(90 60 108)" fill="black"/>
<rect x="72" y="132" width="24" height="12" transform="rotate(90 72 132)" fill="black"/>
<rect x="108" y="156" width="36" height="12" transform="rotate(90 108 156)" fill="black"/>
<rect x="132" y="144" width="48" height="12" transform="rotate(90 132 144)" fill="black"/>
<rect x="168" y="156" width="48" height="12" transform="rotate(90 168 156)" fill="black"/>
<rect x="156" y="144" width="12" height="12" transform="rotate(90 156 144)" fill="black"/>
<rect x="180" y="132" width="12" height="12" transform="rotate(90 180 132)" fill="black"/>
<rect x="144" y="168" width="12" height="12" transform="rotate(90 144 168)" fill="black"/>
<rect x="144" y="192" width="24" height="12" transform="rotate(90 144 192)" fill="black"/>
<rect x="132" y="204" width="24" height="12" transform="rotate(90 132 204)" fill="black"/>
<rect x="120" y="192" width="12" height="12" transform="rotate(90 120 192)" fill="black"/>
<rect x="108" y="204" width="12" height="12" transform="rotate(90 108 204)" fill="black"/>
<rect x="156" y="216" width="12" height="12" transform="rotate(90 156 216)" fill="black"/>
<rect x="192" y="240" width="12" height="12" transform="rotate(90 192 240)" fill="black"/>
<rect x="216" y="240" width="12" height="12" transform="rotate(90 216 240)" fill="black"/>
<rect x="228" y="216" width="12" height="12" transform="rotate(90 228 216)" fill="black"/>
<rect x="228" y="168" width="12" height="12" transform="rotate(90 228 168)" fill="black"/>
<rect x="252" y="120" width="12" height="12" transform="rotate(90 252 120)" fill="black"/>
<rect x="240" y="108" width="12" height="12" transform="rotate(90 240 108)" fill="black"/>
<rect x="252" y="96" width="12" height="12" transform="rotate(90 252 96)" fill="black"/>
<rect x="216" y="96" width="60" height="12" transform="rotate(90 216 96)" fill="black"/>
<rect x="228" y="96" width="12" height="24" transform="rotate(90 228 96)" fill="black"/>
<rect x="192" y="96" width="12" height="36" transform="rotate(90 192 96)" fill="black"/>
<rect x="192" y="120" width="12" height="36" transform="rotate(90 192 120)" fill="black"/>
<rect x="228" y="120" width="12" height="24" transform="rotate(90 228 120)" fill="black"/>
<rect x="216" y="108" width="12" height="48" transform="rotate(90 216 108)" fill="black"/>
<rect x="252" y="144" width="24" height="12" transform="rotate(90 252 144)" fill="black"/>
<rect x="240" y="132" width="24" height="12" transform="rotate(90 240 132)" fill="black"/>
<rect x="216" y="192" width="24" height="12" transform="rotate(90 216 192)" fill="black"/>
<rect x="204" y="168" width="24" height="12" transform="rotate(90 204 168)" fill="black"/>
<rect x="192" y="156" width="24" height="12" transform="rotate(90 192 156)" fill="black"/>
<rect x="240" y="192" width="24" height="12" transform="rotate(90 240 192)" fill="black"/>
<rect x="252" y="204" width="24" height="12" transform="rotate(90 252 204)" fill="black"/>
<rect x="240" y="240" width="12" height="12" transform="rotate(90 240 240)" fill="black"/>
<rect x="156" y="240" width="12" height="24" transform="rotate(90 156 240)" fill="black"/>
<rect x="180" y="228" width="12" height="24" transform="rotate(90 180 228)" fill="black"/>
<rect x="204" y="216" width="12" height="24" transform="rotate(90 204 216)" fill="black"/>
<rect x="120" y="228" width="12" height="24" transform="rotate(90 120 228)" fill="black"/>
<rect x="120" y="216" width="36" height="12" transform="rotate(90 120 216)" fill="black"/>
<rect x="156" y="180" width="12" height="12" transform="rotate(90 156 180)" fill="black"/>
<rect x="180" y="192" width="12" height="24" transform="rotate(90 180 192)" fill="black"/>
<rect x="216" y="144" width="12" height="24" transform="rotate(90 216 144)" fill="black"/>
<rect x="24" y="96" width="12" height="12" transform="rotate(90 24 96)" fill="black"/>
<rect x="96" y="120" width="12" height="24" transform="rotate(90 96 120)" fill="black"/>
<rect x="72" y="108" width="12" height="24" transform="rotate(90 72 108)" fill="black"/>
<rect x="120" y="96" width="12" height="60" transform="rotate(90 120 96)" fill="black"/>
<rect x="84" y="144" width="12" height="60" transform="rotate(90 84 144)" fill="black"/>
<rect x="132" y="156" width="12" height="36" transform="rotate(90 132 156)" fill="black"/>
<rect x="108" y="60" width="36" height="12" transform="rotate(90 108 60)" fill="black"/>
<rect x="96" y="96" width="36" height="12" transform="rotate(90 96 96)" fill="black"/>
<rect x="12" y="120" width="36" height="12" transform="rotate(90 12 120)" fill="black"/>
<rect x="36" y="132" width="24" height="12" transform="rotate(90 36 132)" fill="black"/>
<rect x="132" y="12" width="24" height="24" transform="rotate(90 132 12)" fill="black"/>
<rect x="156" width="12" height="24" transform="rotate(90 156 0)" fill="black"/>
<rect x="144" y="36" width="12" height="24" transform="rotate(90 144 36)" fill="black"/>
<rect x="84" y="72" width="12" height="84" transform="rotate(90 84 72)" fill="black"/>
<rect x="252" y="72" width="12" height="84" transform="rotate(90 252 72)" fill="black"/>
<rect x="84" y="240" width="12" height="84" transform="rotate(90 84 240)" fill="black"/>
</svg>
