<svg width="160" height="150" viewBox="0 0 160 150" fill="none" xmlns="http://www.w3.org/2000/svg">
<path opacity="0.1" fill-rule="evenodd" clip-rule="evenodd" d="M78 150H147.5L159 109L96.0001 40.9998L54.4998 49.5L49.0718 119.238L60.5001 127L71.5001 138L78 150Z" fill="#F1962A"/>
<path opacity="0.2" d="M146 148.5L157 110.5L115.5 117L73.5 137L79 148.5H146Z" fill="#F1962A"/>
<path opacity="0.2" d="M157.5 109.5L127.5 78L116 116L85.5 84L62 125.5L73.5 137L79.5 148.5H146L157.5 109.5Z" fill="#F1962A"/>
<path opacity="0.15" d="M116.5 115.5L126 76.5L86.5 83.5L116.5 115.5Z" fill="#F1962A"/>
<path d="M56.5 51.5L145.5 148" stroke="#2B2B2B" stroke-width="3"/>
<path d="M95.5 43L85.5 83" stroke="#2B2B2B" stroke-width="3"/>
<path d="M125.715 75.8152L86 83.5" stroke="#2B2B2B" stroke-width="3"/>
<path d="M126.653 76.8203L116.5 116" stroke="#2B2B2B" stroke-width="3"/>
<path d="M157.616 109.99L116.5 117" stroke="#2B2B2B" stroke-width="3"/>
<path d="M85.9321 82.2288L62 126.5" stroke="#2B2B2B" stroke-width="3"/>
<path d="M117.521 116.069L72.5002 137.5" stroke="#2B2B2B" stroke-width="3"/>
<path opacity="0.15" d="M48 150H71L66.5 138L55.5 127L43.5 122L42 144L48 150Z" fill="#F1962A"/>
<path opacity="0.3" d="M68 148L65 139L50 146L49 148H68Z" fill="#F1962A"/>
<path d="M43.5429 143.422L44.8542 124.189L54.6492 128.27L65.2096 138.831L68.8355 148.5H48.6213L43.5429 143.422Z" stroke="#2B2B2B" stroke-width="3"/>
<path d="M55 128.5L45.5 145.5M65 138.5L47 147" stroke="#2B2B2B" stroke-width="3"/>
<path d="M61.5607 125.939L61.4603 125.839L61.3428 125.759L50.6348 118.487L55.9076 50.7428L95.4737 42.6387L157.329 109.403L146.363 148.5H78.8934L72.819 137.286L72.7151 137.094L72.5607 136.939L61.5607 125.939Z" stroke="#2B2B2B" stroke-width="3"/>
<mask id="path-17-inside-1_3206_48152" fill="white">
<path d="M39 150H43.5L40 146.5L39 150Z"/>
</mask>
<path d="M43.5 150V153H50.7426L45.6213 147.879L43.5 150ZM39 150L36.1154 149.176L35.0228 153H39V150ZM40 146.5L42.1213 144.379L38.5161 140.773L37.1154 145.676L40 146.5ZM43.5 147H39V153H43.5V147ZM41.8846 150.824L42.8846 147.324L37.1154 145.676L36.1154 149.176L41.8846 150.824ZM37.8787 148.621L41.3787 152.121L45.6213 147.879L42.1213 144.379L37.8787 148.621Z" fill="#2B2B2B" mask="url(#path-17-inside-1_3206_48152)"/>
<path d="M36.286 81.3697L29.2348 109.57L2.36084 98.4893" stroke="#F1962A" stroke-width="3" stroke-linecap="round"/>
<path fill-rule="evenodd" clip-rule="evenodd" d="M30.5163 108C23.266 97.8509 19 85.4237 19 72C19 37.7583 46.7583 10 81 10C115.242 10 143 37.7583 143 72C143 73.438 142.951 74.8646 142.855 76.2781L145.602 79.2373C145.865 76.8612 146 74.4464 146 72C146 36.1015 116.899 7 81 7C45.1015 7 16 36.1015 16 72C16 86.0277 20.4436 99.0176 28 109.639V108H30.5163Z" fill="#F1962A"/>
</svg>
