<svg width="16" height="16" viewBox="0 0 16 16" fill="none" xmlns="http://www.w3.org/2000/svg">
<path d="M6.5 9.05811C6.5005 9.47838 6.3686 9.88814 6.1231 10.2292C5.8775 10.5703 5.5307 10.8253 5.132 10.9581L2.868 12.0441C2.4696 12.1768 2.1231 12.4315 1.8775 12.7722C1.632 13.1129 1.4999 13.5222 1.5 13.9421V14.5001H14.5V13.9421C14.5005 13.5218 14.3686 13.1121 14.1231 12.771C13.8775 12.4299 13.5307 12.1749 13.132 12.0421L10.867 10.9541C10.4691 10.8213 10.123 10.5668 9.8777 10.2266C9.6324 9.88634 9.5002 9.47757 9.5 9.05811" stroke="#333333" stroke-linecap="round" stroke-linejoin="round"/>
<path d="M4.5 5C4.5 4.07174 4.8687 3.1815 5.5251 2.52513C6.1815 1.86875 7.0717 1.5 8 1.5C8.9283 1.5 9.8185 1.86875 10.4749 2.52513C11.1313 3.1815 11.5 4.07174 11.5 5C11.5 6.933 9.933 9.5 8 9.5C6.067 9.5 4.5 6.933 4.5 5Z" stroke="#333333" stroke-linecap="round" stroke-linejoin="round"/>
<path d="M9 12C9 11.4477 8.55228 11 8 11C7.44772 11 7 11.4477 7 12V15C7 15.5523 7.44772 16 8 16C8.55228 16 9 15.5523 9 15V12Z" fill="#FF0F0F"/>
</svg>
