<svg width="67" height="56" viewBox="0 0 67 56" fill="none" xmlns="http://www.w3.org/2000/svg">
<rect x="0.5" y="21" width="14" height="14" rx="1.5" fill="white"/>
<rect x="0.5" y="21" width="14" height="14" rx="1.5" stroke="#A0A0A0"/>
<path fill-rule="evenodd" clip-rule="evenodd" d="M15.6196 19.7152C16.0531 20.0574 16.1271 20.6862 15.7849 21.1197L8.28488 30.6197C8.10793 30.8438 7.8436 30.9816 7.55852 30.9983C7.27344 31.015 6.99482 30.9091 6.79289 30.7071L3.29289 27.2071C2.90237 26.8166 2.90237 26.1835 3.29289 25.7929C3.68342 25.4024 4.31658 25.4024 4.70711 25.7929L7.41193 28.4978L14.2151 19.8804C14.5573 19.4469 15.1862 19.3729 15.6196 19.7152Z" fill="#009646"/>
<path d="M39 26C39 25.4477 39.4477 25 40 25H44C44.5523 25 45 25.4477 45 26C45 26.5523 44.5523 27 44 27H40C39.4477 27 39 26.5523 39 26Z" fill="#444444"/>
<path d="M40 34C39.4477 34 39 34.4477 39 35C39 35.5523 39.4477 36 40 36H44C44.5523 36 45 35.5523 45 35C45 34.4477 44.5523 34 44 34H40Z" fill="#444444"/>
<path fill-rule="evenodd" clip-rule="evenodd" d="M47 12C46.8345 12 46.6716 12.0411 46.5259 12.1195L33.5259 19.1195C33.202 19.2939 33 19.6321 33 20V42H32C31.4477 42 31 42.4477 31 43C31 43.5523 31.4477 44 32 44L62 44C62.5523 44 63 43.5523 63 43C63 42.4477 62.5523 42 62 42H61V25C61 24.4477 60.5523 24 60 24H51V13C51 12.4477 50.5523 12 50 12H47ZM51 26V42H59V26H51ZM49 14H47.2521L35 20.5973V42H49V14Z" fill="#444444"/>
</svg>
