<svg width="40" height="35" viewBox="0 0 40 35" fill="none" xmlns="http://www.w3.org/2000/svg">
<path d="M2 6C2 3.8 3.8 2 6 2H7C7.6 2 8 1.6 8 1C8 0.4 7.6 0 7 0H6C2.7 0 0 2.7 0 6V7C0 7.6 0.4 8 1 8C1.6 8 2 7.6 2 7V6Z" fill="#2B2B2B"/>
<path d="M6 32C3.8 32 2 30.2 2 28V27C2 26.4 1.6 26 1 26C0.4 26 0 26.4 0 27V28C0 31.3 2.7 34 6 34H7C7.6 34 8 33.6 8 33C8 32.4 7.6 32 7 32H6Z" fill="#2B2B2B"/>
<path d="M28 0H27C26.4 0 26 0.4 26 1C26 1.6 26.4 2 27 2H28C30.2 2 32 3.8 32 6V7C32 7.6 32.4 8 33 8C33.6 8 34 7.6 34 7V6C34 2.7 31.3 0 28 0Z" fill="#2B2B2B"/>
<path d="M32 28C32 30.2 30.2 32 28 32H27C26.4 32 26 32.4 26 33C26 33.6 26.4 34 27 34H28C31.3 34 34 31.3 34 28V27C34 26.4 33.6 26 33 26C32.4 26 32 26.4 32 27V28Z" fill="#2B2B2B"/>
<rect x="7" y="7" width="2" height="2" fill="#EB4242"/>
<rect x="10" y="8" width="2" height="2" fill="#EB4242"/>
<rect x="10" y="10" width="2" height="2" transform="rotate(90 10 10)" fill="#EB4242"/>
<rect x="12" y="10" width="2" height="2" transform="rotate(90 12 10)" fill="#EB4242"/>
<rect x="14" y="12" width="2" height="2" transform="rotate(90 14 12)" fill="#EB4242"/>
<rect x="14" y="14" width="2" height="2" transform="rotate(90 14 14)" fill="#EB4242"/>
<rect x="17" y="13" width="2" height="2" transform="rotate(90 17 13)" fill="#EB4242"/>
<rect x="16" y="10" width="2" height="2" transform="rotate(90 16 10)" fill="#EB4242"/>
<rect x="18" y="12" width="2" height="2" transform="rotate(90 18 12)" fill="#EB4242"/>
<rect x="20" y="10" width="2" height="2" transform="rotate(90 20 10)" fill="#EB4242"/>
<rect x="22" y="10" width="2" height="2" transform="rotate(90 22 10)" fill="#EB4242"/>
<rect x="24" y="12" width="2" height="2" transform="rotate(90 24 12)" fill="#EB4242"/>
<rect x="26" y="11" width="2" height="2" transform="rotate(90 26 11)" fill="#EB4242"/>
<rect x="20" y="15" width="2" height="2" transform="rotate(90 20 15)" fill="#EB4242"/>
<rect x="22" y="14" width="2" height="2" transform="rotate(90 22 14)" fill="#EB4242"/>
<rect x="12" y="16" width="2" height="2" transform="rotate(90 12 16)" fill="#EB4242"/>
<rect x="16" y="16" width="2" height="2" transform="rotate(90 16 16)" fill="#EB4242"/>
<rect x="18" y="16" width="2" height="2" transform="rotate(90 18 16)" fill="#EB4242"/>
<rect x="14" y="18" width="2" height="2" transform="rotate(90 14 18)" fill="#EB4242"/>
<rect x="20" y="18" width="2" height="2" transform="rotate(90 20 18)" fill="#EB4242"/>
<rect x="24" y="16" width="2" height="2" transform="rotate(90 24 16)" fill="#EB4242"/>
<rect x="26" y="16" width="2" height="2" transform="rotate(90 26 16)" fill="#EB4242"/>
<rect x="24" y="18" width="2" height="2" transform="rotate(90 24 18)" fill="#EB4242"/>
<rect x="22" y="20" width="2" height="2" transform="rotate(90 22 20)" fill="#EB4242"/>
<rect x="18" y="20" width="2" height="2" transform="rotate(90 18 20)" fill="#EB4242"/>
<rect x="16" y="20" width="2" height="2" transform="rotate(90 16 20)" fill="#EB4242"/>
<rect x="12" y="20" width="2" height="2" transform="rotate(90 12 20)" fill="#EB4242"/>
<rect x="14" y="22" width="2" height="2" transform="rotate(90 14 22)" fill="#EB4242"/>
<rect x="18" y="22" width="2" height="2" transform="rotate(90 18 22)" fill="#EB4242"/>
<rect x="16" y="24" width="2" height="2" transform="rotate(90 16 24)" fill="#EB4242"/>
<rect x="20" y="23" width="2" height="2" transform="rotate(90 20 23)" fill="#EB4242"/>
<rect x="22" y="24" width="2" height="2" transform="rotate(90 22 24)" fill="#EB4242"/>
<rect x="24" y="22" width="2" height="2" transform="rotate(90 24 22)" fill="#EB4242"/>
<rect x="26" y="24" width="2" height="2" transform="rotate(90 26 24)" fill="#EB4242"/>
<rect x="26" y="20" width="2" height="2" transform="rotate(90 26 20)" fill="#EB4242"/>
<rect x="12" y="8" width="2" height="2" fill="#EB4242"/>
<rect x="9" y="12" width="2" height="2" transform="rotate(90 9 12)" fill="#EB4242"/>
<rect x="14" y="8" width="2" height="2" fill="#EB4242"/>
<rect x="10" y="14" width="2" height="2" transform="rotate(90 10 14)" fill="#EB4242"/>
<rect x="16" y="7" width="2" height="2" fill="#EB4242"/>
<rect x="10" y="16" width="2" height="2" transform="rotate(90 10 16)" fill="#EB4242"/>
<rect x="18" y="8" width="2" height="2" fill="#EB4242"/>
<rect x="11" y="18" width="2" height="2" transform="rotate(90 11 18)" fill="#EB4242"/>
<rect x="20" y="6" width="2" height="2" fill="#EB4242"/>
<rect x="10" y="20" width="2" height="2" transform="rotate(90 10 20)" fill="#EB4242"/>
<rect x="22" y="8" width="2" height="2" fill="#EB4242"/>
<rect x="9" y="22" width="2" height="2" transform="rotate(90 9 22)" fill="#EB4242"/>
<rect x="24" y="7" width="2" height="2" fill="#EB4242"/>
<rect x="10" y="24" width="2" height="2" transform="rotate(90 10 24)" fill="#EB4242"/>
</svg>
