<svg width="67" height="56" viewBox="0 0 67 56" fill="none" xmlns="http://www.w3.org/2000/svg">
<rect x="0.5" y="21" width="14" height="14" rx="1.5" fill="white"/>
<rect x="0.5" y="21" width="14" height="14" rx="1.5" stroke="#A0A0A0"/>
<path fill-rule="evenodd" clip-rule="evenodd" d="M15.6196 19.7151C16.0531 20.0573 16.1271 20.6862 15.7849 21.1197L8.28488 30.6197C8.10793 30.8438 7.8436 30.9816 7.55852 30.9983C7.27344 31.015 6.99482 30.909 6.79289 30.7071L3.29289 27.2071C2.90237 26.8166 2.90237 26.1834 3.29289 25.7929C3.68342 25.4024 4.31658 25.4024 4.70711 25.7929L7.41193 28.4977L14.2151 19.8804C14.5573 19.4469 15.1862 19.3729 15.6196 19.7151Z" fill="#009646"/>
<path d="M44 27C44.5523 27 45 27.4477 45 28V34.6667C45 35.219 44.5523 35.6667 44 35.6667C43.4477 35.6667 43 35.219 43 34.6667V28C43 27.4477 43.4477 27 44 27Z" fill="#444444"/>
<path d="M50 27C50.5523 27 51 27.4477 51 28V34.6667C51 35.219 50.5523 35.6667 50 35.6667C49.4477 35.6667 49 35.219 49 34.6667V28C49 27.4477 49.4477 27 50 27Z" fill="#444444"/>
<path fill-rule="evenodd" clip-rule="evenodd" d="M43.8481 15.5301C44.1408 15.0618 43.9985 14.4448 43.5301 14.1521C43.0618 13.8594 42.4448 14.0018 42.1521 14.4701L37.446 22H34.227C32.4467 22 31.1663 23.7112 31.6686 25.4191L35.6883 39.0858C36.022 40.2207 37.0636 41 38.2466 41H55.7524C56.9354 41 57.977 40.2207 58.3107 39.0858L62.3304 25.4191C62.8327 23.7112 61.5523 22 59.772 22H56.554L51.8479 14.4701C51.5552 14.0018 50.9382 13.8594 50.4699 14.1521C50.0015 14.4448 49.8592 15.0618 50.1519 15.5301L54.1955 22H39.8045L43.8481 15.5301ZM37.9761 24C37.9915 24.0004 38.0069 24.0004 38.0223 24H55.9777C55.9931 24.0004 56.0085 24.0004 56.0239 24H59.772C60.2171 24 60.5372 24.4278 60.4116 24.8548L56.392 38.5214C56.3086 38.8052 56.0482 39 55.7524 39H38.2466C37.9508 39 37.6904 38.8052 37.607 38.5214L33.5874 24.8548C33.4618 24.4278 33.7819 24 34.227 24H37.9761Z" fill="#444444"/>
</svg>
