<svg width="67" height="56" viewBox="0 0 67 56" fill="none" xmlns="http://www.w3.org/2000/svg">
<rect x="0.5" y="21" width="14" height="14" rx="1.5" fill="white"/>
<rect x="0.5" y="21" width="14" height="14" rx="1.5" stroke="#A0A0A0"/>
<path fill-rule="evenodd" clip-rule="evenodd" d="M15.6196 19.7151C16.0531 20.0573 16.1271 20.6862 15.7849 21.1197L8.28488 30.6197C8.10793 30.8438 7.8436 30.9816 7.55852 30.9983C7.27344 31.015 6.99482 30.909 6.79289 30.7071L3.29289 27.2071C2.90237 26.8166 2.90237 26.1834 3.29289 25.7929C3.68342 25.4024 4.31658 25.4024 4.70711 25.7929L7.41193 28.4977L14.2151 19.8804C14.5573 19.4469 15.1862 19.3729 15.6196 19.7151Z" fill="#009646"/>
<path fill-rule="evenodd" clip-rule="evenodd" d="M46.5278 12.1185C46.8228 11.9605 47.1772 11.9605 47.4722 12.1185L61.4722 19.6185C61.7972 19.7926 62 20.1314 62 20.5V35.6667C62 36.0387 61.7935 36.3799 61.464 36.5525L47.464 43.8858C47.1734 44.0381 46.8266 44.0381 46.536 43.8858L32.536 36.5525C32.2065 36.3799 32 36.0387 32 35.6667V20.5C32 20.1314 32.2028 19.7926 32.5278 19.6185L46.5278 12.1185ZM34 22.1702V35.0616L46 41.3473V28.5987L34 22.1702ZM48 28.5987V41.3473L60 35.0616V22.1702L55 24.8487V31C55 31.5523 54.5523 32 54 32C53.4477 32 53 31.5523 53 31V25.9202L48 28.5987ZM35.1177 20.5L47 26.8655L52.1157 24.125L40.2333 17.7595L35.1177 20.5ZM58.8823 20.5L54.2333 22.9905L42.351 16.625L47 14.1345L58.8823 20.5Z" fill="#444444"/>
</svg>
