<svg width="16" height="16" viewBox="0 0 16 16" fill="none" xmlns="http://www.w3.org/2000/svg">
<path d="M2.79698 11L0.296982 7L5.29698 7L2.79698 11Z" fill="#2B2B2B"/>
<path d="M13.3603 5L10.8603 9L15.8603 9L13.3603 5Z" fill="#2B2B2B"/>
<path fill-rule="evenodd" clip-rule="evenodd" d="M8 13C10.5927 13 12.7245 11.0267 12.9753 8.5H13.9795C13.7254 11.5798 11.1453 14 8 14C6.48047 14 5.09288 13.4351 4.03573 12.5039L4.60962 11.675C5.50074 12.4975 6.69169 13 8 13ZM3.02469 7.5C3.27555 4.97334 5.40733 3 8 3C9.30831 3 10.4993 3.50249 11.3904 4.32501L11.9643 3.49606C10.9071 2.56486 9.51953 2 8 2C4.85467 2 2.27461 4.42023 2.02054 7.5H3.02469Z" fill="#2B2B2B"/>
</svg>
