<svg width="48" height="16" viewBox="0 0 48 16" fill="none" xmlns="http://www.w3.org/2000/svg">
<g clip-path="url(#clip0_43_58)">
<mask id="mask0_43_58" style="mask-type:luminance" maskUnits="userSpaceOnUse" x="0" y="0" width="48" height="16">
<path d="M48 0H0V16H48V0Z" fill="white"/>
</mask>
<g mask="url(#mask0_43_58)">
<path d="M6.00008 15C5.73489 15 5.48057 14.8946 5.29308 14.707L0.293081 9.707C0.197571 9.61475 0.121389 9.50439 0.0689798 9.38239C0.0165708 9.26039 -0.0110155 9.12918 -0.0121693 8.9964C-0.0133231 8.86362 0.0119786 8.73193 0.0622595 8.60903C0.11254 8.48614 0.186793 8.37448 0.280686 8.28059C0.374579 8.1867 0.486231 8.11245 0.609127 8.06217C0.732024 8.01188 0.863703 7.98659 0.996482 7.98775C1.12926 7.9889 1.26048 8.01648 1.38249 8.06888C1.50449 8.12129 1.61483 8.19748 1.70708 8.29299L5.86008 12.445L14.1781 0.430992C14.2513 0.319628 14.3461 0.224037 14.4569 0.14984C14.5676 0.0756428 14.6921 0.0243369 14.823 -0.00106098C14.9538 -0.0264589 15.0884 -0.0254361 15.2189 0.0019473C15.3494 0.0293306 15.473 0.0825217 15.5826 0.158393C15.6923 0.234265 15.7856 0.331285 15.8572 0.443749C15.9287 0.556213 15.9771 0.681851 15.9994 0.813276C16.0217 0.944701 16.0175 1.07925 15.9871 1.20903C15.9566 1.33882 15.9005 1.4612 15.8221 1.56899L6.82208 14.569C6.73919 14.6902 6.63063 14.7916 6.50412 14.8661C6.37761 14.9406 6.23625 14.9863 6.09008 15C6.06008 15 6.03008 15 6.00008 15Z" fill="#009642"/>
<path d="M31.7999 12.526L25.4829 0.87997C25.3271 0.591035 25.0895 0.354493 24.7999 0.19997C24.4064 -0.0105985 23.9457 -0.0572893 23.5179 0.070054C23.0902 0.197398 22.7301 0.488474 22.5159 0.87997L16.1999 12.526C16.0617 12.7823 15.9927 13.0701 15.9995 13.3611C16.0063 13.6522 16.0887 13.9365 16.2386 14.186C16.3885 14.4356 16.6007 14.6419 16.8545 14.7846C17.1082 14.9273 17.3947 15.0015 17.6859 15H30.3139C30.5929 15 30.8676 14.9313 31.1139 14.8C31.3089 14.6965 31.4816 14.5553 31.6218 14.3847C31.762 14.2142 31.8671 14.0175 31.931 13.8061C31.9949 13.5947 32.0163 13.3727 31.9939 13.153C31.9716 12.9333 31.905 12.7202 31.7999 12.526ZM23.9999 13C23.8021 13 23.6087 12.9414 23.4443 12.8315C23.2798 12.7216 23.1517 12.5654 23.076 12.3827C23.0003 12.2 22.9805 11.9989 23.0191 11.8049C23.0577 11.6109 23.1529 11.4327 23.2927 11.2929C23.4326 11.153 23.6108 11.0578 23.8048 11.0192C23.9987 10.9806 24.1998 11.0004 24.3825 11.0761C24.5653 11.1518 24.7214 11.28 24.8313 11.4444C24.9412 11.6089 24.9999 11.8022 24.9999 12C24.9999 12.2652 24.8945 12.5196 24.707 12.7071C24.5194 12.8946 24.2651 13 23.9999 13ZM24.9999 9.49997C24.9999 9.63258 24.9472 9.75976 24.8534 9.85352C24.7596 9.94729 24.6325 9.99997 24.4999 9.99997H23.4999C23.3672 9.99997 23.2401 9.94729 23.1463 9.85352C23.0525 9.75976 22.9999 9.63258 22.9999 9.49997V5.49997C22.9999 5.36736 23.0525 5.24019 23.1463 5.14642C23.2401 5.05265 23.3672 4.99997 23.4999 4.99997H24.4999C24.6325 4.99997 24.7596 5.05265 24.8534 5.14642C24.9472 5.24019 24.9999 5.36736 24.9999 5.49997V9.49997Z" fill="#E86C60"/>
</g>
<path d="M33.5 14.5L35.525 12.474" stroke="#515151" stroke-linecap="round" stroke-linejoin="round"/>
<path d="M39.499 6.5L37 9M41.5 8.5L39 11" stroke="#515151" stroke-linecap="round" stroke-linejoin="round"/>
<path d="M35.525 7.525C34.8686 8.18141 34.4998 9.07169 34.4998 10C34.4998 10.9283 34.8686 11.8186 35.525 12.475C36.1814 13.1314 37.0717 13.5002 38 13.5002C38.9283 13.5002 39.8186 13.1314 40.475 12.475L35.5 7.5L35.525 7.525Z" stroke="#515151" stroke-linecap="round" stroke-linejoin="round"/>
<path d="M46.5 1.5L44.475 3.526" stroke="#515151" stroke-linecap="round" stroke-linejoin="round"/>
<path d="M44.475 8.475C45.1314 7.81858 45.5002 6.9283 45.5002 6C45.5002 5.07169 45.1314 4.18141 44.475 3.525C43.8186 2.86858 42.9283 2.49982 42 2.49982C41.0717 2.49982 40.1814 2.86858 39.525 3.525L44.5 8.5L44.475 8.475Z" stroke="#515151" stroke-linecap="round" stroke-linejoin="round"/>
</g>
<defs>
<clipPath id="clip0_43_58">
<rect width="48" height="16" fill="white"/>
</clipPath>
</defs>
</svg>
