<svg width="20" height="16" viewBox="0 0 20 16" fill="none" xmlns="http://www.w3.org/2000/svg">
<path fill-rule="evenodd" clip-rule="evenodd" d="M15.3749 2.07886C15.8486 2.07886 16.1644 2.39465 16.1644 2.86833C16.1644 3.34202 15.8486 3.6578 15.3749 3.6578H17.1579L16.5264 13.921H14.2744L14.2696 13.9999C14.1907 14.8683 13.5591 15.4999 12.6907 15.4999H16.5264C17.3948 15.4999 18.0264 14.8683 18.1053 13.9999L18.7369 3.6578H19.2106C19.6843 3.6578 20.0001 3.34202 20.0001 2.86833C20.0001 2.39465 19.6843 2.07886 19.2106 2.07886H18.8158H15.3749Z" fill="#EB4141"/>
<path d="M5.92107 12.3421C6.39475 12.3421 6.71054 12.0263 6.71054 11.5526V6.02629C6.71054 5.55261 6.39475 5.23682 5.92107 5.23682C5.44738 5.23682 5.13159 5.55261 5.13159 6.02629V11.5526C5.13159 12.0263 5.44738 12.3421 5.92107 12.3421Z" fill="#EB4141"/>
<path d="M9.0789 12.3421C9.55259 12.3421 9.86838 12.0263 9.86838 11.5526V6.02629C9.86838 5.55261 9.55259 5.23682 9.0789 5.23682C8.60522 5.23682 8.28943 5.55261 8.28943 6.02629V11.5526C8.28943 12.0263 8.60522 12.3421 9.0789 12.3421Z" fill="#EB4141"/>
<path d="M14.2105 2.07895H13.8158H9.86842V0.5H5.13158V2.07895H1.18421H0.789474C0.315789 2.07895 0 2.39474 0 2.86842C0 3.34211 0.315789 3.65789 0.789474 3.65789H1.26316L1.89474 14C1.97368 14.8684 2.60526 15.5 3.47368 15.5H11.5263C12.3947 15.5 13.0263 14.8684 13.1053 14L13.7368 3.65789H14.2105C14.6842 3.65789 15 3.34211 15 2.86842C15 2.39474 14.6842 2.07895 14.2105 2.07895ZM11.5263 13.9211H3.47368L2.84211 3.65789H12.1579L11.5263 13.9211Z" fill="#EB4141"/>
<path fill-rule="evenodd" clip-rule="evenodd" d="M14.4043 12.2331L14.8315 5.23682C14.8331 5.23682 14.8347 5.23682 14.8363 5.23682C15.3101 5.23682 15.6259 5.55261 15.6259 6.02628V11.5526C15.6259 12.0263 15.3101 12.3421 14.8363 12.3421C14.6708 12.3421 14.5245 12.3035 14.4043 12.2331Z" fill="#EB4141"/>
</svg>
