<svg width="128" height="16" viewBox="0 0 128 16" fill="none" xmlns="http://www.w3.org/2000/svg">
<path d="M53.5868 12.4057L53.4211 10.921C55.0438 10.5 56.747 10.5 58.3697 10.921L58.204 12.4057C58.1848 12.5798 58.2237 12.7553 58.3147 12.9049C58.4058 13.0546 58.5438 13.1698 58.7072 13.2327L61.1516 14.1737C61.327 14.2413 61.5206 14.2444 61.6979 14.1824C61.8753 14.1205 62.0249 13.9976 62.1201 13.8356L63.1788 12.0295C63.2785 11.8614 63.3125 11.6623 63.2744 11.4705C63.2362 11.2788 63.1285 11.1079 62.972 10.9907C60.9323 9.45411 58.4478 8.62337 55.8941 8.62402C53.3405 8.6247 50.8564 9.45676 48.8175 10.9945C48.661 11.1116 48.5534 11.2825 48.5152 11.4743C48.4771 11.666 48.5111 11.8651 48.6108 12.0333L49.6695 13.8393C49.7648 14.001 49.9143 14.1238 50.0915 14.1855C50.2687 14.2474 50.4622 14.2443 50.6373 14.1769L53.0829 13.2321C53.2464 13.1693 53.3845 13.0542 53.4756 12.9047C53.5668 12.7552 53.6059 12.5798 53.5868 12.4057Z" stroke="#333333" stroke-linecap="round" stroke-linejoin="round"/>
<path fill-rule="evenodd" clip-rule="evenodd" d="M51 1.44096C51 1.19743 51.1974 1 51.441 1H53.9354C54.179 1 54.3764 1.19743 54.3764 1.44096C54.3764 1.6845 54.179 1.88192 53.9354 1.88192H52.5055L55.8708 5.24723C56.0431 5.41944 56.0171 5.68135 55.8448 5.85356C55.6726 6.02576 55.4194 6.04305 55.2472 5.87085L51.8819 2.50554V3.93542C51.8819 4.17896 51.6845 4.37639 51.441 4.37638C51.1974 4.37639 51 4.17896 51 3.93542V1.44096Z" fill="#FF0F0F"/>
<path fill-rule="evenodd" clip-rule="evenodd" d="M59.8448 1.14645C60.04 1.34171 60.04 1.6583 59.8448 1.85356L55.8448 5.85356C55.6495 6.04882 55.3329 5.86841 55.1376 5.67315C54.9424 5.47789 54.9424 5.34171 55.1376 5.14645L59.1376 1.14645C59.3329 0.951184 59.6495 0.951184 59.8448 1.14645Z" fill="#FF0F0F"/>
<path d="M68 5.5L69.5 1.5" stroke="#333333" stroke-linecap="round" stroke-linejoin="round"/>
<path d="M76 5.5L74.5 1.5" stroke="#333333" stroke-linecap="round" stroke-linejoin="round"/>
<path d="M78.5 5.5H65.5V8.5H78.5V5.5Z" stroke="#333333" stroke-linecap="round" stroke-linejoin="round"/>
<path d="M77.5 8.5V13C77.5 13.3978 77.342 13.7794 77.0607 14.0607C76.7794 14.342 76.3978 14.5 76 14.5H68C67.6022 14.5 67.2206 14.342 66.9393 14.0607C66.658 13.7794 66.5 13.3978 66.5 13V8.5" stroke="#333333" stroke-linecap="round" stroke-linejoin="round"/>
<mask id="mask0_25_72" style="mask-type:luminance" maskUnits="userSpaceOnUse" x="16" y="0" width="16" height="16">
<path d="M32 0H16V16H32V0Z" fill="white"/>
</mask>
<g mask="url(#mask0_25_72)">
<path fill-rule="evenodd" clip-rule="evenodd" d="M24 16C28.4183 16 32 12.4183 32 8C32 3.58172 28.4183 0 24 0C19.5817 0 16 3.58172 16 8C16 12.4183 19.5817 16 24 16ZM27.7892 11.2651H29.1352C29.2722 11.2651 29.4012 11.2001 29.4002 10.9721C29.4002 10.6701 29.0062 10.1301 28.4022 9.48912C28.2542 9.29202 28.0503 9.08488 27.883 8.91499C27.771 8.80129 27.6755 8.70427 27.6242 8.63812C27.4412 8.44512 27.4962 8.33512 27.6242 8.13412C27.6242 8.13412 29.0072 6.18412 29.1442 5.54312C29.1902 5.31412 29.0892 5.18612 28.8512 5.18612H27.6522C27.3772 5.18612 27.2762 5.30512 27.1942 5.47912C27.1942 5.47912 26.5452 6.86012 25.7562 7.73112C25.5032 8.01212 25.3742 8.09712 25.2342 8.09712C25.1212 8.09712 25.0692 8.00312 25.0692 7.74912V5.52412C25.0692 5.21312 25.0322 5.12112 24.7762 5.12112H22.8532C22.7072 5.12112 22.6152 5.20612 22.6152 5.32212C22.6152 5.43284 22.6793 5.51129 22.7591 5.6089C22.8904 5.76958 23.0642 5.98217 23.0642 6.47612V8.11412C23.0642 8.44412 23.0462 8.57212 22.8902 8.57212C22.4782 8.57212 21.4982 7.15212 20.9492 5.54112C20.8392 5.21212 20.7202 5.12012 20.4092 5.12012H19.2102C19.0362 5.12012 18.9082 5.23912 18.9082 5.41312C18.9082 5.73412 19.2842 7.21712 20.7582 9.20412C21.7472 10.5411 23.0472 11.2641 24.2192 11.2641C24.9332 11.2641 25.1072 11.1451 25.1072 10.8431V9.81812C25.1072 9.56212 25.2072 9.45212 25.3542 9.45212C25.5182 9.45212 25.8092 9.50512 26.4892 10.1751C26.7662 10.4398 26.9546 10.6513 27.1002 10.8149C27.3784 11.1273 27.5011 11.2651 27.7892 11.2651Z" fill="#4D76A1"/>
</g>
<path d="M33.5 5L40 9L46.5 5" stroke="#333333" stroke-linecap="round" stroke-linejoin="round"/>
<path d="M45 13.5H35C34.6022 13.5 34.2206 13.342 33.9393 13.0607C33.658 12.7794 33.5 12.3978 33.5 12V4C33.5 3.60218 33.658 3.22064 33.9393 2.93934C34.2206 2.65804 34.6022 2.5 35 2.5H45C45.3978 2.5 45.7794 2.65804 46.0607 2.93934C46.342 3.22064 46.5 3.60218 46.5 4V12C46.5 12.3978 46.342 12.7794 46.0607 13.0607C45.7794 13.342 45.3978 13.5 45 13.5Z" stroke="#333333" stroke-linecap="round" stroke-linejoin="round"/>
<mask id="mask1_25_72" style="mask-type:luminance" maskUnits="userSpaceOnUse" x="0" y="0" width="16" height="16">
<path d="M16 0H0V16H16V0Z" fill="white"/>
</mask>
<g mask="url(#mask1_25_72)">
<path d="M15.9683 1.68422C15.9557 1.62517 15.9276 1.57057 15.8868 1.52608C15.846 1.48158 15.794 1.44883 15.7363 1.43122C15.526 1.3893 15.3084 1.40484 15.1063 1.47622C15.1063 1.47622 1.08725 6.51422 0.286252 7.07222C0.114252 7.19322 0.0562519 7.26222 0.0272519 7.34422C-0.110748 7.74422 0.320252 7.91722 0.320252 7.91722L3.93325 9.09422C3.99426 9.10522 4.05701 9.10145 4.11625 9.08322C4.93825 8.56422 12.3863 3.86122 12.8163 3.70322C12.8843 3.68322 12.9343 3.70322 12.9163 3.75222C12.7443 4.35222 6.31025 10.0712 6.27525 10.1062C6.25818 10.1205 6.24481 10.1387 6.23627 10.1592C6.22774 10.1798 6.2243 10.2021 6.22625 10.2242L5.88925 13.7522C5.88925 13.7522 5.74725 14.8522 6.84525 13.7522C7.62425 12.9732 8.37225 12.3272 8.74525 12.0142C9.98725 12.8722 11.3243 13.8202 11.9013 14.3142C11.9979 14.4083 12.1125 14.4819 12.2383 14.5305C12.3641 14.5792 12.4985 14.6018 12.6333 14.5972C12.7992 14.5767 12.9551 14.5062 13.0801 14.3952C13.2051 14.2841 13.2934 14.1376 13.3333 13.9752C13.3333 13.9752 15.8943 3.70022 15.9793 2.31722C15.9873 2.18222 16.0003 2.10022 16.0003 2.00022C16.0039 1.89392 15.9932 1.78762 15.9683 1.68422Z" fill="#2CA4D7"/>
</g>
<mask id="mask2_25_72" style="mask-type:luminance" maskUnits="userSpaceOnUse" x="80" y="0" width="16" height="16">
<path d="M96 0H80V16H96V0Z" fill="white"/>
</mask>
<g mask="url(#mask2_25_72)">
<path d="M93.6 2.3C92.1 0.8 90.2 0 88 0C83.7 0 80.1 3.6 80.1 7.9C80.1 9.3 80.5 10.7 81.2 11.9L80 16L84.2 14.9C85.4 15.5 86.7 15.9 88 15.9C92.4 15.9 95.9 12.3 95.9 8C96 5.8 95.1 3.8 93.6 2.3ZM91.9 10.8C91.7 11.3 90.9 11.7 90.6 11.7C90.3 11.8 89.3 11.7 88.2 11.2C86.2 10.3 84.9 8.3 84.8 8.2C84.7 8.1 84 7.1 84 6.2C84 5.3 84.5 4.7 84.7 4.5C85.1 4.1 85.9 4.2 86.1 4.6C86.2 5 86.6 6 86.7 6.1C86.8 6.2 86.8 6.6 86.5 6.8C86.4 6.8 85.9 7.2 86.1 7.5C86.2 7.7 86.6 8.3 87.2 8.9C88 9.6 88.6 9.8 88.8 9.9C89 10 89.1 10 89.2 9.8C89.3 9.7 89.7 9.2 89.8 9C89.9 8.8 90.1 8.8 90.2 8.9C90.3 9 91.4 9.4 91.6 9.5C91.8 9.7 92 9.7 92 9.8C92.1 9.9 92.1 10.3 91.9 10.8Z" fill="#3AC34C"/>
</g>
<mask id="mask3_25_72" style="mask-type:luminance" maskUnits="userSpaceOnUse" x="96" y="0" width="16" height="16">
<path d="M112 0H96V16H112V0Z" fill="white"/>
</mask>
<g mask="url(#mask3_25_72)">
<path d="M104 15.5C105.775 15.5 107.214 12.1421 107.214 8C107.214 3.85786 105.775 0.5 104 0.5C102.225 0.5 100.786 3.85786 100.786 8C100.786 12.1421 102.225 15.5 104 15.5Z" stroke="#333333" stroke-linecap="round" stroke-linejoin="round"/>
<path d="M96.5 8H111.5" stroke="#333333" stroke-linecap="round" stroke-linejoin="round"/>
<path d="M104 15.5C108.142 15.5 111.5 12.1421 111.5 8C111.5 3.85786 108.142 0.5 104 0.5C99.8579 0.5 96.5 3.85786 96.5 8C96.5 12.1421 99.8579 15.5 104 15.5Z" stroke="#333333" stroke-linecap="round" stroke-linejoin="round"/>
</g>
<path d="M114.063 8.41406C113.572 8.71842 113.169 9.14423 112.895 9.64943C112.621 10.1546 112.486 10.7217 112.501 11.2947C112.517 11.8676 112.684 12.4266 112.985 12.9164C113.286 13.4062 113.712 13.8098 114.219 14.0874C114.727 14.365 115.299 14.507 115.878 14.4992C116.458 14.4915 117.026 14.3344 117.526 14.0433C118.026 13.7523 118.44 13.3375 118.728 12.8399C119.016 12.3422 119.167 11.779 119.167 11.2058H124.167" stroke="#7547DB" stroke-linecap="round" stroke-linejoin="round"/>
<path d="M122.555 14.0897C123 14.3326 123.496 14.4715 124.004 14.496C124.512 14.5204 125.019 14.4296 125.486 14.2307C125.953 14.0317 126.368 13.7297 126.698 13.348C127.029 12.9662 127.267 12.5147 127.394 12.0281C127.521 11.5414 127.534 11.0325 127.431 10.5403C127.328 10.0481 127.113 9.58566 126.801 9.18836C126.49 8.79107 126.091 8.46945 125.634 8.24815C125.177 8.02685 124.676 7.91173 124.167 7.91158C123.579 7.91158 122.98 8.059 122.5 8.32335L120 3.79395" stroke="#7547DB" stroke-linecap="round" stroke-linejoin="round"/>
<path d="M123.334 3.79412C123.334 2.92046 122.983 2.08259 122.358 1.46482C121.733 0.847058 120.885 0.5 120.001 0.5C119.117 0.5 118.269 0.847058 117.644 1.46482C117.019 2.08259 116.667 2.92046 116.667 3.79412C116.667 5.03435 117.309 6.11482 118.334 6.67647L115.834 11.2059" stroke="#7547DB" stroke-linecap="round" stroke-linejoin="round"/>
</svg>
