<svg width="60" height="60" viewBox="0 0 60 60" fill="none" xmlns="http://www.w3.org/2000/svg">
<g clip-path="url(#clip0_690_18885)">
<path d="M0 8C0 3.58172 3.58172 0 8 0H52C56.4183 0 60 3.58172 60 8V52C60 56.4183 56.4183 60 52 60H8C3.58172 60 0 56.4183 0 52V8Z" fill="#22C2DE"/>
<path fill-rule="evenodd" clip-rule="evenodd" d="M40.0749 14H27.9229H13.9925H12.5C11.1193 14 10 15.1193 10 16.5C10 17.8807 11.1193 19 12.5 19H14.6965C15.0035 19 15.2708 19.2096 15.344 19.5078L19.4786 36.3582C20.0273 38.5943 22.0321 40.1667 24.3346 40.1667H37.7841C40.2745 40.1667 42.3852 38.3339 42.7346 35.8682L45.0254 19.7015C45.452 16.6911 43.1153 14 40.0749 14ZM22.0765 23.8333C21.7696 23.8333 21.5022 23.6237 21.4291 23.3255L20.5703 19.8255C20.4672 19.4055 20.7852 19 21.2177 19H27.9229H27.924L39.3071 19C39.7125 19 40.024 19.3588 39.9672 19.7602L37.8653 34.5935C37.8187 34.9223 37.5373 35.1667 37.2052 35.1667L24.8574 35.1667C24.5505 35.1667 24.2831 34.957 24.21 34.6589L22.9831 29.6589C22.88 29.2388 23.1981 28.8333 23.6306 28.8333H30.2446C31.6253 28.8333 32.7446 27.714 32.7446 26.3333C32.7446 24.9526 31.6253 23.8333 30.2446 23.8333H22.0765ZM28.5862 45.6667C28.5862 47.6917 26.9528 49.3333 24.9378 49.3333C22.9228 49.3333 21.2894 47.6917 21.2894 45.6667C21.2894 43.6416 22.9228 42 24.9378 42C26.9528 42 28.5862 43.6416 28.5862 45.6667ZM42.5166 45.6667C42.5166 47.6917 40.8831 49.3333 38.8681 49.3333C36.8532 49.3333 35.2197 47.6917 35.2197 45.6667C35.2197 43.6416 36.8532 42 38.8681 42C40.8831 42 42.5166 43.6416 42.5166 45.6667Z" fill="white"/>
</g>
<defs>
<clipPath id="clip0_690_18885">
<rect width="60" height="60" fill="white"/>
</clipPath>
</defs>
</svg>
