<?xml version="1.0" encoding="UTF-8"?>
<svg width="192px" height="32px" viewBox="0 0 192 32" xmlns="http://www.w3.org/2000/svg" xmlns:xlink="http://www.w3.org/1999/xlink" version="1.1">
 <!-- Generated by Pixelmator Pro 2.0.8 -->
 <path id="Путь" d="M2 8 C2 5.791 3.791 4 6 4 L12.937 4 17.937 10 26 10 C28.209 10 30 11.791 30 14 L30 26 C30 28.209 28.209 30 26 30 L6 30 C3.791 30 2 28.209 2 26 Z M11.063 8 L6 8 6 26 26 26 26 14 16.063 14 Z" fill="#484848" fill-opacity="1" stroke="none"/>
 <path id="Путь-1" d="M39 28 C40.657 28 42 26.657 42 25 42 23.343 40.657 22 39 22 37.343 22 36 23.343 36 25 36 26.657 37.343 28 39 28 Z" fill="#484848" fill-opacity="1" stroke="none"/>
 <path id="Путь-2" d="M56.91 28 C58.517 28 59.82 26.697 59.82 25.09 59.82 23.483 58.517 22.18 56.91 22.18 55.303 22.18 54 23.483 54 25.09 54 26.697 55.303 28 56.91 28 Z" fill="#484848" fill-opacity="1" stroke="none"/>
 <path id="Путь-3" d="M32 6 C32 4.895 32.895 4 34 4 L52 4 C53.105 4 54 4.895 54 6 L54 24 32 24 Z" fill="#484848" fill-opacity="1" stroke="none"/>
 <path id="Путь-4" d="M54 8 L54 24 64 24 64 14.606 C64 14.211 63.883 13.825 63.664 13.496 L60.594 8.891 C60.223 8.334 59.598 8 58.93 8 Z M58.4 12 L54 12 54 16 61 16 Z" fill="#484848" fill-opacity="1" stroke="none"/>
 <path id="Путь-5" d="M72 30 L92 30 C93.2 30 94 29.2 94 28 L94 4 C94 2.8 93.2 2 92 2 L72 2 C70.895 2 70 2.895 70 4 L70 6 90 6 90 26 74 26 70 26 70 28 C70 29.2 70.8 30 72 30 Z" fill="#484848" fill-opacity="1" stroke="none"/>
 <path id="Путь-6" d="M64 14 C64 10.6 66.6 8 70 8 73.4 8 76 10.6 76 14 76 15.8 75.2 17.4 74 18.4 L74 24 70 20 66 26 66 18.4 C64.8 17.4 64 15.8 64 14 Z" fill="#484848" fill-opacity="1" stroke="none"/>
 <path id="Путь-7" d="M80 10 L88 10 88 14 80 14 Z" fill="#484848" fill-opacity="1" stroke="none"/>
 <path id="Путь-8" d="M78 18 L88 18 88 22 78 22 Z" fill="#484848" fill-opacity="1" stroke="none"/>
 <path id="Путь-9" d="M114.586 0.586 C115.367 -0.195 116.633 -0.195 117.414 0.586 L127.414 10.586 C128.195 11.367 128.195 12.633 127.414 13.414 126.633 14.195 125.367 14.195 124.586 13.414 L114.586 3.414 C113.805 2.633 113.805 1.367 114.586 0.586 Z" fill="#ff3030" fill-opacity="1" stroke="none"/>
 <path id="Путь-10" d="M127.414 0.586 C126.633 -0.195 125.367 -0.195 124.586 0.586 L114.586 10.586 C113.805 11.367 113.805 12.633 114.586 13.414 115.367 14.195 116.633 14.195 117.414 13.414 L127.414 3.414 C128.195 2.633 128.195 1.367 127.414 0.586 Z" fill="#ff3030" fill-opacity="1" stroke="none"/>
 <path id="Путь-11" d="M102 4 C99.791 4 98 5.791 98 8 L98 26 C98 28.209 99.791 30 102 30 L122 30 C124.209 30 126 28.209 126 26 L126 16 122 16 122 26 102 26 102 8 107.063 8 112 13.924 112 7.676 108.937 4 Z" fill="#484848" fill-opacity="1" stroke="none"/>
 <path id="Путь-12" d="M146.586 0.586 C147.367 -0.195 148.633 -0.195 149.414 0.586 L159.414 10.586 C160.195 11.367 160.195 12.633 159.414 13.414 158.633 14.195 157.367 14.195 156.586 13.414 L146.586 3.414 C145.805 2.633 145.805 1.367 146.586 0.586 Z" fill="#ff3030" fill-opacity="1" stroke="none"/>
 <path id="Путь-13" d="M159.414 0.586 C158.633 -0.195 157.367 -0.195 156.586 0.586 L146.586 10.586 C145.805 11.367 145.805 12.633 146.586 13.414 147.367 14.195 148.633 14.195 149.414 13.414 L159.414 3.414 C160.195 2.633 160.195 1.367 159.414 0.586 Z" fill="#ff3030" fill-opacity="1" stroke="none"/>
 <path id="Путь-14" d="M144 6 L130 6 C128.895 6 128 6.895 128 8 L128 26 132.171 26 C132.06 26.313 132 26.649 132 27 132 28.657 133.343 30 135 30 136.657 30 138 28.657 138 27 138 26.649 137.94 26.313 137.829 26 L150 26 150.211 26 C150.075 26.337 150 26.705 150 27.09 150 28.697 151.303 30 152.91 30 154.517 30 155.82 28.697 155.82 27.09 155.82 26.705 155.745 26.337 155.609 26 L160 26 160 16.606 C160 16.399 159.968 16.195 159.906 16 L155.7 16 157 18 150 18 150 16 144 16 Z" fill="#484848" fill-opacity="1" stroke="none"/>
 <path id="Путь-15" d="M188 30 L168 30 C166.8 30 166 29.2 166 28 L166 26 186 26 186 16 190 16 190 28 C190 29.2 189.2 30 188 30 Z" fill="#484848" fill-opacity="1" stroke="none"/>
 <path id="Путь-16" d="M176 2 L168 2 C166.895 2 166 2.895 166 4 L166 6 176 6 Z" fill="#484848" fill-opacity="1" stroke="none"/>
 <path id="Путь-17" d="M166 8 C162.6 8 160 10.6 160 14 160 15.8 160.8 17.4 162 18.4 L162 26 166 20 170 24 170 18.4 C171.2 17.4 172 15.8 172 14 172 10.6 169.4 8 166 8 Z" fill="#484848" fill-opacity="1" stroke="none"/>
 <path id="Путь-18" d="M184 18 L174 18 174 22 184 22 Z" fill="#484848" fill-opacity="1" stroke="none"/>
 <path id="Путь-19" d="M178.586 0.586 C179.367 -0.195 180.633 -0.195 181.414 0.586 L191.414 10.586 C192.195 11.367 192.195 12.633 191.414 13.414 190.633 14.195 189.367 14.195 188.586 13.414 L178.586 3.414 C177.805 2.633 177.805 1.367 178.586 0.586 Z" fill="#ff3030" fill-opacity="1" stroke="none"/>
 <path id="Путь-20" d="M191.414 0.586 C190.633 -0.195 189.367 -0.195 188.586 0.586 L178.586 10.586 C177.805 11.367 177.805 12.633 178.586 13.414 179.367 14.195 180.633 14.195 181.414 13.414 L191.414 3.414 C192.195 2.633 192.195 1.367 191.414 0.586 Z" fill="#ff3030" fill-opacity="1" stroke="none"/>
</svg>
