<?xml version="1.0" encoding="UTF-8" standalone="no"?>
<svg
   width="144"
   height="24"
   viewBox="0 0 144 24"
   fill="none"
   version="1.1"
   id="svg18"
   sodipodi:docname="НастройкиПлатежныхСистем.svg"
   inkscape:version="1.4 (86a8ad7, 2024-10-11)"
   xmlns:inkscape="http://www.inkscape.org/namespaces/inkscape"
   xmlns:sodipodi="http://sodipodi.sourceforge.net/DTD/sodipodi-0.dtd"
   xmlns="http://www.w3.org/2000/svg"
   xmlns:svg="http://www.w3.org/2000/svg">
  <defs
     id="defs18" />
  <sodipodi:namedview
     id="namedview18"
     pagecolor="#ffffff"
     bordercolor="#000000"
     borderopacity="0.25"
     inkscape:showpageshadow="2"
     inkscape:pageopacity="0.0"
     inkscape:pagecheckerboard="0"
     inkscape:deskcolor="#d1d1d1"
     inkscape:zoom="8.5755208"
     inkscape:cx="67.867598"
     inkscape:cy="16.267234"
     inkscape:window-width="3440"
     inkscape:window-height="1361"
     inkscape:window-x="-9"
     inkscape:window-y="-9"
     inkscape:window-maximized="1"
     inkscape:current-layer="svg18" />
  <path
     fill-rule="evenodd"
     clip-rule="evenodd"
     d="M 4,21 V 10 H 6 V 20 H 18 V 10 h 2 v 11 c 0,0.5523 -0.4477,1 -1,1 H 5 C 4.44772,22 4,21.5523 4,21 Z"
     fill="#404040"
     id="path1" />
  <path
     fill-rule="evenodd"
     clip-rule="evenodd"
     d="m 8,15 c 0,-1.1046 0.89543,-2 2,-2 h 4 c 1.1046,0 2,0.8954 2,2 v 6 h -2 v -6 h -4 v 6 H 8 Z"
     fill="#404040"
     id="path2" />
  <path
     fill-rule="evenodd"
     clip-rule="evenodd"
     d="M 4.85121,2.97101 C 5.21265,2.3686 5.86367,2 6.56619,2 H 17.4338 c 0.7025,0 1.3535,0.3686 1.715,0.97101 l 2.7087,4.51449 c 0.1759,0.29318 0.1898,0.65591 0.0369,0.96171 L 21,8 c 0.8944,0.44721 0.8946,0.44685 0.8944,0.44721 l -0.0016,0.00318 -0.002,0.00393 -0.0051,0.01006 -0.0151,0.02867 C 21.8585,8.51582 21.8421,8.54584 21.8214,8.58208 21.78,8.65441 21.7212,8.75228 21.6446,8.8672 21.4924,9.09536 21.2643,9.3999 20.9571,9.70711 20.3481,10.3161 19.3588,11 18,11 16.6412,11 15.6519,10.3161 15.0429,9.70711 15.0284,9.69263 15.0141,9.67817 15,9.66371 14.9859,9.67817 14.9716,9.69263 14.9571,9.70711 14.3481,10.3161 13.3588,11 12,11 10.6412,11 9.65189,10.3161 9.04289,9.70711 9.02842,9.69263 9.01412,9.67817 9,9.66371 8.98588,9.67817 8.97158,9.69263 8.95711,9.70711 8.34811,10.3161 7.35876,11 6,11 4.64124,11 3.65189,10.3161 3.04289,9.70711 2.73568,9.3999 2.50755,9.09536 2.35545,8.8672 2.27884,8.75228 2.21997,8.65441 2.17863,8.58208 2.15793,8.54584 2.14151,8.51582 2.12937,8.49305 L 2.11431,8.46438 2.10915,8.45432 2.10717,8.45039 2.10632,8.44871 C 2.10614,8.44834 2.10557,8.44721 3,8 L 2.10557,8.44721 C 1.95267,8.14141 1.9666,7.77868 2.14251,7.4855 Z M 4.17918,7.97835 C 4.25735,8.07818 4.35016,8.18595 4.45711,8.29289 4.84811,8.6839 5.35876,9 6,9 6.64124,9 7.15189,8.6839 7.54289,8.29289 7.73568,8.1001 7.88255,7.90464 7.98045,7.7578 8.02884,7.68522 8.06372,7.62684 8.08488,7.5898 8.09543,7.57134 8.10245,7.5584 8.10593,7.55187 L 8.1068,7.55034 8.10811,7.54774 c -3e-5,6e-5 1.9e-4,-3.5e-4 0,0 C 8.27841,7.21189 8.62312,7 9,7 c 0.37688,0 0.72158,0.21187 0.89188,0.54773 -1.8e-4,-3.5e-4 3e-5,6e-5 0,0 m 0,0 C 9.89273,7.54941 9.89359,7.5511 9.89443,7.55279 L 9,8 C 9.89443,7.55279 9.8946,7.55312 9.89443,7.55279 9.89791,7.55931 9.90457,7.57134 9.91512,7.5898 9.93629,7.62684 9.97116,7.68522 10.0196,7.7578 10.1174,7.90464 10.2643,8.1001 10.4571,8.29289 10.8481,8.6839 11.3588,9 12,9 12.6412,9 13.1519,8.6839 13.5429,8.29289 13.7357,8.1001 13.8826,7.90464 13.9805,7.7578 14.0288,7.68522 14.0637,7.62684 14.0849,7.5898 14.0954,7.57134 14.1025,7.5584 14.1059,7.55187 14.2754,7.21348 14.6215,7 15,7 c 0.3769,0 0.7216,0.21188 0.8919,0.54774 4e-4,7.4e-4 0.0011,0.00213 0.0022,0.00413 0.0035,0.00653 0.0105,0.01947 0.021,0.03793 0.0212,0.03704 0.0561,0.09542 0.1045,0.168 0.0978,0.14684 0.2447,0.3423 0.4375,0.53509 C 16.8481,8.6839 17.3588,9 18,9 18.6412,9 19.1519,8.6839 19.5429,8.29289 19.6498,8.18595 19.7427,8.07818 19.8208,7.97835 L 17.4338,4 H 6.56619 L 4.17918,7.97835 M 20.1059,7.55187 c 0.0018,-0.00325 0.0026,-0.00488 0.0025,-0.00478 l -7e-4,0.00149 -9e-4,0.00176 z m -6,0 c 0.0015,-0.00284 0.0024,-0.00445 0.0025,-0.00473 l -7e-4,0.00144 -9e-4,0.00176 z M 9.89188,7.54773 9.8932,7.55034 9.89377,7.55148 9.89443,7.55279 C 9.89336,7.55079 9.89227,7.54848 9.89188,7.54773 Z M 3.89407,7.55187 C 3.89234,7.54862 3.8915,7.54699 3.89155,7.54709 l 7.6e-4,0.00149 8.9e-4,0.00176 z"
     fill="#404040"
     id="path3" />
  <path
     fill-rule="evenodd"
     clip-rule="evenodd"
     d="m 35.3861,2.21065 c 0.3611,-0.28087 0.8667,-0.28087 1.2278,0 l 9,7 c 0.3373,0.26228 0.4706,0.70981 0.332,1.11385 C 45.8072,10.7286 45.4272,11 45,11 H 27 C 26.5728,11 26.1928,10.7286 26.0541,10.3245 25.9155,9.92046 26.0488,9.47293 26.3861,9.21065 Z M 29.9145,9 h 12.171 L 36,4.26686 Z"
     fill="#404040"
     id="path4" />
  <path
     fill-rule="evenodd"
     clip-rule="evenodd"
     d="M 45,22 H 27 v -2 h 18 z"
     fill="#404040"
     id="path5" />
  <path
     fill-rule="evenodd"
     clip-rule="evenodd"
     d="M 31,11 V 21 H 29 V 11 Z m 4,0 V 21 H 33 V 11 Z m 2,10 V 11 h 2 v 10 z m 4,0 V 11 h 2 v 10 z"
     fill="#404040"
     id="path6" />
  <path
     fill-rule="evenodd"
     clip-rule="evenodd"
     d="m 61.7678,4.73223 c -0.9763,-0.97631 -2.5593,-0.97631 -3.5356,0 -0.9763,0.97631 -0.9763,2.55923 0,3.53554 0.9763,0.97631 2.5593,0.97631 3.5356,0 0.9763,-0.97631 0.9763,-2.55923 0,-3.53554 z M 56.818,3.31802 c 1.7574,-1.75736 4.6066,-1.75736 6.364,0 1.7573,1.75736 1.7573,4.6066 0,6.36396 -1.7574,1.75732 -4.6066,1.75732 -6.364,0 -1.7573,-1.75736 -1.7573,-4.6066 0,-6.36396 z"
     fill="#404040"
     id="path7" />
  <path
     fill-rule="evenodd"
     clip-rule="evenodd"
     d="m 52,21 c 0,-0.5523 0.4477,-1 1,-1 h 14 c 0.5523,0 1,0.4477 1,1 0,0.5523 -0.4477,1 -1,1 H 53 c -0.5523,0 -1,-0.4477 -1,-1 z"
     fill="#404040"
     id="path8" />
  <path
     fill-rule="evenodd"
     clip-rule="evenodd"
     d="m 52,21 c 0,-4.4183 3.5817,-8 8,-8 4.4183,0 8,3.5817 8,8 h -2 c 0,-3.3137 -2.6863,-6 -6,-6 -3.3137,0 -6,2.6863 -6,6 z"
     fill="#404040"
     id="path9" />
  <path
     fill-rule="evenodd"
     clip-rule="evenodd"
     d="m 79.0073,21 c 0,-0.5523 0.4477,-1 1,-1 h 7.9854 c 0.5522,0 1,0.4477 1,1 0,0.5523 -0.4478,1 -1,1 h -7.9854 c -0.5523,0 -1,-0.4477 -1,-1 z"
     fill="#404040"
     id="path10" />
  <path
     fill-rule="evenodd"
     clip-rule="evenodd"
     d="m 88.9908,14 h 3.9927 c 0.5523,0 1,0.4477 1,1 0,0.5523 -0.4477,1 -1,1 h -3.9927 z"
     fill="#404040"
     id="path11" />
  <path
     fill-rule="evenodd"
     clip-rule="evenodd"
     d="m 74.0165,15 c 0,-0.5523 0.4477,-1 1,-1 h 3.9927 v 2 h -3.9927 c -0.5523,0 -1,-0.4477 -1,-1 z"
     fill="#404040"
     id="path12" />
  <path
     fill-rule="evenodd"
     clip-rule="evenodd"
     d="m 81.0036,11 c 0,-1.65513 1.3398,-3 2.9964,-3 1.6565,0 2.9963,1.34487 2.9963,3 0,1.6551 -1.3398,3 -2.9963,3 -1.6566,0 -2.9964,-1.3449 -2.9964,-3 z M 84,10 c -0.5486,0 -0.9964,0.446 -0.9964,1 0,0.554 0.4478,1 0.9964,1 0.5485,0 0.9963,-0.446 0.9963,-1 0,-0.554 -0.4478,-1 -0.9963,-1 z"
     fill="#404040"
     id="path13" />
  <path
     fill-rule="evenodd"
     clip-rule="evenodd"
     d="m 85.9945,5 c 0,-1.65513 1.3398,-3 2.9963,-3 1.6566,0 2.9964,1.34487 2.9964,3 0,1.65513 -1.3398,3 -2.9964,3 -1.6565,0 -2.9963,-1.34487 -2.9963,-3 z m 2.9963,-1 c -0.5485,0 -0.9963,0.44599 -0.9963,1 0,0.55401 0.4478,1 0.9963,1 0.5486,0 0.9964,-0.44599 0.9964,-1 0,-0.55401 -0.4478,-1 -0.9964,-1 z"
     fill="#404040"
     id="path14" />
  <path
     fill-rule="evenodd"
     clip-rule="evenodd"
     d="m 76.0128,5 c 0,-1.65513 1.3398,-3 2.9963,-3 1.6566,0 2.9964,1.34487 2.9964,3 0,1.65513 -1.3398,3 -2.9964,3 -1.6565,0 -2.9963,-1.34487 -2.9963,-3 z m 2.9963,-1 c -0.5485,0 -0.9963,0.44599 -0.9963,1 0,0.55401 0.4478,1 0.9963,1 0.5486,0 0.9964,-0.44599 0.9964,-1 0,-0.55401 -0.4478,-1 -0.9964,-1 z"
     fill="#404040"
     id="path15" />
  <path
     fill-rule="evenodd"
     clip-rule="evenodd"
     d="M 80.8558,16.0009 C 81.64,15.3724 82.6794,15 84,15 c 1.3206,0 2.36,0.3724 3.1442,1.0009 0.7716,0.6184 1.22,1.4234 1.4806,2.1693 0.26,0.7441 0.3481,1.4709 0.3745,1.9987 0.0133,0.267 0.0112,0.4912 0.0054,0.6519 -0.0028,0.0805 -0.0066,0.1456 -0.0099,0.1927 -0.0017,0.0236 -0.0032,0.0428 -0.0044,0.0572 l -0.0016,0.018 -6e-4,0.0062 -4e-4,0.0035 c 0,5e-4 0,9e-4 -0.9951,-0.0984 -0.9951,-0.0993 -0.9951,-0.0989 -0.9951,-0.0985 l 0.002,-0.0274 c 0.0019,-0.026 0.0044,-0.0684 0.0064,-0.1246 0.004,-0.1127 0.0058,-0.2792 -0.0043,-0.4809 -0.0204,-0.4097 -0.0883,-0.9329 -0.265,-1.4388 C 86.5606,18.3257 86.2916,17.8807 85.8934,17.5616 85.5079,17.2526 84.9253,17 84,17 c -0.9253,0 -1.5079,0.2526 -1.8934,0.5616 -0.3981,0.3191 -0.6672,0.7641 -0.8433,1.2682 -0.1767,0.5059 -0.2445,1.0291 -0.265,1.4388 -0.0101,0.2017 -0.0083,0.3682 -0.0043,0.4809 0.002,0.0562 0.0046,0.0986 0.0064,0.1246 l 0.002,0.0265 c 0,-4e-4 0,10e-5 -0.9951,0.0994 -0.995,0.0993 -0.9951,0.0989 -0.9951,0.0984 l -1e-4,-0.001 -2e-4,-0.0025 -6e-4,-0.0062 -0.0016,-0.018 c -0.0013,-0.0144 -0.0028,-0.0336 -0.0044,-0.0572 -0.0033,-0.0471 -0.0071,-0.1122 -0.01,-0.1927 -0.0057,-0.1607 -0.0078,-0.3849 0.0055,-0.6519 0.0263,-0.5278 0.1144,-1.2546 0.3744,-1.9987 0.2606,-0.7459 0.709,-1.5509 1.4806,-2.1693 z m 0.1466,4.8997 3e-4,0.0027 -2e-4,-0.0011 z"
     fill="#404040"
     id="path16" />
  <path
     fill-rule="evenodd"
     clip-rule="evenodd"
     d="M 87.7959,9.11304 C 88.1679,9.03841 88.5659,9 88.9908,9 c 1.3206,0 2.36,0.37244 3.1442,1.0009 0.7716,0.6184 1.22,1.4234 1.4806,2.1693 0.26,0.7441 0.3481,1.4709 0.3745,1.9987 0.0133,0.267 0.0112,0.4912 0.0054,0.6519 -0.0028,0.0805 -0.0066,0.1456 -0.0099,0.1927 -0.0017,0.0236 -0.0032,0.0428 -0.0044,0.0572 l -0.0016,0.018 -6e-4,0.0062 -3e-4,0.0025 -1e-4,10e-4 c 0,5e-4 0,9e-4 -0.9951,-0.0984 -0.9951,-0.0993 -0.9951,-0.0989 -0.9951,-0.0985 l 0.002,-0.0274 c 0.0019,-0.026 0.0044,-0.0684 0.0064,-0.1246 0.004,-0.1127 0.0058,-0.2792 -0.0043,-0.4809 -0.0204,-0.4097 -0.0883,-0.9329 -0.265,-1.4388 C 91.5514,12.3257 91.2824,11.8807 90.8842,11.5616 90.4987,11.2526 89.9161,11 88.9908,11 c -0.3043,0 -0.5698,0.0275 -0.8014,0.074 z"
     fill="#404040"
     id="path17" />
  <path
     fill-rule="evenodd"
     clip-rule="evenodd"
     d="M 75.865,10.0009 C 76.6492,9.37244 77.6886,9 79.0092,9 c 0.4249,0 0.8229,0.03841 1.1949,0.11304 L 79.8106,11.074 C 79.579,11.0275 79.3135,11 79.0092,11 c -0.9253,0 -1.5079,0.2526 -1.8934,0.5616 -0.3982,0.3191 -0.6672,0.7641 -0.8433,1.2682 -0.1767,0.5059 -0.2446,1.0291 -0.265,1.4388 -0.0101,0.2017 -0.0083,0.3682 -0.0043,0.4809 0.002,0.0562 0.0045,0.0986 0.0064,0.1246 l 0.002,0.0265 c -1e-4,-4e-4 0,10e-5 -0.9951,0.0994 -0.9951,0.0993 -0.9951,0.0989 -0.9951,0.0984 l -2e-4,-10e-4 -2e-4,-0.0025 -6e-4,-0.0062 -0.0016,-0.018 c -0.0012,-0.0144 -0.0027,-0.0336 -0.0044,-0.0572 -0.0033,-0.0471 -0.0071,-0.1122 -0.0099,-0.1927 -0.0058,-0.1607 -0.0079,-0.3849 0.0054,-0.6519 0.0264,-0.5278 0.1145,-1.2546 0.3745,-1.9987 0.2606,-0.7459 0.709,-1.5509 1.4806,-2.1693 z m 0.1466,4.8997 2e-4,0.0027 -10e-5,-0.0011 z"
     fill="#404040"
     id="path18" />
  <path
     style="fill:#404040;fill-opacity:1;fill-rule:evenodd;stroke:none;stroke-width:0.0239329"
     d="m 100.94638,10.413661 2.64138,1.572504 -2.64505,1.57428 z m -2.94455,8.338428 8.45172,-5.036268 v 10.28418 L 118,17.141197 109.33947,11.981689 117.99725,6.827544 112.2373,3.3950161 106.45355,0 V 10.248469 L 98,5.21844 Z m 11.46495,-10.263637 -0.021,-3.311088 2.81175,1.674288 z m -0.002,6.996313 2.78153,1.667148 -2.77694,1.637688 z"
     id="path1-1" />
  <g
     style="fill:none;fill-opacity:1;stroke:#404040;stroke-opacity:1"
     id="g12"
     transform="matrix(0.38095238,0,0,0.38095238,118.85714,-1.9523809)">
    <path
       d="m 4.5,54.5 v -36 C 4.5,17.4391 4.92143,16.4217 5.67157,15.6716 6.42172,14.9214 7.43913,14.5 8.5,14.5 h 52 c 1.0609,0 2.0783,0.4214 2.8284,1.1716 C 64.0786,16.4217 64.5,17.4391 64.5,18.5 v 36 c 0,1.0609 -0.4214,2.0783 -1.1716,2.8284 C 62.5783,58.0786 61.5609,58.5 60.5,58.5 H 8.5 C 7.43913,58.5 6.42172,58.0786 5.67157,57.3284 4.92143,56.5783 4.5,55.5609 4.5,54.5 Z"
       stroke="#000000"
       stroke-width="3"
       stroke-miterlimit="10"
       stroke-linecap="square"
       id="path1-0"
       style="fill:none;fill-opacity:1;stroke:#404040;stroke-opacity:1" />
    <path
       d="m 14.5,48.5 h 24"
       stroke="#000000"
       stroke-width="3"
       stroke-miterlimit="10"
       stroke-linecap="square"
       id="path2-9"
       style="fill:none;fill-opacity:1;stroke:#404040;stroke-opacity:1" />
    <path
       d="m 46.5,48.5 h 8"
       stroke="#000000"
       stroke-width="3"
       stroke-miterlimit="10"
       stroke-linecap="square"
       id="path3-4"
       style="fill:none;fill-opacity:1;stroke:#404040;stroke-opacity:1" />
    <path
       d="m 24.5,24.5 h -10 v 8 h 10 z"
       stroke="#000000"
       stroke-width="3"
       stroke-miterlimit="10"
       stroke-linecap="square"
       id="path4-8"
       style="fill:none;fill-opacity:1;stroke:#404040;stroke-opacity:1" />
    <path
       d="m 42.5,32.5 c 1.1046,0 2,-0.8954 2,-2 0,-1.1046 -0.8954,-2 -2,-2 -1.1046,0 -2,0.8954 -2,2 0,1.1046 0.8954,2 2,2 z"
       fill="#000000"
       id="path5-8"
       style="fill:none;fill-opacity:1;stroke:#404040;stroke-opacity:1" />
    <path
       d="m 47.52,33.4488 c 0.6372,-0.8515 0.9815,-1.8864 0.9815,-2.95 0,-1.0635 -0.3443,-2.0984 -0.9815,-2.95"
       stroke="#000000"
       stroke-width="3"
       stroke-miterlimit="10"
       stroke-linecap="square"
       id="path6-2"
       style="fill:none;fill-opacity:1;stroke:#404040;stroke-opacity:1" />
    <path
       d="m 52.361,37 c 1.3902,-1.882 2.1403,-4.1602 2.1403,-6.5 0,-2.3398 -0.7501,-4.618 -2.1403,-6.5"
       stroke="#000000"
       stroke-width="3"
       stroke-miterlimit="10"
       stroke-linecap="square"
       id="path7-4"
       style="fill:none;fill-opacity:1;stroke:#404040;stroke-opacity:1" />
  </g>
</svg>
