<svg width="108" height="150" viewBox="0 0 108 150" fill="none" xmlns="http://www.w3.org/2000/svg">
<path d="M100.5 39H6.5L1 138.5L4 146L11.5 148.5H96.5L103 145L105.5 138.5L100.5 39Z" fill="#00A358" fill-opacity="0.12"/>
<path d="M55.0035 122.86V60.5007C55.0035 60.1027 54.8447 59.721 54.5624 59.4395C54.28 59.1581 53.8972 59 53.4978 59C53.0985 59 52.7152 59.1581 52.4328 59.4395C52.1505 59.721 51.9922 60.1027 51.9922 60.5007V122.86L32.0276 102.48C31.8892 102.339 31.724 102.226 31.5419 102.149C31.3598 102.071 31.1646 102.03 30.9665 102.027C30.7684 102.025 30.5716 102.062 30.3877 102.135C30.2038 102.209 30.0363 102.317 29.8946 102.455C29.7529 102.593 29.6398 102.758 29.5618 102.939C29.4839 103.121 29.4426 103.316 29.4403 103.513C29.438 103.711 29.4745 103.906 29.5481 104.09C29.6218 104.273 29.7312 104.44 29.8696 104.581L53.538 128.693L77.1962 104.581C77.4757 104.296 77.6302 103.912 77.6255 103.513C77.6208 103.114 77.4573 102.734 77.1712 102.455C76.885 102.177 76.4993 102.023 76.0993 102.027C75.6993 102.032 75.3177 102.195 75.0382 102.48L55.0035 122.86Z" fill="#00A05E"/>
<path d="M102.467 36.9998H75.533V39.9998H99.5989L104.058 138.093C104.11 139.243 103.929 140.392 103.525 141.47C103.121 142.548 102.502 143.533 101.707 144.366C100.911 145.198 99.9554 145.861 98.8967 146.314C97.838 146.766 96.6986 147 95.5471 147H11.5188C10.3673 147 9.22797 146.766 8.1692 146.314C7.11043 145.861 6.15414 145.198 5.35866 144.365C4.56318 143.533 3.94485 142.548 3.54079 141.469C3.13672 140.391 2.95563 139.242 3.00807 138.092L7.46705 39.9998H32.533V53.4998C32.533 53.8976 32.6911 54.2791 32.9724 54.5604C33.2537 54.8417 33.6351 54.9998 34.033 54.9998C34.4308 54.9998 34.8122 54.8417 35.0935 54.5604C35.3748 54.2791 35.533 53.8976 35.533 53.4998V21.9898C35.533 11.9508 43.3228 3.37179 53.3548 3.01179C55.8389 2.92347 58.3157 3.33615 60.637 4.22523C62.9583 5.11431 65.0769 6.46157 66.8665 8.18678C68.6561 9.91199 70.08 11.9798 71.0535 14.267C72.027 16.5542 72.5302 19.014 72.533 21.4998V36.9998H35.533V39.9998H72.533V53.4998C72.533 53.8976 72.6911 54.2791 72.9724 54.5604C73.2537 54.8417 73.6351 54.9998 74.033 54.9998C74.4308 54.9998 74.8122 54.8417 75.0935 54.5604C75.3748 54.2791 75.533 53.8976 75.533 53.4998V21.4998C75.5297 18.6105 74.945 15.7515 73.8132 13.0931C72.6815 10.4347 71.0259 8.03133 68.9456 6.02632C66.8652 4.0213 64.4027 2.45566 61.7044 1.42268C59.0061 0.389696 56.1274 -0.0894859 53.24 0.0137423C41.584 0.435742 32.533 10.3998 32.533 22.0638V36.9998H4.59889L0.0119764 137.956C-0.0589821 139.511 0.185917 141.065 0.732191 142.522C1.27847 143.98 2.11469 145.312 3.1902 146.438C4.26571 147.564 5.5585 148.46 6.99 149.072C8.4215 149.684 9.96192 150 11.5188 150H95.5471C97.1039 150 98.6445 149.684 100.076 149.072C101.507 148.46 102.8 147.564 103.875 146.438C104.951 145.313 105.787 143.981 106.333 142.523C106.88 141.065 107.125 139.512 107.054 137.957L102.467 36.9998Z" fill="#2B2B2B"/>
</svg>
