<svg width="29" height="29" viewBox="0 0 29 29" fill="none" xmlns="http://www.w3.org/2000/svg">
<path d="M8 12.8571C9.89714 12.8571 11.4171 11.3257 11.4171 9.42857C11.4171 7.53143 9.89714 6 8 6C6.10286 6 4.57143 7.53143 4.57143 9.42857C4.57143 11.3257 6.10286 12.8571 8 12.8571ZM8 15.1429C5.33714 15.1429 0 16.48 0 19.1429V22H16V19.1429C16 16.48 10.6629 15.1429 8 15.1429Z" fill="#2B2B2B"/>
<path fill-rule="evenodd" clip-rule="evenodd" d="M20.4283 14.3639L20.4283 14.364L21.8425 15.7782L21.8425 15.7781L21.8426 15.7782L23.2568 14.364L23.2568 14.3639L28.2064 9.41421L26.7922 8L21.8425 12.9497L19.0142 10.1213L17.6 11.5355L20.4283 14.3639Z" fill="#00A358"/>
<rect x="19" y="17" width="6" height="2" fill="#2B2B2B"/>
</svg>
