<svg width="40" height="35" viewBox="0 0 40 35" fill="none" xmlns="http://www.w3.org/2000/svg">
<circle cx="15.5" cy="15.5" r="14.5" stroke="#2B2B2B" stroke-width="2"/>
<path d="M12.1818 22V19.2917H10V17.6667H12.1818V16.5833H10V14.9583H12.1818V9H16.7985C18.8156 9 20.1493 9 21.2495 10.4208C21.7349 11.048 22 11.8779 22 12.7267C22 13.9053 21.4922 15.0623 20.4885 15.7557C19.4571 16.4685 18.4382 16.5833 16.3595 16.5833H14.3636V17.6667H18.1818V19.2917H14.3636V22H12.1818ZM14.3636 14.9583H17.7722C20.8638 14.9583 21.2195 10.625 17.5955 10.625H14.3636V14.9583Z" fill="#2B2B2B"/>
<circle cx="27" cy="26" r="9" fill="#EB4242"/>
<rect x="22" y="27" width="2" height="10" transform="rotate(-90 22 27)" fill="white"/>
</svg>
