<svg width="55" height="55" viewBox="0 0 55 55" fill="none" xmlns="http://www.w3.org/2000/svg">
<circle cx="27.5" cy="27.5" r="27.5" fill="#FFF9BF"/>
<path fill-rule="evenodd" clip-rule="evenodd" d="M12 34C12 33.4478 12.4477 33 13 33H21C21.5523 33 22 33.4478 22 34C22 34.5523 21.5523 35 21 35H13C12.4477 35 12 34.5523 12 34Z" fill="#444444"/>
<path fill-rule="evenodd" clip-rule="evenodd" d="M12 15C12 14.4478 12.4477 14 13 14H21C21.5523 14 22 14.4478 22 15V41C22 41.5523 21.5523 42 21 42H13C12.4477 42 12 41.5523 12 41V15ZM14 16V40H20V16H14Z" fill="#444444"/>
<path fill-rule="evenodd" clip-rule="evenodd" d="M17 19C17.5523 19 18 19.4478 18 20V24C18 24.5523 17.5523 25 17 25C16.4477 25 16 24.5523 16 24V20C16 19.4478 16.4477 19 17 19Z" fill="#444444"/>
<path fill-rule="evenodd" clip-rule="evenodd" d="M20 34C20 33.4478 20.4477 33 21 33H29C29.5523 33 30 33.4478 30 34C30 34.5523 29.5523 35 29 35H21C20.4477 35 20 34.5523 20 34Z" fill="#444444"/>
<path fill-rule="evenodd" clip-rule="evenodd" d="M20 15C20 14.4478 20.4477 14 21 14H29C29.5523 14 30 14.4478 30 15V41C30 41.5523 29.5523 42 29 42H21C20.4477 42 20 41.5523 20 41V15ZM22 16V40H28V16H22Z" fill="#444444"/>
<path fill-rule="evenodd" clip-rule="evenodd" d="M25 19C25.5523 19 26 19.4478 26 20V24C26 24.5523 25.5523 25 25 25C24.4477 25 24 24.5523 24 24V20C24 19.4478 24.4477 19 25 19Z" fill="#444444"/>
<path fill-rule="evenodd" clip-rule="evenodd" d="M41.9172 32.7051C42.0017 33.2508 41.6278 33.7618 41.082 33.8463L33.176 35.0703C32.6302 35.1548 32.1193 34.7808 32.0348 34.235C31.9503 33.6893 32.3242 33.1783 32.87 33.0938L40.776 31.8698C41.3218 31.7853 41.8327 32.1593 41.9172 32.7051Z" fill="#444444"/>
<path fill-rule="evenodd" clip-rule="evenodd" d="M29.1261 15.4585C29.0415 14.9128 29.4154 14.4018 29.9612 14.3172L37.8668 13.0924C38.4125 13.0079 38.9235 13.3818 39.0081 13.9275L42.9887 39.6207C43.0732 40.1665 42.6993 40.6775 42.1536 40.762L34.248 41.9868C33.7022 42.0714 33.1912 41.6975 33.1067 41.1517L29.1261 15.4585ZM31.2556 16.1405L34.93 39.8573L40.8592 38.9387L37.1848 15.2219L31.2556 16.1405Z" fill="#444444"/>
<path fill-rule="evenodd" clip-rule="evenodd" d="M34.68 18.6468C35.2258 18.5623 35.7367 18.9363 35.8212 19.4821L36.4332 23.4351C36.5177 23.9808 36.1438 24.4918 35.598 24.5763C35.0522 24.6608 34.5413 24.2868 34.4568 23.741L33.8448 19.788C33.7603 19.2423 34.1342 18.7313 34.68 18.6468Z" fill="#444444"/>
</svg>
