<svg width="16" height="16" viewBox="0 0 16 16" fill="none" xmlns="http://www.w3.org/2000/svg">
<g clip-path="url(#clip0_705_26)">
<path d="M3.58112 15.6764C3.40581 15.6764 3.23174 15.6217 3.08317 15.5143C2.94805 15.4165 2.84466 15.2811 2.78587 15.125C2.72707 14.9689 2.71546 14.799 2.75248 14.6363L3.78182 10.1022L0.290979 7.04087C0.16543 6.93132 0.0748628 6.78728 0.0305446 6.62666C-0.0137737 6.46604 -0.00988661 6.29593 0.0417222 6.1375C0.0930143 5.97916 0.189652 5.83935 0.319654 5.73542C0.449656 5.63148 0.607304 5.56798 0.773053 5.5528L5.39183 5.13345L7.21797 0.859994C7.35256 0.546017 7.6592 0.343262 7.99992 0.343262C8.34065 0.343262 8.64728 0.546017 8.78194 0.859275L10.608 5.13345L15.2261 5.55274C15.5661 5.58336 15.8528 5.81349 15.9581 6.13747C16.0635 6.46148 15.9661 6.81683 15.7095 7.04084L12.2187 10.1016L13.248 14.6356C13.3234 14.969 13.194 15.3138 12.9174 15.5137C12.6414 15.7137 12.2733 15.729 11.9827 15.5543L7.99992 13.1743L4.01717 15.5557C3.88251 15.6357 3.73247 15.6764 3.58112 15.6764ZM7.99992 12.149C8.1513 12.149 8.30118 12.1896 8.43597 12.2696L12.1947 14.5177L11.2233 10.2382C11.1893 10.0886 11.1964 9.9326 11.2438 9.78672C11.2912 9.64084 11.3772 9.5105 11.4927 9.40952L14.7888 6.51882L10.428 6.12285C10.2745 6.10911 10.1277 6.05388 10.0032 5.96309C9.87869 5.8723 9.78125 5.74935 9.72128 5.60743L7.99992 1.57464L6.27651 5.60802C6.15516 5.89537 5.88512 6.09278 5.57189 6.12147L1.21044 6.51748L4.50646 9.40818C4.74253 9.61487 4.84578 9.93225 4.77584 10.2376L3.80513 14.517L7.56388 12.2696C7.69854 12.1896 7.84858 12.149 7.99992 12.149ZM5.35655 5.21607C5.35655 5.21607 5.35654 5.21679 5.35583 5.21742L5.35655 5.21607ZM10.642 5.2141L10.6427 5.21545C10.6427 5.21473 10.6427 5.21473 10.642 5.2141H10.642Z" fill="#FFC107"/>
</g>
<defs>
<clipPath id="clip0_705_26">
<rect width="16" height="16" fill="white"/>
</clipPath>
</defs>
</svg>
