<svg width="67" height="56" viewBox="0 0 67 56" fill="none" xmlns="http://www.w3.org/2000/svg">
<rect x="0.5" y="21" width="14" height="14" rx="1.5" fill="white"/>
<rect x="0.5" y="21" width="14" height="14" rx="1.5" stroke="#A0A0A0"/>
<path fill-rule="evenodd" clip-rule="evenodd" d="M15.6196 19.7151C16.0531 20.0573 16.1271 20.6862 15.7849 21.1197L8.28488 30.6197C8.10793 30.8438 7.8436 30.9816 7.55852 30.9983C7.27344 31.015 6.99482 30.909 6.79289 30.7071L3.29289 27.2071C2.90237 26.8166 2.90237 26.1834 3.29289 25.7929C3.68342 25.4024 4.31658 25.4024 4.70711 25.7929L7.41193 28.4977L14.2151 19.8804C14.5573 19.4469 15.1862 19.3729 15.6196 19.7151Z" fill="#009646"/>
<path fill-rule="evenodd" clip-rule="evenodd" d="M33.3859 12.2893L31.2893 14.3859C30.9688 14.7064 30.9076 15.2039 31.1408 15.5925L34.2857 20.834C34.4421 21.0948 34.7101 21.269 35.012 21.3061C35.3138 21.3433 35.616 21.2393 35.8311 21.0242L37.2288 19.6265L44.2134 26.6112L40.2516 30.573C37.8158 29.7054 34.9893 30.2452 33.0376 32.197C31.0862 34.1483 30.5465 36.9745 31.4127 39.4085C31.5263 39.7277 31.7956 39.9664 32.1261 40.0409C32.4566 40.1154 32.8022 40.0154 33.0417 39.7758L35.532 37.2856L37.7271 39.4806L35.2368 41.9709C34.9973 42.2104 34.8972 42.5561 34.9717 42.8866C35.0462 43.217 35.2849 43.4863 35.6041 43.5999C38.0381 44.4661 40.8643 43.9264 42.8157 41.9751C44.7676 40.0231 45.3074 37.1962 44.4393 34.7601L46.3059 32.8935L55.3859 41.9736C56.5431 43.1308 58.4193 43.1308 59.5765 41.9736L60.9719 40.5782C62.1291 39.421 62.1291 37.5448 60.9719 36.3876L51.8918 27.3076L53.4648 25.7346C55.9009 26.6029 58.7279 26.0631 60.68 24.1111C62.6313 22.1597 63.171 19.3336 62.3048 16.8995C62.1912 16.5803 61.9219 16.3416 61.5915 16.2671C61.261 16.1926 60.9153 16.2927 60.6758 16.5323L58.1855 19.0225L55.9905 16.8274L58.4807 14.3372C58.7203 14.0976 58.8203 13.752 58.7458 13.4215C58.6713 13.091 58.4326 12.8218 58.1134 12.7082C55.6794 11.8419 52.8532 12.3816 50.9019 14.333C48.9502 16.2847 48.4103 19.111 49.2779 21.5468L45.6103 25.2143L38.6256 18.2297L40.0242 16.8311C40.2393 16.616 40.3433 16.3138 40.3061 16.012C40.269 15.7101 40.0948 15.4421 39.834 15.2857L34.5925 12.1408C34.2039 11.9076 33.7064 11.9688 33.3859 12.2893ZM35.3287 18.7328L33.2315 15.2375L34.2375 14.2315L37.7328 16.3287L35.3287 18.7328ZM47.7028 31.4967L50.495 28.7044L59.575 37.7845C59.9607 38.1702 59.9607 38.7956 59.575 39.1813L58.1797 40.5767C57.7939 40.9624 57.1685 40.9624 56.7828 40.5767L47.7028 31.4967ZM50.495 25.9107L52.5344 23.8713C52.8305 23.5752 53.2812 23.498 53.659 23.6787C55.4965 24.5576 57.763 24.2343 59.2831 22.7142C60.2341 21.7632 60.7169 20.5202 60.7295 19.2723L58.884 21.1178C58.4982 21.5035 57.8728 21.5035 57.4871 21.1178L53.8952 17.5259C53.7099 17.3406 53.6059 17.0894 53.6059 16.8274C53.6059 16.5655 53.7099 16.3142 53.8952 16.129L55.7407 14.2835C54.4928 14.2961 53.2498 14.7788 52.2987 15.7299C50.779 17.2497 50.4554 19.5156 51.3338 21.3529C51.5144 21.7306 51.4371 22.1812 51.1411 22.4773L41.1821 32.4363C40.886 32.7324 40.4354 32.8096 40.0576 32.629C38.2203 31.7505 35.9543 32.074 34.4344 33.5938C33.4834 34.5449 33.0007 35.7879 32.988 37.0358L34.8335 35.1903C35.0188 35.005 35.27 34.901 35.532 34.901C35.7939 34.901 36.0452 35.005 36.2304 35.1903L39.8224 38.7822C40.2081 39.1679 40.2081 39.7933 39.8224 40.1791L37.9768 42.0246C39.2247 42.012 40.4678 41.5292 41.4188 40.5782C42.9388 39.0582 43.2622 36.7917 42.3834 34.9543C42.2026 34.5765 42.2798 34.1258 42.576 33.8297L44.909 31.4967L44.8988 31.4865L50.4848 25.9005L50.495 25.9107Z" fill="#444444"/>
</svg>
