<?xml version="1.0" encoding="UTF-8"?>
<svg class="progressive_icon progressive_icon16" width="40" height="40" version="1.1" viewBox="0 0 40 40" xmlns="http://www.w3.org/2000/svg">
    <circle cx="20" cy="20" r="20" display="none" fill="#e6e6e6" stroke-width="11.887"/>
    <path d="m27.684 25.336h-1.8164c-0.68946 0-0.90039-0.5625-2.1347-1.7969-1.0781-1.043-1.5547-1.1836-1.8183-1.1836-0.3711 0-0.47656 0.08789-0.47656 0.61914v1.6406c0 0.43946-0.14062 0.70312-1.3066 0.70312-1.9219 0-4.0567-1.1641-5.5567-3.3321-2.2578-3.1778-2.875-5.5761-2.875-6.0547 0-0.26172 0.08789-0.50976 0.61719-0.50976h1.836c0.45703 0 0.63476 0.19531 0.81054 0.70508 0.89844 2.5938 2.3985 4.8692 3.0156 4.8692 0.23047 0 0.33594-0.10351 0.33594-0.6875v-2.6817c-0.07032-1.2344-0.72265-1.3418-0.72265-1.7812 0-0.21289 0.17578-0.42383 0.45703-0.42383h2.8594c0.39062 0 0.52929 0.21094 0.52929 0.66992v3.6172c0 0.38867 0.16015 0.52929 0.28321 0.52929 0.22851 0 0.42188-0.14062 0.84571-0.56446 1.3066-1.4649 2.2422-3.7226 2.2422-3.7226a0.80078 0.80078 0 0 1 0.79297-0.50976h1.8164c0.54688 0 0.67188 0.27929 0.54688 0.66992-0.22851 1.0586-2.4531 4.1972-2.4336 4.1972-0.19531 0.31836-0.26562 0.45899 0 0.8125 0.19336 0.26562 0.82812 0.81054 1.25 1.3047 0.77735 0.88282 1.377 1.6231 1.5371 2.1347 0.14062 0.51172-0.10742 0.77539-0.63476 0.77539zm-3.8476-17.836h-7.6719c-7.0039 0-8.664 1.6601-8.664 8.664v7.6758c0 7.0019 1.6582 8.6601 8.6621 8.6601h7.6758c7.0019 0 8.6621-1.6582 8.6621-8.6621v-7.6758c0-7.0039-1.6601-8.6621-8.6621-8.6621z" clip-rule="evenodd" fill="#356fff" fill-rule="evenodd" stroke-width="1.9531"/>
</svg>
