<svg width="16" height="16" viewBox="0 0 16 16" fill="none" xmlns="http://www.w3.org/2000/svg">
<g clip-path="url(#clip0_5_252)">
<path d="M8 0.0875082C7.95536 0.141576 7.90734 0.200856 7.85642 0.265228C7.54812 0.654955 7.13477 1.22948 6.72103 1.9617C6.30486 2.6982 5.89063 3.58999 5.58136 4.61073H10.4186C10.1094 3.58999 9.69514 2.6982 9.27897 1.9617C8.86523 1.22948 8.45188 0.654955 8.14358 0.265228C8.09266 0.200857 8.04464 0.141576 8 0.0875082Z" fill="#4D4D4D"/>
<path d="M10.676 5.61073H5.32403C5.16627 6.35464 5.07143 7.15381 5.07143 8.00009C5.07143 8.84637 5.16627 9.64555 5.32403 10.3895H10.676C10.8337 9.64555 10.9286 8.84637 10.9286 8.00009C10.9286 7.15381 10.8337 6.35464 10.676 5.61073Z" fill="#4D4D4D"/>
<path d="M11.6965 10.3895C11.8422 9.64192 11.9286 8.84321 11.9286 8.00009C11.9286 7.15697 11.8422 6.35826 11.6965 5.61073H15.6454C15.8759 6.36589 16 7.16827 16 7.99997C16 8.83175 15.8759 9.63422 15.6453 10.3895H11.6965Z" fill="#4D4D4D"/>
<path d="M10.4186 11.3895H5.58136C5.89063 12.4102 6.30486 13.302 6.72103 14.0385C7.13477 14.7707 7.54812 15.3452 7.85642 15.735C7.90734 15.7993 7.95536 15.8586 8 15.9127C8.04464 15.8586 8.09266 15.7993 8.14358 15.735C8.45188 15.3452 8.86523 14.7707 9.27897 14.0385C9.69514 13.302 10.1094 12.4102 10.4186 11.3895Z" fill="#4D4D4D"/>
<path d="M9.19921 15.9999C9.48557 15.6114 9.8177 15.1178 10.1496 14.5304C10.6329 13.6751 11.1185 12.6159 11.46 11.3895H15.2662C14.1586 13.8135 11.8999 15.5893 9.19921 15.9999Z" fill="#4D4D4D"/>
<path d="M11.46 4.61073C11.1185 3.3843 10.6329 2.32509 10.1496 1.46975C9.81761 0.882228 9.4854 0.388523 9.19899 1.41143e-06C11.8999 0.41051 14.1588 2.18651 15.2663 4.61073H11.46Z" fill="#4D4D4D"/>
<path d="M0.733729 4.61073C1.84123 2.18651 4.10008 0.410507 6.80101 0C6.5146 0.388521 6.18239 0.882227 5.8504 1.46975C5.36709 2.32509 4.88149 3.3843 4.54003 4.61073H0.733729Z" fill="#4D4D4D"/>
<path d="M0.354595 5.61073H4.30353C4.15783 6.35826 4.07143 7.15697 4.07143 8.00009C4.07143 8.84321 4.15783 9.64192 4.30353 10.3895H0.354671C0.124127 9.63422 0 8.83175 0 7.99997C0 7.16827 0.1241 6.36589 0.354595 5.61073Z" fill="#4D4D4D"/>
<path d="M0.733843 11.3895H4.54003C4.88149 12.6159 5.36709 13.6751 5.8504 14.5304C6.1823 15.1178 6.51443 15.6114 6.8008 15.9999C4.10006 15.5893 1.84136 13.8135 0.733843 11.3895Z" fill="#4D4D4D"/>
</g>
<defs>
<clipPath id="clip0_5_252">
<rect width="16" height="16" fill="white"/>
</clipPath>
</defs>
</svg>
