<svg width="16" height="16" viewBox="0 0 16 16" fill="none" xmlns="http://www.w3.org/2000/svg">
<path fill-rule="evenodd" clip-rule="evenodd" d="M4.55008 2.25C5.35013 2.25 6.05008 2.95001 6.05008 3.75C6.05008 4.54999 5.35013 5.25 4.55008 5.25C3.75003 5.25 3.05008 4.54999 3.05008 3.75C3.05008 2.95001 3.75003 2.25 4.55008 2.25ZM4.55008 1.25C3.15005 1.25 2.05008 2.34998 2.05008 3.75C2.05008 5.15002 3.15005 6.25 4.55008 6.25C5.9501 6.25 7.05008 5.15002 7.05008 3.75C7.05008 2.34998 5.9501 1.25 4.55008 1.25ZM11.5501 10.75C12.3501 10.75 13.0501 11.45 13.0501 12.25C13.0501 13.05 12.3501 13.75 11.5501 13.75C10.75 13.75 10.0501 13.05 10.0501 12.25C10.0501 11.45 10.75 10.75 11.5501 10.75ZM11.5501 9.75C10.1501 9.75 9.05008 10.85 9.05008 12.25C9.05008 13.65 10.1501 14.75 11.5501 14.75C12.9501 14.75 14.0501 13.65 14.0501 12.25C14.0501 10.85 12.9501 9.75 11.5501 9.75ZM2.30887 13.7292C2.39664 13.75 2.49088 13.75 2.55008 13.75C2.60049 13.75 2.67654 13.75 2.73929 13.7371C2.80093 13.7245 2.85001 13.6995 2.85001 13.65L13.85 2.64996C14.0501 2.45001 14.0501 2.14996 13.85 1.95001C13.6501 1.75 13.35 1.75 13.1501 1.95001L2.15005 12.95C1.94998 13.15 1.94998 13.45 2.15005 13.65C2.19083 13.6908 2.24832 13.715 2.30887 13.7292Z" fill="#00A358"/>
</svg>
