<svg width="16" height="16" viewBox="0 0 16 16" fill="none" xmlns="http://www.w3.org/2000/svg">
<path d="M15 8H1V16H15V8Z" fill="#FFFFB4"/>
<path d="M15 6H1V16H15V6Z" fill="url(#paint0_linear_1510_413)" fill-opacity="0.9"/>
<path d="M14 7H2V15H14V7Z" fill="white"/>
<path d="M14 9H2V10H14V9Z" fill="#758B8F"/>
<path d="M14 12H2V13H14V12Z" fill="#758B8F"/>
<path d="M4 7L4 15L5 15L5 7L4 7Z" fill="#758B8F"/>
<path d="M11 7L11 15L12 15L12 7L11 7Z" fill="#758B8F"/>
<path opacity="0.6" d="M11 6H5V12H11V6Z" fill="white"/>
<path d="M4.4727 2.42494L4.82626 2.7785L4.4727 3.13205L3.13049 4.47427L2.77693 4.82782L2.42338 4.47427L1.06269 3.11357L0.709137 2.76002L1.06269 2.40647L2.4049 1.06425L2.75846 0.710693L3.11201 1.06425L4.4727 2.42494Z" fill="#4D5965" stroke="#4D5965"/>
<path d="M7.91215 5.86486L8.2657 6.21841L7.91215 6.57197L6.56993 7.91418L6.21638 8.26774L5.86282 7.91418L2.87006 4.92142L2.51651 4.56787L2.87006 4.21432L4.21228 2.8721L4.56583 2.51855L4.91939 2.8721L7.91215 5.86486Z" fill="#57C063" stroke="#009646"/>
<path d="M7 9L9.36719 9.36797L9 7L7.5 5.5L7.46901 7.46978L5.5 7.5L7 9Z" fill="#F2B855" stroke="#816E4E" stroke-linecap="round" stroke-linejoin="round"/>
<path d="M9 9.00073L10 10.0007" stroke="#444444" stroke-linecap="round" stroke-linejoin="round"/>
<defs>
<linearGradient id="paint0_linear_1510_413" x1="8" y1="6" x2="8" y2="16" gradientUnits="userSpaceOnUse">
<stop stop-color="#9FBBC6"/>
<stop offset="1" stop-color="#576E7C"/>
</linearGradient>
</defs>
</svg>
