<svg width="24" height="24" viewBox="0 0 24 24" fill="none" xmlns="http://www.w3.org/2000/svg">
<path d="M8.21094 12.3516C8.21094 10.9974 8.34896 9.90885 8.625 9.08594C8.90625 8.25781 9.32031 7.61979 9.86719 7.17188C10.4193 6.72396 11.112 6.5 11.9453 6.5C12.5599 6.5 13.099 6.625 13.5625 6.875C14.026 7.11979 14.4089 7.47656 14.7109 7.94531C15.013 8.40885 15.25 8.97656 15.4219 9.64844C15.5938 10.3151 15.6797 11.2161 15.6797 12.3516C15.6797 13.6953 15.5417 14.7812 15.2656 15.6094C14.9896 16.4323 14.5755 17.0703 14.0234 17.5234C13.4766 17.9714 12.7839 18.1953 11.9453 18.1953C10.8411 18.1953 9.97396 17.7995 9.34375 17.0078C8.58854 16.0547 8.21094 14.5026 8.21094 12.3516ZM9.65625 12.3516C9.65625 14.2318 9.875 15.4844 10.3125 16.1094C10.7552 16.7292 11.2995 17.0391 11.9453 17.0391C12.5911 17.0391 13.1328 16.7266 13.5703 16.1016C14.013 15.4766 14.2344 14.2266 14.2344 12.3516C14.2344 10.4661 14.013 9.21354 13.5703 8.59375C13.1328 7.97396 12.5859 7.66406 11.9297 7.66406C11.2839 7.66406 10.7682 7.9375 10.3828 8.48438C9.89844 9.18229 9.65625 10.4714 9.65625 12.3516Z" fill="#B2B2B2"/>
</svg>
