<svg width="16" height="16" viewBox="0 0 16 16" fill="none" xmlns="http://www.w3.org/2000/svg">
<path d="M8 8V12" stroke="#333333" stroke-linecap="round" stroke-linejoin="round"/>
<path d="M6 10H10" stroke="#333333" stroke-linecap="round" stroke-linejoin="round"/>
<path d="M1.5 5.5H14.5" stroke="#333333" stroke-linecap="round" stroke-linejoin="round"/>
<path d="M13 2.5H3C2.60218 2.5 2.22064 2.65804 1.93934 2.93934C1.65804 3.22064 1.5 3.60218 1.5 4V13C1.5 13.3978 1.65804 13.7794 1.93934 14.0607C2.22064 14.342 2.60218 14.5 3 14.5H13C13.3978 14.5 13.7794 14.342 14.0607 14.0607C14.342 13.7794 14.5 13.3978 14.5 13V4C14.5 3.60218 14.342 3.22064 14.0607 2.93934C13.7794 2.65804 13.3978 2.5 13 2.5Z" stroke="#333333" stroke-linecap="round" stroke-linejoin="round"/>
<path d="M4.5 0.5V2.5" stroke="#333333" stroke-linecap="round" stroke-linejoin="round"/>
<path d="M11.5 0.5V2.5" stroke="#333333" stroke-linecap="round" stroke-linejoin="round"/>
</svg>
