<svg width="32" height="32" viewBox="0 0 32 32" fill="none" xmlns="http://www.w3.org/2000/svg">
<g opacity="0.5">
<path fill-rule="evenodd" clip-rule="evenodd" d="M6.70811 25.2919C7.09863 25.6824 7.09863 26.3156 6.70811 26.7061L4.70711 28.7071C4.31658 29.0977 3.68342 29.0977 3.29289 28.7071C2.90237 28.3166 2.90237 27.6834 3.29289 27.2929L5.29389 25.2919C5.68442 24.9014 6.31758 24.9014 6.70811 25.2919Z" fill="black"/>
<path fill-rule="evenodd" clip-rule="evenodd" d="M14.7071 13.2929C15.0976 13.6834 15.0976 14.3166 14.7071 14.7071L11.7071 17.7071C11.3166 18.0976 10.6834 18.0976 10.2929 17.7071C9.90237 17.3166 9.90237 16.6834 10.2929 16.2929L13.2929 13.2929C13.6834 12.9024 14.3166 12.9024 14.7071 13.2929Z" fill="black"/>
<path fill-rule="evenodd" clip-rule="evenodd" d="M18.7071 17.2929C19.0976 17.6834 19.0976 18.3166 18.7071 18.7071L15.7071 21.7071C15.3166 22.0976 14.6834 22.0976 14.2929 21.7071C13.9024 21.3166 13.9024 20.6834 14.2929 20.2929L17.2929 17.2929C17.6834 16.9024 18.3166 16.9024 18.7071 17.2929Z" fill="black"/>
<path fill-rule="evenodd" clip-rule="evenodd" d="M7.85995 14.4626C8.25054 14.0723 8.88349 14.0725 9.27388 14.4629L17.5371 22.7271C17.9276 23.1175 17.9276 23.7505 17.5373 24.1411L15.684 25.9952C14.4004 27.2788 12.6594 28 10.8442 28C9.02902 28 7.28817 27.2789 6.00463 25.9954C4.72109 24.7118 4 22.971 4 21.1558C4 19.3406 4.72109 17.5997 6.00463 16.3162L7.85995 14.4626ZM7.41851 17.7307V17.7307C6.51025 18.6392 6 19.8712 6 21.1558C6 22.4405 6.51037 23.6727 7.41884 24.5812C8.32731 25.4896 9.55945 26 10.8442 26C12.1289 26 13.361 25.4897 14.2694 24.5813V24.5813L15.416 23.4342L8.56637 16.5839L7.41851 17.7307Z" fill="black"/>
<path fill-rule="evenodd" clip-rule="evenodd" d="M28.7071 3.29289C29.0977 3.68342 29.0977 4.31658 28.7071 4.70711L26.7061 6.70811C26.3156 7.09863 25.6824 7.09863 25.2919 6.70811C24.9014 6.31758 24.9014 5.68442 25.2919 5.29389L27.2929 3.29289C27.6834 2.90237 28.3166 2.90237 28.7071 3.29289Z" fill="black"/>
<path fill-rule="evenodd" clip-rule="evenodd" d="M16.3161 6.00463C17.5996 4.72109 19.3405 4 21.1557 4C22.9709 4 24.7118 4.72109 25.9953 6.00463C27.2788 7.28817 27.9999 9.02902 27.9999 10.8442C27.9999 12.6594 27.2788 14.4003 25.9953 15.6838L24.14 17.5374C23.7494 17.9276 23.1165 17.9275 22.7261 17.5371L14.4628 9.27384C14.0724 8.88344 14.0723 8.25053 14.4625 7.85995L16.3161 6.00463ZM17.7304 7.41877L16.5838 8.56641L23.4335 15.4161L24.5811 14.2696C25.4893 13.3612 25.9999 12.1288 25.9999 10.8442C25.9999 9.55945 25.4896 8.32731 24.5811 7.41884C23.6726 6.51037 22.4405 6 21.1557 6C19.8711 6 18.6388 6.51051 17.7304 7.41877Z" fill="black"/>
</g>
</svg>
