<svg width="16" height="16" viewBox="0 0 16 16" fill="none" xmlns="http://www.w3.org/2000/svg">
<path d="M1.68726 13.9178L2.42356 9.5H13.5764L14.3127 13.9178C14.3635 14.2226 14.1285 14.5 13.8195 14.5H2.18046C1.87149 14.5 1.63647 14.2226 1.68726 13.9178Z" stroke="#2B2B2B"/>
<path d="M2 9C2 8.44772 2.44772 8 3 8H13C13.5523 8 14 8.44772 14 9V9H2V9Z" fill="#2B2B2B"/>
<rect x="5" y="1" width="6" height="6" rx="1" fill="#2B2B2B"/>
<rect x="6" y="2" width="4" height="1" fill="white"/>
<rect x="7.5" y="6.00252" width="3.00252" height="1" transform="rotate(-90 7.5 6.00252)" fill="white"/>
<rect x="11" y="12" width="1" height="1" fill="#00A358"/>
<rect x="9" y="12" width="1" height="1" fill="#00A358"/>
</svg>
