<svg width="16" height="16" viewBox="0 0 16 16" fill="none" xmlns="http://www.w3.org/2000/svg">
<path d="M0.5 4V11C0.5 11.3978 0.658035 11.7794 0.93934 12.0607C1.22064 12.342 1.60218 12.5 2 12.5H6L7.5 15.5L9 12.5H13C13.3978 12.5 13.7794 12.342 14.0607 12.0607C14.342 11.7794 14.5 11.3978 14.5 11V4C14.5 3.60218 14.342 3.22064 14.0607 2.93934C13.7794 2.65804 13.3978 2.5 13 2.5H2C1.60218 2.5 1.22064 2.65804 0.93934 2.93934C0.658035 3.22064 0.5 3.60218 0.5 4Z" stroke="#4D4D4D" stroke-linecap="round" stroke-linejoin="round"/>
<path d="M11.4749 12.5001C11.2912 10.4616 9.58287 8.86377 7.4999 8.86377C5.41693 8.86377 3.70859 10.4616 3.5249 12.5001" stroke="#4D4D4D" stroke-linecap="round" stroke-linejoin="round"/>
<path d="M7.49986 8.86364C8.70278 8.86364 9.67794 7.8868 9.67794 6.68182C9.67794 5.47683 8.70278 4.5 7.49986 4.5C6.29694 4.5 5.32178 5.47683 5.32178 6.68182C5.32178 7.8868 6.29694 8.86364 7.49986 8.86364Z" stroke="#4D4D4D" stroke-linecap="round" stroke-linejoin="round"/>
</svg>
