<svg width="16" height="16" viewBox="0 0 16 16" fill="none" xmlns="http://www.w3.org/2000/svg">
<path d="M11.5 1.5H12.5C12.765 1.5 13.02 1.60536 13.207 1.79289C13.395 1.98043 13.5 2.23478 13.5 2.5V13.5C13.5 13.7652 13.395 14.0196 13.207 14.2071C13.02 14.3946 12.765 14.5 12.5 14.5H3.5C3.235 14.5 2.98 14.3946 2.793 14.2071C2.605 14.0196 2.5 13.7652 2.5 13.5V2.5C2.5 2.23478 2.605 1.98043 2.793 1.79289C2.98 1.60536 3.235 1.5 3.5 1.5H4.5" stroke="#333333" stroke-linecap="round" stroke-linejoin="round"/>
<path d="M10.5 0.5H5.5V2.5H10.5V0.5Z" stroke="#333333" stroke-linecap="round" stroke-linejoin="round"/>
<path d="M4.5 8.5L6.83333 11.5L11.5 5.5" stroke="#333333" stroke-linecap="round" stroke-linejoin="round"/>
</svg>
