<svg width="54" height="54" viewBox="0 0 54 54" fill="none" xmlns="http://www.w3.org/2000/svg">
<rect width="54" height="54" rx="27" fill="#FFF9BF"/>
<g clip-path="url(#clip0_1_207)">
<path d="M34 27H42" stroke="#444444" stroke-width="2" stroke-miterlimit="10" stroke-linecap="round" stroke-linejoin="round"/>
<path d="M27 12V20" stroke="#444444" stroke-width="2" stroke-miterlimit="10" stroke-linecap="round" stroke-linejoin="round"/>
<path d="M21.898 31.7939L16.031 37.2319" stroke="#444444" stroke-width="2" stroke-miterlimit="10" stroke-linecap="round" stroke-linejoin="round"/>
<path d="M27 42C35.2843 42 42 35.2843 42 27C42 18.7157 35.2843 12 27 12C18.7157 12 12 18.7157 12 27C12 35.2843 18.7157 42 27 42Z" stroke="#444444" stroke-width="2" stroke-miterlimit="10" stroke-linecap="round" stroke-linejoin="round"/>
<path d="M27 34C30.866 34 34 30.866 34 27C34 23.134 30.866 20 27 20C23.134 20 20 23.134 20 27C20 30.866 23.134 34 27 34Z" stroke="#444444" stroke-width="2" stroke-miterlimit="10" stroke-linecap="round" stroke-linejoin="round"/>
<path fill-rule="evenodd" clip-rule="evenodd" d="M27 33C30.3137 33 33 30.3137 33 27C33 23.6863 30.3137 21 27 21C23.6863 21 21 23.6863 21 27C21 30.3137 23.6863 33 27 33ZM27 26C28.1046 26 29 25.1046 29 24C29 22.8954 28.1046 22 27 22C25.8954 22 25 22.8954 25 24C25 25.1046 25.8954 26 27 26ZM26.2 27C24.4327 27 23 28.4327 23 30.2C23 30.6418 23.3582 31 23.8 31H30.2C30.6418 31 31 30.6418 31 30.2C31 28.4327 29.5673 27 27.8 27H26.2Z" fill="#444444"/>
</g>
<defs>
<clipPath id="clip0_1_207">
<rect width="32" height="32" fill="white" transform="translate(11 11)"/>
</clipPath>
</defs>
</svg>
