<?xml version="1.0" encoding="UTF-8"?>
<svg width="40" height="40" fill="none" version="1.1" viewBox="0 0 40 40" xmlns="http://www.w3.org/2000/svg">
    <g transform="matrix(.18939 0 0 .18939 7.5 7.5)" clip-path="url(#clip0_519_2005)">
        <rect width="132" height="132" fill="#100943"/>
        <path d="m132 66c36.451 0 66-29.549 66-66s-29.549-66-66-66-66 29.549-66 66 29.549 66 66 66z" fill="#ed143b"/>
        <path d="m81.536 62.986h-38.998v-15.432h38.998c2.2779 0 3.8618 0.3971 4.6567 1.0904 0.7949 0.6934 1.2873 1.9794 1.2873 3.858v5.541c0 1.9793-0.4924 3.2653-1.2873 3.9587-0.7949 0.6933-2.3788 0.9897-4.6567 0.9897zm2.6754-29.981h-58.212v65.994h16.539v-21.471h30.479l14.462 21.471h18.52l-15.945-21.571c5.8787-0.8712 8.5184-2.6727 10.695-5.6418 2.177-2.969 3.269-7.7159 3.269-14.051v-4.9483c0-3.7573-0.398-6.7263-1.092-9.0019-0.694-2.2757-1.88-4.255-3.565-6.0329-1.7796-1.683-3.7609-2.8683-6.1397-3.6624-2.3788-0.6933-5.3507-1.0904-9.0108-1.0904z" fill="#fff"/>
    </g>
    <defs>
        <clipPath id="clip0_519_2005">
            <rect width="132" height="132" rx="32" fill="#fff"/>
        </clipPath>
    </defs>
</svg>
