<svg width="16" height="16" viewBox="0 0 16 16" fill="none" xmlns="http://www.w3.org/2000/svg">
<path d="M3.76562 1.5H12.2344C12.4249 1.5 12.5864 1.64006 12.6133 1.82863C13.1981 5.9221 13.1981 10.0779 12.6133 14.1714C12.5864 14.3599 12.4249 14.5 12.2344 14.5H3.76562C3.57513 14.5 3.41364 14.3599 3.3867 14.1714C2.80192 10.0779 2.80192 5.9221 3.3867 1.82863C3.41364 1.64006 3.57513 1.5 3.76562 1.5Z" stroke="#2B2B2B"/>
<rect x="7" y="3" width="2" height="1" fill="#2B2B2B"/>
<rect x="3" y="11" width="10" height="1" fill="#2B2B2B"/>
<rect x="3" y="4" width="10" height="1" fill="#2B2B2B"/>
<rect x="5" y="2" width="1" height="2" fill="#2B2B2B"/>
<rect x="10" y="2" width="1" height="2" fill="#2B2B2B"/>
</svg>
