<svg width="16" height="16" viewBox="0 0 16 16" fill="none" xmlns="http://www.w3.org/2000/svg">
<path fill-rule="evenodd" clip-rule="evenodd" d="M12 2H4V14H12V2ZM3 1V15H13V1H3Z" fill="#2B2B2B"/>
<path fill-rule="evenodd" clip-rule="evenodd" d="M13 13H13.5C13.7761 13 14 13.2239 14 13.5C14 13.7761 13.7761 14 13.5 14H2.5C2.22386 14 2 13.7761 2 13.5C2 13.2239 2.22386 13 2.5 13H3V12H2.5C1.67157 12 1 12.6716 1 13.5C1 14.3284 1.67157 15 2.5 15H13.5C14.3284 15 15 14.3284 15 13.5C15 12.6716 14.3284 12 13.5 12H13V13Z" fill="#2B2B2B"/>
<path d="M7.94727 7.31445L9.35352 5H10.6191L8.54492 8.13477L10.6836 11.3398H9.42969L7.96484 8.9668L6.5 11.3398H5.24023L7.37891 8.13477L5.30469 5H6.55859L7.94727 7.31445Z" fill="#2B2B2B"/>
</svg>
