<svg width="16" height="16" viewBox="0 0 16 16" fill="none" xmlns="http://www.w3.org/2000/svg">
<path d="M1 2C1 1.44772 1.44772 1 2 1H12C12.5523 1 13 1.44772 13 2V8C13 8.55228 12.5523 9 12 9H2C1.44772 9 1 8.55228 1 8V2Z" fill="#F2D185"/>
<path d="M1 2C1 1.44772 1.44772 1 2 1H12C12.5523 1 13 1.44772 13 2V8C13 8.55228 12.5523 9 12 9H2C1.44772 9 1 8.55228 1 8V2Z" fill="url(#paint0_linear_19_484)"/>
<path fill-rule="evenodd" clip-rule="evenodd" d="M2 0H12C13.1046 0 14 0.895431 14 2V8C14 9.10457 13.1046 10 12 10H2C0.89543 10 0 9.10457 0 8V2C0 0.89543 0.895431 0 2 0ZM2 1C1.44772 1 1 1.44772 1 2V8C1 8.55228 1.44772 9 2 9H12C12.5523 9 13 8.55228 13 8V2C13 1.44772 12.5523 1 12 1H2Z" fill="#BC822A"/>
<path fill-rule="evenodd" clip-rule="evenodd" d="M7.00044 6.00003L1.00044 1.00003L1.64062 0.231812L7.64062 5.23181L7.00044 6.00003Z" fill="#BC822A"/>
<path fill-rule="evenodd" clip-rule="evenodd" d="M5.9997 4.99998L0.999695 8.99999L0.375 8.21912L5.375 4.21912L5.9997 4.99998Z" fill="#BC822A"/>
<path fill-rule="evenodd" clip-rule="evenodd" d="M6.99956 6.00003L12.9996 1.00003L12.3594 0.231812L6.35938 5.23181L6.99956 6.00003Z" fill="#BC822A"/>
<path fill-rule="evenodd" clip-rule="evenodd" d="M8.00008 4.00005L13.0001 9.00005L12.293 9.70715L7.29297 4.70715L8.00008 4.00005Z" fill="#BC822A"/>
<path opacity="0.5" d="M11 7L14 6V9C14 9.55228 13.5523 10 13 10H8L11 7Z" fill="white"/>
<path d="M15.0807 11.9769L12.921 14.1999C12.5005 14.633 11.93 14.8764 11.335 14.8766C10.7401 14.8768 10.1694 14.6338 9.7486 14.2011C9.32776 13.7683 9.09123 13.1813 9.09102 12.5691C9.09082 11.9569 9.32696 11.3697 9.74751 10.9366L12.0974 8.5201C12.3477 8.27492 12.68 8.13817 13.0256 8.13817C13.3712 8.13817 13.7035 8.27492 13.9538 8.5201C14.0758 8.64548 14.1726 8.79438 14.2386 8.95827C14.3046 9.12216 14.3386 9.29783 14.3386 9.47524C14.3386 9.65266 14.3046 9.82833 14.2386 9.99222C14.1726 10.1561 14.0758 10.305 13.9538 10.4304L11.7942 12.6519C11.7223 12.7257 11.6249 12.7671 11.5234 12.7671C11.4219 12.7671 11.3245 12.7257 11.2526 12.6519C11.1813 12.5778 11.1413 12.4776 11.1413 12.3733C11.1413 12.2689 11.1813 12.1688 11.2526 12.0947L12.8481 10.4499C12.9018 10.3984 12.9449 10.3363 12.9748 10.2673C13.0047 10.1983 13.0207 10.1238 13.022 10.0483C13.0233 9.97274 13.0098 9.89772 12.9823 9.82768C12.9548 9.75763 12.9139 9.69401 12.862 9.64059C12.8101 9.58718 12.7483 9.54507 12.6802 9.51678C12.6121 9.48849 12.5392 9.47459 12.4658 9.47593C12.3924 9.47726 12.32 9.49379 12.253 9.52453C12.1859 9.55528 12.1256 9.59961 12.0755 9.65487L10.4764 11.2996C10.1993 11.585 10.0437 11.9719 10.0438 12.3753C10.0439 12.7787 10.1998 13.1655 10.4771 13.4507C10.7544 13.7358 11.1304 13.8959 11.5225 13.8958C11.9145 13.8957 12.2904 13.7353 12.5675 13.4499L14.7264 11.2261C15.1776 10.7619 15.4311 10.1322 15.4311 9.47562C15.4311 8.81904 15.1776 8.18936 14.7264 7.72509C14.2753 7.26082 13.6633 7 13.0253 7C12.3872 7 11.7752 7.26082 11.3241 7.72509L8.97709 10.1409C8.35154 10.7845 8.00007 11.6574 8 12.5677C7.99993 13.4779 8.35127 14.3509 8.97672 14.9946C9.60217 15.6383 10.4505 15.9999 11.3351 16C12.2197 16.0001 13.0681 15.6385 13.6936 14.995L15.8533 12.7749C15.9498 12.6683 16.0024 12.5272 15.9999 12.3815C15.9974 12.2358 15.94 12.0968 15.8399 11.9937C15.7397 11.8906 15.6046 11.8316 15.463 11.829C15.3214 11.8265 15.1843 11.8805 15.0807 11.9799V11.9769Z" fill="#5F5F5F"/>
<defs>
<linearGradient id="paint0_linear_19_484" x1="7" y1="1" x2="7" y2="9" gradientUnits="userSpaceOnUse">
<stop stop-color="#FFF1C2"/>
<stop offset="1" stop-color="#E8B652"/>
</linearGradient>
</defs>
</svg>
