<svg width="16" height="16" viewBox="0 0 16 16" fill="none" xmlns="http://www.w3.org/2000/svg">
<g opacity="0.4">
<path d="M1 3.625V5.725H2.75V3.625C2.75 3.135 3.135 2.75 3.625 2.75H5.725V1H3.625C2.1725 1 1 2.1725 1 3.625Z" fill="#404040"/>
<path d="M12.375 2.75H10.275V1H12.375C13.8275 1 15 2.1725 15 3.625V5.725H13.25V3.625C13.25 3.135 12.865 2.75 12.375 2.75Z" fill="#404040"/>
<path d="M3.625 13.25H5.725V15H3.625C2.1725 15 1 13.8275 1 12.375V10.275H2.75V12.375C2.75 12.865 3.135 13.25 3.625 13.25Z" fill="#404040"/>
<path d="M6.9675 12.1475L12.725 6.39L11.4825 5.1475L6.9675 9.6625L4.465 7.16L3.2225 8.4025L6.9675 12.1475Z" fill="#404040"/>
</g>
<circle cx="13" cy="13" r="3" fill="#FF3E33"/>
</svg>
