<svg width="16" height="16" viewBox="0 0 16 16" fill="none" xmlns="http://www.w3.org/2000/svg">
<path d="M13.8244 14.0252C14.1513 14.1477 14.5 13.9061 14.5 13.557V3C14.5 2.17157 13.8284 1.5 13 1.5H3C2.17157 1.5 1.5 2.17157 1.5 3V13.557C1.5 13.9061 1.84869 14.1477 2.17556 14.0252L7.12219 12.1702C7.68815 11.9579 8.31185 11.9579 8.87781 12.1702L13.8244 14.0252Z" stroke="#2B2B2B"/>
<path d="M10 7C10 5.89543 9.10457 5 8 5C6.89543 5 6 5.89543 6 7C6 8.10457 6.89543 9 8 9C9.10457 9 10 8.10457 10 7Z" fill="#00A358"/>
</svg>
