<svg width="24" height="24" viewBox="0 0 24 24" fill="none" xmlns="http://www.w3.org/2000/svg">
<path d="M15.6016 16.6484V18H8.03128C8.02086 17.6615 8.07555 17.3359 8.19534 17.0234C8.38805 16.5078 8.69534 16 9.11722 15.5C9.5443 15 10.1589 14.4219 10.961 13.7656C12.2058 12.7448 13.0469 11.9375 13.4844 11.3438C13.9219 10.7448 14.1407 10.1797 14.1407 9.64844C14.1407 9.09115 13.9401 8.6224 13.5391 8.24219C13.1433 7.85677 12.625 7.66406 11.9844 7.66406C11.3073 7.66406 10.7657 7.86719 10.3594 8.27344C9.95315 8.67969 9.74743 9.24219 9.74222 9.96094L8.2969 9.8125C8.39586 8.73438 8.76826 7.91406 9.41409 7.35156C10.0599 6.78385 10.9271 6.5 12.0157 6.5C13.1146 6.5 13.9844 6.80469 14.625 7.41406C15.2657 8.02344 15.586 8.77865 15.586 9.67969C15.586 10.138 15.4922 10.5885 15.3047 11.0312C15.1172 11.474 14.8047 11.9401 14.3672 12.4297C13.9349 12.9193 13.2136 13.5911 12.2032 14.4453C11.3594 15.1536 10.8177 15.6354 10.5782 15.8906C10.3386 16.1406 10.1407 16.3932 9.9844 16.6484H15.6016Z" fill="#B2B2B2"/>
</svg>
