<svg width="60" height="60" viewBox="0 0 60 60" fill="none" xmlns="http://www.w3.org/2000/svg">
<g clip-path="url(#clip0_690_18879)">
<path d="M0 8C0 3.58172 3.58172 0 8 0H52C56.4183 0 60 3.58172 60 8V52C60 56.4183 56.4183 60 52 60H8C3.58172 60 0 56.4183 0 52V8Z" fill="#4B24CD"/>
<path fill-rule="evenodd" clip-rule="evenodd" d="M29.5491 23.6667C31.39 23.6667 32.8824 22.1743 32.8824 20.3333C32.8824 18.4924 31.39 17 29.5491 17C27.7081 17 26.2157 18.4924 26.2157 20.3333C26.2157 22.1743 27.7081 23.6667 29.5491 23.6667ZM32.0491 28.7746C32.0491 28.4833 32.2393 28.2283 32.5115 28.1247C35.6513 26.9302 37.8824 23.8923 37.8824 20.3333C37.8824 15.731 34.1514 12 29.5491 12C24.9467 12 21.2157 15.731 21.2157 20.3333C21.2157 23.8923 23.4468 26.9302 26.5866 28.1247C26.8588 28.2283 27.0491 28.4833 27.0491 28.7746L27.0491 31.9896C27.0491 32.3578 26.7506 32.6562 26.3824 32.6562L14.6792 32.6562C12.8497 32.6562 11.5592 34.4504 12.1411 36.1848L14.2048 42.3359C15.2085 45.3277 18.0114 47.3438 21.1671 47.3438H37.931C41.0867 47.3438 43.8896 45.3277 44.8934 42.3359L46.957 36.1848C47.5389 34.4504 46.2484 32.6563 44.419 32.6563L32.7157 32.6562C32.3475 32.6562 32.0491 32.3578 32.0491 31.9896V28.7746ZM17.9376 37.3437C17.7098 37.3437 17.5491 37.5671 17.6216 37.7831L18.6488 40.8449C19.0119 41.927 20.0257 42.6562 21.1671 42.6562H37.931C39.0724 42.6562 40.0863 41.927 40.4493 40.8449L41.4765 37.7831C41.549 37.5671 41.3883 37.3438 41.1605 37.3438L17.9376 37.3437Z" fill="white"/>
</g>
<defs>
<clipPath id="clip0_690_18879">
<rect width="60" height="60" fill="white"/>
</clipPath>
</defs>
</svg>
