<svg width="112" height="16" viewBox="0 0 112 16" fill="none" xmlns="http://www.w3.org/2000/svg">
<path d="M6.5 9.05811C6.5005 9.47838 6.3686 9.88814 6.1231 10.2292C5.8775 10.5703 5.5307 10.8253 5.132 10.9581L2.868 12.0441C2.4696 12.1768 2.1231 12.4315 1.8775 12.7722C1.632 13.1129 1.4999 13.5222 1.5 13.9421V14.5001H14.5V13.9421C14.5005 13.5218 14.3686 13.1121 14.1231 12.771C13.8775 12.4299 13.5307 12.1749 13.132 12.0421L10.867 10.9541C10.4691 10.8213 10.123 10.5668 9.8777 10.2266C9.6324 9.88634 9.5002 9.47757 9.5 9.05811" stroke="#333333" stroke-linecap="round" stroke-linejoin="round"/>
<path d="M4.5 5C4.5 4.07174 4.8687 3.1815 5.5251 2.52513C6.1815 1.86875 7.0717 1.5 8 1.5C8.9283 1.5 9.8185 1.86875 10.4749 2.52513C11.1313 3.1815 11.5 4.07174 11.5 5C11.5 6.933 9.933 9.5 8 9.5C6.067 9.5 4.5 6.933 4.5 5Z" stroke="#333333" stroke-linecap="round" stroke-linejoin="round"/>
<path d="M9 12C9 11.4477 8.55228 11 8 11C7.44772 11 7 11.4477 7 12V15C7 15.5523 7.44772 16 8 16C8.55228 16 9 15.5523 9 15V12Z" fill="#FF0F0F"/>
<path d="M25.1782 9.52891L24.1192 10.8539C22.4784 9.88911 21.1109 8.52167 20.1462 6.88091L21.4712 5.82191C21.6264 5.69763 21.7361 5.52543 21.7831 5.33221C21.8302 5.139 21.8119 4.93564 21.7312 4.75391L20.5242 2.03591C20.4376 1.84094 20.2847 1.68303 20.0925 1.59036C19.9004 1.49768 19.6816 1.47626 19.4752 1.52991L17.1752 2.12991C16.9601 2.18488 16.7729 2.31738 16.6496 2.50197C16.5263 2.68655 16.4756 2.91019 16.5072 3.12991C16.9111 6.00112 18.2388 8.66278 20.2896 10.7125C22.3404 12.7622 25.0027 14.0885 27.8742 14.4909C28.0939 14.5225 28.3175 14.4717 28.5021 14.3484C28.6867 14.2251 28.8192 14.038 28.8742 13.8229L29.4742 11.5229C29.5275 11.3166 29.506 11.098 29.4133 10.9061C29.3207 10.7142 29.1629 10.5614 28.9682 10.4749L26.2462 9.26991C26.0645 9.18911 25.8613 9.17061 25.668 9.21751C25.4748 9.26431 25.3026 9.37381 25.1782 9.52891Z" stroke="#333333" stroke-linecap="round" stroke-linejoin="round"/>
<path fill-rule="evenodd" clip-rule="evenodd" d="M29.1464 1.14645C29.3417 0.951183 29.6583 0.951183 29.8536 1.14645L31.8536 3.14645C32.0488 3.34171 32.0488 3.65829 31.8536 3.85355C31.6583 4.04882 31.3417 4.04882 31.1464 3.85355L30 2.70711V6.5C30 6.77614 29.7761 7 29.5 7C29.2239 7 29 6.77614 29 6.5V2.70711L27.8536 3.85355C27.6583 4.04882 27.3417 4.04882 27.1464 3.85355C26.9512 3.65829 26.9512 3.34171 27.1464 3.14645L29.1464 1.14645Z" fill="#009646"/>
<path d="M43.5 1.5H44.5C44.765 1.5 45.02 1.60536 45.207 1.79289C45.395 1.98043 45.5 2.23478 45.5 2.5V13.5C45.5 13.7652 45.395 14.0196 45.207 14.2071C45.02 14.3946 44.765 14.5 44.5 14.5H35.5C35.235 14.5 34.98 14.3946 34.793 14.2071C34.605 14.0196 34.5 13.7652 34.5 13.5V2.5C34.5 2.23478 34.605 1.98043 34.793 1.79289C34.98 1.60536 35.235 1.5 35.5 1.5H36.5" stroke="#333333" stroke-linecap="round" stroke-linejoin="round"/>
<path d="M42.5 0.5H37.5V2.5H42.5V0.5Z" stroke="#333333" stroke-linecap="round" stroke-linejoin="round"/>
<path fill-rule="evenodd" clip-rule="evenodd" d="M44 6.5C44 6.77614 43.776 7 43.5 7H36.5C36.224 7 36 6.77614 36 6.5C36 6.22386 36.224 6 36.5 6H43.5C43.776 6 44 6.22386 44 6.5Z" fill="#333333"/>
<path fill-rule="evenodd" clip-rule="evenodd" d="M42 8.5C42 8.77614 41.776 9 41.5 9H36.5C36.224 9 36 8.77614 36 8.5C36 8.22386 36.224 8 36.5 8H41.5C41.776 8 42 8.22386 42 8.5Z" fill="#333333"/>
<path fill-rule="evenodd" clip-rule="evenodd" d="M40 10.5C40 10.7761 39.776 11 39.5 11H36.5C36.224 11 36 10.7761 36 10.5C36 10.2239 36.224 10 36.5 10H39.5C39.776 10 40 10.2239 40 10.5Z" fill="#333333"/>
<path d="M107.5 1.5H108.5C108.765 1.5 109.02 1.60536 109.207 1.79289C109.395 1.98043 109.5 2.23478 109.5 2.5V13.5C109.5 13.7652 109.395 14.0196 109.207 14.2071C109.02 14.3946 108.765 14.5 108.5 14.5H99.5C99.235 14.5 98.98 14.3946 98.793 14.2071C98.605 14.0196 98.5 13.7652 98.5 13.5V2.5C98.5 2.23478 98.605 1.98043 98.793 1.79289C98.98 1.60536 99.235 1.5 99.5 1.5H100.5" stroke="#333333" stroke-linecap="round" stroke-linejoin="round"/>
<path d="M106.5 0.5H101.5V2.5H106.5V0.5Z" stroke="#333333" stroke-linecap="round" stroke-linejoin="round"/>
<path d="M100.5 8.5L102.833 11.5L107.5 5.5" stroke="#333333" stroke-linecap="round" stroke-linejoin="round"/>
<path d="M66.5 10.5H68.5L72.5 6.5V10.5L77.5 6.5V13.5C77.5 13.7652 77.3946 14.0196 77.2071 14.2071C77.0196 14.3946 76.7652 14.5 76.5 14.5H67.5C67.2348 14.5 66.9804 14.3946 66.7929 14.2071C66.6054 14.0196 66.5 13.7652 66.5 13.5V10.5Z" stroke="#333333" stroke-linecap="round" stroke-linejoin="round"/>
<path d="M66.5 8.5V1.5H68.5V6.5L66.5 8.5Z" stroke="#333333" stroke-linecap="round" stroke-linejoin="round"/>
<path d="M70.5 5.5V1.5H72.5V3.5L70.5 5.5Z" stroke="#333333" stroke-linecap="round" stroke-linejoin="round"/>
<path d="M56 8V12" stroke="#333333" stroke-linecap="round" stroke-linejoin="round"/>
<path d="M54 10H58" stroke="#333333" stroke-linecap="round" stroke-linejoin="round"/>
<path d="M49.5 5.5H62.5" stroke="#333333" stroke-linecap="round" stroke-linejoin="round"/>
<path d="M61 2.5H51C50.6022 2.5 50.2206 2.65804 49.9393 2.93934C49.658 3.22064 49.5 3.60218 49.5 4V13C49.5 13.3978 49.658 13.7794 49.9393 14.0607C50.2206 14.342 50.6022 14.5 51 14.5H61C61.3978 14.5 61.7794 14.342 62.0607 14.0607C62.342 13.7794 62.5 13.3978 62.5 13V4C62.5 3.60218 62.342 3.22064 62.0607 2.93934C61.7794 2.65804 61.3978 2.5 61 2.5Z" stroke="#333333" stroke-linecap="round" stroke-linejoin="round"/>
<path d="M52.5 0.5V2.5" stroke="#333333" stroke-linecap="round" stroke-linejoin="round"/>
<path d="M59.5 0.5V2.5" stroke="#333333" stroke-linecap="round" stroke-linejoin="round"/>
<path fill-rule="evenodd" clip-rule="evenodd" d="M92.5549 7.03315C92.9298 7.40804 93.6038 7.41954 94.062 6.96138L94.6361 6.38724C95.0942 5.92908 95.0827 5.25503 94.7078 4.88014C94.333 4.50524 93.6589 4.49375 93.2008 4.95191L92.6266 5.52604C92.1685 5.9842 92.18 6.65825 92.5549 7.03315ZM94.7796 7.67905C93.9694 8.48923 92.6514 8.56499 91.8372 7.75082C91.0231 6.93664 91.0988 5.61856 91.909 4.80837L92.4831 4.23424C93.2933 3.42405 94.6113 3.34829 95.4255 4.16247C96.2397 4.97665 96.1639 6.29473 95.3537 7.10491L94.7796 7.67905Z" fill="#333333"/>
<path fill-rule="evenodd" clip-rule="evenodd" d="M88.9665 3.44518C89.3414 3.82008 90.0154 3.83158 90.4736 3.37342L91.0477 2.79928C91.5058 2.34112 91.4943 1.66707 91.1194 1.29218C90.7446 0.917282 90.0705 0.905783 89.6124 1.36394L89.0382 1.93808C88.5801 2.39624 88.5916 3.07029 88.9665 3.44518ZM91.1912 4.09109C90.381 4.90127 89.063 4.97703 88.2488 4.16285C87.4347 3.34867 87.5104 2.03059 88.3206 1.22041L88.8947 0.646274C89.7049 -0.16391 91.0229 -0.239672 91.8371 0.574507C92.6513 1.38869 92.5755 2.70677 91.7653 3.51695L91.1912 4.09109Z" fill="#333333"/>
<path fill-rule="evenodd" clip-rule="evenodd" d="M83.1264 15.9331C82.883 15.794 82.7985 15.484 82.9376 15.2407L90.6788 3.1933C90.8179 2.94996 91.1278 2.86542 91.3712 3.00447C91.6145 3.14352 91.6991 3.45351 91.56 3.69685L83.8188 15.7442C83.6797 15.9876 83.3697 16.0721 83.1264 15.9331Z" fill="#333333"/>
<path fill-rule="evenodd" clip-rule="evenodd" d="M80.0669 12.8736C79.9279 12.6302 80.0124 12.3202 80.2558 12.1812L92.303 4.43988C92.5464 4.30083 92.8564 4.38538 92.9954 4.62872C93.1345 4.87206 93.0499 5.18205 92.8066 5.3211L80.7593 13.0624C80.516 13.2014 80.206 13.1169 80.0669 12.8736Z" fill="#333333"/>
<path d="M83.2951 0C85.1149 0 86.5903 1.4795 86.5903 3.30433C86.5903 3.67197 86.5301 4.02621 86.4193 4.35745L87.7202 5.6724C87.5576 6.02213 87.3961 6.3011 87.2376 6.52347L85.5167 4.78344C85.3435 4.60689 85.3371 4.32842 85.4957 4.14428C85.5945 3.88342 85.6488 3.60058 85.6488 3.30433C85.6488 2.0009 84.5949 0.944094 83.2951 0.944094C83.2071 0.944094 83.1201 0.949252 83.0345 0.959229L83.9811 1.90843C84.1649 2.09278 84.1649 2.39166 83.9811 2.57601L82.5688 3.99215C82.4806 4.08067 82.3608 4.13041 82.236 4.13041C82.1111 4.13041 81.9914 4.08067 81.9031 3.99215L80.9566 3.04294C80.9466 3.12883 80.9415 3.21601 80.9415 3.30433C80.9415 4.60775 81.9953 5.66456 83.2951 5.66456C83.4187 5.66456 83.5856 5.63079 83.7826 5.56805C83.9746 5.50689 84.1652 5.42825 84.3336 5.35705C84.51 5.28244 84.7139 5.32243 84.8493 5.45821L86.567 7.18061C86.1931 7.40395 85.8581 7.39 85.5947 7.37903C85.5358 7.37658 85.4805 7.37428 85.4292 7.37481L84.4048 6.34755C84.2987 6.38888 84.1846 6.43058 84.0676 6.46783C83.836 6.54163 83.5614 6.60865 83.2951 6.60865C81.4754 6.60865 80 5.12916 80 3.30433C80 2.81689 80.1105 2.35919 80.2962 1.94828C80.3599 1.80716 80.4887 1.70641 80.6407 1.67867C80.7927 1.65094 80.9485 1.69976 81.0578 1.8093L82.236 2.99079L82.9825 2.24222L81.8043 1.06074C81.695 0.951194 81.6463 0.794868 81.674 0.642448C81.7017 0.490029 81.8021 0.36092 81.9429 0.296983C82.3526 0.1108 82.8091 0 83.2951 0Z" fill="#333333"/>
<path d="M88.5841 10.5384L92.6261 14.5916C93.1692 15.1361 94.0496 15.1361 94.5927 14.5916C95.1326 14.0502 95.1362 13.1736 94.6009 12.6278L90.5469 8.52982C90.486 8.58011 90.4205 8.63316 90.3513 8.68917C90.1896 8.82003 90.0079 8.96708 89.8186 9.13306L93.9296 13.2897C94.1025 13.466 94.1013 13.7492 93.927 13.924C93.7516 14.0999 93.4672 14.0999 93.2918 13.924L89.1585 9.77923C88.9548 10.0061 88.7584 10.2581 88.5841 10.5384Z" fill="#333333"/>
</svg>
