<svg width="16" height="16" viewBox="0 0 16 16" fill="none" xmlns="http://www.w3.org/2000/svg">
<path d="M11.5 1.5H12.5C12.765 1.5 13.02 1.60536 13.207 1.79289C13.395 1.98043 13.5 2.23478 13.5 2.5V13.5C13.5 13.7652 13.395 14.0196 13.207 14.2071C13.02 14.3946 12.765 14.5 12.5 14.5H3.5C3.235 14.5 2.98 14.3946 2.793 14.2071C2.605 14.0196 2.5 13.7652 2.5 13.5V2.5C2.5 2.23478 2.605 1.98043 2.793 1.79289C2.98 1.60536 3.235 1.5 3.5 1.5H4.5" stroke="#333333" stroke-linecap="round" stroke-linejoin="round"/>
<path d="M10.5 0.5H5.5V2.5H10.5V0.5Z" stroke="#333333" stroke-linecap="round" stroke-linejoin="round"/>
<path fill-rule="evenodd" clip-rule="evenodd" d="M12 6.5C12 6.77614 11.776 7 11.5 7H4.5C4.224 7 4 6.77614 4 6.5C4 6.22386 4.224 6 4.5 6H11.5C11.776 6 12 6.22386 12 6.5Z" fill="#333333"/>
<path fill-rule="evenodd" clip-rule="evenodd" d="M10 8.5C10 8.77614 9.776 9 9.5 9H4.5C4.224 9 4 8.77614 4 8.5C4 8.22386 4.224 8 4.5 8H9.5C9.776 8 10 8.22386 10 8.5Z" fill="#333333"/>
<path fill-rule="evenodd" clip-rule="evenodd" d="M8 10.5C8 10.7761 7.776 11 7.5 11H4.5C4.224 11 4 10.7761 4 10.5C4 10.2239 4.224 10 4.5 10H7.5C7.776 10 8 10.2239 8 10.5Z" fill="#333333"/>
</svg>
