<svg width="16" height="16" viewBox="0 0 16 16" fill="none" xmlns="http://www.w3.org/2000/svg">
<g clip-path="url(#clip0_5_266)">
<path d="M7 14.5C7 15.3284 6.32843 16 5.5 16C4.67157 16 4 15.3284 4 14.5C4 13.6716 4.67157 13 5.5 13C6.32843 13 7 13.6716 7 14.5Z" fill="#4D4D4D"/>
<path d="M14 14.5C14 15.3284 13.3284 16 12.5 16C11.6716 16 11 15.3284 11 14.5C11 13.6716 11.6716 13 12.5 13C13.3284 13 14 13.6716 14 14.5Z" fill="#4D4D4D"/>
<path fill-rule="evenodd" clip-rule="evenodd" d="M4 10.5C4 10.2239 4.22386 10 4.5 10H13.5C13.7761 10 14 10.2239 14 10.5V11.5C14 11.7761 13.7761 12 13.5 12H4.5C4.22386 12 4 11.7761 4 11.5V10.5Z" fill="#4D4D4D"/>
<path d="M3.27043 4.21693C3.13165 3.59242 3.60687 3 4.24662 3H14.5382C15.2415 3 15.7251 3.70691 15.4702 4.36245L13.9146 8.36245C13.7651 8.74682 13.395 9 12.9826 9H5.1355C4.66681 9 4.26099 8.67447 4.15932 8.21693L3.27043 4.21693Z" fill="#4D4D4D"/>
<path fill-rule="evenodd" clip-rule="evenodd" d="M4.5 6C4.77614 6 5 6.22386 5 6.5V11.5C5 11.7761 4.77614 12 4.5 12C4.22386 12 4 11.7761 4 11.5V6.5C4 6.22386 4.22386 6 4.5 6Z" fill="#4D4D4D"/>
<path fill-rule="evenodd" clip-rule="evenodd" d="M0 0.5C0 0.223858 0.223858 0 0.5 0H3C3.23834 0 3.44355 0.16823 3.49029 0.401942L4.99029 7.90194C5.04445 8.17272 4.86884 8.43613 4.59806 8.49029C4.32728 8.54445 4.06387 8.36884 4.00971 8.09806L2.5901 1H0.5C0.223858 1 0 0.776142 0 0.5Z" fill="#4D4D4D"/>
</g>
<defs>
<clipPath id="clip0_5_266">
<rect width="16" height="16" fill="white"/>
</clipPath>
</defs>
</svg>
