<svg width="40" height="35" viewBox="0 0 40 35" fill="none" xmlns="http://www.w3.org/2000/svg">
<rect x="1" y="1" width="33" height="33" rx="5" stroke="#2B2B2B" stroke-width="2"/>
<path fill-rule="evenodd" clip-rule="evenodd" d="M8 11H10V11.0294L17 20.6172V11H19V24H17V23.9684L10 14.3806V24H8V11ZM23 17C23 17.5523 23.4477 18 24 18C24.5523 18 25 17.5523 25 17C25 16.4477 24.5523 16 24 16C23.4477 16 23 16.4477 23 17ZM24 14C22.3431 14 21 15.3431 21 17C21 18.6569 22.3431 20 24 20C25.6569 20 27 18.6569 27 17C27 15.3431 25.6569 14 24 14ZM27 24V22H21V24H27Z" fill="#00A358"/>
</svg>
