<svg width="16" height="16" viewBox="0 0 16 16" fill="none" xmlns="http://www.w3.org/2000/svg">
<path d="M4.81262 7.27976L7.52757 9.70194L13.9154 3" stroke="#06A55C"/>
<path fill-rule="evenodd" clip-rule="evenodd" d="M5.3292 3.55104C6.13957 3.66566 6.95748 3.3999 7.54571 2.83085C7.79901 2.5858 8.20101 2.5858 8.45432 2.83085C9.04254 3.3999 9.86046 3.66566 10.6708 3.55104C10.703 3.54648 10.735 3.54436 10.7667 3.54453L11.5342 2.73574C11.2366 2.57837 10.8886 2.51027 10.5308 2.56089C10.0258 2.63231 9.51615 2.46671 9.14961 2.11213C8.50864 1.49204 7.49139 1.49204 6.85041 2.11213C6.48387 2.46671 5.97421 2.63231 5.46925 2.56089C4.58622 2.43599 3.76324 3.03391 3.60916 3.91233C3.52105 4.41464 3.20606 4.84819 2.75556 5.08721C1.96775 5.5052 1.6534 6.47266 2.04506 7.27388C2.26903 7.73205 2.26903 8.26795 2.04506 8.72612C1.6534 9.52734 1.96775 10.4948 2.75556 10.9128C3.20606 11.1518 3.52105 11.5854 3.60916 12.0877C3.76324 12.9661 4.58622 13.564 5.46925 13.4391C5.97421 13.3677 6.48387 13.5333 6.85041 13.8879C7.49139 14.508 8.50864 14.508 9.14961 13.8879C9.51615 13.5333 10.0258 13.3677 10.5308 13.4391C11.4138 13.564 12.2368 12.9661 12.3909 12.0877C12.479 11.5854 12.794 11.1518 13.2445 10.9128C14.0323 10.4948 14.3466 9.52734 13.955 8.72612C13.731 8.26795 13.731 7.73205 13.955 7.27388C14.1866 6.80003 14.1713 6.26803 13.9571 5.82594L13.0962 6.73313C13.086 6.7675 13.0728 6.80147 13.0566 6.83471C12.6971 7.57 12.6971 8.43 13.0566 9.16529C13.2113 9.48192 13.0871 9.86424 12.7758 10.0294C12.0528 10.413 11.5473 11.1088 11.4059 11.9149C11.345 12.262 11.0198 12.4983 10.6708 12.449C9.86046 12.3343 9.04254 12.6001 8.45432 13.1692C8.20101 13.4142 7.79901 13.4142 7.54571 13.1692C6.95748 12.6001 6.13957 12.3343 5.3292 12.449C4.98024 12.4983 4.65501 12.262 4.59412 11.9149C4.45271 11.1088 3.94722 10.413 3.22425 10.0294C2.91292 9.86424 2.78869 9.48192 2.94347 9.16529C3.3029 8.43 3.3029 7.57 2.94347 6.83471C2.78869 6.51808 2.91292 6.13576 3.22425 5.97057C3.94722 5.58698 4.45271 4.89123 4.59412 4.0851C4.65501 3.73797 4.98024 3.50168 5.3292 3.55104Z" fill="#2B2B2B"/>
</svg>
