<svg width="54" height="54" viewBox="0 0 54 54" fill="none" xmlns="http://www.w3.org/2000/svg">
<rect width="54" height="54" rx="27" fill="#FFF9BF"/>
<path d="M13 18.2308V32.3077C13 33.1645 13.3386 33.9864 13.9414 34.5923C14.5442 35.1982 15.3618 35.5385 16.2143 35.5385H23.7857L27 42L30.2143 35.5385H37.7857C38.6381 35.5385 39.4559 35.1982 40.0586 34.5923C40.6614 33.9864 41 33.1645 41 32.3077V18.2308C41 17.3739 40.6614 16.5521 40.0586 15.9463C39.4559 15.3404 38.6381 15 37.7857 15H16.2143C15.3618 15 14.5442 15.3404 13.9414 15.9463C13.3386 16.5521 13 17.3739 13 18.2308Z" stroke="#444444" stroke-width="2" stroke-linecap="round" stroke-linejoin="round"/>
<path d="M35 35C34.6303 30.5153 31.1921 27 27 27C22.8079 27 19.3697 30.5153 19 35" stroke="#444444" stroke-width="2" stroke-linecap="round" stroke-linejoin="round"/>
<path d="M27 27C29.2091 27 31 25.2091 31 23C31 20.7909 29.2091 19 27 19C24.7909 19 23 20.7909 23 23C23 25.2091 24.7909 27 27 27Z" stroke="#444444" stroke-width="2" stroke-linecap="round" stroke-linejoin="round"/>
</svg>
