<svg width="60" height="60" viewBox="0 0 60 60" fill="none" xmlns="http://www.w3.org/2000/svg">
<g clip-path="url(#clip0_690_18888)">
<path d="M0 8C0 3.58172 3.58172 0 8 0H52C56.4183 0 60 3.58172 60 8V52C60 56.4183 56.4183 60 52 60H8C3.58172 60 0 56.4183 0 52V8Z" fill="#02C2B6"/>
<path fill-rule="evenodd" clip-rule="evenodd" d="M40.6667 17C41.5871 17 42.3333 17.7462 42.3333 18.6667V40.6667C42.3333 41.5871 41.5871 42.3333 40.6667 42.3333H18.6667C17.7462 42.3333 17 41.5871 17 40.6667L17 18.6667C17 17.7462 17.7462 17 18.6667 17H40.6667ZM12 17C12 14.2386 14.2386 12 17 12H42.3333C45.0948 12 47.3333 14.2386 47.3333 17V42.3333C47.3333 45.0948 45.0948 47.3333 42.3333 47.3333H17C14.2386 47.3333 12 45.0948 12 42.3333V17ZM24.6667 21.8334C23.2859 21.8334 22.1667 22.9527 22.1667 24.3334C22.1667 25.7141 23.2859 26.8334 24.6667 26.8334L34.6667 26.8334C36.0474 26.8334 37.1667 25.7141 37.1667 24.3334C37.1667 22.9527 36.0474 21.8334 34.6667 21.8334L24.6667 21.8334Z" fill="white"/>
</g>
<defs>
<clipPath id="clip0_690_18888">
<rect width="60" height="60" fill="white"/>
</clipPath>
</defs>
</svg>
