<svg width="67" height="56" viewBox="0 0 67 56" fill="none" xmlns="http://www.w3.org/2000/svg">
<rect x="0.5" y="21" width="14" height="14" rx="1.5" fill="white"/>
<rect x="0.5" y="21" width="14" height="14" rx="1.5" stroke="#A0A0A0"/>
<path fill-rule="evenodd" clip-rule="evenodd" d="M15.6196 19.7152C16.0531 20.0574 16.1271 20.6862 15.7849 21.1197L8.28488 30.6197C8.10793 30.8438 7.8436 30.9816 7.55852 30.9983C7.27344 31.015 6.99482 30.9091 6.79289 30.7071L3.29289 27.2071C2.90237 26.8166 2.90237 26.1835 3.29289 25.7929C3.68342 25.4024 4.31658 25.4024 4.70711 25.7929L7.41193 28.4978L14.2151 19.8804C14.5573 19.4469 15.1862 19.3729 15.6196 19.7152Z" fill="#009646"/>
<path fill-rule="evenodd" clip-rule="evenodd" d="M37.3333 14C34.9401 14 33 15.9401 33 18.3333V21.6667C33 24.0599 34.9401 26 37.3333 26H40.6667C43.0599 26 45 24.0599 45 21.6667V18.3333C45 15.9401 43.0599 14 40.6667 14H37.3333ZM35 18.3333C35 17.0447 36.0447 16 37.3333 16H40.6667C41.9553 16 43 17.0447 43 18.3333V21.6667C43 22.9553 41.9553 24 40.6667 24H37.3333C36.0447 24 35 22.9553 35 21.6667V18.3333Z" fill="#444444"/>
<path fill-rule="evenodd" clip-rule="evenodd" d="M37.3333 30C34.9401 30 33 31.9401 33 34.3333V37.6667C33 40.0599 34.9401 42 37.3333 42H40.6667C43.0599 42 45 40.0599 45 37.6667V34.3333C45 31.9401 43.0599 30 40.6667 30H37.3333ZM35 34.3333C35 33.0447 36.0447 32 37.3333 32H40.6667C41.9553 32 43 33.0447 43 34.3333V37.6667C43 38.9553 41.9553 40 40.6667 40H37.3333C36.0447 40 35 38.9553 35 37.6667V34.3333Z" fill="#444444"/>
<path fill-rule="evenodd" clip-rule="evenodd" d="M49 18.3333C49 15.9401 50.9401 14 53.3333 14H56.6667C59.0599 14 61 15.9401 61 18.3333V21.6667C61 24.0599 59.0599 26 56.6667 26H53.3333C50.9401 26 49 24.0599 49 21.6667V18.3333ZM53.3333 16C52.0447 16 51 17.0447 51 18.3333V21.6667C51 22.9553 52.0447 24 53.3333 24H56.6667C57.9553 24 59 22.9553 59 21.6667V18.3333C59 17.0447 57.9553 16 56.6667 16H53.3333Z" fill="#444444"/>
<path fill-rule="evenodd" clip-rule="evenodd" d="M53.3333 30C50.9401 30 49 31.9401 49 34.3333V37.6667C49 40.0599 50.9401 42 53.3333 42H56.6667C59.0599 42 61 40.0599 61 37.6667V34.3333C61 31.9401 59.0599 30 56.6667 30H53.3333ZM51 34.3333C51 33.0447 52.0447 32 53.3333 32H56.6667C57.9553 32 59 33.0447 59 34.3333V37.6667C59 38.9553 57.9553 40 56.6667 40H53.3333C52.0447 40 51 38.9553 51 37.6667V34.3333Z" fill="#444444"/>
</svg>
