<svg width="104" height="104" viewBox="0 0 104 104" fill="none" xmlns="http://www.w3.org/2000/svg">
<g clip-path="url(#clip0_1234_6798)">
<path d="M45.7922 0.275879H41.6543V4.41381H45.7922V0.275879Z" fill="black"/>
<path d="M49.9309 0.275879H45.793V4.41381H49.9309V0.275879Z" fill="black"/>
<path d="M58.2063 0.275879H54.0684V4.41381H58.2063V0.275879Z" fill="black"/>
<path d="M62.344 0.275879H58.2061V4.41381H62.344V0.275879Z" fill="black"/>
<path d="M66.4827 0.275879H62.3447V4.41381H66.4827V0.275879Z" fill="black"/>
<path d="M70.6204 0.275879H66.4824V4.41381H70.6204V0.275879Z" fill="black"/>
<path d="M37.5168 4.41382H33.3789V8.55175H37.5168V4.41382Z" fill="black"/>
<path d="M41.6545 4.41382H37.5166V8.55175H41.6545V4.41382Z" fill="black"/>
<path d="M49.9309 4.41382H45.793V8.55175H49.9309V4.41382Z" fill="black"/>
<path d="M54.0686 4.41382H49.9307V8.55175H54.0686V4.41382Z" fill="black"/>
<path d="M62.344 4.41382H58.2061V8.55175H62.344V4.41382Z" fill="black"/>
<path d="M70.6204 4.41382H66.4824V8.55175H70.6204V4.41382Z" fill="black"/>
<path d="M37.5168 8.55176H33.3789V12.6897H37.5168V8.55176Z" fill="black"/>
<path d="M49.9309 8.55176H45.793V12.6897H49.9309V8.55176Z" fill="black"/>
<path d="M58.2063 8.55176H54.0684V12.6897H58.2063V8.55176Z" fill="black"/>
<path d="M62.344 8.55176H58.2061V12.6897H62.344V8.55176Z" fill="black"/>
<path d="M37.5168 12.6897H33.3789V16.8276H37.5168V12.6897Z" fill="black"/>
<path d="M49.9309 12.6897H45.793V16.8276H49.9309V12.6897Z" fill="black"/>
<path d="M54.0686 12.6897H49.9307V16.8276H54.0686V12.6897Z" fill="black"/>
<path d="M58.2063 12.6897H54.0684V16.8276H58.2063V12.6897Z" fill="black"/>
<path d="M70.6204 12.6897H66.4824V16.8276H70.6204V12.6897Z" fill="black"/>
<path d="M37.5168 16.8276H33.3789V20.9656H37.5168V16.8276Z" fill="black"/>
<path d="M41.6545 16.8276H37.5166V20.9656H41.6545V16.8276Z" fill="black"/>
<path d="M45.7922 16.8276H41.6543V20.9656H45.7922V16.8276Z" fill="black"/>
<path d="M49.9309 16.8276H45.793V20.9656H49.9309V16.8276Z" fill="black"/>
<path d="M58.2063 16.8276H54.0684V20.9656H58.2063V16.8276Z" fill="black"/>
<path d="M70.6204 16.8276H66.4824V20.9656H70.6204V16.8276Z" fill="black"/>
<path d="M37.5168 20.9656H33.3789V25.1035H37.5168V20.9656Z" fill="black"/>
<path d="M41.6545 20.9656H37.5166V25.1035H41.6545V20.9656Z" fill="black"/>
<path d="M49.9309 20.9656H45.793V25.1035H49.9309V20.9656Z" fill="black"/>
<path d="M62.344 20.9656H58.2061V25.1035H62.344V20.9656Z" fill="black"/>
<path d="M66.4827 20.9656H62.3447V25.1035H66.4827V20.9656Z" fill="black"/>
<path d="M70.6204 20.9656H66.4824V25.1035H70.6204V20.9656Z" fill="black"/>
<path d="M37.5168 25.1035H33.3789V29.2414H37.5168V25.1035Z" fill="black"/>
<path d="M45.7922 25.1035H41.6543V29.2414H45.7922V25.1035Z" fill="black"/>
<path d="M54.0686 25.1035H49.9307V29.2414H54.0686V25.1035Z" fill="black"/>
<path d="M62.344 25.1035H58.2061V29.2414H62.344V25.1035Z" fill="black"/>
<path d="M70.6204 25.1035H66.4824V29.2414H70.6204V25.1035Z" fill="black"/>
<path d="M54.0686 29.2415H49.9307V33.3794H54.0686V29.2415Z" fill="black"/>
<path d="M58.2063 29.2415H54.0684V33.3794H58.2063V29.2415Z" fill="black"/>
<path d="M70.6204 29.2415H66.4824V33.3794H70.6204V29.2415Z" fill="black"/>
<path d="M12.6887 33.3794H8.55078V37.5173H12.6887V33.3794Z" fill="black"/>
<path d="M25.1028 33.3794H20.9648V37.5173H25.1028V33.3794Z" fill="black"/>
<path d="M29.2405 33.3794H25.1025V37.5173H29.2405V33.3794Z" fill="black"/>
<path d="M33.3791 33.3794H29.2412V37.5173H33.3791V33.3794Z" fill="black"/>
<path d="M37.5168 33.3794H33.3789V37.5173H37.5168V33.3794Z" fill="black"/>
<path d="M49.9309 33.3794H45.793V37.5173H49.9309V33.3794Z" fill="black"/>
<path d="M70.6204 33.3794H66.4824V37.5173H70.6204V33.3794Z" fill="black"/>
<path d="M74.758 33.3794H70.6201V37.5173H74.758V33.3794Z" fill="black"/>
<path d="M83.0344 33.3794H78.8965V37.5173H83.0344V33.3794Z" fill="black"/>
<path d="M87.1721 33.3794H83.0342V37.5173H87.1721V33.3794Z" fill="black"/>
<path d="M91.3098 33.3794H87.1719V37.5173H91.3098V33.3794Z" fill="black"/>
<path d="M95.4475 33.3794H91.3096V37.5173H95.4475V33.3794Z" fill="black"/>
<path d="M99.5862 33.3794H95.4482V37.5173H99.5862V33.3794Z" fill="black"/>
<path d="M4.41332 37.5173H0.275391V41.6553H4.41332V37.5173Z" fill="black"/>
<path d="M16.8274 37.5173H12.6895V41.6553H16.8274V37.5173Z" fill="black"/>
<path d="M20.9651 37.5173H16.8271V41.6553H20.9651V37.5173Z" fill="black"/>
<path d="M37.5168 37.5173H33.3789V41.6553H37.5168V37.5173Z" fill="black"/>
<path d="M70.6204 37.5173H66.4824V41.6553H70.6204V37.5173Z" fill="black"/>
<path d="M78.8957 37.5173H74.7578V41.6553H78.8957V37.5173Z" fill="black"/>
<path d="M83.0344 37.5173H78.8965V41.6553H83.0344V37.5173Z" fill="black"/>
<path d="M103.724 37.5173H99.5859V41.6553H103.724V37.5173Z" fill="black"/>
<path d="M8.55102 41.6553H4.41309V45.7932H8.55102V41.6553Z" fill="black"/>
<path d="M20.9651 41.6553H16.8271V45.7932H20.9651V41.6553Z" fill="black"/>
<path d="M29.2405 41.6553H25.1025V45.7932H29.2405V41.6553Z" fill="black"/>
<path d="M33.3791 41.6553H29.2412V45.7932H33.3791V41.6553Z" fill="black"/>
<path d="M74.758 41.6553H70.6201V45.7932H74.758V41.6553Z" fill="black"/>
<path d="M95.4475 41.6553H91.3096V45.7932H95.4475V41.6553Z" fill="black"/>
<path d="M103.724 41.6553H99.5859V45.7932H103.724V41.6553Z" fill="black"/>
<path d="M4.41332 45.7932H0.275391V49.9311H4.41332V45.7932Z" fill="black"/>
<path d="M8.55102 45.7932H4.41309V49.9311H8.55102V45.7932Z" fill="black"/>
<path d="M33.3791 45.7932H29.2412V49.9311H33.3791V45.7932Z" fill="black"/>
<path d="M74.758 45.7932H70.6201V49.9311H74.758V45.7932Z" fill="black"/>
<path d="M91.3098 45.7932H87.1719V49.9311H91.3098V45.7932Z" fill="black"/>
<path d="M103.724 45.7932H99.5859V49.9311H103.724V45.7932Z" fill="black"/>
<path d="M4.41332 49.9312H0.275391V54.0691H4.41332V49.9312Z" fill="black"/>
<path d="M12.6887 49.9312H8.55078V54.0691H12.6887V49.9312Z" fill="black"/>
<path d="M29.2405 49.9312H25.1025V54.0691H29.2405V49.9312Z" fill="black"/>
<path d="M33.3791 49.9312H29.2412V54.0691H33.3791V49.9312Z" fill="black"/>
<path d="M37.5168 49.9312H33.3789V54.0691H37.5168V49.9312Z" fill="black"/>
<path d="M70.6204 49.9312H66.4824V54.0691H70.6204V49.9312Z" fill="black"/>
<path d="M78.8957 49.9312H74.7578V54.0691H78.8957V49.9312Z" fill="black"/>
<path d="M83.0344 49.9312H78.8965V54.0691H83.0344V49.9312Z" fill="black"/>
<path d="M91.3098 49.9312H87.1719V54.0691H91.3098V49.9312Z" fill="black"/>
<path d="M99.5862 49.9312H95.4482V54.0691H99.5862V49.9312Z" fill="black"/>
<path d="M103.724 49.9312H99.5859V54.0691H103.724V49.9312Z" fill="black"/>
<path d="M25.1028 54.0691H20.9648V58.207H25.1028V54.0691Z" fill="black"/>
<path d="M70.6204 54.0691H66.4824V58.207H70.6204V54.0691Z" fill="black"/>
<path d="M78.8957 54.0691H74.7578V58.207H78.8957V54.0691Z" fill="black"/>
<path d="M83.0344 54.0691H78.8965V58.207H83.0344V54.0691Z" fill="black"/>
<path d="M91.3098 54.0691H87.1719V58.207H91.3098V54.0691Z" fill="black"/>
<path d="M4.41332 58.207H0.275391V62.345H4.41332V58.207Z" fill="black"/>
<path d="M8.55102 58.207H4.41309V62.345H8.55102V58.207Z" fill="black"/>
<path d="M20.9651 58.207H16.8271V62.345H20.9651V58.207Z" fill="black"/>
<path d="M25.1028 58.207H20.9648V62.345H25.1028V58.207Z" fill="black"/>
<path d="M29.2405 58.207H25.1025V62.345H29.2405V58.207Z" fill="black"/>
<path d="M70.6204 58.207H66.4824V62.345H70.6204V58.207Z" fill="black"/>
<path d="M78.8957 58.207H74.7578V62.345H78.8957V58.207Z" fill="black"/>
<path d="M87.1721 58.207H83.0342V62.345H87.1721V58.207Z" fill="black"/>
<path d="M103.724 58.207H99.5859V62.345H103.724V58.207Z" fill="black"/>
<path d="M12.6887 62.3447H8.55078V66.4827H12.6887V62.3447Z" fill="black"/>
<path d="M16.8274 62.3447H12.6895V66.4827H16.8274V62.3447Z" fill="black"/>
<path d="M25.1028 62.3447H20.9648V66.4827H25.1028V62.3447Z" fill="black"/>
<path d="M33.3791 62.3447H29.2412V66.4827H33.3791V62.3447Z" fill="black"/>
<path d="M70.6204 62.3447H66.4824V66.4827H70.6204V62.3447Z" fill="black"/>
<path d="M74.758 62.3447H70.6201V66.4827H74.758V62.3447Z" fill="black"/>
<path d="M83.0344 62.3447H78.8965V66.4827H83.0344V62.3447Z" fill="black"/>
<path d="M91.3098 62.3447H87.1719V66.4827H91.3098V62.3447Z" fill="black"/>
<path d="M103.724 62.3447H99.5859V66.4827H103.724V62.3447Z" fill="black"/>
<path d="M4.41332 66.4827H0.275391V70.6206H4.41332V66.4827Z" fill="black"/>
<path d="M8.55102 66.4827H4.41309V70.6206H8.55102V66.4827Z" fill="black"/>
<path d="M12.6887 66.4827H8.55078V70.6206H12.6887V66.4827Z" fill="black"/>
<path d="M16.8274 66.4827H12.6895V70.6206H16.8274V66.4827Z" fill="black"/>
<path d="M20.9651 66.4827H16.8271V70.6206H20.9651V66.4827Z" fill="black"/>
<path d="M25.1028 66.4827H20.9648V70.6206H25.1028V66.4827Z" fill="black"/>
<path d="M29.2405 66.4827H25.1025V70.6206H29.2405V66.4827Z" fill="black"/>
<path d="M33.3791 66.4827H29.2412V70.6206H33.3791V66.4827Z" fill="black"/>
<path d="M41.6545 66.4827H37.5166V70.6206H41.6545V66.4827Z" fill="black"/>
<path d="M45.7922 66.4827H41.6543V70.6206H45.7922V66.4827Z" fill="black"/>
<path d="M49.9309 66.4827H45.793V70.6206H49.9309V66.4827Z" fill="black"/>
<path d="M62.344 66.4827H58.2061V70.6206H62.344V66.4827Z" fill="black"/>
<path d="M70.6204 66.4827H66.4824V70.6206H70.6204V66.4827Z" fill="black"/>
<path d="M74.758 66.4827H70.6201V70.6206H74.758V66.4827Z" fill="black"/>
<path d="M78.8957 66.4827H74.7578V70.6206H78.8957V66.4827Z" fill="black"/>
<path d="M83.0344 66.4827H78.8965V70.6206H83.0344V66.4827Z" fill="black"/>
<path d="M87.1721 66.4827H83.0342V70.6206H87.1721V66.4827Z" fill="black"/>
<path d="M91.3098 66.4827H87.1719V70.6206H91.3098V66.4827Z" fill="black"/>
<path d="M95.4475 66.4827H91.3096V70.6206H95.4475V66.4827Z" fill="black"/>
<path d="M103.724 66.4827H99.5859V70.6206H103.724V66.4827Z" fill="black"/>
<path d="M37.5168 70.6206H33.3789V74.7585H37.5168V70.6206Z" fill="black"/>
<path d="M41.6545 70.6206H37.5166V74.7585H41.6545V70.6206Z" fill="black"/>
<path d="M45.7922 70.6206H41.6543V74.7585H45.7922V70.6206Z" fill="black"/>
<path d="M49.9309 70.6206H45.793V74.7585H49.9309V70.6206Z" fill="black"/>
<path d="M54.0686 70.6206H49.9307V74.7585H54.0686V70.6206Z" fill="black"/>
<path d="M58.2063 70.6206H54.0684V74.7585H58.2063V70.6206Z" fill="black"/>
<path d="M70.6204 70.6206H66.4824V74.7585H70.6204V70.6206Z" fill="black"/>
<path d="M87.1721 70.6206H83.0342V74.7585H87.1721V70.6206Z" fill="black"/>
<path d="M103.724 70.6206H99.5859V74.7585H103.724V70.6206Z" fill="black"/>
<path d="M37.5168 74.7585H33.3789V78.8965H37.5168V74.7585Z" fill="black"/>
<path d="M41.6545 74.7585H37.5166V78.8965H41.6545V74.7585Z" fill="black"/>
<path d="M54.0686 74.7585H49.9307V78.8965H54.0686V74.7585Z" fill="black"/>
<path d="M58.2063 74.7585H54.0684V78.8965H58.2063V74.7585Z" fill="black"/>
<path d="M66.4827 74.7585H62.3447V78.8965H66.4827V74.7585Z" fill="black"/>
<path d="M70.6204 74.7585H66.4824V78.8965H70.6204V74.7585Z" fill="black"/>
<path d="M78.8957 74.7585H74.7578V78.8965H78.8957V74.7585Z" fill="black"/>
<path d="M87.1721 74.7585H83.0342V78.8965H87.1721V74.7585Z" fill="black"/>
<path d="M95.4475 74.7585H91.3096V78.8965H95.4475V74.7585Z" fill="black"/>
<path d="M99.5862 74.7585H95.4482V78.8965H99.5862V74.7585Z" fill="black"/>
<path d="M103.724 74.7585H99.5859V78.8965H103.724V74.7585Z" fill="black"/>
<path d="M37.5168 78.8965H33.3789V83.0344H37.5168V78.8965Z" fill="black"/>
<path d="M62.344 78.8965H58.2061V83.0344H62.344V78.8965Z" fill="black"/>
<path d="M70.6204 78.8965H66.4824V83.0344H70.6204V78.8965Z" fill="black"/>
<path d="M87.1721 78.8965H83.0342V83.0344H87.1721V78.8965Z" fill="black"/>
<path d="M91.3098 78.8965H87.1719V83.0344H91.3098V78.8965Z" fill="black"/>
<path d="M99.5862 78.8965H95.4482V83.0344H99.5862V78.8965Z" fill="black"/>
<path d="M41.6545 83.0344H37.5166V87.1724H41.6545V83.0344Z" fill="black"/>
<path d="M62.344 83.0344H58.2061V87.1724H62.344V83.0344Z" fill="black"/>
<path d="M66.4827 83.0344H62.3447V87.1724H66.4827V83.0344Z" fill="black"/>
<path d="M70.6204 83.0344H66.4824V87.1724H70.6204V83.0344Z" fill="black"/>
<path d="M74.758 83.0344H70.6201V87.1724H74.758V83.0344Z" fill="black"/>
<path d="M78.8957 83.0344H74.7578V87.1724H78.8957V83.0344Z" fill="black"/>
<path d="M83.0344 83.0344H78.8965V87.1724H83.0344V83.0344Z" fill="black"/>
<path d="M87.1721 83.0344H83.0342V87.1724H87.1721V83.0344Z" fill="black"/>
<path d="M54.0686 87.1724H49.9307V91.3103H54.0686V87.1724Z" fill="black"/>
<path d="M58.2063 87.1724H54.0684V91.3103H58.2063V87.1724Z" fill="black"/>
<path d="M62.344 87.1724H58.2061V91.3103H62.344V87.1724Z" fill="black"/>
<path d="M74.758 87.1724H70.6201V91.3103H74.758V87.1724Z" fill="black"/>
<path d="M87.1721 87.1724H83.0342V91.3103H87.1721V87.1724Z" fill="black"/>
<path d="M91.3098 87.1724H87.1719V91.3103H91.3098V87.1724Z" fill="black"/>
<path d="M37.5168 91.3103H33.3789V95.4482H37.5168V91.3103Z" fill="black"/>
<path d="M41.6545 91.3103H37.5166V95.4482H41.6545V91.3103Z" fill="black"/>
<path d="M45.7922 91.3103H41.6543V95.4482H45.7922V91.3103Z" fill="black"/>
<path d="M62.344 91.3103H58.2061V95.4482H62.344V91.3103Z" fill="black"/>
<path d="M70.6204 91.3103H66.4824V95.4482H70.6204V91.3103Z" fill="black"/>
<path d="M87.1721 91.3103H83.0342V95.4482H87.1721V91.3103Z" fill="black"/>
<path d="M91.3098 91.3103H87.1719V95.4482H91.3098V91.3103Z" fill="black"/>
<path d="M95.4475 91.3103H91.3096V95.4482H95.4475V91.3103Z" fill="black"/>
<path d="M99.5862 91.3103H95.4482V95.4482H99.5862V91.3103Z" fill="black"/>
<path d="M103.724 91.3103H99.5859V95.4482H103.724V91.3103Z" fill="black"/>
<path d="M45.7922 95.4482H41.6543V99.5862H45.7922V95.4482Z" fill="black"/>
<path d="M54.0686 95.4482H49.9307V99.5862H54.0686V95.4482Z" fill="black"/>
<path d="M66.4827 95.4482H62.3447V99.5862H66.4827V95.4482Z" fill="black"/>
<path d="M70.6204 95.4482H66.4824V99.5862H70.6204V95.4482Z" fill="black"/>
<path d="M87.1721 95.4482H83.0342V99.5862H87.1721V95.4482Z" fill="black"/>
<path d="M91.3098 95.4482H87.1719V99.5862H91.3098V95.4482Z" fill="black"/>
<path d="M41.6545 99.5862H37.5166V103.724H41.6545V99.5862Z" fill="black"/>
<path d="M45.7922 99.5862H41.6543V103.724H45.7922V99.5862Z" fill="black"/>
<path d="M49.9309 99.5862H45.793V103.724H49.9309V99.5862Z" fill="black"/>
<path d="M54.0686 99.5862H49.9307V103.724H54.0686V99.5862Z" fill="black"/>
<path d="M58.2063 99.5862H54.0684V103.724H58.2063V99.5862Z" fill="black"/>
<path d="M62.344 99.5862H58.2061V103.724H62.344V99.5862Z" fill="black"/>
<path d="M70.6204 99.5862H66.4824V103.724H70.6204V99.5862Z" fill="black"/>
<path d="M74.758 99.5862H70.6201V103.724H74.758V99.5862Z" fill="black"/>
<path d="M78.8957 99.5862H74.7578V103.724H78.8957V99.5862Z" fill="black"/>
<path d="M83.0344 99.5862H78.8965V103.724H83.0344V99.5862Z" fill="black"/>
<path d="M87.1721 99.5862H83.0342V103.724H87.1721V99.5862Z" fill="black"/>
<path d="M95.4475 99.5862H91.3096V103.724H95.4475V99.5862Z" fill="black"/>
<path d="M103.724 99.5862H99.5859V103.724H103.724V99.5862Z" fill="black"/>
<path d="M24.8961 0.275879H4.62022H0.275391V4.62071V24.8966V29.2414H4.62022H24.8961H29.2409V24.8966V4.62071V0.275879H24.8961ZM24.8961 24.8966H4.62022V4.62071H24.8961V24.8966Z" fill="black"/>
<path d="M99.3785 0.275879H79.1026H74.7578V4.62071V24.8966V29.2414H79.1026H99.3785H103.723V24.8966V4.62071V0.275879H99.3785ZM99.3785 24.8966H79.1026V4.62071H99.3785V24.8966Z" fill="black"/>
<path d="M24.8961 74.7585H4.62022H0.275391V79.1034V99.3792V103.724H4.62022H24.8961H29.2409V99.3792V79.1034V74.7585H24.8961ZM24.8961 99.3792H4.62022V79.1034H24.8961V99.3792Z" fill="black"/>
<path d="M20.9646 8.55176H8.55078V20.9656H20.9646V8.55176Z" fill="black"/>
<path d="M95.448 8.55176H83.0342V20.9656H95.448V8.55176Z" fill="black"/>
<path d="M20.9646 83.0344H8.55078V95.4482H20.9646V83.0344Z" fill="black"/>
<path d="M59.1934 46.2349H44.0335L43.1465 62.2818L44.8399 63.8946H58.5483L59.9998 62.2818L59.1934 46.2349Z" fill="#D7EBE2" stroke="black"/>
<path d="M48.2773 49.773V43.3472C48.2773 41.4684 49.8004 39.9453 51.6792 39.9453V39.9453C53.5581 39.9453 55.0812 41.4684 55.0812 43.3472V49.773" stroke="black"/>
</g>
<defs>
<clipPath id="clip0_1234_6798">
<rect width="104" height="104" fill="white"/>
</clipPath>
</defs>
</svg>
