<svg width="16" height="16" viewBox="0 0 16 16" fill="none" xmlns="http://www.w3.org/2000/svg">
<rect width="16" height="16" rx="2" fill="#00A358"/>
<path fill-rule="evenodd" clip-rule="evenodd" d="M5 12V6.02135L8 11.9736V12H9V4H8V9.80629L5 4.02983V4L4.9845 3.99998L4 4V12H5ZM10 12V11H13V12H10ZM12 7.5V8.5C12 8.77614 11.7762 9 11.5 9C11.2238 9 11 8.77614 11 8.5V7.5C11 7.22386 11.2238 7 11.5 7C11.7762 7 12 7.22386 12 7.5ZM10 7.5C10 6.67157 10.6716 6 11.5 6C12.3284 6 13 6.67157 13 7.5V8.5C13 9.32843 12.3284 10 11.5 10C10.6716 10 10 9.32843 10 8.5V7.5Z" fill="white"/>
</svg>
