<svg width="60" height="60" viewBox="0 0 60 60" fill="none" xmlns="http://www.w3.org/2000/svg">
<g clip-path="url(#clip0_690_18890)">
<path d="M0 8C0 3.58172 3.58172 0 8 0H52C56.4183 0 60 3.58172 60 8V52C60 56.4183 56.4183 60 52 60H8C3.58172 60 0 56.4183 0 52V8Z" fill="#4F8E32"/>
<path fill-rule="evenodd" clip-rule="evenodd" d="M33.2864 33.2864C32.8785 29.4792 29.8541 26.4549 26.0469 26.0469C26.4549 29.8541 29.4792 32.8785 33.2864 33.2864ZM21.5134 21.5134C23.097 16.0189 28.1625 12 34.1667 12C41.4384 12 47.3333 17.8949 47.3333 25.1667C47.3333 31.1709 43.3144 36.2364 37.8199 37.8199C36.2364 43.3144 31.1709 47.3333 25.1667 47.3333C17.8949 47.3333 12 41.4384 12 34.1667C12 28.1625 16.0189 23.097 21.5134 21.5134ZM27.0626 21.1355C28.4671 18.6657 31.1224 17 34.1667 17C38.677 17 42.3333 20.6563 42.3333 25.1667C42.3333 28.211 40.6676 30.8662 38.1978 32.2707C37.368 26.5164 32.8169 21.9654 27.0626 21.1355ZM32.2707 38.1978C30.8662 40.6676 28.211 42.3333 25.1667 42.3333C20.6563 42.3333 17 38.677 17 34.1667C17 31.1224 18.6657 28.4671 21.1355 27.0626C21.9654 32.8169 26.5164 37.368 32.2707 38.1978Z" fill="white"/>
</g>
<defs>
<clipPath id="clip0_690_18890">
<rect width="60" height="60" fill="white"/>
</clipPath>
</defs>
</svg>
