<svg width="24" height="24" viewBox="0 0 24 24" fill="none" xmlns="http://www.w3.org/2000/svg">
<path d="M8.21875 14.9766L9.625 14.7891C9.78646 15.5859 10.0599 16.1615 10.4453 16.5156C10.8359 16.8646 11.3099 17.0391 11.8672 17.0391C12.5286 17.0391 13.0859 16.8099 13.5391 16.3516C13.9974 15.8932 14.2266 15.3255 14.2266 14.6484C14.2266 14.0026 14.0156 13.4714 13.5938 13.0547C13.1719 12.6328 12.6354 12.4219 11.9844 12.4219C11.7188 12.4219 11.388 12.474 10.9922 12.5781L11.1484 11.3438C11.2422 11.3542 11.3177 11.3594 11.375 11.3594C11.974 11.3594 12.513 11.2031 12.9922 10.8906C13.4714 10.5781 13.7109 10.0964 13.7109 9.44531C13.7109 8.92969 13.5365 8.5026 13.1875 8.16406C12.8385 7.82552 12.388 7.65625 11.8359 7.65625C11.2891 7.65625 10.8333 7.82812 10.4688 8.17188C10.1042 8.51562 9.86979 9.03125 9.76562 9.71875L8.35938 9.46875C8.53125 8.52604 8.92188 7.79688 9.53125 7.28125C10.1406 6.76042 10.8984 6.5 11.8047 6.5C12.4297 6.5 13.0052 6.63542 13.5312 6.90625C14.0573 7.17188 14.4583 7.53646 14.7344 8C15.0156 8.46354 15.1562 8.95573 15.1562 9.47656C15.1562 9.97135 15.0234 10.4219 14.7578 10.8281C14.4922 11.2344 14.099 11.5573 13.5781 11.7969C14.2552 11.9531 14.7812 12.2786 15.1562 12.7734C15.5312 13.263 15.7188 13.8776 15.7188 14.6172C15.7188 15.6172 15.3542 16.4661 14.625 17.1641C13.8958 17.8568 12.974 18.2031 11.8594 18.2031C10.8542 18.2031 10.0182 17.9036 9.35156 17.3047C8.6901 16.7057 8.3125 15.9297 8.21875 14.9766Z" fill="#B2B2B2"/>
</svg>
