<svg width="16" height="16" viewBox="0 0 16 16" fill="none" xmlns="http://www.w3.org/2000/svg">
<g clip-path="url(#clip0_5_274)">
<path fill-rule="evenodd" clip-rule="evenodd" d="M3.32843 1C2.9306 1 2.54907 1.15804 2.26777 1.43934L1.85355 1.85355C1.65829 2.04882 1.34171 2.04882 1.14645 1.85355C0.951184 1.65829 0.951184 1.34171 1.14645 1.14645L1.56066 0.732233C2.0295 0.263392 2.66539 0 3.32843 0H12.6716C13.3346 0 13.9705 0.263392 14.4393 0.732233L14.8536 1.14645C15.0488 1.34171 15.0488 1.65829 14.8536 1.85355C14.6583 2.04882 14.3417 2.04882 14.1464 1.85355L13.7322 1.43934C13.4509 1.15804 13.0694 1 12.6716 1H3.32843Z" fill="#4D4D4D"/>
<path fill-rule="evenodd" clip-rule="evenodd" d="M2.32843 3C1.9306 3 1.54907 3.15804 1.26777 3.43934L0.853553 3.85355C0.658291 4.04882 0.341709 4.04882 0.146447 3.85355C-0.0488155 3.65829 -0.0488155 3.34171 0.146447 3.14645L0.56066 2.73223C1.0295 2.26339 1.66539 2 2.32843 2H13.6716C14.3346 2 14.9705 2.26339 15.4393 2.73223L15.8536 3.14645C16.0488 3.34171 16.0488 3.65829 15.8536 3.85355C15.6583 4.04882 15.3417 4.04882 15.1464 3.85355L14.7322 3.43934C14.4509 3.15804 14.0694 3 13.6716 3H2.32843Z" fill="#4D4D4D"/>
<path fill-rule="evenodd" clip-rule="evenodd" d="M2 4C0.895431 4 1.49012e-08 4.89543 1.49012e-08 6V14C1.49012e-08 15.1046 0.895431 16 2 16H14C15.1046 16 16 15.1046 16 14V6C16 4.89543 15.1046 4 14 4H2ZM2.58824 14C2.26336 14 2 13.7366 2 13.4118C2 12.5428 2.47894 11.7446 3.24567 11.3356L3.77241 11.0547C4.06637 10.8979 4.25 10.5919 4.25 10.2587C4.25 10.0897 4.20249 9.92398 4.11288 9.7806L3.83075 9.3292C3.61461 8.98337 3.5 8.58376 3.5 8.17595V7.5C3.5 6.67157 4.17157 6 5 6C5.82843 6 6.5 6.67157 6.5 7.5V8.17595C6.5 8.58376 6.38539 8.98337 6.16925 9.3292L5.88712 9.7806C5.79751 9.92398 5.75 10.0897 5.75 10.2587C5.75 10.5919 5.93363 10.8979 6.22759 11.0547L6.75432 11.3356C7.52106 11.7446 8 12.5428 8 13.4118C8 13.7366 7.73664 14 7.41176 14H2.58824ZM9 7.5C9 7.22386 9.22386 7 9.5 7H13.5C13.7761 7 14 7.22386 14 7.5C14 7.77614 13.7761 8 13.5 8H9.5C9.22386 8 9 7.77614 9 7.5ZM9 9.5C9 9.22386 9.22386 9 9.5 9H12.5C12.7761 9 13 9.22386 13 9.5C13 9.77614 12.7761 10 12.5 10H9.5C9.22386 10 9 9.77614 9 9.5ZM9.5 11C9.22386 11 9 11.2239 9 11.5C9 11.7761 9.22386 12 9.5 12H13.5C13.7761 12 14 11.7761 14 11.5C14 11.2239 13.7761 11 13.5 11H9.5Z" fill="#4D4D4D"/>
</g>
<defs>
<clipPath id="clip0_5_274">
<rect width="16" height="16" fill="white"/>
</clipPath>
</defs>
</svg>
