<svg width="16" height="16" viewBox="0 0 16 16" fill="none" xmlns="http://www.w3.org/2000/svg">
<rect x="16" y="7.5" width="1" height="12" transform="rotate(90 16 7.5)" fill="url(#paint0_linear)"/>
<path fill-rule="evenodd" clip-rule="evenodd" d="M8 13C5.23858 13 3 10.7614 3 8C3 5.23858 5.23858 3 8 3C10.0503 3 11.8124 4.2341 12.584 6H13.6586C12.8349 3.66962 10.6124 2 8 2C4.68629 2 2 4.68629 2 8C2 11.3137 4.68629 14 8 14C10.6124 14 12.8349 12.3304 13.6586 10H12.584C11.8124 11.7659 10.0503 13 8 13Z" fill="#2B2B2B"/>
<defs>
<linearGradient id="paint0_linear" x1="16.5" y1="7.5" x2="16.5" y2="19.5" gradientUnits="userSpaceOnUse">
<stop stop-color="#00A358"/>
<stop offset="1" stop-color="#00A358" stop-opacity="0"/>
</linearGradient>
</defs>
</svg>
