<svg width="16" height="16" viewBox="0 0 16 16" fill="none" xmlns="http://www.w3.org/2000/svg">
<path d="M8 13C8.55228 13 9 12.5523 9 12C9 11.4477 8.55228 11 8 11C7.44772 11 7 11.4477 7 12C7 12.5523 7.44772 13 8 13Z" fill="#EC6811"/>
<path fill-rule="evenodd" clip-rule="evenodd" d="M8 5C8.27614 5 8.5 5.22386 8.5 5.5V9.5C8.5 9.77614 8.27614 10 8 10C7.72386 10 7.5 9.77614 7.5 9.5V5.5C7.5 5.22386 7.72386 5 8 5Z" fill="#EC6811"/>
<path fill-rule="evenodd" clip-rule="evenodd" d="M8.00004 2.09302C7.87909 2.09302 7.76039 2.12576 7.65655 2.18776C7.55485 2.24849 7.4711 2.33507 7.41379 2.43864L2.18918 12.9978L2.18143 13.0128C2.12657 13.1148 2.09911 13.2294 2.10173 13.3452C2.10436 13.461 2.13697 13.5742 2.1964 13.6737C2.25582 13.7731 2.34002 13.8555 2.44078 13.9127C2.54153 13.9699 2.6554 14 2.77126 14H13.2288C13.3447 14 13.4585 13.9699 13.5593 13.9127C13.6601 13.8555 13.7443 13.7731 13.8037 13.6737C13.8631 13.5742 13.8957 13.461 13.8983 13.3452C13.901 13.2294 13.8735 13.1148 13.8186 13.0128L13.8109 12.9978L8.58628 2.43864C8.52897 2.33507 8.44523 2.24849 8.34352 2.18776C8.23968 2.12576 8.12099 2.09302 8.00004 2.09302ZM7.14388 1.32918C7.40272 1.17462 7.69857 1.09302 8.00004 1.09302C8.30151 1.09302 8.59736 1.17462 8.85619 1.32918C9.11503 1.48373 9.32721 1.70547 9.47021 1.97087C9.47295 1.97597 9.47561 1.98111 9.47818 1.9863L14.7038 12.5474C14.8376 12.7997 14.9045 13.0822 14.8981 13.3678C14.8915 13.6566 14.8103 13.9386 14.6621 14.1866C14.514 14.4345 14.3041 14.6397 14.053 14.7823C13.8019 14.9249 13.518 14.9999 13.2293 15H2.77104C2.48225 14.9999 2.1982 14.9249 1.94706 14.7823C1.69593 14.6397 1.48605 14.4345 1.33794 14.1866C1.18982 13.9386 1.10853 13.6566 1.10199 13.3678C1.09552 13.0822 1.16245 12.7997 1.29631 12.5474L6.52189 1.9863C6.52446 1.98111 6.52712 1.97597 6.52987 1.97087C6.67287 1.70547 6.88504 1.48373 7.14388 1.32918Z" fill="#EC6811"/>
</svg>
