<svg width="16" height="16" viewBox="0 0 16 16" fill="none" xmlns="http://www.w3.org/2000/svg">
<rect width="1" height="12" transform="matrix(4.37114e-08 1 1 -4.37114e-08 0 7.5)" fill="url(#paint0_linear)"/>
<path fill-rule="evenodd" clip-rule="evenodd" d="M5.18 3H10.82C11.3868 3 11.7528 3.00075 12.0316 3.02315C12.2989 3.04463 12.3983 3.08113 12.447 3.10546C12.6407 3.20225 12.7978 3.35931 12.8945 3.55302C12.9189 3.6017 12.9554 3.7011 12.9768 3.96845C12.9992 4.24717 13 4.61316 13 5.18V10.82C13 11.3868 12.9992 11.7528 12.9768 12.0316C12.9554 12.2989 12.9189 12.3983 12.8945 12.447C12.7978 12.6407 12.6407 12.7978 12.447 12.8945C12.3983 12.9189 12.2989 12.9554 12.0316 12.9768C11.7528 12.9992 11.3868 13 10.82 13H5.18C4.61316 13 4.24717 12.9992 3.96845 12.9768C3.7011 12.9554 3.6017 12.9189 3.55302 12.8945C3.35931 12.7978 3.20225 12.6407 3.10546 12.447C3.08113 12.3983 3.04463 12.2989 3.02315 12.0316C3.00075 11.7528 3 11.3868 3 10.82V10H2V10.82C2 11.9212 2 12.4719 2.21091 12.894C2.4045 13.2814 2.71862 13.5955 3.10604 13.7891C3.52814 14 4.07876 14 5.18 14H10.82C11.9212 14 12.4719 14 12.894 13.7891C13.2814 13.5955 13.5955 13.2814 13.7891 12.894C14 12.4719 14 11.9212 14 10.82V5.18C14 4.07876 14 3.52814 13.7891 3.10604C13.5955 2.71862 13.2814 2.4045 12.894 2.21091C12.4719 2 11.9212 2 10.82 2H5.18C4.07876 2 3.52814 2 3.10604 2.21091C2.71862 2.4045 2.4045 2.71862 2.21091 3.10604C2 3.52814 2 4.07876 2 5.18V6H3V5.18C3 4.61316 3.00075 4.24717 3.02315 3.96845C3.04463 3.7011 3.08113 3.6017 3.10546 3.55302C3.20225 3.35931 3.35931 3.20225 3.55302 3.10546C3.6017 3.08113 3.7011 3.04463 3.96845 3.02315C4.24717 3.00075 4.61316 3 5.18 3Z" fill="#2B2B2B"/>
<defs>
<linearGradient id="paint0_linear" x1="0.5" y1="0" x2="0.5" y2="12" gradientUnits="userSpaceOnUse">
<stop stop-color="#EB4242"/>
<stop offset="1" stop-color="#EB4242" stop-opacity="0"/>
</linearGradient>
</defs>
</svg>
