<svg width="61" height="60" viewBox="0 0 61 60" fill="none" xmlns="http://www.w3.org/2000/svg">
<g clip-path="url(#clip0_779_14667)">
<path d="M0.5 8C0.5 3.58172 4.08172 0 8.5 0H52.5C56.9183 0 60.5 3.58172 60.5 8V52C60.5 56.4183 56.9183 60 52.5 60H8.5C4.08172 60 0.5 56.4183 0.5 52V8Z" fill="#FFD300"/>
<path d="M44.0933 17.2103C42.5124 17.9642 40.9649 18.7757 39.4537 19.6449C39.325 19.7189 39.1629 19.6996 39.0556 19.597L31.9433 12.787C30.9067 11.7936 29.29 11.7336 28.1833 12.647L20.2366 19.1927C20.1269 19.283 19.9721 19.2938 19.8505 19.2202C18.7654 18.5626 17.6593 17.941 16.5267 17.3636C14.6867 16.4203 12.5 17.757 12.5 19.8236V31.3903C12.5 40.3203 19.7367 47.557 28.6667 47.557H31.6667C40.5967 47.557 47.8333 40.3203 47.8333 31.3903V19.5703C47.8333 17.647 45.8267 16.3836 44.0933 17.2103ZM29.6481 17.9186C29.7785 17.8112 29.9686 17.8183 30.0906 17.9351L34.5837 22.2366C34.7365 22.3829 34.7161 22.6326 34.5423 22.7533C32.8661 23.9169 31.2416 25.1527 29.6782 26.4584C29.5494 26.5659 29.3608 26.5619 29.2373 26.4483L28.25 25.5403C27.1068 24.4857 25.916 23.4845 24.6877 22.5364C24.5175 22.405 24.5125 22.1492 24.6784 22.0125L29.6481 17.9186ZM17.5 31.387V24.2406C17.5 23.9797 17.7859 23.8204 18.0063 23.9599C20.4411 25.5019 22.7366 27.2588 24.86 29.217L25.4708 29.7786C25.6116 29.9081 25.6147 30.1292 25.4784 30.2634C23.3497 32.3589 21.3556 34.5965 19.5088 36.966C19.3664 37.1488 19.0856 37.1358 18.9702 36.9348C18.0323 35.3008 17.4967 33.4062 17.4967 31.387H17.5ZM42.8333 31.387C42.8333 37.5536 37.8333 42.5536 31.6667 42.5536H28.6667C26.6017 42.5536 24.6658 41.9909 23.0038 41.0131C22.8938 40.9484 22.8664 40.8022 22.9433 40.7003C28.1957 33.7777 34.7985 28.014 42.3364 23.7531C42.5575 23.6281 42.83 23.7886 42.83 24.0425V31.387H42.8333Z" fill="white"/>
</g>
<defs>
<clipPath id="clip0_779_14667">
<rect width="60" height="60" fill="white" transform="translate(0.5)"/>
</clipPath>
</defs>
</svg>
