<svg width="55" height="55" viewBox="0 0 55 55" fill="none" xmlns="http://www.w3.org/2000/svg">
<circle cx="27.5" cy="27.5" r="27.5" fill="#C6E3FC"/>
<path fill-rule="evenodd" clip-rule="evenodd" d="M30.7489 14.0159C31.1394 13.6254 31.7726 13.6254 32.1631 14.0159L39.9531 21.8059C40.3436 22.1964 40.3436 22.8296 39.9531 23.2201C39.5626 23.6106 38.9294 23.6106 38.5389 23.2201L30.7489 15.4301C30.3583 15.0396 30.3583 14.4064 30.7489 14.0159Z" fill="#444444"/>
<path fill-rule="evenodd" clip-rule="evenodd" d="M21.1467 15.1281C23.6455 14.3509 26.1966 14.5456 28.6405 15.4308C29.1598 15.6188 29.4283 16.1923 29.2402 16.7115C29.0521 17.2308 28.4787 17.4993 27.9594 17.3112C25.8534 16.5484 23.7545 16.4115 21.7407 17.0379C19.9137 17.6061 18.0797 18.8267 16.3361 20.9235L19.8719 24.4677C20.262 24.8587 20.2612 25.4919 19.8702 25.882C19.4792 26.272 18.8461 26.2712 18.456 25.8803L14.292 21.7063C13.9399 21.3533 13.9016 20.7948 14.2022 20.397C16.3 17.6217 18.6504 15.9046 21.1467 15.1281Z" fill="#444444"/>
<path fill-rule="evenodd" clip-rule="evenodd" d="M37.2884 24.7598C37.8077 24.5717 38.3811 24.8402 38.5692 25.3594C39.4544 27.8034 39.649 30.3545 38.8719 32.8532C38.0954 35.3496 36.3783 37.7 33.603 39.7977C33.2052 40.0984 32.6467 40.0601 32.2937 39.708L28.1197 35.544C27.7287 35.1539 27.728 34.5207 28.118 34.1297C28.5081 33.7387 29.1412 33.738 29.5322 34.128L33.0765 37.6638C35.1733 35.9203 36.3939 34.0863 36.9621 32.2593C37.5884 30.2455 37.4516 28.1466 36.6887 26.0405C36.5007 25.5213 36.7692 24.9478 37.2884 24.7598Z" fill="#444444"/>
<path fill-rule="evenodd" clip-rule="evenodd" d="M42.3647 11.6385C42.5652 11.8399 42.6705 12.117 42.6544 12.4007C42.1234 21.7507 37.809 28.1384 33.6381 32.1727C31.5559 34.1866 29.5075 35.617 27.9767 36.5457C27.2107 37.0104 26.5722 37.3507 26.1213 37.5765C25.8957 37.6894 25.7169 37.7738 25.5922 37.831C25.5298 37.8595 25.4809 37.8813 25.4465 37.8964L25.4059 37.914L25.3939 37.9192L25.39 37.9208L25.3886 37.9214C25.3886 37.9214 25.3876 37.9218 25 37L25.3876 37.9218C25.0129 38.0793 24.5802 37.9945 24.2929 37.7071L16.2929 29.7071C16.0071 29.4213 15.9214 28.9915 16.0758 28.618L17 29C16.0758 28.618 16.0763 28.6169 16.0763 28.6169L16.0768 28.6155L16.0785 28.6116L16.0835 28.5996L16.101 28.5587C16.1159 28.5241 16.1375 28.4749 16.1657 28.4122C16.2223 28.2869 16.3059 28.1071 16.4178 27.8804C16.6416 27.4272 16.9791 26.7857 17.4408 26.0163C18.3634 24.4787 19.7867 22.422 21.7963 20.334C25.8226 16.1508 32.2126 11.8355 41.6039 11.3454C41.8876 11.3305 42.1642 11.4371 42.3647 11.6385ZM18.2009 28.7867L25.2102 35.796C25.2154 35.7934 25.2206 35.7908 25.2258 35.7882C25.6336 35.584 26.2242 35.2696 26.9394 34.8357C28.3711 33.9672 30.2942 32.6245 32.2476 30.7351C35.9765 27.1284 39.8089 21.5403 40.5721 13.4229C32.4205 14.1517 26.8337 17.9843 23.2374 21.7209C21.3533 23.6785 20.0182 25.608 19.1558 27.0453C18.725 27.7633 18.4133 28.3564 18.2111 28.766C18.2076 28.7729 18.2042 28.7798 18.2009 28.7867Z" fill="#444444"/>
<path fill-rule="evenodd" clip-rule="evenodd" d="M29.5 23C28.6715 23 28 23.6716 28 24.5C28 25.3284 28.6715 26 29.5 26C30.3284 26 31 25.3284 31 24.5C31 23.6716 30.3284 23 29.5 23ZM26 24.5C26 22.567 27.567 21 29.5 21C31.433 21 33 22.567 33 24.5C33 26.433 31.433 28 29.5 28C27.567 28 26 26.433 26 24.5Z" fill="#444444"/>
<path fill-rule="evenodd" clip-rule="evenodd" d="M14.5809 36.5914C14.4578 36.718 14.2666 37.0488 14.0614 37.6337C13.8668 38.1883 13.7005 38.8481 13.5648 39.4972C13.4796 39.9049 13.4083 40.2997 13.3505 40.6495C13.7003 40.5917 14.0951 40.5203 14.5028 40.4351C15.1519 40.2995 15.8117 40.1332 16.3663 39.9386C16.9512 39.7333 17.282 39.5422 17.4086 39.4191C17.7686 39.0427 17.9676 38.5405 17.963 38.0195C17.9585 37.4951 17.7481 36.9935 17.3773 36.6226C17.0065 36.2518 16.5049 36.0415 15.9805 36.0369C15.4594 36.0324 14.9573 36.2314 14.5809 36.5914ZM12.172 41.828C11.1782 41.7167 11.1782 41.7165 11.1782 41.7165L11.1788 41.7116L11.1801 41.6995L11.1853 41.6557C11.1898 41.618 11.1964 41.5634 11.2053 41.4942C11.2229 41.3557 11.2492 41.1581 11.2845 40.9178C11.3549 40.4385 11.4617 39.7839 11.6071 39.088C11.7517 38.3963 11.9389 37.642 12.1742 36.9714C12.3962 36.3389 12.7091 35.6343 13.1722 35.1716L13.1843 35.1597C13.9387 34.4311 14.9491 34.0279 15.9979 34.037C17.0467 34.0461 18.0499 34.4668 18.7915 35.2084C19.5332 35.9501 19.9538 36.9533 19.963 38.0021C19.9721 39.0509 19.5689 40.0613 18.8403 40.8157L18.8284 40.8278C18.3657 41.2909 17.6611 41.6038 17.0285 41.8257C16.358 42.0611 15.6037 42.2483 14.9119 42.3928C14.2161 42.5383 13.5614 42.6451 13.0821 42.7155C12.8419 42.7508 12.6443 42.7771 12.5058 42.7947C12.4366 42.8035 12.382 42.8102 12.3443 42.8147L12.3004 42.8198L12.2884 42.8212L12.2839 42.8217C12.2839 42.8217 12.2833 42.8218 12.172 41.828ZM12.172 41.828L12.2839 42.8217C11.9817 42.8556 11.6799 42.7501 11.4649 42.5351C11.2499 42.3201 11.1444 42.0187 11.1782 41.7165L12.172 41.828Z" fill="#444444"/>
</svg>
