<svg width="16" height="16" viewBox="0 0 16 16" fill="none" xmlns="http://www.w3.org/2000/svg">
<path d="M11.59 6.14C12.49 5.09 13 3.66 13 2.18V2H14V1H13H8H3H2V2H3V2.18C3 3.67 3.51 5.09 4.41 6.15L5.83 7.8C5.93 7.91 5.93 8.08 5.83 8.2L4.41 9.86C3.51 10.91 3 12.34 3 13.82V14H2V15H3H8H13H14V14H13V13.82C13 12.33 12.49 10.91 11.59 9.85L10.17 8.19C10.07 8.08 10.07 7.91 10.17 7.8L11.59 6.14ZM9.41 8.85L10.83 10.51C11.57 11.37 12 12.58 12 13.82V14H11L8.33 10C8.18 9.76 7.82 9.76 7.67 10L5 14H4V13.82C4 12.58 4.43 11.37 5.17 10.5L6.59 8.84C7.01 8.35 7.01 7.63 6.59 7.14L5.17 5.49C4.43 4.63 4 3.42 4 2.18V2H8H12V2.18C12 3.42 11.57 4.63 10.83 5.5L9.41 7.16C8.99 7.64 8.99 8.36 9.41 8.85Z" fill="#2B2B2B"/>
<path d="M9.43 4H6.57C6.32 4 6.18 4.27 6.31 4.47L7.74 6.62C7.86 6.8 8.12 6.8 8.24 6.62L9.67 4.47C9.82 4.27 9.68 4 9.43 4Z" fill="#2B2B2B"/>
</svg>
