<svg width="16" height="16" viewBox="0 0 16 16" fill="none" xmlns="http://www.w3.org/2000/svg">
<rect x="3.5" y="0.5" width="9" height="15" stroke="#7D8D9D"/>
<rect x="6" y="2" width="4" height="1" fill="#7D8D9D"/>
<rect x="5" y="4" width="4" height="1" fill="#7D8D9D"/>
<rect x="5" y="6" width="3" height="1" fill="#7D8D9D"/>
<rect x="5" y="8" width="3" height="1" fill="#00B615"/>
<rect x="5" y="10" width="3" height="1" fill="#00B615"/>
<rect x="10" y="4" width="1" height="1" fill="#7D8D9D"/>
<rect x="10" y="6" width="1" height="1" fill="#7D8D9D"/>
<rect x="10" y="8" width="1" height="1" fill="#00B615"/>
<rect x="10" y="10" width="1" height="1" fill="#00B615"/>
<path fill-rule="evenodd" clip-rule="evenodd" d="M7 12H6V13H7V14H6V15H7V16H8H9H10V15V14H9V13H10V12H9V13H8H7V12ZM7 15H8V14H7V15Z" fill="#7D8D9D"/>
</svg>
