<svg width="60" height="60" viewBox="0 0 60 60" fill="none" xmlns="http://www.w3.org/2000/svg">
<g clip-path="url(#clip0_690_18887)">
<path d="M0 8C0 3.58172 3.58172 0 8 0H52C56.4183 0 60 3.58172 60 8V52C60 56.4183 56.4183 60 52 60H8C3.58172 60 0 56.4183 0 52V8Z" fill="#2C52D8"/>
<path fill-rule="evenodd" clip-rule="evenodd" d="M17 18.7143C17 17.7938 17.7462 17.0476 18.6667 17.0476H23.2301C24.6108 17.0476 25.7301 15.9177 25.7301 14.5238C25.7301 13.1299 24.6108 12 23.2301 12H14.8333C13.2685 12 12 13.2806 12 14.8603V44.473C12 46.0527 13.2685 47.3333 14.8333 47.3333H44.5C46.0648 47.3333 47.3333 46.0527 47.3333 44.473V22.6894C47.3333 20.4021 44.8058 19.04 42.9233 20.3129L36.3534 24.7552C36.132 24.9049 35.8333 24.7463 35.8333 24.4791V22.7387C35.8333 20.3713 33.1471 19.0287 31.2822 20.464L26.2667 24.3242C26.0475 24.4929 25.7301 24.3366 25.7301 24.06V22.1794C25.7301 20.7855 24.6108 19.6556 23.2301 19.6556C21.8494 19.6556 20.7301 20.7855 20.7301 22.1794V29.1552C20.7301 31.5226 23.4163 32.8652 25.2812 31.4299L30.2967 27.5698C30.5159 27.4011 30.8333 27.5573 30.8333 27.8339V29.2045C30.8333 31.4918 33.3609 32.8539 35.2434 31.581L41.8133 27.1387C42.0347 26.989 42.3333 27.1476 42.3333 27.4148V40.619C42.3333 41.5395 41.5871 42.2857 40.6667 42.2857H18.6667C17.7462 42.2857 17 41.5395 17 40.619V18.7143Z" fill="white"/>
</g>
<defs>
<clipPath id="clip0_690_18887">
<rect width="60" height="60" fill="white"/>
</clipPath>
</defs>
</svg>
