<svg width="16" height="16" viewBox="0 0 16 16" fill="none" xmlns="http://www.w3.org/2000/svg">
<g clip-path="url(#clip0_705_17)">
<path d="M15.9583 6.13741C15.9071 5.97886 15.8104 5.83887 15.6802 5.73489C15.5501 5.63092 15.3922 5.56756 15.2262 5.55271L10.6082 5.13335L8.78209 0.859181C8.6474 0.545954 8.34077 0.343262 8.00007 0.343262C7.65937 0.343262 7.35271 0.545986 7.21808 0.859962L5.39197 5.13338L0.7732 5.55271C0.607451 5.56789 0.449802 5.63139 0.3198 5.73532C0.189799 5.83926 0.0931609 5.97907 0.0418688 6.13741C-0.0634776 6.46142 0.0338061 6.81677 0.290531 7.04078L3.78125 10.1021L2.75191 14.6363C2.67659 14.9697 2.80597 15.3143 3.0826 15.5142C3.23126 15.6217 3.40524 15.6764 3.58065 15.6764C3.7319 15.6764 3.8819 15.6356 4.01659 15.555L8.00007 13.1742L11.9821 15.555C12.2735 15.7303 12.6408 15.7143 12.9168 15.5142C13.0519 15.4164 13.1553 15.2811 13.2141 15.125C13.2729 14.9689 13.2845 14.7989 13.2475 14.6363L12.2182 10.1021L15.7089 7.0414C15.8345 6.93173 15.925 6.78758 15.9694 6.62687C16.0137 6.46615 16.0099 6.29595 15.9583 6.13741Z" fill="#FFC107"/>
</g>
<defs>
<clipPath id="clip0_705_17">
<rect width="16" height="16" fill="white"/>
</clipPath>
</defs>
</svg>
