<svg width="32" height="32" viewBox="0 0 32 32" fill="none" xmlns="http://www.w3.org/2000/svg">
<path fill-rule="evenodd" clip-rule="evenodd" d="M22 3H10V13H19.6712L17.6712 15H8H6V13H8V10H5C4.44772 10 4 10.4477 4 11V19H13.6712L11.6712 21H4V27C4 27.5523 4.44772 28 5 28H27C27.5523 28 28 27.5523 28 27V21H14.4996L16.4996 19H28V11C28 10.4477 27.5523 10 27 10H25.4996L27.4639 8.03566C28.9005 8.25867 30 9.50093 30 11V19V21V27C30 28.6569 28.6569 30 27 30H5C3.34315 30 2 28.6569 2 27V21V19V11C2 9.34315 3.34315 8 5 8H8V1H24V8H24.6712L22 10.6712V3ZM24 11.4996L20.4996 15H24H26V13H24V11.4996Z" fill="#BFBFBF"/>
<path fill-rule="evenodd" clip-rule="evenodd" d="M30 16C30 23.732 23.732 30 16 30C12.5483 30 9.38832 28.7508 6.94752 26.6799L26.6799 6.94752C28.7508 9.38832 30 12.5483 30 16ZM5.51813 25.2809L25.2809 5.51813C22.8104 3.32906 19.5604 2 16 2C8.26801 2 2 8.26801 2 16C2 19.5604 3.32906 22.8104 5.51813 25.2809ZM32 16C32 24.8366 24.8366 32 16 32C7.16344 32 0 24.8366 0 16C0 7.16344 7.16344 0 16 0C24.8366 0 32 7.16344 32 16Z" fill="#D20A11"/>
</svg>
