<svg width="16" height="16" viewBox="0 0 16 16" fill="none" xmlns="http://www.w3.org/2000/svg">
<rect x="1" y="8" width="14" height="8" fill="#FFFFB4"/>
<rect x="1" y="8" width="14" height="8" fill="url(#paint0_linear)" fill-opacity="0.9"/>
<rect x="2" y="9" width="12" height="6" fill="#FFFFB4"/>
<rect x="2" y="9" width="12" height="6" fill="url(#paint1_linear)" fill-opacity="0.9"/>
<path d="M8.83235 12.4422C8.6348 12.6168 8.41368 12.7041 8.16901 12.7041C7.81015 12.7041 7.5256 12.5847 7.31536 12.346C7.10512 12.1073 7 11.7885 7 11.3894C7 11.1401 7.0589 10.9085 7.17671 10.6947C7.29452 10.481 7.45945 10.3117 7.6715 10.187C7.88536 10.0623 8.12098 10 8.37834 10C8.63933 10 8.87494 10.065 9.08518 10.1951C9.29724 10.3233 9.46217 10.5059 9.57997 10.7428C9.69778 10.978 9.7585 11.2496 9.76212 11.5578V11.9025C9.76212 12.3318 9.67603 12.7041 9.50385 13.0194C9.33348 13.3347 9.08971 13.5769 8.77254 13.7462C8.45537 13.9154 8.08564 14 7.66334 14H7.60625V13.2786L7.78025 13.2759C8.41097 13.2456 8.76167 12.9677 8.83235 12.4422ZM8.4164 12.0548C8.61577 12.0548 8.75895 11.9702 8.84595 11.8009V11.4269C8.84595 11.1775 8.80335 10.9931 8.71817 10.8737C8.63299 10.7544 8.5179 10.6947 8.3729 10.6947C8.24422 10.6947 8.13638 10.7624 8.04939 10.8978C7.96239 11.0332 7.91889 11.1971 7.91889 11.3894C7.91889 11.5925 7.9633 11.7546 8.05211 11.8758C8.14092 11.9951 8.26235 12.0548 8.4164 12.0548Z" fill="#495D6C"/>
<path d="M13 12.3567C13 12.8822 12.8795 13.2875 12.6384 13.5725C12.3992 13.8575 12.0612 14 11.6244 14C11.184 14 10.8432 13.8566 10.6022 13.5698C10.3611 13.283 10.2406 12.8786 10.2406 12.3567V11.646C10.2406 11.1205 10.3602 10.7152 10.5995 10.4302C10.8405 10.1452 11.1803 10.0027 11.6189 10.0027C12.0575 10.0027 12.3974 10.1461 12.6384 10.4329C12.8795 10.7197 13 11.1249 13 11.6486V12.3567ZM12.0838 11.5311C12.0838 11.2514 12.0467 11.043 11.9724 10.9058C11.8981 10.7669 11.7802 10.6974 11.6189 10.6974C11.4613 10.6974 11.3462 10.7615 11.2737 10.8898C11.203 11.018 11.1649 11.2122 11.1595 11.4723V12.4663C11.1595 12.7566 11.1966 12.9695 11.271 13.1049C11.3453 13.2385 11.4631 13.3053 11.6244 13.3053C11.7802 13.3053 11.8953 13.2403 11.9696 13.1102C12.044 12.9784 12.082 12.7727 12.0838 12.493V11.5311Z" fill="#495D6C"/>
<path d="M5 14H3.99104V11.044L3 11.3104V10.6071L4.90746 10H5V14Z" fill="#495D6C"/>
<path d="M6.5 13C6.64337 13 6.76254 13.0473 6.85753 13.142C6.95251 13.2347 7 13.354 7 13.5C7 13.646 6.95251 13.7663 6.85753 13.8609C6.76254 13.9536 6.64337 14 6.5 14C6.35484 14 6.23477 13.9527 6.13978 13.858C6.04659 13.7633 6 13.644 6 13.5C6 13.356 6.04659 13.2367 6.13978 13.142C6.23477 13.0473 6.35484 13 6.5 13Z" fill="#495D6C"/>
<path d="M8.90965 7L9.40008 5.71429H12.1672L12.6576 7H13.5664L11.2783 1H10.289L8 7H8.90965ZM10.7836 2.08514L11.8404 4.85714H9.72689L10.7836 2.08514Z" fill="#263B49"/>
<defs>
<linearGradient id="paint0_linear" x1="8" y1="8" x2="8" y2="16" gradientUnits="userSpaceOnUse">
<stop stop-color="#9FBBC6"/>
<stop offset="1" stop-color="#576E7C"/>
</linearGradient>
<linearGradient id="paint1_linear" x1="8" y1="9" x2="8" y2="15" gradientUnits="userSpaceOnUse">
<stop stop-color="#FFFFE3"/>
<stop offset="1" stop-color="#FED868"/>
</linearGradient>
</defs>
</svg>
