<svg width="126" height="150" viewBox="0 0 126 150" fill="none" xmlns="http://www.w3.org/2000/svg">
<path d="M74 29H24V32H74V29Z" fill="#2B2B2B"/>
<path d="M56 49.302H13V52.302H56V49.302Z" fill="#2B2B2B"/>
<path d="M86 49.302H76V52.302H86V49.302Z" fill="#2B2B2B"/>
<path d="M111 0H15C11.0218 0 7.2066 1.58033 4.39355 4.39337C1.58051 7.20642 0 11.0218 0 15V150H99V96.3L96 101.1V147H3V15C3.00344 11.8185 4.26886 8.76818 6.51855 6.51849C8.76825 4.2688 11.8185 3.00344 15 3H102.027C100.157 4.39237 98.6382 6.2025 97.5918 8.28595C96.5454 10.3694 96.0003 12.6685 96 15V68.935L98.752 64.535L99 64.69V23.967C99.019 23.993 99.0362 24.02 99.0552 24.046V16.078C99.0232 15.722 99 15.364 99 15C99 11.8174 100.264 8.76515 102.515 6.51471C104.765 4.26427 107.817 3 111 3C114.183 3 117.235 4.26427 119.485 6.51471C121.736 8.76515 123 11.8174 123 15V29H102V32H126V15C126 11.0218 124.419 7.20642 121.606 4.39337C118.793 1.58033 114.978 0 111 0Z" fill="#2B2B2B"/>
<path d="M53 59.302H13V62.302H53V59.302Z" fill="#2B2B2B"/>
<path d="M86 59.302H76V62.302H86V59.302Z" fill="#2B2B2B"/>
<path d="M50 69.302H13V72.302H50V69.302Z" fill="#2B2B2B"/>
<path d="M86 69.302H76V72.302H86V69.302Z" fill="#2B2B2B"/>
<path d="M57 79.302H13V82.302H57V79.302Z" fill="#2B2B2B"/>
<path d="M54 89.302H13V92.302H54V89.302Z" fill="#2B2B2B"/>
<path d="M52 99.302H13V102.302H52V99.302Z" fill="#2B2B2B"/>
<path d="M55 109.302H13V112.302H55V109.302Z" fill="#2B2B2B"/>
<path d="M50 119.302H13V122.302H50V119.302Z" fill="#2B2B2B"/>
<path d="M76 82.3H81.2129L83.0879 79.3H76V82.3Z" fill="#2B2B2B"/>
<path d="M123.855 44.2411L115.777 39.2181C115.393 38.9787 114.965 38.8174 114.518 38.7435C114.071 38.6696 113.614 38.6844 113.173 38.7872C112.732 38.8901 112.316 39.0788 111.948 39.3427C111.58 39.6065 111.268 39.9404 111.029 40.3251L70.6519 105.246C70.1527 106.049 69.7759 106.921 69.5332 107.834L63 132.409L82.6411 116.109C83.43 115.455 84.1082 114.679 84.6499 113.809L124.962 48.9921C125.201 48.6075 125.363 48.1795 125.437 47.7325C125.51 47.2855 125.496 46.8284 125.393 46.3872C125.29 45.9459 125.101 45.5293 124.837 45.1611C124.573 44.7928 124.24 44.4802 123.855 44.2411ZM68.313 124.1L70.686 115.173C72.5114 115.758 74.1762 116.758 75.5508 118.094L68.313 124.1ZM122.413 47.4001L82.1001 112.223C81.7287 112.82 81.2638 113.353 80.7231 113.802L77.8599 116.177C76.0778 114.37 73.8777 113.03 71.4541 112.277L72.4292 108.61C72.5955 107.983 72.8539 107.385 73.1968 106.834L109.56 48.3651L116.112 52.4401C116.223 52.5091 116.346 52.5557 116.475 52.577C116.604 52.5984 116.736 52.5941 116.863 52.5645C116.99 52.5348 117.11 52.4805 117.216 52.4044C117.322 52.3283 117.412 52.232 117.481 52.121L117.561 51.9911C117.7 51.7674 117.745 51.4975 117.686 51.2407C117.626 50.984 117.467 50.7615 117.243 50.6221L110.691 46.548L113.573 41.9131C113.614 41.8483 113.671 41.7948 113.738 41.7578C113.805 41.7207 113.88 41.7012 113.957 41.7011C114.04 41.7007 114.121 41.7243 114.19 41.7691L122.268 46.7931C122.369 46.8562 122.44 46.9564 122.467 47.0719C122.494 47.1875 122.474 47.309 122.412 47.41L122.413 47.4001Z" fill="#00A358"/>
<path d="M19 129.302H13V132.302H19V129.302Z" fill="#00A358"/>
<path d="M29 129.302H23V132.302H29V129.302Z" fill="#00A358"/>
<path d="M39 129.302H33V132.302H39V129.302Z" fill="#00A358"/>
<path d="M49 129.302H43V132.302H49V129.302Z" fill="#00A358"/>
<path d="M59 129.302H53V132.302H59V129.302Z" fill="#00A358"/>
</svg>
