<svg width="16" height="16" viewBox="0 0 16 16" fill="none" xmlns="http://www.w3.org/2000/svg">
<g clip-path="url(#clip0_604_2)">
<path d="M12.1524 1.51038L11.752 2.20404L14.35 3.70404L14.7505 3.01038C15.0267 2.53209 14.8628 1.9205 14.3845 1.64436L13.5185 1.14436C13.0402 0.868216 12.4286 1.03209 12.1524 1.51038Z" fill="#4D5965"/>
<path fill-rule="evenodd" clip-rule="evenodd" d="M10.3867 2.57007L11.2872 1.01039C11.8395 0.0537988 13.0627 -0.273949 14.0193 0.278335L14.8853 0.778335C15.8419 1.33062 16.1696 2.5538 15.6173 3.51039L14.7168 5.07007L10.3867 2.57007ZM14.7513 3.01039L14.3508 3.70404L11.7527 2.20404L12.1532 1.51039C12.1873 1.45136 12.2265 1.39713 12.2699 1.34792C12.5783 0.998349 13.1 0.902294 13.5193 1.14436L14.3853 1.64436C14.8045 1.88643 14.9822 2.38626 14.8337 2.82811C14.8128 2.89031 14.7854 2.95136 14.7513 3.01039Z" fill="#4D5965"/>
<path d="M10.9289 3.6265L7.42383 9.69739L10.0219 11.1974L13.5269 5.1265L10.9289 3.6265Z" fill="#5596D8"/>
<path fill-rule="evenodd" clip-rule="evenodd" d="M6.05859 10.0634L10.5636 2.26048L14.8938 4.76048L10.3887 12.5634L6.05859 10.0634ZM10.9296 3.6265L13.5277 5.1265L10.0227 11.1974L7.42462 9.69739L10.9296 3.6265Z" fill="#4D5965"/>
<path d="M9.98688 12.5012L6.55877 14.1962L6.31265 10.3799L7.90364 7.62418L8.68009 10.522L11.5779 9.7455L9.98688 12.5012Z" fill="#90AFC3"/>
<path fill-rule="evenodd" clip-rule="evenodd" d="M7.968 7.12844C8.1685 7.15484 8.33336 7.29942 8.3857 7.49476L9.03275 9.90957L11.4476 9.26252C11.6429 9.21018 11.8505 9.28067 11.9737 9.44111C12.0968 9.60155 12.1111 9.82035 12.01 9.99549L10.419 12.7512C10.3696 12.8367 10.2961 12.9056 10.2076 12.9494L6.77949 14.6444C6.62963 14.7185 6.45266 14.7128 6.30788 14.6292C6.1631 14.5456 6.06967 14.3952 6.05891 14.2284L5.81279 10.412C5.80643 10.3135 5.82938 10.2153 5.87874 10.1298L7.46973 7.37417C7.57084 7.19903 7.7675 7.10205 7.968 7.12844ZM6.82046 10.4987L7.00857 13.4156L9.62867 12.1201L10.5404 10.5409L8.80861 11.0049C8.54187 11.0764 8.2677 10.9181 8.19623 10.6514L7.7322 8.91955L6.82046 10.4987Z" fill="#444444"/>
<path fill-rule="evenodd" clip-rule="evenodd" d="M5.6016 15.8539C5.36245 15.7158 5.28052 15.41 5.41859 15.1709L6.12569 13.9461C6.26377 13.707 6.56956 13.6251 6.80871 13.7631C7.04785 13.9012 7.12979 14.207 6.99172 14.4461L6.28461 15.6709C6.14654 15.91 5.84075 15.992 5.6016 15.8539Z" fill="#444444"/>
<path opacity="0.7" fill-rule="evenodd" clip-rule="evenodd" d="M0.0713291 7.74277C0.213403 7.50598 0.520533 7.42919 0.757323 7.57127C1.3818 7.94596 1.83989 8.25624 2.14026 8.56602C2.46805 8.90407 2.62502 9.25924 2.62498 9.68756C2.62495 10.0341 2.51732 10.4164 2.40666 10.8094C2.40029 10.832 2.39392 10.8547 2.38755 10.8773C2.26354 11.3191 2.11343 11.8601 1.99308 12.5822C1.81944 13.6241 2.14418 14.188 2.5415 14.513C2.97605 14.8686 3.57631 15 3.99988 15C4.27603 15 4.49988 15.2239 4.49988 15.5C4.49988 15.7762 4.27603 16 3.99988 16C3.42346 16 2.57372 15.8315 1.90826 15.287C1.20558 14.7121 0.780333 13.7759 1.00669 12.4178C1.13634 11.6399 1.29876 11.0559 1.42477 10.6071C1.55779 10.1333 1.62496 9.88346 1.62498 9.68747C1.62499 9.55329 1.59451 9.43971 1.42233 9.26214C1.22274 9.05629 0.868349 8.80407 0.242828 8.42876C0.00603756 8.28669 -0.070745 7.97956 0.0713291 7.74277Z" fill="black"/>
</g>
<defs>
<clipPath id="clip0_604_2">
<rect width="16" height="16" fill="white"/>
</clipPath>
</defs>
</svg>
