<svg width="40" height="35" viewBox="0 0 40 35" fill="none" xmlns="http://www.w3.org/2000/svg">
<path d="M17.5 34C26.6127 34 34 26.6127 34 17.5C34 8.3873 26.6127 1 17.5 1C8.3873 1 1 8.3873 1 17.5C1 26.6127 8.3873 34 17.5 34Z" stroke="#2B2B2B" stroke-width="2" stroke-linecap="round" stroke-linejoin="round"/>
<path d="M11.2109 17.2773C12.7211 17.2773 13.9453 16.0531 13.9453 14.543C13.9453 13.0328 12.7211 11.8086 11.2109 11.8086C9.70078 11.8086 8.47656 13.0328 8.47656 14.543C8.47656 16.0531 9.70078 17.2773 11.2109 17.2773Z" fill="#2B2B2B"/>
<path d="M23.7891 17.2773C25.2992 17.2773 26.5234 16.0531 26.5234 14.543C26.5234 13.0328 25.2992 11.8086 23.7891 11.8086C22.2789 11.8086 21.0547 13.0328 21.0547 14.543C21.0547 16.0531 22.2789 17.2773 23.7891 17.2773Z" fill="#2B2B2B"/>
<path d="M17.5 21.7627C15.0177 21.7627 13.0801 23.435 12.1209 25.3125C11.8633 25.8145 12.2051 26.3586 12.5847 26.0453C15.7527 23.4197 19.2669 23.4361 22.4158 26.0453C22.7948 26.3586 23.1366 25.8145 22.8796 25.3125C21.9198 23.435 19.9811 21.7627 17.5 21.7627Z" fill="#2B2B2B"/>
</svg>
