<svg width="24" height="24" viewBox="0 0 24 24" fill="none" xmlns="http://www.w3.org/2000/svg">
<path d="M15.5078 9.35156L14.1094 9.46094C13.9844 8.90885 13.8073 8.50781 13.5781 8.25781C13.1979 7.85677 12.7292 7.65625 12.1719 7.65625C11.724 7.65625 11.3307 7.78125 10.9922 8.03125C10.5495 8.35417 10.2005 8.82552 9.94531 9.44531C9.6901 10.0651 9.55729 10.9479 9.54688 12.0938C9.88542 11.5781 10.2995 11.1953 10.7891 10.9453C11.2786 10.6953 11.7917 10.5703 12.3281 10.5703C13.2656 10.5703 14.0625 10.9167 14.7188 11.6094C15.3802 12.2969 15.7109 13.1875 15.7109 14.2812C15.7109 15 15.5547 15.6693 15.2422 16.2891C14.9349 16.9036 14.5104 17.375 13.9688 17.7031C13.4271 18.0312 12.8125 18.1953 12.125 18.1953C10.9531 18.1953 9.9974 17.7656 9.25781 16.9062C8.51823 16.0417 8.14844 14.6198 8.14844 12.6406C8.14844 10.4271 8.55729 8.81771 9.375 7.8125C10.0885 6.9375 11.0495 6.5 12.2578 6.5C13.1589 6.5 13.8958 6.7526 14.4688 7.25781C15.0469 7.76302 15.3932 8.46094 15.5078 9.35156ZM9.76562 14.2891C9.76562 14.7734 9.86719 15.237 10.0703 15.6797C10.2786 16.1224 10.5677 16.4609 10.9375 16.6953C11.3073 16.9245 11.6953 17.0391 12.1016 17.0391C12.6953 17.0391 13.2057 16.7995 13.6328 16.3203C14.0599 15.8411 14.2734 15.1901 14.2734 14.3672C14.2734 13.5755 14.0625 12.9531 13.6406 12.5C13.2188 12.0417 12.6875 11.8125 12.0469 11.8125C11.4115 11.8125 10.8724 12.0417 10.4297 12.5C9.98698 12.9531 9.76562 13.5495 9.76562 14.2891Z" fill="#B2B2B2"/>
</svg>
